<svg width="11" height="10" viewBox="0 0 11 10" fill="none" xmlns="http://www.w3.org/2000/svg">
<path d="M10.4229 0.6179C10.3215 0.3733 10.1267 0.1785 9.8821 0.0771C9.7598 0.0265 9.6302 0 9.5 0H1.5C0.947697 0 0.499997 0.4477 0.499997 1C0.499997 1.5522 0.947697 2 1.5 2H7.0858L0.792897 8.2929C0.402297 8.6834 0.402297 9.3166 0.792897 9.7071C1.1834 10.0976 1.8166 10.0976 2.2071 9.7071L8.5 3.4142V9C8.5 9.5522 8.9477 10 9.5 10C10.0523 10 10.5 9.5522 10.5 9V1C10.5 0.8698 10.4735 0.7402 10.4229 0.6179Z" fill="white"/>
</svg>
