
<svg width="40" height="40" viewBox="0 0 40 40" fill="none" xmlns="http://www.w3.org/2000/svg">
    <path fill-rule="evenodd" clip-rule="evenodd" d="M12.9289 11.5146C12.5384 11.124 11.9052 11.124 11.5147 11.5146C11.1242 11.9051 11.1242 12.5383 11.5147 12.9288L18.5858 19.9999L11.5147 27.0711C11.1242 27.4616 11.1242 28.0948 11.5147 28.4853C11.9052 28.8758 12.5384 28.8758 12.9289 28.4853L20.0001 21.4142L27.071 28.4851C27.4616 28.8757 28.0947 28.8757 28.4853 28.4851C28.8758 28.0946 28.8758 27.4614 28.4853 27.0709L21.4143 19.9999L28.4853 12.9289C28.8758 12.5384 28.8758 11.9052 28.4853 11.5147C28.0948 11.1242 27.4616 11.1242 27.0711 11.5147L20.0001 18.5857L12.9289 11.5146Z" fill="#17121F"/>
</svg>
