<svg width="24" height="24" viewBox="0 0 24 24" fill="none" xmlns="http://www.w3.org/2000/svg">
    <g clip-path="url(#clip0_6565_84704)">
        <path d="M15.7637 3.2998H8.23616C5.67984 3.2998 3.6001 5.37964 3.6001 7.93597V15.4635C3.6001 18.02 5.67984 20.0997 8.23616 20.0997H15.7637C18.3203 20.0997 20.4 18.0199 20.4 15.4635V7.93597C20.4001 5.37964 18.3203 3.2998 15.7637 3.2998ZM18.9095 15.4635C18.9095 17.1981 17.4984 18.6091 15.7638 18.6091H8.23616C6.50174 18.6092 5.09067 17.1981 5.09067 15.4635V7.93597C5.09067 6.20154 6.50174 4.79037 8.23616 4.79037H15.7637C17.4983 4.79037 18.9094 6.20154 18.9094 7.93597V15.4635H18.9095Z"
              fill="#17121F"/>
        <path d="M11.9998 7.37109C9.61281 7.37109 7.6709 9.31301 7.6709 11.7C7.6709 14.0869 9.61281 16.0287 11.9998 16.0287C14.3868 16.0287 16.3287 14.0869 16.3287 11.7C16.3287 9.31301 14.3868 7.37109 11.9998 7.37109ZM11.9998 14.538C10.4348 14.538 9.16147 13.2649 9.16147 11.6999C9.16147 10.1348 10.4347 8.86156 11.9998 8.86156C13.5649 8.86156 14.8381 10.1348 14.8381 11.6999C14.8381 13.2649 13.5648 14.538 11.9998 14.538Z"
              fill="#17121F"/>
        <path d="M16.5106 6.10693C16.2234 6.10693 15.9413 6.2232 15.7384 6.42691C15.5346 6.62963 15.4175 6.91184 15.4175 7.20002C15.4175 7.4873 15.5347 7.76941 15.7384 7.97313C15.9412 8.17584 16.2234 8.2931 16.5106 8.2931C16.7987 8.2931 17.08 8.17584 17.2837 7.97313C17.4874 7.76941 17.6036 7.4872 17.6036 7.20002C17.6036 6.91184 17.4874 6.62963 17.2837 6.42691C17.081 6.2232 16.7987 6.10693 16.5106 6.10693Z"
              fill="#17121F"/>
    </g>
    <defs>
        <clipPath id="clip0_6565_84704">
            <rect width="16.8" height="16.8" fill="white" transform="translate(3.6001 3.2998)"/>
        </clipPath>
    </defs>
</svg>
