<svg width="24" height="24" viewBox="0 0 24 24" fill="none" xmlns="http://www.w3.org/2000/svg">
    <path d="M9.78524 8.93154H12.85V10.5021H12.8943C13.3207 9.73677 14.3641 8.93154 15.9203 8.93154C19.1556 8.93154 19.7537 10.9452 19.7537 13.5647V18.9H16.5583V14.1705C16.5583 13.043 16.535 11.5909 14.8968 11.5909C13.2332 11.5909 12.9785 12.8192 12.9785 14.0886V18.9H9.78524V8.93154ZM4.2472 8.93154H7.57002V18.9H4.2472V8.93154ZM7.57002 6.16252C7.56988 6.6033 7.39464 7.02597 7.08285 7.33754C6.77107 7.64912 6.34828 7.82408 5.9075 7.82393C5.46672 7.82378 5.04406 7.64854 4.73248 7.33676C4.42091 7.02498 4.24595 6.60219 4.24609 6.16141C4.24624 5.72063 4.42148 5.29796 4.73326 4.98639C4.88764 4.83211 5.0709 4.70975 5.27256 4.6263C5.47423 4.54284 5.69036 4.49993 5.90861 4.5C6.12686 4.50007 6.34297 4.54313 6.54458 4.62672C6.74619 4.71031 6.92936 4.83279 7.08364 4.98717C7.23791 5.14155 7.36027 5.3248 7.44373 5.52647C7.52718 5.72814 7.5701 5.94427 7.57002 6.16252V6.16252Z"
          fill="#17121F"/>
</svg>
