<svg width="24" height="25" viewBox="0 0 24 25" fill="none" xmlns="http://www.w3.org/2000/svg">
    <path d="M14.5858 7.48032C15.3668 6.69927 16.6331 6.69927 17.4142 7.48032C18.1952 8.26137 18.1952 9.5277 17.4142 10.3087L14.4142 13.3087C13.6331 14.0898 12.3668 14.0898 11.5858 13.3087C11.1952 12.9182 10.5621 12.9182 10.1716 13.3087C9.78103 13.6993 9.78103 14.3324 10.1716 14.723C11.7337 16.2851 14.2663 16.2851 15.8284 14.723L18.8284 11.723C20.3905 10.1609 20.3905 7.6282 18.8284 6.0661C17.2663 4.50401 14.7337 4.50401 13.1716 6.0661L11.6716 7.5661C11.281 7.95663 11.281 8.58979 11.6716 8.98032C12.0621 9.37084 12.6952 9.37084 13.0858 8.98032L14.5858 7.48032Z"
          fill="#911FFF"/>
    <path d="M9.58579 12.4803C10.3668 11.6993 11.6332 11.6993 12.4142 12.4803C12.8047 12.8708 13.4379 12.8708 13.8284 12.4803C14.219 12.0898 14.219 11.4566 13.8284 11.0661C12.2663 9.50401 9.73367 9.50401 8.17157 11.0661L5.17157 14.0661C3.60948 15.6282 3.60948 18.1609 5.17157 19.723C6.73367 21.2851 9.26633 21.2851 10.8284 19.723L12.3284 18.223C12.719 17.8324 12.719 17.1993 12.3284 16.8087C11.9379 16.4182 11.3047 16.4182 10.9142 16.8087L9.41421 18.3087C8.63316 19.0898 7.36684 19.0898 6.58579 18.3087C5.80474 17.5277 5.80474 16.2614 6.58579 15.4803L9.58579 12.4803Z"
          fill="#911FFF"/>
</svg>
