
<svg width="15" height="14" viewBox="0 0 15 14" fill="none" xmlns="http://www.w3.org/2000/svg">
    <path fill-rule="evenodd" clip-rule="evenodd" d="M0.5 1C0.5 0.447715 0.947715 0 1.5 0H5.5C6.05228 0 6.5 0.447715 6.5 1C6.5 1.55228 6.05228 2 5.5 2H3.91421L6.20711 4.29289C6.59763 4.68342 6.59763 5.31658 6.20711 5.70711C5.81658 6.09763 5.18342 6.09763 4.79289 5.70711L2.5 3.41421V5C2.5 5.55228 2.05228 6 1.5 6C0.947715 6 0.5 5.55228 0.5 5V1ZM9.5 2C8.94772 2 8.5 1.55228 8.5 1C8.5 0.447715 8.94772 0 9.5 0H13.5C14.0523 0 14.5 0.447715 14.5 1V5C14.5 5.55228 14.0523 6 13.5 6C12.9477 6 12.5 5.55228 12.5 5V3.41421L10.2071 5.70711C9.81658 6.09763 9.18342 6.09763 8.79289 5.70711C8.40237 5.31658 8.40237 4.68342 8.79289 4.29289L11.0858 2H9.5ZM0.5 9C0.5 8.44772 0.947715 8 1.5 8C2.05228 8 2.5 8.44772 2.5 9V10.5858L4.79289 8.29289C5.18342 7.90237 5.81658 7.90237 6.20711 8.29289C6.59763 8.68342 6.59763 9.31658 6.20711 9.70711L3.91421 12H5.5C6.05228 12 6.5 12.4477 6.5 13C6.5 13.5523 6.05228 14 5.5 14H1.5C0.947715 14 0.5 13.5523 0.5 13V9ZM13.5 8C14.0523 8 14.5 8.44772 14.5 9V13C14.5 13.5523 14.0523 14 13.5 14H9.5C8.94772 14 8.5 13.5523 8.5 13C8.5 12.4477 8.94772 12 9.5 12H11.0858L8.79289 9.70711C8.40237 9.31658 8.40237 8.68342 8.79289 8.29289C9.18342 7.90237 9.81658 7.90237 10.2071 8.29289L12.5 10.5858V9C12.5 8.44772 12.9477 8 13.5 8Z" fill="#17121F"/>
</svg>
