<svg width="13" height="13" viewBox="0 0 13 13" fill="none" xmlns="http://www.w3.org/2000/svg">
<path fill-rule="evenodd" clip-rule="evenodd" d="M0.353553 12.3536C0.158291 12.1583 0.158291 11.8417 0.353553 11.6464L10.9602 1.03985C11.1554 0.844583 11.472 0.844583 11.6673 1.03985C11.8625 1.23511 11.8625 1.55169 11.6673 1.74695L1.06066 12.3536C0.865398 12.5488 0.548816 12.5488 0.353553 12.3536Z" fill="#A5A0AE"/>
<path fill-rule="evenodd" clip-rule="evenodd" d="M6.35355 12.3536C6.15829 12.1583 6.15829 11.8417 6.35355 11.6464L11.3033 6.6967C11.4986 6.50144 11.8151 6.50144 12.0104 6.6967C12.2057 6.89196 12.2057 7.20854 12.0104 7.40381L7.06066 12.3536C6.8654 12.5488 6.54882 12.5488 6.35355 12.3536Z" fill="#A5A0AE"/>
</svg>
