<svg width="24" height="24" viewBox="0 0 24 24" fill="none" xmlns="http://www.w3.org/2000/svg">
    <path d="M20.6399 6.5022C19.9939 6.79737 19.308 6.99008 18.6057 7.07373C19.3455 6.61887 19.8995 5.90423 20.1648 5.06231C19.4689 5.4853 18.708 5.78381 17.9146 5.94508C17.5826 5.58261 17.1816 5.29394 16.7364 5.09694C16.2912 4.89994 15.8114 4.79881 15.3265 4.79981C14.7925 4.79924 14.2652 4.92257 13.7842 5.16059C13.3032 5.3986 12.8808 5.74512 12.5488 6.17423C12.2168 6.60334 11.9837 7.10392 11.867 7.6385C11.7502 8.17309 11.7528 8.72784 11.8746 9.26125C10.4652 9.18861 9.08653 8.81274 7.82796 8.15805C6.56938 7.50335 5.45909 6.58447 4.56916 5.46105C4.11583 6.26112 3.97682 7.20836 4.18043 8.10988C4.38404 9.0114 4.91496 9.79942 5.66509 10.3135C5.10217 10.2948 4.55158 10.1396 4.05845 9.86046V9.90587C4.05825 10.7456 4.34141 11.5596 4.85983 12.2095C5.37825 12.8594 6.09998 13.3052 6.90246 13.4713C6.37967 13.6174 5.83123 13.639 5.29906 13.5344C5.52618 14.2564 5.96713 14.8878 6.56049 15.3406C7.15385 15.7934 7.87011 16.0452 8.60951 16.0608C7.87398 16.6536 7.03168 17.0916 6.13086 17.3499C5.23004 17.6082 4.2884 17.6817 3.35986 17.5661C4.98094 18.6352 6.86803 19.2024 8.79522 19.1998C15.3136 19.1998 18.881 13.6584 18.881 8.85365C18.881 8.69415 18.8777 8.53909 18.8713 8.38292C19.5658 7.87048 20.1646 7.23375 20.6388 6.50331L20.6399 6.5022Z"
          fill="#17121F"/>
</svg>