<svg width="24" height="24" viewBox="0 0 24 24" fill="none" xmlns="http://www.w3.org/2000/svg">
    <g clip-path="url(#clip0_6565_84698)">
        <path fill-rule="evenodd" clip-rule="evenodd"
              d="M19.9427 18.4699C20.8176 18.2331 21.5059 17.5365 21.7399 16.6512C22.1649 15.0467 22.1657 11.6995 22.1657 11.6995C22.1657 11.6995 22.1657 8.35225 21.7408 6.74769C21.5068 5.86238 20.8184 5.16585 19.9436 4.92901C18.3579 4.49903 12.0006 4.49903 12.0006 4.49903C12.0006 4.49903 5.64327 4.49903 4.05762 4.92901C3.18274 5.16585 2.49441 5.86238 2.26036 6.74769C1.83545 8.35225 1.83545 11.6995 1.83545 11.6995C1.83545 11.6995 1.83545 15.0467 2.26036 16.6512C2.49441 17.5365 3.18274 18.2331 4.05762 18.4699C5.64327 18.8999 12.0006 18.8999 12.0006 18.8999C12.0006 18.8999 18.357 18.8999 19.9427 18.4699ZM15.2487 11.6995L9.9675 8.61358V14.7854L15.2487 11.6995Z"
              fill="#17121F"/>
    </g>
    <defs>
        <clipPath id="clip0_6565_84698">
            <rect width="20.3294" height="14.4" fill="white" transform="matrix(1 0 0 -1 1.83545 18.8999)"/>
        </clipPath>
    </defs>
</svg>
