<svg width="768" height="1270" viewBox="0 0 768 1270" fill="none" xmlns="http://www.w3.org/2000/svg">
<g clip-path="url(#clip0_102_771)">
<path d="M263.843 170.632L265.255 172.049L265.257 172.046L263.843 170.632ZM198.262 235.955L196.85 234.538L196.847 234.541L198.262 235.955ZM79.2332 240.345V238.345H78.4048L77.819 238.93L79.2332 240.345ZM14.1678 305.41L12.7536 303.996L12.1678 304.582V305.41H14.1678ZM266.683 346.979L265.178 348.297L265.222 348.347L265.269 348.394L266.683 346.979ZM-32.8239 282.172L-31.4096 283.587L-31.4014 283.578L-32.8239 282.172ZM54.9628 193.353L53.5485 191.939L53.5403 191.947L54.9628 193.353ZM22.4301 81.5541L21.0593 80.0977L21.0373 80.1184L21.0159 80.1399L22.4301 81.5541ZM16.4916 153.333L15.0774 151.918L15.023 151.973L14.9731 152.031L16.4916 153.333ZM-31.2747 153.333L-32.7932 154.634L-32.7432 154.692L-32.6889 154.747L-31.2747 153.333ZM-28.6927 96.013L-30.1069 94.5988L-28.6927 96.013ZM36.889 30.4313L35.4748 29.0171L36.889 30.4313ZM198.778 30.4313L200.192 29.0171L198.778 30.4313ZM262.945 97.4273C265.283 99.7652 266.491 102.765 266.491 106.599H270.491C270.491 101.826 268.944 97.7691 265.774 94.5988L262.945 97.4273ZM266.491 106.599V160.046H270.491V106.599H266.491ZM266.491 160.046C266.491 163.415 265.196 166.45 262.429 169.217L265.257 172.046C268.687 168.616 270.491 164.594 270.491 160.046H266.491ZM262.432 169.215L196.85 234.538L199.673 237.372L265.255 172.049L262.432 169.215ZM196.847 234.541C194.438 236.95 190.571 238.345 184.835 238.345V242.345C191.149 242.345 196.232 240.813 199.676 237.369L196.847 234.541ZM184.835 238.345H79.2332V242.345H184.835V238.345ZM77.819 238.93L12.7536 303.996L15.582 306.824L80.6474 241.759L77.819 238.93ZM12.1678 305.41V329.164H16.1678V305.41H12.1678ZM12.1678 329.164C12.1678 334.722 13.5587 339.258 16.6911 342.391C19.8234 345.523 24.3595 346.914 29.9178 346.914V342.914C24.9761 342.914 21.6371 341.68 19.5195 339.562C17.4019 337.445 16.1678 334.106 16.1678 329.164H12.1678ZM29.9178 346.914H262.036V342.914H29.9178V346.914ZM262.036 346.914C263.376 346.914 264.368 347.37 265.178 348.297L268.189 345.662C266.589 343.834 264.483 342.914 262.036 342.914V346.914ZM265.269 348.394C266.095 349.219 266.491 350.172 266.491 351.369H270.491C270.491 349.123 269.682 347.15 268.098 345.565L265.269 348.394ZM266.491 351.369V389.84H270.491V351.369H266.491ZM266.491 389.84C266.491 391.268 266.056 392.287 265.269 393.073L268.098 395.902C269.721 394.278 270.491 392.199 270.491 389.84H266.491ZM265.269 393.073C264.483 393.86 263.464 394.295 262.036 394.295V398.295C264.395 398.295 266.474 397.525 268.098 395.902L265.269 393.073ZM262.036 394.295H43.3439V398.295H262.036V394.295ZM43.3439 394.295C39.9744 394.295 36.9393 393 34.1721 390.233L31.3437 393.062C34.7732 396.491 38.7955 398.295 43.3439 398.295V394.295ZM34.1721 390.233L-31.4096 324.651L-34.2381 327.48L31.3437 393.062L34.1721 390.233ZM-31.4096 324.651C-33.9615 322.1 -35.2132 319.079 -35.2132 315.48H-39.2132C-39.2132 320.142 -37.5386 324.179 -34.2381 327.48L-31.4096 324.651ZM-35.2132 315.48V292.758H-39.2132V315.48H-35.2132ZM-35.2132 292.758C-35.2132 289.159 -33.9615 286.138 -31.4096 283.587L-34.2381 280.758C-37.5386 284.059 -39.2132 288.096 -39.2132 292.758H-35.2132ZM-31.4014 283.578L56.3852 194.759L53.5403 191.947L-34.2463 280.766L-31.4014 283.578ZM56.377 194.767C58.9289 192.215 61.9491 190.964 65.5488 190.964V186.964C60.8862 186.964 56.8491 188.638 53.5485 191.939L56.377 194.767ZM65.5488 190.964H201.36V186.964H65.5488V190.964ZM201.36 190.964C206.918 190.964 211.454 189.573 214.587 186.44C217.719 183.308 219.11 178.772 219.11 173.214H215.11C215.11 178.155 213.876 181.494 211.758 183.612C209.64 185.73 206.302 186.964 201.36 186.964V190.964ZM219.11 173.214V93.1729H215.11V173.214H219.11ZM219.11 93.1729C219.11 87.6146 217.719 83.0786 214.587 79.9462C211.454 76.8139 206.918 75.4229 201.36 75.4229V79.4229C206.302 79.4229 209.64 80.657 211.758 82.7746C213.876 84.8923 215.11 88.2312 215.11 93.1729H219.11ZM201.36 75.4229H34.3071V79.4229H201.36V75.4229ZM34.3071 75.4229C28.9352 75.4229 24.4411 76.9148 21.0593 80.0977L23.8008 83.0105C26.2714 80.6852 29.6953 79.4229 34.3071 79.4229V75.4229ZM21.0159 80.1399C17.7889 83.3668 16.2989 87.8071 16.2989 93.1729H20.2989C20.2989 88.5551 21.5631 85.2495 23.8443 82.9683L21.0159 80.1399ZM16.2989 93.1729V148.943H20.2989V93.1729H16.2989ZM16.2989 148.943C16.2989 150.14 15.9029 151.093 15.0774 151.918L17.9058 154.747C19.49 153.163 20.2989 151.189 20.2989 148.943H16.2989ZM14.9731 152.031C14.3941 152.706 13.5358 153.14 12.1022 153.14V157.14C14.4555 157.14 16.5234 156.369 18.0101 154.634L14.9731 152.031ZM12.1022 153.14H-26.6272V157.14H12.1022V153.14ZM-26.6272 153.14C-28.0548 153.14 -29.074 152.705 -29.8605 151.918L-32.6889 154.747C-31.0656 156.37 -28.9864 157.14 -26.6272 157.14V153.14ZM-29.7562 152.031C-30.451 151.22 -30.8239 150.231 -30.8239 148.943H-34.8239C-34.8239 151.098 -34.1639 153.035 -32.7932 154.634L-29.7562 152.031ZM-30.8239 148.943V106.599H-34.8239V148.943H-30.8239ZM-30.8239 106.599C-30.8239 102.765 -29.6165 99.7652 -27.2785 97.4273L-30.1069 94.5988C-33.2772 97.7691 -34.8239 101.826 -34.8239 106.599H-30.8239ZM-27.2785 97.4273L38.3033 31.8455L35.4748 29.0171L-30.1069 94.5988L-27.2785 97.4273ZM38.3033 31.8455C40.8551 29.2936 43.8754 28.0419 47.4751 28.0419V24.0419C42.8125 24.0419 38.7754 25.7165 35.4748 29.0171L38.3033 31.8455ZM47.4751 28.0419H188.192V24.0419H47.4751V28.0419ZM188.192 28.0419C191.792 28.0419 194.812 29.2936 197.364 31.8455L200.192 29.0171C196.892 25.7165 192.854 24.0419 188.192 24.0419V28.0419ZM197.364 31.8455L262.945 97.4273L265.774 94.5988L200.192 29.0171L197.364 31.8455ZM531.334 30.4313L532.748 29.0171L531.334 30.4313ZM511.711 77.4229V75.4229H510.846L510.254 76.0538L511.711 77.4229ZM356.277 242.927L354.82 241.557L354.277 242.135V242.927H356.277ZM530.818 283.205L532.232 281.791L530.818 283.205ZM551.474 394.488L550.059 395.902L550.106 395.949L550.157 395.993L551.474 394.488ZM309.028 219.689L310.442 221.103L310.458 221.087L310.473 221.071L309.028 219.689ZM490.023 30.4313L488.609 29.0171L488.593 29.0328L488.578 29.049L490.023 30.4313ZM500.609 28.0419H520.748V24.0419H500.609V28.0419ZM520.748 28.0419C524.348 28.0419 527.368 29.2936 529.92 31.8455L532.748 29.0171C529.448 25.7165 525.411 24.0419 520.748 24.0419V28.0419ZM529.92 31.8455L595.502 97.4273L598.33 94.5988L532.748 29.0171L529.92 31.8455ZM595.502 97.4273C598.269 100.194 599.564 103.23 599.564 106.599H603.564C603.564 102.051 601.76 98.0283 598.33 94.5988L595.502 97.4273ZM599.564 106.599V272.619H603.564V106.599H599.564ZM599.564 272.619C599.564 273.816 599.168 274.769 598.342 275.594L601.17 278.423C602.755 276.838 603.564 274.865 603.564 272.619H599.564ZM598.342 275.594C597.555 276.381 596.536 276.816 595.109 276.816V280.816C597.468 280.816 599.547 280.046 601.17 278.423L598.342 275.594ZM595.109 276.816H556.637V280.816H595.109V276.816ZM556.637 276.816C555.21 276.816 554.191 276.381 553.404 275.594L550.576 278.423C552.199 280.046 554.278 280.816 556.637 280.816V276.816ZM553.404 275.594C552.579 274.769 552.183 273.816 552.183 272.619H548.183C548.183 274.865 548.991 276.838 550.576 278.423L553.404 275.594ZM552.183 272.619V93.1729H548.183V272.619H552.183ZM552.183 93.1729C552.183 87.6146 550.792 83.0786 547.659 79.9462C544.527 76.8139 539.991 75.4229 534.433 75.4229V79.4229C539.374 79.4229 542.713 80.657 544.831 82.7746C546.949 84.8923 548.183 88.2312 548.183 93.1729H552.183ZM534.433 75.4229H511.711V79.4229H534.433V75.4229ZM510.254 76.0538L354.82 241.557L357.735 244.296L513.169 78.7921L510.254 76.0538ZM354.277 242.927V263.066H358.277V242.927H354.277ZM354.277 263.066C354.277 268.624 355.668 273.16 358.801 276.292C361.933 279.425 366.469 280.816 372.027 280.816V276.816C367.086 276.816 363.747 275.582 361.629 273.464C359.511 271.346 358.277 268.008 358.277 263.066H354.277ZM372.027 280.816H520.232V276.816H372.027V280.816ZM520.232 280.816C523.832 280.816 526.852 282.067 529.404 284.619L532.232 281.791C528.932 278.49 524.894 276.816 520.232 276.816V280.816ZM529.404 284.619L594.985 350.201L597.814 347.373L532.232 281.791L529.404 284.619ZM594.985 350.201C597.753 352.968 599.047 356.003 599.047 359.373H603.047C603.047 354.824 601.243 350.802 597.814 347.373L594.985 350.201ZM599.047 359.373V389.84H603.047V359.373H599.047ZM599.047 389.84C599.047 391.268 598.612 392.287 597.826 393.073L600.654 395.902C602.277 394.278 603.047 392.199 603.047 389.84H599.047ZM597.826 393.073C597.039 393.86 596.02 394.295 594.592 394.295V398.295C596.952 398.295 599.031 397.525 600.654 395.902L597.826 393.073ZM594.592 394.295H556.121V398.295H594.592V394.295ZM556.121 394.295C554.916 394.295 553.828 393.89 552.791 392.982L550.157 395.993C551.873 397.495 553.883 398.295 556.121 398.295V394.295ZM552.888 393.073C552.101 392.287 551.666 391.268 551.666 389.84H547.666C547.666 392.199 548.436 394.278 550.059 395.902L552.888 393.073ZM551.666 389.84V345.947H547.666V389.84H551.666ZM551.666 345.947C551.666 340.388 550.275 335.852 547.143 332.72C544.011 329.588 539.475 328.197 533.916 328.197V332.197C538.858 332.197 542.197 333.431 544.314 335.548C546.432 337.666 547.666 341.005 547.666 345.947H551.666ZM533.916 328.197H385.712V332.197H533.916V328.197ZM385.712 328.197C381.878 328.197 378.878 326.989 376.54 324.651L373.712 327.48C376.882 330.65 380.939 332.197 385.712 332.197V328.197ZM376.54 324.651L310.958 259.07L308.13 261.898L373.712 327.48L376.54 324.651ZM310.958 259.07C308.191 256.302 306.896 253.267 306.896 249.898H302.896C302.896 254.446 304.7 258.469 308.13 261.898L310.958 259.07ZM306.896 249.898V230.275H302.896V249.898H306.896ZM306.896 230.275C306.896 226.441 308.104 223.441 310.442 221.103L307.613 218.275C304.443 221.445 302.896 225.502 302.896 230.275H306.896ZM310.473 221.071L491.468 31.8136L488.578 29.049L307.582 218.307L310.473 221.071ZM491.437 31.8455C493.989 29.2936 497.009 28.0419 500.609 28.0419V24.0419C495.946 24.0419 491.909 25.7165 488.609 29.0171L491.437 31.8455ZM949.87 28.1075L948.081 29.0019L948.124 29.0869L948.174 29.1675L949.87 28.1075ZM949.612 32.4968L951.267 33.6194L951.271 33.6128L951.276 33.6062L949.612 32.4968ZM706.391 391.131L708.03 392.278L708.038 392.266L708.046 392.254L706.391 391.131ZM651.395 389.84L649.741 388.717L649.736 388.724L649.731 388.731L651.395 389.84ZM894.616 31.4641L892.988 30.3016L892.975 30.3211L892.961 30.3409L894.616 31.4641ZM945.739 28.0419C947.349 28.0419 947.848 28.5359 948.081 29.0019L951.659 27.2131C950.515 24.925 948.26 24.0419 945.739 24.0419V28.0419ZM948.174 29.1675C948.409 29.544 948.47 29.8472 948.454 30.1202C948.437 30.4138 948.319 30.8296 947.948 31.3874L951.276 33.6062C951.937 32.6149 952.379 31.5246 952.447 30.3551C952.517 29.1649 952.191 28.0481 951.566 27.0475L948.174 29.1675ZM947.956 31.3743L704.736 390.008L708.046 392.254L951.267 33.6194L947.956 31.3743ZM704.753 389.984C702.728 392.877 699.991 394.295 696.321 394.295V398.295C701.259 398.295 705.235 396.27 708.03 392.278L704.753 389.984ZM696.321 394.295H655.01V398.295H696.321V394.295ZM655.01 394.295C653.4 394.295 652.901 393.801 652.668 393.335L649.09 395.124C650.234 397.412 652.489 398.295 655.01 398.295V394.295ZM652.668 393.335C652.372 392.744 652.326 392.049 653.059 390.949L649.731 388.731C648.399 390.729 648.009 392.961 649.09 395.124L652.668 393.335ZM653.05 390.963L896.271 32.5872L892.961 30.3409L649.741 388.717L653.05 390.963ZM896.243 32.6265C898.483 29.491 901.255 28.0419 904.686 28.0419V24.0419C899.854 24.0419 895.913 26.2076 892.988 30.3016L896.243 32.6265ZM904.686 28.0419H945.739V24.0419H904.686V28.0419Z" fill="#EBFF00"/>
<path d="M97.9294 867.813L96.1405 868.707L96.183 868.792L96.2334 868.873L97.9294 867.813ZM97.6712 872.202L99.3264 873.324L99.3309 873.318L99.3353 873.311L97.6712 872.202ZM-145.549 1230.84L-143.911 1231.98L-143.902 1231.97L-143.894 1231.96L-145.549 1230.84ZM-200.545 1229.55L-202.2 1228.42L-202.205 1228.43L-202.209 1228.44L-200.545 1229.55ZM42.6755 871.169L41.048 870.007L41.0341 870.026L41.0206 870.046L42.6755 871.169ZM93.7983 867.747C95.4083 867.747 95.9075 868.241 96.1405 868.707L99.7183 866.918C98.5742 864.63 96.3194 863.747 93.7983 863.747V867.747ZM96.2334 868.873C96.4687 869.249 96.5298 869.552 96.5138 869.825C96.4965 870.119 96.379 870.535 96.0071 871.093L99.3353 873.311C99.9962 872.32 100.438 871.23 100.507 870.06C100.577 868.87 100.251 867.753 99.6254 866.753L96.2334 868.873ZM96.016 871.079L-147.205 1229.71L-143.894 1231.96L99.3264 873.324L96.016 871.079ZM-147.188 1229.69C-149.213 1232.58 -151.95 1234 -155.619 1234V1238C-150.682 1238 -146.706 1235.98 -143.911 1231.98L-147.188 1229.69ZM-155.619 1234H-196.93V1238H-155.619V1234ZM-196.93 1234C-198.54 1234 -199.04 1233.51 -199.273 1233.04L-202.85 1234.83C-201.706 1237.12 -199.451 1238 -196.93 1238V1234ZM-199.273 1233.04C-199.568 1232.45 -199.614 1231.75 -198.881 1230.65L-202.209 1228.44C-203.542 1230.43 -203.932 1232.67 -202.85 1234.83L-199.273 1233.04ZM-198.89 1230.67L44.3303 872.292L41.0206 870.046L-202.2 1228.42L-198.89 1230.67ZM44.3029 872.332C46.5426 869.196 49.3148 867.747 52.7451 867.747V863.747C47.9131 863.747 43.9723 865.913 41.048 870.007L44.3029 872.332ZM52.7451 867.747H93.7983V863.747H52.7451V867.747ZM429.711 1010.34L431.123 1011.75L431.125 1011.75L429.711 1010.34ZM364.129 1075.66L362.718 1074.24L362.715 1074.25L364.129 1075.66ZM245.101 1080.05V1078.05H244.273L243.687 1078.64L245.101 1080.05ZM180.036 1145.12L178.622 1143.7L178.036 1144.29V1145.12H180.036ZM432.551 1186.68L431.046 1188L431.09 1188.05L431.137 1188.1L432.551 1186.68ZM133.044 1121.88L134.458 1123.29L134.467 1123.28L133.044 1121.88ZM220.831 1033.06L219.416 1031.64L219.408 1031.65L220.831 1033.06ZM188.298 921.259L186.927 919.803L186.905 919.824L186.884 919.845L188.298 921.259ZM182.359 993.038L180.945 991.623L180.891 991.678L180.841 991.736L182.359 993.038ZM134.593 993.038L133.075 994.339L133.125 994.398L133.179 994.452L134.593 993.038ZM137.175 935.718L135.761 934.304L137.175 935.718ZM202.757 870.136L201.343 868.722L202.757 870.136ZM364.646 870.136L366.06 868.722L364.646 870.136ZM428.813 937.132C431.151 939.47 432.359 942.47 432.359 946.304H436.359C436.359 941.531 434.812 937.474 431.642 934.304L428.813 937.132ZM432.359 946.304V999.751H436.359V946.304H432.359ZM432.359 999.751C432.359 1003.12 431.064 1006.16 428.297 1008.92L431.125 1011.75C434.555 1008.32 436.359 1004.3 436.359 999.751H432.359ZM428.3 1008.92L362.718 1074.24L365.541 1077.08L431.123 1011.75L428.3 1008.92ZM362.715 1074.25C360.306 1076.66 356.439 1078.05 350.703 1078.05V1082.05C357.016 1082.05 362.1 1080.52 365.544 1077.07L362.715 1074.25ZM350.703 1078.05H245.101V1082.05H350.703V1078.05ZM243.687 1078.64L178.622 1143.7L181.45 1146.53L246.515 1081.46L243.687 1078.64ZM178.036 1145.12V1168.87H182.036V1145.12H178.036ZM178.036 1168.87C178.036 1174.43 179.427 1178.96 182.559 1182.1C185.691 1185.23 190.227 1186.62 195.786 1186.62V1182.62C190.844 1182.62 187.505 1181.38 185.387 1179.27C183.27 1177.15 182.036 1173.81 182.036 1168.87H178.036ZM195.786 1186.62H427.904V1182.62H195.786V1186.62ZM427.904 1186.62C429.243 1186.62 430.236 1187.08 431.046 1188L434.057 1185.37C432.457 1183.54 430.351 1182.62 427.904 1182.62V1186.62ZM431.137 1188.1C431.963 1188.92 432.359 1189.88 432.359 1191.07H436.359C436.359 1188.83 435.55 1186.85 433.966 1185.27L431.137 1188.1ZM432.359 1191.07V1229.55H436.359V1191.07H432.359ZM432.359 1229.55C432.359 1230.97 431.924 1231.99 431.137 1232.78L433.966 1235.61C435.589 1233.98 436.359 1231.9 436.359 1229.55H432.359ZM431.137 1232.78C430.351 1233.56 429.331 1234 427.904 1234V1238C430.263 1238 432.342 1237.23 433.966 1235.61L431.137 1232.78ZM427.904 1234H209.212V1238H427.904V1234ZM209.212 1234C205.842 1234 202.807 1232.71 200.04 1229.94L197.212 1232.77C200.641 1236.2 204.663 1238 209.212 1238V1234ZM200.04 1229.94L134.458 1164.36L131.63 1167.18L197.212 1232.77L200.04 1229.94ZM134.458 1164.36C131.906 1161.8 130.655 1158.78 130.655 1155.18H126.655C126.655 1159.85 128.329 1163.88 131.63 1167.18L134.458 1164.36ZM130.655 1155.18V1132.46H126.655V1155.18H130.655ZM130.655 1132.46C130.655 1128.86 131.906 1125.84 134.458 1123.29L131.63 1120.46C128.329 1123.76 126.655 1127.8 126.655 1132.46H130.655ZM134.467 1123.28L222.253 1034.46L219.408 1031.65L131.622 1120.47L134.467 1123.28ZM222.245 1034.47C224.797 1031.92 227.817 1030.67 231.417 1030.67V1026.67C226.754 1026.67 222.717 1028.34 219.416 1031.64L222.245 1034.47ZM231.417 1030.67H367.228V1026.67H231.417V1030.67ZM367.228 1030.67C372.786 1030.67 377.322 1029.28 380.454 1026.15C383.587 1023.01 384.978 1018.48 384.978 1012.92H380.978C380.978 1017.86 379.744 1021.2 377.626 1023.32C375.508 1025.43 372.169 1026.67 367.228 1026.67V1030.67ZM384.978 1012.92V932.878H380.978V1012.92H384.978ZM384.978 932.878C384.978 927.32 383.587 922.784 380.454 919.651C377.322 916.519 372.786 915.128 367.228 915.128V919.128C372.169 919.128 375.508 920.362 377.626 922.48C379.744 924.597 380.978 927.936 380.978 932.878H384.978ZM367.228 915.128H200.175V919.128H367.228V915.128ZM200.175 915.128C194.803 915.128 190.309 916.62 186.927 919.803L189.669 922.716C192.139 920.39 195.563 919.128 200.175 919.128V915.128ZM186.884 919.845C183.657 923.072 182.167 927.512 182.167 932.878H186.167C186.167 928.26 187.431 924.955 189.712 922.673L186.884 919.845ZM182.167 932.878V988.648H186.167V932.878H182.167ZM182.167 988.648C182.167 989.845 181.771 990.798 180.945 991.623L183.774 994.452C185.358 992.868 186.167 990.894 186.167 988.648H182.167ZM180.841 991.736C180.262 992.411 179.404 992.845 177.97 992.845V996.845C180.323 996.845 182.391 996.074 183.878 994.339L180.841 991.736ZM177.97 992.845H139.241V996.845H177.97V992.845ZM139.241 992.845C137.813 992.845 136.794 992.41 136.007 991.623L133.179 994.452C134.802 996.075 136.882 996.845 139.241 996.845V992.845ZM136.112 991.736C135.417 990.925 135.044 989.936 135.044 988.648H131.044C131.044 990.803 131.704 992.74 133.075 994.339L136.112 991.736ZM135.044 988.648V946.304H131.044V988.648H135.044ZM135.044 946.304C135.044 942.47 136.251 939.47 138.589 937.132L135.761 934.304C132.591 937.474 131.044 941.531 131.044 946.304H135.044ZM138.589 937.132L204.171 871.551L201.343 868.722L135.761 934.304L138.589 937.132ZM204.171 871.551C206.723 868.999 209.743 867.747 213.343 867.747V863.747C208.68 863.747 204.643 865.422 201.343 868.722L204.171 871.551ZM213.343 867.747H354.06V863.747H213.343V867.747ZM354.06 867.747C357.659 867.747 360.68 868.999 363.232 871.551L366.06 868.722C362.759 865.422 358.722 863.747 354.06 863.747V867.747ZM363.232 871.551L428.813 937.132L431.642 934.304L366.06 868.722L363.232 871.551ZM718.374 870.653L719.791 869.241L719.788 869.239L718.374 870.653ZM783.698 936.235L782.281 937.646L782.284 937.649L783.698 936.235ZM783.698 984.775L785.109 986.193L785.112 986.19L783.698 984.775ZM672.157 1095.8L670.746 1094.38L670.743 1094.39L672.157 1095.8ZM663.378 1095.8L664.897 1094.5L664.85 1094.44L664.8 1094.39L663.378 1095.8ZM637.301 1069.46L638.722 1068.06L638.715 1068.05L637.301 1069.46ZM634.977 1064.82H632.977V1064.92L632.987 1065.02L634.977 1064.82ZM637.301 1059.91L638.629 1061.41L638.669 1061.37L638.708 1061.33L637.301 1059.91ZM736.706 961.538L738.113 962.959L738.706 962.372V961.538H736.706ZM542.026 921.259L540.656 919.803L540.634 919.824L540.612 919.845L542.026 921.259ZM536.088 993.038L534.674 991.623L534.619 991.678L534.569 991.736L536.088 993.038ZM490.904 935.718L492.318 937.132L490.904 935.718ZM556.485 870.136L555.071 868.722L556.485 870.136ZM743.161 1053.97L744.58 1052.56L744.575 1052.56L743.161 1053.97ZM783.698 1094.77L782.279 1096.18L782.284 1096.18L783.698 1094.77ZM783.698 1166.8L782.284 1165.39L782.281 1165.39L783.698 1166.8ZM718.374 1232.39L719.788 1233.8L719.791 1233.8L718.374 1232.39ZM707.788 1236.52L707.781 1238.52H707.788V1236.52ZM567.588 1236L567.595 1234H567.588V1236ZM557.002 1231.87L555.588 1233.28L557.002 1231.87ZM491.42 1166.29L490.006 1167.7L491.42 1166.29ZM488.322 1108.71L489.736 1110.12L488.322 1108.71ZM536.088 1108.71L534.674 1110.12L536.088 1108.71ZM542.026 1180.49L540.612 1181.9L540.634 1181.92L540.656 1181.94L542.026 1180.49ZM553.903 1184.62L553.91 1182.62H553.903V1184.62ZM720.956 1185.14L720.95 1187.14H720.956V1185.14ZM738.513 1052.42L739.301 1054.26L739.355 1054.24L739.408 1054.21L738.513 1052.42ZM567.071 867.747H707.788V863.747H567.071V867.747ZM707.788 867.747C710.932 867.747 713.976 869.083 716.96 872.067L719.788 869.239C716.231 865.681 712.219 863.747 707.788 863.747V867.747ZM716.957 872.064L782.281 937.646L785.115 934.823L719.791 869.241L716.957 872.064ZM782.284 937.649C784.835 940.201 786.087 943.221 786.087 946.821H790.087C790.087 942.158 788.413 938.121 785.112 934.82L782.284 937.649ZM786.087 946.821V974.189H790.087V946.821H786.087ZM786.087 974.189C786.087 977.789 784.835 980.809 782.284 983.361L785.112 986.19C788.413 982.889 790.087 978.852 790.087 974.189H786.087ZM782.287 983.358L670.746 1094.38L673.568 1097.22L785.109 986.193L782.287 983.358ZM670.743 1094.39C669.956 1095.17 668.937 1095.61 667.51 1095.61V1099.61C669.869 1099.61 671.948 1098.84 673.571 1097.21L670.743 1094.39ZM667.51 1095.61C666.316 1095.61 665.515 1095.22 664.897 1094.5L661.86 1097.1C663.308 1098.79 665.26 1099.61 667.51 1099.61V1095.61ZM664.8 1094.39L638.722 1068.06L635.88 1070.87L661.957 1097.21L664.8 1094.39ZM638.715 1068.05C637.621 1066.96 637.087 1065.82 636.967 1064.62L632.987 1065.02C633.211 1067.25 634.227 1069.22 635.886 1070.88L638.715 1068.05ZM636.977 1064.82C636.977 1063.55 637.462 1062.44 638.629 1061.41L635.972 1058.42C634.041 1060.13 632.977 1062.29 632.977 1064.82H636.977ZM638.708 1061.33L738.113 962.959L735.299 960.116L635.894 1058.49L638.708 1061.33ZM738.706 961.538V932.878H734.706V961.538H738.706ZM738.706 932.878C738.706 927.32 737.315 922.784 734.183 919.651C731.051 916.519 726.514 915.128 720.956 915.128V919.128C725.898 919.128 729.237 920.362 731.354 922.48C733.472 924.597 734.706 927.936 734.706 932.878H738.706ZM720.956 915.128H553.903V919.128H720.956V915.128ZM553.903 915.128C548.532 915.128 544.037 916.62 540.656 919.803L543.397 922.716C545.868 920.39 549.292 919.128 553.903 919.128V915.128ZM540.612 919.845C537.385 923.072 535.895 927.512 535.895 932.878H539.895C539.895 928.26 541.159 924.955 543.441 922.673L540.612 919.845ZM535.895 932.878V988.648H539.895V932.878H535.895ZM535.895 988.648C535.895 989.845 535.499 990.798 534.674 991.623L537.502 994.452C539.086 992.868 539.895 990.894 539.895 988.648H535.895ZM534.569 991.736C533.99 992.411 533.132 992.845 531.699 992.845V996.845C534.052 996.845 536.12 996.074 537.606 994.339L534.569 991.736ZM531.699 992.845H492.969V996.845H531.699V992.845ZM492.969 992.845C491.542 992.845 490.522 992.41 489.736 991.623L486.907 994.452C488.531 996.075 490.61 996.845 492.969 996.845V992.845ZM489.736 991.623C488.91 990.798 488.514 989.845 488.514 988.648H484.514C484.514 990.894 485.323 992.868 486.907 994.452L489.736 991.623ZM488.514 988.648V946.304H484.514V988.648H488.514ZM488.514 946.304C488.514 942.704 489.766 939.684 492.318 937.132L489.489 934.304C486.189 937.604 484.514 941.642 484.514 946.304H488.514ZM492.318 937.132L557.9 871.551L555.071 868.722L489.489 934.304L492.318 937.132ZM557.9 871.551C560.451 868.999 563.472 867.747 567.071 867.747V863.747C562.409 863.747 558.372 865.422 555.071 868.722L557.9 871.551ZM741.742 1055.38L782.279 1096.18L785.117 1093.36L744.58 1052.56L741.742 1055.38ZM782.284 1096.18C784.835 1098.73 786.087 1101.75 786.087 1105.35H790.087C790.087 1100.69 788.413 1096.65 785.112 1093.35L782.284 1096.18ZM786.087 1105.35V1156.22H790.087V1105.35H786.087ZM786.087 1156.22C786.087 1159.82 784.835 1162.84 782.284 1165.39L785.112 1168.22C788.413 1164.92 790.087 1160.88 790.087 1156.22H786.087ZM782.281 1165.39L716.957 1230.97L719.791 1233.8L785.115 1168.21L782.281 1165.39ZM716.96 1230.97C714.622 1233.31 711.622 1234.52 707.788 1234.52V1238.52C712.561 1238.52 716.618 1236.97 719.788 1233.8L716.96 1230.97ZM707.796 1234.52L567.595 1234L567.58 1238L707.781 1238.52L707.796 1234.52ZM567.588 1234C563.754 1234 560.754 1232.79 558.416 1230.45L555.588 1233.28C558.758 1236.45 562.815 1238 567.588 1238V1234ZM558.416 1230.45L492.834 1164.87L490.006 1167.7L555.588 1233.28L558.416 1230.45ZM492.834 1164.87C489.85 1161.89 488.514 1158.84 488.514 1155.7H484.514C484.514 1160.13 486.449 1164.14 490.006 1167.7L492.834 1164.87ZM488.514 1155.7V1113.36H484.514V1155.7H488.514ZM488.514 1113.36C488.514 1111.93 488.949 1110.91 489.736 1110.12L486.907 1107.3C485.284 1108.92 484.514 1111 484.514 1113.36H488.514ZM489.736 1110.12C490.522 1109.34 491.542 1108.9 492.969 1108.9V1104.9C490.61 1104.9 488.531 1105.67 486.907 1107.3L489.736 1110.12ZM492.969 1108.9H531.699V1104.9H492.969V1108.9ZM531.699 1108.9C532.896 1108.9 533.848 1109.3 534.674 1110.12L537.502 1107.3C535.918 1105.71 533.944 1104.9 531.699 1104.9V1108.9ZM534.674 1110.12C535.46 1110.91 535.895 1111.93 535.895 1113.36H539.895C539.895 1111 539.125 1108.92 537.502 1107.3L534.674 1110.12ZM535.895 1113.36V1168.87H539.895V1113.36H535.895ZM535.895 1168.87C535.895 1174.23 537.385 1178.68 540.612 1181.9L543.441 1179.07C541.159 1176.79 539.895 1173.49 539.895 1168.87H535.895ZM540.656 1181.94C544.037 1185.13 548.532 1186.62 553.903 1186.62V1182.62C549.292 1182.62 545.868 1181.36 543.397 1179.03L540.656 1181.94ZM553.897 1186.62L720.95 1187.14L720.962 1183.14L553.91 1182.62L553.897 1186.62ZM720.956 1187.14C726.531 1187.14 731.076 1185.69 734.206 1182.46C737.324 1179.24 738.706 1174.58 738.706 1168.87H734.706C734.706 1174 733.464 1177.48 731.332 1179.68C729.211 1181.87 725.881 1183.14 720.956 1183.14V1187.14ZM738.706 1168.87V1056.81H734.706V1168.87H738.706ZM738.706 1056.81C738.706 1055.75 738.844 1055.07 739.007 1054.67C739.153 1054.31 739.277 1054.27 739.301 1054.26L737.726 1050.58C735.306 1051.62 734.706 1054.3 734.706 1056.81H738.706ZM739.408 1054.21C739.591 1054.12 739.77 1054.09 740.076 1054.19C740.447 1054.31 741.007 1054.65 741.747 1055.39L744.575 1052.56C742.659 1050.64 740.184 1049.35 737.619 1050.63L739.408 1054.21Z" fill="#EBFF00"/>
<path d="M271.88 811.869L273.295 813.283L271.88 811.869ZM110.508 811.869L109.094 813.283L110.508 811.869ZM44.9261 746.287L43.5119 747.701L44.9261 746.287ZM44.9261 515.718L43.5119 514.304L44.9261 515.718ZM110.508 450.136L109.094 448.722L110.508 450.136ZM96.0489 501.259L94.6782 499.803L94.6561 499.824L94.6347 499.845L96.0489 501.259ZM91.9178 691.808H89.9178V696.555L93.3148 693.239L91.9178 691.808ZM287.114 501.259L288.511 502.69L290.089 501.15L288.402 499.729L287.114 501.259ZM290.729 567.874H292.729V563.113L289.329 566.445L290.729 567.874ZM95.2743 759.455L93.8743 758.027L92.6638 759.213L93.6358 760.602L95.2743 759.455ZM336.564 517.132C338.902 519.47 340.11 522.47 340.11 526.304H344.11C344.11 521.531 342.563 517.474 339.393 514.304L336.564 517.132ZM340.11 526.304V735.701H344.11V526.304H340.11ZM340.11 735.701C340.11 739.071 338.815 742.106 336.048 744.873L338.876 747.701C342.306 744.272 344.11 740.25 344.11 735.701H340.11ZM336.048 744.873L270.466 810.455L273.295 813.283L338.876 747.701L336.048 744.873ZM270.466 810.455C268.128 812.793 265.128 814 261.294 814V818C266.067 818 270.124 816.453 273.295 813.283L270.466 810.455ZM261.294 814H121.094V818H261.294V814ZM121.094 814C117.26 814 114.26 812.793 111.922 810.455L109.094 813.283C112.264 816.453 116.321 818 121.094 818V814ZM111.922 810.455L46.3403 744.873L43.5119 747.701L109.094 813.283L111.922 810.455ZM46.3403 744.873C44.0023 742.535 42.795 739.535 42.795 735.701H38.795C38.795 740.474 40.3417 744.531 43.5119 747.701L46.3403 744.873ZM42.795 735.701V526.304H38.795V735.701H42.795ZM42.795 526.304C42.795 522.47 44.0023 519.47 46.3403 517.132L43.5119 514.304C40.3417 517.474 38.795 521.531 38.795 526.304H42.795ZM46.3403 517.132L111.922 451.551L109.094 448.722L43.5119 514.304L46.3403 517.132ZM111.922 451.551C114.474 448.999 117.494 447.747 121.094 447.747V443.747C116.431 443.747 112.394 445.422 109.094 448.722L111.922 451.551ZM121.094 447.747H261.811V443.747H121.094V447.747ZM261.811 447.747C265.41 447.747 268.431 448.999 270.983 451.551L273.811 448.722C270.51 445.422 266.473 443.747 261.811 443.747V447.747ZM270.983 451.551L336.564 517.132L339.393 514.304L273.811 448.722L270.983 451.551ZM107.926 495.128C102.554 495.128 98.06 496.62 94.6782 499.803L97.4196 502.716C99.8903 500.39 103.314 499.128 107.926 499.128V495.128ZM94.6347 499.845C91.4077 503.072 89.9178 507.512 89.9178 512.878H93.9178C93.9178 508.26 95.1819 504.955 97.4631 502.673L94.6347 499.845ZM89.9178 512.878V691.808H93.9178V512.878H89.9178ZM93.3148 693.239L288.511 502.69L285.717 499.828L90.5207 690.377L93.3148 693.239ZM288.402 499.729C284.725 496.633 280.206 495.128 274.979 495.128V499.128C279.391 499.128 282.962 500.377 285.826 502.789L288.402 499.729ZM274.979 495.128H107.926V499.128H274.979V495.128ZM274.979 766.619C280.537 766.619 285.073 765.228 288.205 762.096C291.338 758.963 292.729 754.427 292.729 748.869H288.729C288.729 753.811 287.495 757.15 285.377 759.267C283.259 761.385 279.92 762.619 274.979 762.619V766.619ZM292.729 748.869V567.874H288.729V748.869H292.729ZM289.329 566.445L93.8743 758.027L96.6743 760.883L292.129 569.302L289.329 566.445ZM93.6358 760.602C96.565 764.787 101.551 766.619 107.926 766.619V762.619C102.252 762.619 98.8032 761.009 96.9128 758.308L93.6358 760.602ZM107.926 766.619H274.979V762.619H107.926V766.619ZM708.49 590.337L709.901 591.754L709.904 591.751L708.49 590.337ZM642.908 655.66L641.496 654.243L641.494 654.246L642.908 655.66ZM523.88 660.05V658.05H523.051L522.465 658.635L523.88 660.05ZM458.814 725.115L457.4 723.701L456.814 724.287V725.115H458.814ZM711.33 766.685L709.825 768.002L709.869 768.052L709.916 768.099L711.33 766.685ZM411.823 701.877L413.237 703.292L413.245 703.283L411.823 701.877ZM499.609 613.058L498.195 611.644L498.187 611.652L499.609 613.058ZM467.076 501.259L465.706 499.803L465.684 499.824L465.662 499.845L467.076 501.259ZM461.138 573.038L459.724 571.623L459.669 571.678L459.619 571.736L461.138 573.038ZM413.372 573.038L411.853 574.339L411.903 574.398L411.957 574.452L413.372 573.038ZM415.954 515.718L414.539 514.304L415.954 515.718ZM481.535 450.136L480.121 448.722L481.535 450.136ZM643.424 450.136L644.839 448.722L643.424 450.136ZM707.592 517.132C709.93 519.47 711.137 522.47 711.137 526.304H715.137C715.137 521.531 713.591 517.474 710.42 514.304L707.592 517.132ZM711.137 526.304V579.751H715.137V526.304H711.137ZM711.137 579.751C711.137 583.12 709.843 586.155 707.075 588.923L709.904 591.751C713.333 588.321 715.137 584.299 715.137 579.751H711.137ZM707.078 588.92L641.496 654.243L644.319 657.077L709.901 591.754L707.078 588.92ZM641.494 654.246C639.084 656.655 635.218 658.05 629.482 658.05V662.05C635.795 662.05 640.879 660.518 644.322 657.075L641.494 654.246ZM629.482 658.05H523.88V662.05H629.482V658.05ZM522.465 658.635L457.4 723.701L460.228 726.529L525.294 661.464L522.465 658.635ZM456.814 725.115V748.869H460.814V725.115H456.814ZM456.814 748.869C456.814 754.427 458.205 758.963 461.337 762.096C464.47 765.228 469.006 766.619 474.564 766.619V762.619C469.622 762.619 466.284 761.385 464.166 759.267C462.048 757.15 460.814 753.811 460.814 748.869H456.814ZM474.564 766.619H706.682V762.619H474.564V766.619ZM706.682 766.619C708.022 766.619 709.014 767.076 709.825 768.002L712.835 765.368C711.235 763.54 709.13 762.619 706.682 762.619V766.619ZM709.916 768.099C710.741 768.924 711.137 769.877 711.137 771.074H715.137C715.137 768.828 714.328 766.855 712.744 765.27L709.916 768.099ZM711.137 771.074V809.545H715.137V771.074H711.137ZM711.137 809.545C711.137 810.973 710.702 811.992 709.916 812.778L712.744 815.607C714.367 813.984 715.137 811.904 715.137 809.545H711.137ZM709.916 812.778C709.129 813.565 708.11 814 706.682 814V818C709.042 818 711.121 817.23 712.744 815.607L709.916 812.778ZM706.682 814H487.99V818H706.682V814ZM487.99 814C484.621 814 481.586 812.705 478.819 809.938L475.99 812.767C479.42 816.196 483.442 818 487.99 818V814ZM478.819 809.938L413.237 744.357L410.408 747.185L475.99 812.767L478.819 809.938ZM413.237 744.357C410.685 741.805 409.433 738.784 409.433 735.185H405.433C405.433 739.847 407.108 743.884 410.408 747.185L413.237 744.357ZM409.433 735.185V712.463H405.433V735.185H409.433ZM409.433 712.463C409.433 708.864 410.685 705.843 413.237 703.292L410.408 700.463C407.108 703.764 405.433 707.801 405.433 712.463H409.433ZM413.245 703.283L501.032 614.464L498.187 611.652L410.4 700.471L413.245 703.283ZM501.023 614.472C503.575 611.92 506.596 610.669 510.195 610.669V606.669C505.533 606.669 501.496 608.343 498.195 611.644L501.023 614.472ZM510.195 610.669H646.006V606.669H510.195V610.669ZM646.006 610.669C651.565 610.669 656.101 609.278 659.233 606.145C662.365 603.013 663.756 598.477 663.756 592.919H659.756C659.756 597.86 658.522 601.199 656.404 603.317C654.287 605.435 650.948 606.669 646.006 606.669V610.669ZM663.756 592.919V512.878H659.756V592.919H663.756ZM663.756 512.878C663.756 507.32 662.365 502.784 659.233 499.651C656.101 496.519 651.565 495.128 646.006 495.128V499.128C650.948 499.128 654.287 500.362 656.404 502.48C658.522 504.597 659.756 507.936 659.756 512.878H663.756ZM646.006 495.128H478.953V499.128H646.006V495.128ZM478.953 495.128C473.582 495.128 469.088 496.62 465.706 499.803L468.447 502.716C470.918 500.39 474.342 499.128 478.953 499.128V495.128ZM465.662 499.845C462.435 503.072 460.945 507.512 460.945 512.878H464.945C464.945 508.26 466.209 504.955 468.491 502.673L465.662 499.845ZM460.945 512.878V568.648H464.945V512.878H460.945ZM460.945 568.648C460.945 569.845 460.549 570.798 459.724 571.623L462.552 574.452C464.136 572.868 464.945 570.894 464.945 568.648H460.945ZM459.619 571.736C459.041 572.411 458.182 572.845 456.749 572.845V576.845C459.102 576.845 461.17 576.074 462.656 574.339L459.619 571.736ZM456.749 572.845H418.019V576.845H456.749V572.845ZM418.019 572.845C416.592 572.845 415.572 572.41 414.786 571.623L411.957 574.452C413.581 576.075 415.66 576.845 418.019 576.845V572.845ZM414.89 571.736C414.195 570.925 413.823 569.936 413.823 568.648H409.823C409.823 570.803 410.482 572.74 411.853 574.339L414.89 571.736ZM413.823 568.648V526.304H409.823V568.648H413.823ZM413.823 526.304C413.823 522.47 415.03 519.47 417.368 517.132L414.539 514.304C411.369 517.474 409.823 521.531 409.823 526.304H413.823ZM417.368 517.132L482.95 451.551L480.121 448.722L414.539 514.304L417.368 517.132ZM482.95 451.551C485.502 448.999 488.522 447.747 492.121 447.747V443.747C487.459 443.747 483.422 445.422 480.121 448.722L482.95 451.551ZM492.121 447.747H632.838V443.747H492.121V447.747ZM632.838 447.747C636.438 447.747 639.458 448.999 642.01 451.551L644.839 448.722C641.538 445.422 637.501 443.747 632.838 443.747V447.747ZM642.01 451.551L707.592 517.132L710.42 514.304L644.839 448.722L642.01 451.551Z" fill="#EBFF00"/>
</g>
<defs>
<clipPath id="clip0_102_771">
<rect width="768" height="1270" fill="white"/>
</clipPath>
</defs>
</svg>
