<svg width="1411" height="1264" viewBox="0 0 1411 1264" fill="none" xmlns="http://www.w3.org/2000/svg">
<path d="M325.843 170.632L327.96 172.757L327.965 172.753L325.843 170.632ZM260.262 235.955L258.144 233.83L258.14 233.834L260.262 235.955ZM141.233 240.345V237.345H139.991L139.112 238.223L141.233 240.345ZM76.1678 305.41L74.0465 303.289L73.1678 304.167V305.41H76.1678ZM328.683 346.979L326.426 348.955L326.491 349.03L326.562 349.101L328.683 346.979ZM29.1761 282.172L31.2975 284.294L31.3037 284.287L31.3098 284.281L29.1761 282.172ZM116.963 193.353L114.841 191.232L114.835 191.238L114.829 191.244L116.963 193.353ZM84.4301 81.5541L82.374 79.3695L82.3409 79.4006L82.3088 79.4328L84.4301 81.5541ZM78.4916 153.333L76.3702 151.211L76.2888 151.293L76.2138 151.38L78.4916 153.333ZM30.7253 153.333L28.4475 155.285L28.5225 155.372L28.604 155.454L30.7253 153.333ZM33.3073 96.013L31.186 93.8917L33.3073 96.013ZM98.889 30.4313L96.7677 28.31L98.889 30.4313ZM260.778 30.4313L262.899 28.31L260.778 30.4313ZM324.238 98.1344C326.368 100.264 327.491 103 327.491 106.599H333.491C333.491 101.592 331.859 97.27 328.481 93.8917L324.238 98.1344ZM327.491 106.599V160.046H333.491V106.599H327.491ZM327.491 160.046C327.491 163.12 326.324 165.909 323.722 168.51L327.965 172.753C331.56 169.158 333.491 164.889 333.491 160.046H327.491ZM323.726 168.506L258.144 233.83L262.379 238.081L327.96 172.757L323.726 168.506ZM258.14 233.834C255.989 235.985 252.427 237.345 246.835 237.345V243.345C253.293 243.345 258.681 241.778 262.383 238.077L258.14 233.834ZM246.835 237.345H141.233V243.345H246.835V237.345ZM139.112 238.223L74.0465 303.289L78.2891 307.531L143.354 242.466L139.112 238.223ZM73.1678 305.41V329.164H79.1678V305.41H73.1678ZM73.1678 329.164C73.1678 334.876 74.5979 339.712 77.984 343.098C81.37 346.484 86.2053 347.914 91.9178 347.914V341.914C87.1302 341.914 84.0906 340.719 82.2266 338.855C80.3627 336.991 79.1678 333.952 79.1678 329.164H73.1678ZM91.9178 347.914H324.036V341.914H91.9178V347.914ZM324.036 347.914C325.099 347.914 325.813 348.254 326.426 348.955L330.941 345.004C329.144 342.95 326.76 341.914 324.036 341.914V347.914ZM326.562 349.101C327.198 349.737 327.491 350.434 327.491 351.369H333.491C333.491 348.861 332.579 346.632 330.805 344.858L326.562 349.101ZM327.491 351.369V389.84H333.491V351.369H327.491ZM327.491 389.84C327.491 391.035 327.139 391.789 326.562 392.366L330.805 396.609C332.637 394.776 333.491 392.432 333.491 389.84H327.491ZM326.562 392.366C325.985 392.944 325.231 393.295 324.036 393.295V399.295C326.628 399.295 328.972 398.441 330.805 396.609L326.562 392.366ZM324.036 393.295H105.344V399.295H324.036V393.295ZM105.344 393.295C102.269 393.295 99.4809 392.128 96.8792 389.526L92.6366 393.769C96.2317 397.364 100.501 399.295 105.344 399.295V393.295ZM96.8792 389.526L31.2975 323.944L27.0548 328.187L92.6366 393.769L96.8792 389.526ZM31.2975 323.944C28.9328 321.58 27.7868 318.814 27.7868 315.48H21.7868C21.7868 320.408 23.5671 324.699 27.0548 328.187L31.2975 323.944ZM27.7868 315.48V292.758H21.7868V315.48H27.7868ZM27.7868 292.758C27.7868 289.424 28.9328 286.658 31.2975 284.294L27.0548 280.051C23.5671 283.539 21.7868 287.83 21.7868 292.758H27.7868ZM31.3098 284.281L119.096 195.462L114.829 191.244L27.0425 280.063L31.3098 284.281ZM119.084 195.474C121.449 193.11 124.215 191.964 127.549 191.964V185.964C122.62 185.964 118.329 187.744 114.841 191.232L119.084 195.474ZM127.549 191.964H263.36V185.964H127.549V191.964ZM263.36 191.964C269.072 191.964 273.908 190.533 277.294 187.147C280.68 183.761 282.11 178.926 282.11 173.214H276.11C276.11 178.001 274.915 181.041 273.051 182.905C271.187 184.769 268.147 185.964 263.36 185.964V191.964ZM282.11 173.214V93.1729H276.11V173.214H282.11ZM282.11 93.1729C282.11 87.4605 280.68 82.6251 277.294 79.2391C273.908 75.8531 269.072 74.4229 263.36 74.4229V80.4229C268.147 80.4229 271.187 81.6178 273.051 83.4817C274.915 85.3457 276.11 88.3853 276.11 93.1729H282.11ZM263.36 74.4229H96.3071V80.4229H263.36V74.4229ZM96.3071 74.4229C90.7452 74.4229 85.9836 75.9722 82.374 79.3695L86.4862 83.7387C88.729 81.6278 91.8854 80.4229 96.3071 80.4229V74.4229ZM82.3088 79.4328C78.8454 82.8961 77.2989 87.6202 77.2989 93.1729H83.2989C83.2989 88.742 84.5066 85.7202 86.5514 83.6754L82.3088 79.4328ZM77.2989 93.1729V148.943H83.2989V93.1729H77.2989ZM77.2989 148.943C77.2989 149.878 77.0062 150.575 76.3702 151.211L80.6129 155.454C82.3868 153.68 83.2989 151.451 83.2989 148.943H77.2989ZM76.2138 151.38C75.8618 151.791 75.3059 152.14 74.1022 152.14V158.14C76.6854 158.14 79.0558 157.284 80.7693 155.285L76.2138 151.38ZM74.1022 152.14H35.3728V158.14H74.1022V152.14ZM35.3728 152.14C34.1782 152.14 33.4239 151.789 32.8466 151.211L28.604 155.454C30.4365 157.286 32.7807 158.14 35.3728 158.14V152.14ZM33.0031 151.38C32.4772 150.767 32.1761 150.014 32.1761 148.943H26.1761C26.1761 151.315 26.9079 153.489 28.4475 155.285L33.0031 151.38ZM32.1761 148.943V106.599H26.1761V148.943H32.1761ZM32.1761 106.599C32.1761 103 33.2987 100.264 35.4286 98.1344L31.186 93.8917C27.8077 97.27 26.1761 101.592 26.1761 106.599H32.1761ZM35.4286 98.1344L101.01 32.5526L96.7677 28.31L31.186 93.8917L35.4286 98.1344ZM101.01 32.5526C103.375 30.1879 106.141 29.0419 109.475 29.0419V23.0419C104.547 23.0419 100.255 24.8222 96.7677 28.31L101.01 32.5526ZM109.475 29.0419H250.192V23.0419H109.475V29.0419ZM250.192 29.0419C253.526 29.0419 256.292 30.1879 258.657 32.5526L262.899 28.31C259.411 24.8222 255.12 23.0419 250.192 23.0419V29.0419ZM258.657 32.5526L324.238 98.1344L328.481 93.8917L262.899 28.31L258.657 32.5526ZM679.83 326.066L677.709 323.944L677.704 323.948L679.83 326.066ZM614.506 391.647L616.628 393.769L616.632 393.765L614.506 391.647ZM452.617 391.647L450.496 393.769L452.617 391.647ZM384.454 268.488L386.575 270.609L384.454 268.488ZM432.22 268.488L430.099 270.609L432.22 268.488ZM438.159 340.266L436.037 342.388L436.069 342.42L436.102 342.451L438.159 340.266ZM628.707 237.246L626.523 239.302L626.554 239.335L626.586 239.368L628.707 237.246ZM470.433 228.726L468.299 230.835L468.305 230.841L468.312 230.847L470.433 228.726ZM382.646 139.906L384.78 137.797L384.774 137.791L384.768 137.785L382.646 139.906ZM382.646 96.013L380.525 93.8917L382.646 96.013ZM448.228 30.4313L450.349 32.5526L448.228 30.4313ZM682.412 75.0992L684.533 77.2205L684.604 77.1499L684.67 77.0747L682.412 75.0992ZM429.896 116.669H426.896V117.911L427.775 118.79L429.896 116.669ZM494.962 181.734L492.84 183.855L493.719 184.734H494.962V181.734ZM679.314 251.447L677.192 253.568L679.314 251.447ZM677.704 323.948L612.381 389.53L616.632 393.765L681.955 328.183L677.704 323.948ZM612.385 389.526C610.255 391.656 607.519 392.779 603.92 392.779V398.779C608.928 398.779 613.249 397.147 616.628 393.769L612.385 389.526ZM603.92 392.779H463.204V398.779H603.92V392.779ZM463.204 392.779C459.604 392.779 456.869 391.656 454.739 389.526L450.496 393.769C453.874 397.147 458.196 398.779 463.204 398.779V392.779ZM454.739 389.526L389.157 323.944L384.914 328.187L450.496 393.769L454.739 389.526ZM389.157 323.944C386.792 321.58 385.646 318.814 385.646 315.48H379.646C379.646 320.408 381.427 324.699 384.914 328.187L389.157 323.944ZM385.646 315.48V273.135H379.646V315.48H385.646ZM385.646 273.135C385.646 271.941 385.998 271.187 386.575 270.609L382.332 266.367C380.5 268.199 379.646 270.543 379.646 273.135H385.646ZM386.575 270.609C387.152 270.032 387.907 269.681 389.101 269.681V263.681C386.509 263.681 384.165 264.534 382.332 266.367L386.575 270.609ZM389.101 269.681H427.831V263.681H389.101V269.681ZM427.831 269.681C428.765 269.681 429.463 269.973 430.099 270.609L434.341 266.367C432.567 264.593 430.339 263.681 427.831 263.681V269.681ZM430.099 270.609C430.676 271.187 431.027 271.941 431.027 273.135H437.027C437.027 270.543 436.174 268.199 434.341 266.367L430.099 270.609ZM431.027 273.135V328.648H437.027V273.135H431.027ZM431.027 328.648C431.027 334.2 432.574 338.924 436.037 342.388L440.28 338.145C438.235 336.1 437.027 333.078 437.027 328.648H431.027ZM436.102 342.451C439.712 345.848 444.474 347.398 450.036 347.398V341.398C445.614 341.398 442.457 340.193 440.215 338.082L436.102 342.451ZM450.036 347.398H617.088V341.398H450.036V347.398ZM617.088 347.398C622.801 347.398 627.636 345.967 631.022 342.581C634.408 339.195 635.838 334.36 635.838 328.648H629.838C629.838 333.435 628.643 336.475 626.779 338.339C624.915 340.203 621.876 341.398 617.088 341.398V347.398ZM635.838 328.648V248.865H629.838V328.648H635.838ZM635.838 248.865C635.838 243.312 634.292 238.588 630.828 235.125L626.586 239.368C628.631 241.412 629.838 244.434 629.838 248.865H635.838ZM630.892 235.19C627.439 231.522 622.693 229.857 617.088 229.857V235.857C621.467 235.857 624.467 237.118 626.523 239.302L630.892 235.19ZM617.088 229.857H481.019V235.857H617.088V229.857ZM481.019 229.857C477.42 229.857 474.684 228.734 472.554 226.604L468.312 230.847C471.69 234.225 476.012 235.857 481.019 235.857V229.857ZM472.567 226.617L384.78 137.797L380.513 142.015L468.299 230.835L472.567 226.617ZM384.768 137.785C382.638 135.655 381.515 132.919 381.515 129.32H375.515C375.515 134.328 377.147 138.649 380.525 142.028L384.768 137.785ZM381.515 129.32V106.599H375.515V129.32H381.515ZM381.515 106.599C381.515 103 382.638 100.264 384.768 98.1344L380.525 93.8917C377.147 97.27 375.515 101.592 375.515 106.599H381.515ZM384.768 98.1344L450.349 32.5526L446.107 28.31L380.525 93.8917L384.768 98.1344ZM450.349 32.5526C453.19 29.7122 455.993 28.5256 458.814 28.5256V22.5256C454.062 22.5256 449.807 24.6094 446.107 28.31L450.349 32.5526ZM458.814 28.5256H677.764V22.5256H458.814V28.5256ZM677.764 28.5256C678.959 28.5256 679.713 28.8769 680.291 29.4542L684.533 25.2116C682.701 23.3791 680.357 22.5256 677.764 22.5256V28.5256ZM680.291 29.4542C680.868 30.0316 681.219 30.7858 681.219 31.9805H687.219C687.219 29.3883 686.366 27.0441 684.533 25.2116L680.291 29.4542ZM681.219 31.9805V70.4516H687.219V31.9805H681.219ZM681.219 70.4516C681.219 71.398 680.913 72.256 680.154 73.1237L684.67 77.0747C686.32 75.1882 687.219 72.9479 687.219 70.4516H681.219ZM680.291 72.9779C679.713 73.5552 678.959 73.9065 677.764 73.9065V79.9065C680.357 79.9065 682.701 79.053 684.533 77.2205L680.291 72.9779ZM677.764 73.9065H445.646V79.9065H677.764V73.9065ZM445.646 73.9065C439.934 73.9065 435.098 75.3367 431.712 78.7227C428.326 82.1087 426.896 86.9441 426.896 92.6565H432.896C432.896 87.869 434.091 84.8293 435.955 82.9654C437.819 81.1014 440.859 79.9065 445.646 79.9065V73.9065ZM426.896 92.6565V116.669H432.896V92.6565H426.896ZM427.775 118.79L492.84 183.855L497.083 179.613L432.018 114.547L427.775 118.79ZM494.962 184.734H600.564V178.734H494.962V184.734ZM600.564 184.734C606.217 184.734 609.661 186.037 611.61 187.987L615.853 183.744C612.294 180.185 606.959 178.734 600.564 178.734V184.734ZM611.61 187.987L677.192 253.568L681.435 249.326L615.853 183.744L611.61 187.987ZM677.192 253.568C680.033 256.409 681.219 259.211 681.219 262.033H687.219C687.219 257.281 685.135 253.026 681.435 249.326L677.192 253.568ZM681.219 262.033V315.48H687.219V262.033H681.219ZM681.219 315.48C681.219 318.814 680.073 321.58 677.709 323.944L681.951 328.187C685.439 324.699 687.219 320.408 687.219 315.48H681.219ZM1013.94 28.1075L1011.25 29.4492L1011.32 29.5766L1011.39 29.6975L1013.94 28.1075ZM1013.68 32.4968L1016.16 34.1807L1016.17 34.1708L1016.17 34.1609L1013.68 32.4968ZM770.457 391.131L772.914 392.851L772.927 392.833L772.94 392.815L770.457 391.131ZM715.461 389.84L712.979 388.155L712.972 388.166L712.965 388.176L715.461 389.84ZM958.682 31.4641L956.24 29.7203L956.219 29.7496L956.199 29.7794L958.682 31.4641ZM1009.8 29.0419C1010.52 29.0419 1010.89 29.1643 1011.04 29.2416C1011.15 29.2956 1011.2 29.3412 1011.25 29.4492L1016.62 26.7659C1015.25 24.0223 1012.55 23.0419 1009.8 23.0419V29.0419ZM1011.39 29.6975C1011.53 29.9179 1011.52 30.0178 1011.52 30.0615C1011.52 30.1361 1011.48 30.3833 1011.18 30.8327L1016.17 34.1609C1016.91 33.0612 1017.43 31.8023 1017.51 30.4138C1017.59 28.9943 1017.2 27.6741 1016.48 26.5175L1011.39 29.6975ZM1011.19 30.813L767.974 389.447L772.94 392.815L1016.16 34.1807L1011.19 30.813ZM767.999 389.411C766.166 392.029 763.739 393.295 760.387 393.295V399.295C765.641 399.295 769.927 397.119 772.914 392.851L767.999 389.411ZM760.387 393.295H719.076V399.295H760.387V393.295ZM719.076 393.295C718.357 393.295 717.99 393.173 717.835 393.095C717.727 393.041 717.682 392.996 717.628 392.888L712.261 395.571C713.633 398.315 716.327 399.295 719.076 399.295V393.295ZM717.628 392.888C717.529 392.69 717.374 392.379 717.957 391.504L712.965 388.176C711.482 390.4 710.983 393.015 712.261 395.571L717.628 392.888ZM717.943 391.525L961.164 33.1487L956.199 29.7794L712.979 388.155L717.943 391.525ZM961.123 33.2078C963.191 30.3119 965.671 29.0419 968.751 29.0419V23.0419C963.569 23.0419 959.336 25.3868 956.24 29.7203L961.123 33.2078ZM968.751 29.0419H1009.8V23.0419H968.751V29.0419Z" fill="#EBFF00"/>
<path d="M324.031 867.813L321.348 869.154L321.411 869.282L321.487 869.403L324.031 867.813ZM323.773 872.202L326.256 873.886L326.262 873.876L326.269 873.866L323.773 872.202ZM80.5522 1230.84L83.0099 1232.56L83.0226 1232.54L83.0351 1232.52L80.5522 1230.84ZM25.5565 1229.55L23.0742 1227.86L23.0672 1227.87L23.0603 1227.88L25.5565 1229.55ZM268.777 871.169L266.336 869.425L266.315 869.455L266.295 869.484L268.777 871.169ZM319.9 868.747C320.619 868.747 320.985 868.869 321.14 868.947C321.248 869.001 321.294 869.046 321.348 869.154L326.714 866.471C325.342 863.727 322.649 862.747 319.9 862.747V868.747ZM321.487 869.403C321.625 869.623 321.62 869.723 321.617 869.767C321.613 869.841 321.576 870.088 321.277 870.538L326.269 873.866C327.002 872.766 327.525 871.507 327.607 870.119C327.69 868.699 327.298 867.379 326.575 866.223L321.487 869.403ZM321.29 870.518L78.0693 1229.15L83.0351 1232.52L326.256 873.886L321.29 870.518ZM78.0945 1229.12C76.262 1231.73 73.8349 1233 70.4826 1233V1239C75.7367 1239 80.0228 1236.82 83.0099 1232.56L78.0945 1229.12ZM70.4826 1233H29.1712V1239H70.4826V1233ZM29.1712 1233C28.4524 1233 28.0855 1232.88 27.9309 1232.8C27.8229 1232.75 27.7773 1232.7 27.7234 1232.59L22.3568 1235.28C23.7286 1238.02 26.4224 1239 29.1712 1239V1233ZM27.7234 1232.59C27.6245 1232.4 27.4695 1232.08 28.0526 1231.21L23.0603 1227.88C21.5779 1230.1 21.0786 1232.72 22.3568 1235.28L27.7234 1232.59ZM28.0388 1231.23L271.259 872.854L266.295 869.484L23.0742 1227.86L28.0388 1231.23ZM271.218 872.913C273.287 870.017 275.767 868.747 278.847 868.747V862.747C273.664 862.747 269.431 865.092 266.336 869.425L271.218 872.913ZM278.847 868.747H319.9V862.747H278.847V868.747ZM655.813 1010.34L657.93 1012.46L657.934 1012.46L655.813 1010.34ZM590.231 1075.66L588.114 1073.53L588.11 1073.54L590.231 1075.66ZM471.203 1080.05V1077.05H469.96L469.081 1077.93L471.203 1080.05ZM406.137 1145.12L404.016 1142.99L403.137 1143.87V1145.12H406.137ZM658.653 1186.68L656.395 1188.66L656.461 1188.74L656.532 1188.81L658.653 1186.68ZM359.146 1121.88L361.267 1124L361.273 1123.99L361.279 1123.99L359.146 1121.88ZM446.932 1033.06L444.811 1030.94L444.805 1030.94L444.799 1030.95L446.932 1033.06ZM414.4 921.259L412.343 919.075L412.31 919.106L412.278 919.138L414.4 921.259ZM408.461 993.038L406.34 990.916L406.258 990.998L406.183 991.085L408.461 993.038ZM360.695 993.038L358.417 994.99L358.492 995.077L358.573 995.159L360.695 993.038ZM363.277 935.718L361.155 933.597L363.277 935.718ZM428.859 870.136L426.737 868.015L428.859 870.136ZM590.747 870.136L592.869 868.015L590.747 870.136ZM654.208 937.839C656.338 939.969 657.46 942.705 657.46 946.304H663.46C663.46 941.297 661.829 936.975 658.45 933.597L654.208 937.839ZM657.46 946.304V999.751H663.46V946.304H657.46ZM657.46 999.751C657.46 1002.83 656.293 1005.61 653.691 1008.22L657.934 1012.46C661.529 1008.86 663.46 1004.59 663.46 999.751H657.46ZM653.696 1008.21L588.114 1073.53L592.348 1077.79L657.93 1012.46L653.696 1008.21ZM588.11 1073.54C585.959 1075.69 582.396 1077.05 576.805 1077.05V1083.05C583.262 1083.05 588.651 1081.48 592.352 1077.78L588.11 1073.54ZM576.805 1077.05H471.203V1083.05H576.805V1077.05ZM469.081 1077.93L404.016 1142.99L408.259 1147.24L473.324 1082.17L469.081 1077.93ZM403.137 1145.12V1168.87H409.137V1145.12H403.137ZM403.137 1168.87C403.137 1174.58 404.567 1179.42 407.953 1182.8C411.339 1186.19 416.175 1187.62 421.887 1187.62V1181.62C417.1 1181.62 414.06 1180.42 412.196 1178.56C410.332 1176.7 409.137 1173.66 409.137 1168.87H403.137ZM421.887 1187.62H654.005V1181.62H421.887V1187.62ZM654.005 1187.62C655.068 1187.62 655.782 1187.96 656.395 1188.66L660.911 1184.71C659.114 1182.66 656.73 1181.62 654.005 1181.62V1187.62ZM656.532 1188.81C657.168 1189.44 657.46 1190.14 657.46 1191.07H663.46C663.46 1188.57 662.548 1186.34 660.774 1184.56L656.532 1188.81ZM657.46 1191.07V1229.55H663.46V1191.07H657.46ZM657.46 1229.55C657.46 1230.74 657.109 1231.49 656.532 1232.07L660.774 1236.31C662.607 1234.48 663.46 1232.14 663.46 1229.55H657.46ZM656.532 1232.07C655.954 1232.65 655.2 1233 654.005 1233V1239C656.598 1239 658.942 1238.15 660.774 1236.31L656.532 1232.07ZM654.005 1233H435.313V1239H654.005V1233ZM435.313 1233C432.239 1233 429.45 1231.83 426.849 1229.23L422.606 1233.47C426.201 1237.07 430.47 1239 435.313 1239V1233ZM426.849 1229.23L361.267 1163.65L357.024 1167.89L422.606 1233.47L426.849 1229.23ZM361.267 1163.65C358.902 1161.28 357.756 1158.52 357.756 1155.18H351.756C351.756 1160.11 353.537 1164.4 357.024 1167.89L361.267 1163.65ZM357.756 1155.18V1132.46H351.756V1155.18H357.756ZM357.756 1132.46C357.756 1129.13 358.902 1126.36 361.267 1124L357.024 1119.76C353.537 1123.24 351.756 1127.54 351.756 1132.46H357.756ZM361.279 1123.99L449.066 1035.17L444.799 1030.95L357.012 1119.77L361.279 1123.99ZM449.054 1035.18C451.418 1032.81 454.184 1031.67 457.518 1031.67V1025.67C452.59 1025.67 448.299 1027.45 444.811 1030.94L449.054 1035.18ZM457.518 1031.67H593.329V1025.67H457.518V1031.67ZM593.329 1031.67C599.042 1031.67 603.877 1030.24 607.263 1026.85C610.649 1023.47 612.079 1018.63 612.079 1012.92H606.079C606.079 1017.71 604.884 1020.75 603.02 1022.61C601.157 1024.47 598.117 1025.67 593.329 1025.67V1031.67ZM612.079 1012.92V932.878H606.079V1012.92H612.079ZM612.079 932.878C612.079 927.166 610.649 922.33 607.263 918.944C603.877 915.558 599.042 914.128 593.329 914.128V920.128C598.117 920.128 601.157 921.323 603.02 923.187C604.884 925.051 606.079 928.09 606.079 932.878H612.079ZM593.329 914.128H426.277V920.128H593.329V914.128ZM426.277 914.128C420.715 914.128 415.953 915.677 412.343 919.075L416.456 923.444C418.698 921.333 421.855 920.128 426.277 920.128V914.128ZM412.278 919.138C408.815 922.601 407.268 927.325 407.268 932.878H413.268C413.268 928.447 414.476 925.425 416.521 923.38L412.278 919.138ZM407.268 932.878V988.648H413.268V932.878H407.268ZM407.268 988.648C407.268 989.583 406.976 990.28 406.34 990.916L410.582 995.159C412.356 993.385 413.268 991.156 413.268 988.648H407.268ZM406.183 991.085C405.831 991.496 405.275 991.845 404.072 991.845V997.845C406.655 997.845 409.025 996.989 410.739 994.99L406.183 991.085ZM404.072 991.845H365.342V997.845H404.072V991.845ZM365.342 991.845C364.148 991.845 363.393 991.494 362.816 990.916L358.573 995.159C360.406 996.991 362.75 997.845 365.342 997.845V991.845ZM362.973 991.085C362.447 990.472 362.146 989.719 362.146 988.648H356.146C356.146 991.02 356.877 993.194 358.417 994.99L362.973 991.085ZM362.146 988.648V946.304H356.146V988.648H362.146ZM362.146 946.304C362.146 942.705 363.268 939.969 365.398 937.839L361.155 933.597C357.777 936.975 356.146 941.297 356.146 946.304H362.146ZM365.398 937.839L430.98 872.258L426.737 868.015L361.155 933.597L365.398 937.839ZM430.98 872.258C433.345 869.893 436.111 868.747 439.445 868.747V862.747C434.516 862.747 430.225 864.527 426.737 868.015L430.98 872.258ZM439.445 868.747H580.161V862.747H439.445V868.747ZM580.161 868.747C583.495 868.747 586.261 869.893 588.626 872.258L592.869 868.015C589.381 864.527 585.09 862.747 580.161 862.747V868.747ZM588.626 872.258L654.208 937.839L658.45 933.597L592.869 868.015L588.626 872.258ZM944.476 870.653L946.601 868.536L946.597 868.531L944.476 870.653ZM1009.8 936.235L1007.67 938.352L1007.68 938.356L1009.8 936.235ZM1009.8 984.775L1011.92 986.902L1011.92 986.897L1009.8 984.775ZM898.259 1095.8L896.142 1093.67L896.137 1093.68L898.259 1095.8ZM889.48 1095.8L891.758 1093.85L891.688 1093.77L891.612 1093.69L889.48 1095.8ZM863.402 1069.46L865.534 1067.35L865.529 1067.35L865.524 1067.34L863.402 1069.46ZM861.079 1064.82H858.079V1064.97L858.093 1065.11L861.079 1064.82ZM863.402 1059.91L865.395 1062.15L865.455 1062.1L865.512 1062.04L863.402 1059.91ZM962.808 961.538L964.918 963.67L965.808 962.79V961.538H962.808ZM768.128 921.259L766.072 919.075L766.039 919.106L766.007 919.138L768.128 921.259ZM762.189 993.038L760.068 990.916L759.987 990.998L759.912 991.085L762.189 993.038ZM717.005 935.718L719.126 937.839L717.005 935.718ZM782.587 870.136L780.466 868.015L782.587 870.136ZM969.263 1053.97L971.391 1051.86L971.384 1051.85L969.263 1053.97ZM1009.8 1094.77L1007.67 1096.88L1007.68 1096.89L1009.8 1094.77ZM1009.8 1166.8L1007.68 1164.68L1007.67 1164.69L1009.8 1166.8ZM944.476 1232.39L946.597 1234.51L946.601 1234.5L944.476 1232.39ZM933.89 1236.52L933.879 1239.52H933.89V1236.52ZM793.689 1236L793.7 1233H793.689V1236ZM783.103 1231.87L780.982 1233.99L783.103 1231.87ZM717.522 1166.29L715.4 1168.41L717.522 1166.29ZM714.423 1108.71L716.545 1110.83L714.423 1108.71ZM762.189 1108.71L760.068 1110.83L762.189 1108.71ZM768.128 1180.49L766.007 1182.61L766.039 1182.64L766.072 1182.67L768.128 1180.49ZM780.005 1184.62L780.014 1181.62H780.005V1184.62ZM947.058 1185.14L947.048 1188.14H947.058V1185.14ZM964.615 1052.42L965.797 1055.18L965.878 1055.15L965.957 1055.11L964.615 1052.42ZM793.173 868.747H933.89V862.747H793.173V868.747ZM933.89 868.747C936.711 868.747 939.514 869.934 942.354 872.774L946.597 868.531C942.897 864.831 938.642 862.747 933.89 862.747V868.747ZM942.35 872.77L1007.67 938.352L1011.92 934.117L946.601 868.536L942.35 872.77ZM1007.68 938.356C1010.04 940.721 1011.19 943.487 1011.19 946.821H1017.19C1017.19 941.892 1015.41 937.601 1011.92 934.113L1007.68 938.356ZM1011.19 946.821V974.189H1017.19V946.821H1011.19ZM1011.19 974.189C1011.19 977.523 1010.04 980.289 1007.68 982.654L1011.92 986.897C1015.41 983.409 1017.19 979.118 1017.19 974.189H1011.19ZM1007.68 982.649L896.142 1093.67L900.375 1097.93L1011.92 986.902L1007.68 982.649ZM896.137 1093.68C895.56 1094.26 894.806 1094.61 893.611 1094.61V1100.61C896.203 1100.61 898.548 1099.75 900.38 1097.92L896.137 1093.68ZM893.611 1094.61C892.682 1094.61 892.168 1094.33 891.758 1093.85L887.202 1097.75C888.857 1099.68 891.098 1100.61 893.611 1100.61V1094.61ZM891.612 1093.69L865.534 1067.35L861.271 1071.57L887.348 1097.91L891.612 1093.69ZM865.524 1067.34C864.571 1066.39 864.158 1065.46 864.064 1064.52L858.093 1065.11C858.343 1067.61 859.479 1069.78 861.281 1071.58L865.524 1067.34ZM864.079 1064.82C864.079 1063.87 864.419 1063.02 865.395 1062.15L861.409 1057.67C859.288 1059.55 858.079 1061.98 858.079 1064.82H864.079ZM865.512 1062.04L964.918 963.67L960.697 959.405L861.292 1057.78L865.512 1062.04ZM965.808 961.538V932.878H959.808V961.538H965.808ZM965.808 932.878C965.808 927.166 964.378 922.33 960.992 918.944C957.606 915.558 952.77 914.128 947.058 914.128V920.128C951.845 920.128 954.885 921.323 956.749 923.187C958.613 925.051 959.808 928.09 959.808 932.878H965.808ZM947.058 914.128H780.005V920.128H947.058V914.128ZM780.005 914.128C774.443 914.128 769.681 915.677 766.072 919.075L770.184 923.444C772.427 921.333 775.583 920.128 780.005 920.128V914.128ZM766.007 919.138C762.543 922.601 760.997 927.325 760.997 932.878H766.997C766.997 928.447 768.204 925.425 770.249 923.38L766.007 919.138ZM760.997 932.878V988.648H766.997V932.878H760.997ZM760.997 988.648C760.997 989.583 760.704 990.28 760.068 990.916L764.311 995.159C766.085 993.385 766.997 991.156 766.997 988.648H760.997ZM759.912 991.085C759.56 991.496 759.004 991.845 757.8 991.845V997.845C760.383 997.845 762.754 996.989 764.467 994.99L759.912 991.085ZM757.8 991.845H719.071V997.845H757.8V991.845ZM719.071 991.845C717.876 991.845 717.122 991.494 716.545 990.916L712.302 995.159C714.134 996.991 716.479 997.845 719.071 997.845V991.845ZM716.545 990.916C715.909 990.28 715.616 989.583 715.616 988.648H709.616C709.616 991.156 710.528 993.385 712.302 995.159L716.545 990.916ZM715.616 988.648V946.304H709.616V988.648H715.616ZM715.616 946.304C715.616 942.97 716.762 940.204 719.126 937.839L714.884 933.597C711.396 937.085 709.616 941.376 709.616 946.304H715.616ZM719.126 937.839L784.708 872.258L780.466 868.015L714.884 933.597L719.126 937.839ZM784.708 872.258C787.073 869.893 789.839 868.747 793.173 868.747V862.747C788.245 862.747 783.953 864.527 780.466 868.015L784.708 872.258ZM967.135 1056.09L1007.67 1096.88L1011.93 1092.65L971.391 1051.86L967.135 1056.09ZM1007.68 1096.89C1010.04 1099.25 1011.19 1102.02 1011.19 1105.35H1017.19C1017.19 1100.42 1015.41 1096.13 1011.92 1092.65L1007.68 1096.89ZM1011.19 1105.35V1156.22H1017.19V1105.35H1011.19ZM1011.19 1156.22C1011.19 1159.55 1010.04 1162.32 1007.68 1164.68L1011.92 1168.92C1015.41 1165.44 1017.19 1161.15 1017.19 1156.22H1011.19ZM1007.67 1164.69L942.35 1230.27L946.601 1234.5L1011.92 1168.92L1007.67 1164.69ZM942.354 1230.26C940.225 1232.39 937.489 1233.52 933.89 1233.52V1239.52C938.897 1239.52 943.219 1237.88 946.597 1234.51L942.354 1230.26ZM933.901 1233.52L793.7 1233L793.678 1239L933.879 1239.52L933.901 1233.52ZM793.689 1233C790.09 1233 787.355 1231.88 785.225 1229.75L780.982 1233.99C784.36 1237.37 788.682 1239 793.689 1239V1233ZM785.225 1229.75L719.643 1164.17L715.4 1168.41L780.982 1233.99L785.225 1229.75ZM719.643 1164.17C716.802 1161.33 715.616 1158.52 715.616 1155.7H709.616C709.616 1160.45 711.7 1164.71 715.4 1168.41L719.643 1164.17ZM715.616 1155.7V1113.36H709.616V1155.7H715.616ZM715.616 1113.36C715.616 1112.16 715.967 1111.41 716.545 1110.83L712.302 1106.59C710.469 1108.42 709.616 1110.76 709.616 1113.36H715.616ZM716.545 1110.83C717.122 1110.25 717.876 1109.9 719.071 1109.9V1103.9C716.479 1103.9 714.134 1104.76 712.302 1106.59L716.545 1110.83ZM719.071 1109.9H757.8V1103.9H719.071V1109.9ZM757.8 1109.9C758.735 1109.9 759.432 1110.19 760.068 1110.83L764.311 1106.59C762.537 1104.81 760.308 1103.9 757.8 1103.9V1109.9ZM760.068 1110.83C760.645 1111.41 760.997 1112.16 760.997 1113.36H766.997C766.997 1110.76 766.143 1108.42 764.311 1106.59L760.068 1110.83ZM760.997 1113.36V1168.87H766.997V1113.36H760.997ZM760.997 1168.87C760.997 1174.42 762.543 1179.15 766.007 1182.61L770.249 1178.37C768.204 1176.32 766.997 1173.3 766.997 1168.87H760.997ZM766.072 1182.67C769.681 1186.07 774.443 1187.62 780.005 1187.62V1181.62C775.583 1181.62 772.427 1180.41 770.184 1178.3L766.072 1182.67ZM779.996 1187.62L947.048 1188.14L947.067 1182.14L780.014 1181.62L779.996 1187.62ZM947.058 1188.14C952.795 1188.14 957.643 1186.65 961.025 1183.16C964.39 1179.68 965.808 1174.73 965.808 1168.87H959.808C959.808 1173.85 958.6 1177.03 956.715 1178.98C954.847 1180.91 951.82 1182.14 947.058 1182.14V1188.14ZM965.808 1168.87V1056.81H959.808V1168.87H965.808ZM965.808 1056.81C965.808 1055.81 965.939 1055.28 966.034 1055.05C966.074 1054.95 966.088 1054.96 966.04 1055.01C965.984 1055.07 965.898 1055.14 965.797 1055.18L963.433 1049.67C960.407 1050.96 959.808 1054.25 959.808 1056.81H965.808ZM965.957 1055.11C965.96 1055.1 965.95 1055.11 965.929 1055.12C965.907 1055.12 965.882 1055.13 965.856 1055.13C965.8 1055.13 965.795 1055.12 965.861 1055.14C966.03 1055.2 966.462 1055.41 967.141 1056.09L971.384 1051.85C969.37 1049.84 966.433 1048.16 963.273 1049.74L965.957 1055.11Z" fill="#EBFF00"/>
<path d="M944.88 811.869L947.002 813.99L944.88 811.869ZM783.508 811.869L781.387 813.99L783.508 811.869ZM717.926 746.287L715.805 748.408L717.926 746.287ZM717.926 515.718L715.805 513.597L717.926 515.718ZM783.508 450.136L781.387 448.015L783.508 450.136ZM769.049 501.259L766.993 499.075L766.96 499.106L766.928 499.138L769.049 501.259ZM764.918 691.808H761.918V698.929L767.013 693.954L764.918 691.808ZM960.114 501.259L962.209 503.406L964.577 501.095L962.046 498.964L960.114 501.259ZM963.729 567.874H966.729V560.732L961.629 565.731L963.729 567.874ZM768.274 759.455L766.174 757.313L764.359 759.092L765.817 761.175L768.274 759.455ZM1008.86 517.839C1010.99 519.969 1012.11 522.705 1012.11 526.304H1018.11C1018.11 521.297 1016.48 516.975 1013.1 513.597L1008.86 517.839ZM1012.11 526.304V735.701H1018.11V526.304H1012.11ZM1012.11 735.701C1012.11 738.776 1010.94 741.564 1008.34 744.166L1012.58 748.408C1016.18 744.813 1018.11 740.544 1018.11 735.701H1012.11ZM1008.34 744.166L942.759 809.748L947.002 813.99L1012.58 748.408L1008.34 744.166ZM942.759 809.748C940.629 811.877 937.893 813 934.294 813V819C939.302 819 943.623 817.368 947.002 813.99L942.759 809.748ZM934.294 813H794.094V819H934.294V813ZM794.094 813C790.495 813 787.759 811.877 785.629 809.748L781.387 813.99C784.765 817.368 789.087 819 794.094 819V813ZM785.629 809.748L720.047 744.166L715.805 748.408L781.387 813.99L785.629 809.748ZM720.047 744.166C717.918 742.036 716.795 739.3 716.795 735.701H710.795C710.795 740.708 712.426 745.03 715.805 748.408L720.047 744.166ZM716.795 735.701V526.304H710.795V735.701H716.795ZM716.795 526.304C716.795 522.705 717.918 519.969 720.047 517.839L715.805 513.597C712.426 516.975 710.795 521.297 710.795 526.304H716.795ZM720.047 517.839L785.629 452.258L781.387 448.015L715.805 513.597L720.047 517.839ZM785.629 452.258C787.994 449.893 790.76 448.747 794.094 448.747V442.747C789.166 442.747 784.874 444.527 781.387 448.015L785.629 452.258ZM794.094 448.747H934.811V442.747H794.094V448.747ZM934.811 448.747C938.145 448.747 940.911 449.893 943.275 452.258L947.518 448.015C944.03 444.527 939.739 442.747 934.811 442.747V448.747ZM943.275 452.258L1008.86 517.839L1013.1 513.597L947.518 448.015L943.275 452.258ZM780.926 494.128C775.364 494.128 770.602 495.677 766.993 499.075L771.105 503.444C773.348 501.333 776.504 500.128 780.926 500.128V494.128ZM766.928 499.138C763.464 502.601 761.918 507.325 761.918 512.878H767.918C767.918 508.447 769.125 505.425 771.17 503.38L766.928 499.138ZM761.918 512.878V691.808H767.918V512.878H761.918ZM767.013 693.954L962.209 503.406L958.018 499.112L762.822 689.661L767.013 693.954ZM962.046 498.964C958.166 495.697 953.41 494.128 947.979 494.128V500.128C952.187 500.128 955.521 501.313 958.181 503.554L962.046 498.964ZM947.979 494.128H780.926V500.128H947.979V494.128ZM947.979 767.619C953.691 767.619 958.526 766.189 961.912 762.803C965.298 759.417 966.729 754.581 966.729 748.869H960.729C960.729 753.657 959.534 756.696 957.67 758.56C955.806 760.424 952.766 761.619 947.979 761.619V767.619ZM966.729 748.869V567.874H960.729V748.869H966.729ZM961.629 565.731L766.174 757.313L770.374 761.598L965.829 570.016L961.629 565.731ZM765.817 761.175C769.005 765.731 774.376 767.619 780.926 767.619V761.619C775.427 761.619 772.363 760.064 770.732 757.735L765.817 761.175ZM780.926 767.619H947.979V761.619H780.926V767.619ZM1381.49 590.337L1383.61 592.462L1383.61 592.458L1381.49 590.337ZM1315.91 655.66L1313.79 653.535L1313.79 653.539L1315.91 655.66ZM1196.88 660.05V657.05H1195.64L1194.76 657.928L1196.88 660.05ZM1131.81 725.115L1129.69 722.994L1128.81 723.872V725.115H1131.81ZM1384.33 766.685L1382.07 768.66L1382.14 768.735L1382.21 768.806L1384.33 766.685ZM1084.82 701.877L1086.94 703.999L1086.95 703.993L1086.96 703.986L1084.82 701.877ZM1172.61 613.058L1170.49 610.937L1170.48 610.943L1170.48 610.949L1172.61 613.058ZM1140.08 501.259L1138.02 499.075L1137.99 499.106L1137.96 499.138L1140.08 501.259ZM1134.14 573.038L1132.02 570.916L1131.94 570.998L1131.86 571.085L1134.14 573.038ZM1086.37 573.038L1084.09 574.99L1084.17 575.077L1084.25 575.159L1086.37 573.038ZM1088.95 515.718L1086.83 513.597L1088.95 515.718ZM1154.54 450.136L1152.41 448.015L1154.54 450.136ZM1316.42 450.136L1318.55 448.015L1316.42 450.136ZM1379.88 517.839C1382.01 519.969 1383.14 522.705 1383.14 526.304H1389.14C1389.14 521.297 1387.51 516.975 1384.13 513.597L1379.88 517.839ZM1383.14 526.304V579.751H1389.14V526.304H1383.14ZM1383.14 579.751C1383.14 582.826 1381.97 585.614 1379.37 588.215L1383.61 592.458C1387.21 588.863 1389.14 584.594 1389.14 579.751H1383.14ZM1379.37 588.211L1313.79 653.535L1318.03 657.786L1383.61 592.462L1379.37 588.211ZM1313.79 653.539C1311.64 655.69 1308.07 657.05 1302.48 657.05V663.05C1308.94 663.05 1314.33 661.483 1318.03 657.782L1313.79 653.539ZM1302.48 657.05H1196.88V663.05H1302.48V657.05ZM1194.76 657.928L1129.69 722.994L1133.94 727.236L1199 662.171L1194.76 657.928ZM1128.81 725.115V748.869H1134.81V725.115H1128.81ZM1128.81 748.869C1128.81 754.581 1130.24 759.417 1133.63 762.803C1137.02 766.189 1141.85 767.619 1147.56 767.619V761.619C1142.78 761.619 1139.74 760.424 1137.87 758.56C1136.01 756.696 1134.81 753.657 1134.81 748.869H1128.81ZM1147.56 767.619H1379.68V761.619H1147.56V767.619ZM1379.68 767.619C1380.75 767.619 1381.46 767.96 1382.07 768.66L1386.59 764.709C1384.79 762.656 1382.41 761.619 1379.68 761.619V767.619ZM1382.21 768.806C1382.84 769.442 1383.14 770.139 1383.14 771.074H1389.14C1389.14 768.566 1388.23 766.337 1386.45 764.563L1382.21 768.806ZM1383.14 771.074V809.545H1389.14V771.074H1383.14ZM1383.14 809.545C1383.14 810.74 1382.79 811.494 1382.21 812.071L1386.45 816.314C1388.28 814.481 1389.14 812.137 1389.14 809.545H1383.14ZM1382.21 812.071C1381.63 812.649 1380.88 813 1379.68 813V819C1382.27 819 1384.62 818.146 1386.45 816.314L1382.21 812.071ZM1379.68 813H1160.99V819H1379.68V813ZM1160.99 813C1157.92 813 1155.13 811.833 1152.53 809.231L1148.28 813.474C1151.88 817.069 1156.15 819 1160.99 819V813ZM1152.53 809.231L1086.94 743.649L1082.7 747.892L1148.28 813.474L1152.53 809.231ZM1086.94 743.649C1084.58 741.285 1083.43 738.519 1083.43 735.185H1077.43C1077.43 740.113 1079.21 744.404 1082.7 747.892L1086.94 743.649ZM1083.43 735.185V712.463H1077.43V735.185H1083.43ZM1083.43 712.463C1083.43 709.129 1084.58 706.363 1086.94 703.999L1082.7 699.756C1079.21 703.244 1077.43 707.535 1077.43 712.463H1083.43ZM1086.96 703.986L1174.74 615.167L1170.48 610.949L1082.69 699.769L1086.96 703.986ZM1174.73 615.179C1177.1 612.815 1179.86 611.669 1183.2 611.669V605.669C1178.27 605.669 1173.98 607.449 1170.49 610.937L1174.73 615.179ZM1183.2 611.669H1319.01V605.669H1183.2V611.669ZM1319.01 611.669C1324.72 611.669 1329.55 610.239 1332.94 606.852C1336.33 603.466 1337.76 598.631 1337.76 592.919H1331.76C1331.76 597.706 1330.56 600.746 1328.7 602.61C1326.83 604.474 1323.79 605.669 1319.01 605.669V611.669ZM1337.76 592.919V512.878H1331.76V592.919H1337.76ZM1337.76 512.878C1337.76 507.166 1336.33 502.33 1332.94 498.944C1329.55 495.558 1324.72 494.128 1319.01 494.128V500.128C1323.79 500.128 1326.83 501.323 1328.7 503.187C1330.56 505.051 1331.76 508.09 1331.76 512.878H1337.76ZM1319.01 494.128H1151.95V500.128H1319.01V494.128ZM1151.95 494.128C1146.39 494.128 1141.63 495.677 1138.02 499.075L1142.13 503.444C1144.38 501.333 1147.53 500.128 1151.95 500.128V494.128ZM1137.96 499.138C1134.49 502.601 1132.95 507.325 1132.95 512.878H1138.95C1138.95 508.447 1140.15 505.425 1142.2 503.38L1137.96 499.138ZM1132.95 512.878V568.648H1138.95V512.878H1132.95ZM1132.95 568.648C1132.95 569.583 1132.65 570.28 1132.02 570.916L1136.26 575.159C1138.03 573.385 1138.95 571.156 1138.95 568.648H1132.95ZM1131.86 571.085C1131.51 571.496 1130.95 571.845 1129.75 571.845V577.845C1132.33 577.845 1134.7 576.989 1136.42 574.99L1131.86 571.085ZM1129.75 571.845H1091.02V577.845H1129.75V571.845ZM1091.02 571.845C1089.82 571.845 1089.07 571.494 1088.49 570.916L1084.25 575.159C1086.08 576.991 1088.43 577.845 1091.02 577.845V571.845ZM1088.65 571.085C1088.12 570.472 1087.82 569.719 1087.82 568.648H1081.82C1081.82 571.02 1082.55 573.194 1084.09 574.99L1088.65 571.085ZM1087.82 568.648V526.304H1081.82V568.648H1087.82ZM1087.82 526.304C1087.82 522.705 1088.95 519.969 1091.07 517.839L1086.83 513.597C1083.45 516.975 1081.82 521.297 1081.82 526.304H1087.82ZM1091.07 517.839L1156.66 452.258L1152.41 448.015L1086.83 513.597L1091.07 517.839ZM1156.66 452.258C1159.02 449.893 1161.79 448.747 1165.12 448.747V442.747C1160.19 442.747 1155.9 444.527 1152.41 448.015L1156.66 452.258ZM1165.12 448.747H1305.84V442.747H1165.12V448.747ZM1305.84 448.747C1309.17 448.747 1311.94 449.893 1314.3 452.258L1318.55 448.015C1315.06 444.527 1310.77 442.747 1305.84 442.747V448.747ZM1314.3 452.258L1379.88 517.839L1384.13 513.597L1318.55 448.015L1314.3 452.258Z" fill="#EBFF00"/>
</svg>
