<svg width="768" height="599" viewBox="0 0 768 599" fill="none" xmlns="http://www.w3.org/2000/svg">
<g clip-path="url(#clip0_102_775)">
<path d="M-79.4761 565.669L-78.0619 564.255L-78.068 564.249L-78.0741 564.243L-79.4761 565.669ZM-109.175 536.473L-107.773 535.047L-107.869 534.953L-107.975 534.873L-109.175 536.473ZM-109.175 522.378L-110.584 520.959L-110.59 520.964L-109.175 522.378ZM92.6794 322.034L94.0883 323.453L94.0936 323.448L92.6794 322.034ZM92.6794 267.669L94.0936 266.255L94.0882 266.249L94.0829 266.244L92.6794 267.669ZM-109.175 68.8342L-110.59 70.2484L-110.584 70.2537L-110.579 70.259L-109.175 68.8342ZM-109.175 54.2362L-108.066 55.9003L-107.894 55.7857L-107.749 55.6385L-109.175 54.2362ZM-79.4761 24.0335L-80.6295 22.3996L-80.7762 22.5031L-80.9022 22.6312L-79.4761 24.0335ZM-64.8781 24.0335L-66.2924 25.4477L-66.2904 25.4497L-64.8781 24.0335ZM116.338 204.746L117.752 203.332L117.75 203.33L116.338 204.746ZM116.338 385.963L117.746 387.383L117.828 387.302L117.9 387.212L116.338 385.963ZM-64.8781 565.669L-66.2864 564.249L-66.3627 564.324L-66.4304 564.408L-64.8781 565.669ZM-78.0741 564.243L-107.773 535.047L-110.578 537.899L-80.8782 567.095L-78.0741 564.243ZM-107.975 534.873C-110.385 533.066 -111.202 531.41 -111.202 529.929C-111.202 528.358 -110.292 526.324 -107.761 523.793L-110.59 520.964C-113.428 523.802 -115.202 526.802 -115.202 529.929C-115.202 533.147 -113.336 535.853 -110.375 538.073L-107.975 534.873ZM-107.767 523.798L94.0883 323.453L91.2705 320.614L-110.584 520.959L-107.767 523.798ZM94.0936 323.448C103.372 314.169 108.271 304.63 108.271 294.851C108.271 285.073 103.372 275.533 94.0936 266.255L91.2652 269.083C100.108 277.926 104.271 286.508 104.271 294.851C104.271 303.194 100.108 311.777 91.2652 320.619L94.0936 323.448ZM94.0829 266.244L-107.772 67.4094L-110.579 70.259L91.2759 269.094L94.0829 266.244ZM-107.761 67.42C-109.375 65.806 -110.196 63.8091 -110.196 61.2835H-114.196C-114.196 64.7985 -113.003 67.8353 -110.59 70.2484L-107.761 67.42ZM-110.196 61.2835C-110.196 58.3139 -109.323 56.7385 -108.066 55.9003L-110.285 52.5721C-113.055 54.4186 -114.196 57.5414 -114.196 61.2835H-110.196ZM-107.749 55.6385L-78.0501 25.4358L-80.9022 22.6312L-110.602 52.8339L-107.749 55.6385ZM-78.3228 25.6674C-75.6668 23.7926 -73.4236 23.0132 -71.5479 23.0132C-69.7355 23.0132 -67.9997 23.7403 -66.2924 25.4477L-63.4639 22.6193C-65.7836 20.2996 -68.4944 19.0132 -71.5479 19.0132C-74.5382 19.0132 -77.5805 20.2474 -80.6295 22.3996L-78.3228 25.6674ZM-66.2904 25.4497L114.926 206.163L117.75 203.33L-63.4659 22.6173L-66.2904 25.4497ZM114.924 206.161C118.491 209.728 120.379 214.708 120.379 221.358H124.379C124.379 213.914 122.239 207.819 117.752 203.332L114.924 206.161ZM120.379 221.358V369.855H124.379V221.358H120.379ZM120.379 369.855C120.379 375.047 118.559 379.986 114.776 384.713L117.9 387.212C122.172 381.872 124.379 376.072 124.379 369.855H120.379ZM114.93 384.543L-66.2864 564.249L-63.4699 567.089L117.746 387.383L114.93 384.543ZM-66.4304 564.408C-68.3991 566.831 -70.1916 567.696 -71.7996 567.696C-73.47 567.696 -75.5479 566.769 -78.0619 564.255L-80.8903 567.083C-78.035 569.938 -74.9952 571.696 -71.7996 571.696C-68.5416 571.696 -65.7198 569.876 -63.3259 566.93L-66.4304 564.408ZM-466.071 324.564C-468.179 324.564 -469.791 323.808 -471.078 322.263L-474.151 324.824C-472.083 327.306 -469.333 328.564 -466.071 328.564V324.564ZM-471.078 322.263C-472.412 320.663 -473.132 318.621 -473.132 315.993H-477.132C-477.132 319.406 -476.174 322.397 -474.151 324.824L-471.078 322.263ZM-473.132 315.993V273.709H-477.132V315.993H-473.132ZM-473.132 273.709C-473.132 270.613 -472.43 268.664 -471.38 267.497C-470.365 266.369 -468.725 265.642 -466.071 265.642V261.642C-469.457 261.642 -472.347 262.592 -474.353 264.821C-476.323 267.009 -477.132 270.094 -477.132 273.709H-473.132ZM-466.071 265.642H29.757V261.642H-466.071V265.642ZM29.757 265.642C32.9961 265.642 35.054 266.415 36.3059 267.607C37.5396 268.782 38.328 270.687 38.328 273.709H42.328C42.328 270.02 41.3545 266.891 39.0646 264.71C36.7928 262.547 33.5653 261.642 29.757 261.642V265.642ZM38.328 273.709V315.993H42.328V273.709H38.328ZM38.328 315.993C38.328 318.519 37.5074 320.516 35.8935 322.13L38.7219 324.958C41.135 322.545 42.328 319.508 42.328 315.993H38.328ZM35.8935 322.13C34.2796 323.743 32.2826 324.564 29.757 324.564V328.564C33.272 328.564 36.3088 327.371 38.7219 324.958L35.8935 322.13ZM29.757 324.564H-466.071V328.564H29.757V324.564ZM545.317 565.669L546.732 564.255L546.726 564.249L546.72 564.243L545.317 565.669ZM515.618 536.473L517.02 535.047L516.925 534.953L516.818 534.873L515.618 536.473ZM515.618 522.378L514.209 520.959L514.204 520.964L515.618 522.378ZM717.473 322.034L718.882 323.453L718.887 323.448L717.473 322.034ZM717.473 267.669L718.887 266.255L718.882 266.249L718.876 266.244L717.473 267.669ZM515.618 68.8342L514.204 70.2484L514.209 70.2537L514.215 70.259L515.618 68.8342ZM515.618 54.2362L516.728 55.9003L516.899 55.7857L517.044 55.6385L515.618 54.2362ZM545.317 24.0335L544.164 22.3996L544.017 22.5031L543.891 22.6312L545.317 24.0335ZM559.915 24.0335L558.501 25.4477L558.503 25.4497L559.915 24.0335ZM741.132 204.746L742.546 203.332L742.544 203.33L741.132 204.746ZM741.132 385.963L742.54 387.383L742.622 387.302L742.693 387.212L741.132 385.963ZM559.915 565.669L558.507 564.249L558.431 564.324L558.363 564.408L559.915 565.669ZM546.72 564.243L517.02 535.047L514.216 537.899L543.915 567.095L546.72 564.243ZM516.818 534.873C514.409 533.066 513.591 531.41 513.591 529.929C513.591 528.358 514.501 526.324 517.032 523.793L514.204 520.964C511.366 523.802 509.591 526.802 509.591 529.929C509.591 533.147 511.458 535.853 514.418 538.073L516.818 534.873ZM517.027 523.798L718.882 323.453L716.064 320.614L514.209 520.959L517.027 523.798ZM718.887 323.448C728.166 314.169 733.064 304.63 733.064 294.851C733.064 285.073 728.166 275.533 718.887 266.255L716.059 269.083C724.902 277.926 729.064 286.508 729.064 294.851C729.064 303.194 724.902 311.777 716.059 320.619L718.887 323.448ZM718.876 266.244L517.022 67.4094L514.215 70.259L716.069 269.094L718.876 266.244ZM517.032 67.42C515.418 65.806 514.598 63.8091 514.598 61.2835H510.598C510.598 64.7985 511.791 67.8353 514.204 70.2484L517.032 67.42ZM514.598 61.2835C514.598 58.3139 515.47 56.7385 516.728 55.9003L514.509 52.5721C511.739 54.4186 510.598 57.5414 510.598 61.2835H514.598ZM517.044 55.6385L546.744 25.4358L543.891 22.6312L514.192 52.8339L517.044 55.6385ZM546.471 25.6674C549.127 23.7926 551.37 23.0132 553.246 23.0132C555.058 23.0132 556.794 23.7403 558.501 25.4477L561.33 22.6193C559.01 20.2996 556.299 19.0132 553.246 19.0132C550.255 19.0132 547.213 20.2474 544.164 22.3996L546.471 25.6674ZM558.503 25.4497L739.719 206.163L742.544 203.33L561.328 22.6173L558.503 25.4497ZM739.718 206.161C743.285 209.728 745.172 214.708 745.172 221.358H749.172C749.172 213.914 747.033 207.819 742.546 203.332L739.718 206.161ZM745.172 221.358V369.855H749.172V221.358H745.172ZM745.172 369.855C745.172 375.047 743.352 379.986 739.57 384.713L742.693 387.212C746.965 381.872 749.172 376.072 749.172 369.855H745.172ZM739.723 384.543L558.507 564.249L561.324 567.089L742.54 387.383L739.723 384.543ZM558.363 564.408C556.394 566.831 554.602 567.696 552.994 567.696C551.324 567.696 549.246 566.769 546.732 564.255L543.903 567.083C546.759 569.938 549.798 571.696 552.994 571.696C556.252 571.696 559.074 569.876 561.468 566.93L558.363 564.408ZM158.723 324.564C156.615 324.564 155.003 323.808 153.715 322.263L150.642 324.824C152.711 327.306 155.461 328.564 158.723 328.564V324.564ZM153.715 322.263C152.382 320.663 151.662 318.621 151.662 315.993H147.662C147.662 319.406 148.62 322.397 150.642 324.824L153.715 322.263ZM151.662 315.993V273.709H147.662V315.993H151.662ZM151.662 273.709C151.662 270.613 152.363 268.664 153.414 267.497C154.428 266.369 156.068 265.642 158.723 265.642V261.642C155.336 261.642 152.446 262.592 150.44 264.821C148.471 267.009 147.662 270.094 147.662 273.709H151.662ZM158.723 265.642H654.551V261.642H158.723V265.642ZM654.551 265.642C657.79 265.642 659.848 266.415 661.1 267.607C662.333 268.782 663.122 270.687 663.122 273.709H667.122C667.122 270.02 666.148 266.891 663.858 264.71C661.586 262.547 658.359 261.642 654.551 261.642V265.642ZM663.122 273.709V315.993H667.122V273.709H663.122ZM663.122 315.993C663.122 318.519 662.301 320.516 660.687 322.13L663.516 324.958C665.929 322.545 667.122 319.508 667.122 315.993H663.122ZM660.687 322.13C659.073 323.743 657.076 324.564 654.551 324.564V328.564C658.066 328.564 661.102 327.371 663.516 324.958L660.687 322.13ZM654.551 324.564H158.723V328.564H654.551V324.564Z" fill="#EBFF00"/>
</g>
<defs>
<clipPath id="clip0_102_775">
<rect width="768" height="599" fill="white"/>
</clipPath>
</defs>
</svg>
