<svg width="1440" height="576" viewBox="0 0 1440 576" fill="none" xmlns="http://www.w3.org/2000/svg">
<path d="M591.633 558.669L593.755 556.548L593.746 556.539L593.736 556.53L591.633 558.669ZM561.934 529.473L564.037 527.334L563.894 527.193L563.734 527.073L561.934 529.473ZM561.934 515.378L559.821 513.249L559.813 513.257L561.934 515.378ZM763.789 315.034L765.902 317.163L765.91 317.155L763.789 315.034ZM763.789 260.669L765.91 258.547L765.902 258.539L765.894 258.531L763.789 260.669ZM561.934 61.8342L559.813 63.9555L559.821 63.9635L559.829 63.9714L561.934 61.8342ZM561.934 47.2362L563.598 49.7324L563.856 49.5605L564.073 49.3396L561.934 47.2362ZM591.633 17.0335L589.903 14.5826L589.683 14.738L589.494 14.9301L591.633 17.0335ZM606.231 17.0335L604.11 19.1548L604.113 19.1578L606.231 17.0335ZM787.448 197.746L789.569 195.625L789.566 195.622L787.448 197.746ZM787.448 378.963L789.56 381.093L789.682 380.971L789.79 380.837L787.448 378.963ZM606.231 558.669L604.119 556.539L604.004 556.652L603.903 556.777L606.231 558.669ZM593.736 556.53L564.037 527.334L559.831 531.612L589.53 560.808L593.736 556.53ZM563.734 527.073C561.462 525.369 560.907 523.975 560.907 522.929C560.907 521.747 561.601 519.954 564.055 517.5L559.813 513.257C556.898 516.172 554.907 519.413 554.907 522.929C554.907 526.581 557.036 529.549 560.134 531.873L563.734 527.073ZM564.047 517.508L765.902 317.163L761.675 312.904L559.821 513.249L564.047 517.508ZM765.91 317.155C775.298 307.767 780.38 297.988 780.38 287.851C780.38 277.714 775.298 267.935 765.91 258.547L761.667 262.79C770.401 271.524 774.38 279.867 774.38 287.851C774.38 295.836 770.401 304.178 761.667 312.912L765.91 317.155ZM765.894 258.531L564.039 59.6969L559.829 63.9714L761.683 262.806L765.894 258.531ZM564.055 59.7129C562.641 58.2987 561.914 56.5617 561.914 54.2835H555.914C555.914 58.0459 557.2 61.3426 559.813 63.9555L564.055 59.7129ZM561.914 54.2835C561.914 51.507 562.719 50.3185 563.598 49.7324L560.27 44.7401C557.122 46.8386 555.914 50.3483 555.914 54.2835H561.914ZM564.073 49.3396L593.772 19.1369L589.494 14.9301L559.795 45.1328L564.073 49.3396ZM593.363 19.4844C595.921 17.6789 597.964 17.0132 599.561 17.0132C601.064 17.0132 602.556 17.6005 604.11 19.1548L608.353 14.9122C605.88 12.4394 602.925 11.0132 599.561 11.0132C596.293 11.0132 593.05 12.361 589.903 14.5826L593.363 19.4844ZM604.113 19.1578L785.329 199.871L789.566 195.622L608.35 14.9092L604.113 19.1578ZM785.326 199.868C788.663 203.205 790.488 207.906 790.488 214.358H796.488C796.488 206.715 794.286 200.342 789.569 195.625L785.326 199.868ZM790.488 214.358V362.855H796.488V214.358H790.488ZM790.488 362.855C790.488 367.79 788.765 372.514 785.105 377.089L789.79 380.837C794.184 375.344 796.488 369.329 796.488 362.855H790.488ZM785.335 376.833L604.119 556.539L608.344 560.799L789.56 381.093L785.335 376.833ZM603.903 556.777C602.04 559.069 600.505 559.696 599.31 559.696C598.021 559.696 596.183 558.976 593.755 556.548L589.512 560.79C592.453 563.731 595.733 565.696 599.31 565.696C602.98 565.696 606.059 563.638 608.56 560.561L603.903 556.777ZM205.038 316.564C203.219 316.564 201.891 315.934 200.799 314.623L196.19 318.464C198.454 321.181 201.488 322.564 205.038 322.564V316.564ZM200.799 314.623C199.638 313.23 198.978 311.424 198.978 308.993H192.978C192.978 312.602 193.995 315.831 196.19 318.464L200.799 314.623ZM198.978 308.993V266.709H192.978V308.993H198.978ZM198.978 266.709C198.978 263.742 199.652 262.077 200.473 261.166C201.239 260.314 202.567 259.642 205.038 259.642V253.642C201.469 253.642 198.267 254.648 196.013 257.152C193.813 259.596 192.978 262.964 192.978 266.709H198.978ZM205.038 259.642H700.866V253.642H205.038V259.642ZM700.866 259.642C703.963 259.642 705.729 260.382 706.726 261.331C707.695 262.254 708.437 263.854 708.437 266.709H714.437C714.437 262.853 713.418 259.419 710.864 256.986C708.337 254.58 704.817 253.642 700.866 253.642V259.642ZM708.437 266.709V308.993H714.437V266.709H708.437ZM708.437 308.993C708.437 311.271 707.71 313.008 706.296 314.422L710.538 318.665C713.151 316.052 714.437 312.755 714.437 308.993H708.437ZM706.296 314.422C704.882 315.837 703.145 316.564 700.866 316.564V322.564C704.629 322.564 707.926 321.278 710.538 318.665L706.296 314.422ZM700.866 316.564H205.038V322.564H700.866V316.564ZM1216.43 558.669L1218.55 556.548L1218.54 556.539L1218.53 556.53L1216.43 558.669ZM1186.73 529.473L1188.83 527.334L1188.69 527.193L1188.53 527.073L1186.73 529.473ZM1186.73 515.378L1184.61 513.249L1184.61 513.257L1186.73 515.378ZM1388.58 315.034L1390.7 317.163L1390.7 317.155L1388.58 315.034ZM1388.58 260.669L1390.7 258.547L1390.7 258.539L1390.69 258.531L1388.58 260.669ZM1186.73 61.8342L1184.61 63.9555L1184.61 63.9635L1184.62 63.9714L1186.73 61.8342ZM1186.73 47.2362L1188.39 49.7324L1188.65 49.5605L1188.87 49.3396L1186.73 47.2362ZM1216.43 17.0335L1214.7 14.5826L1214.48 14.738L1214.29 14.9301L1216.43 17.0335ZM1231.02 17.0335L1228.9 19.1548L1228.91 19.1578L1231.02 17.0335ZM1412.24 197.746L1414.36 195.625L1414.36 195.622L1412.24 197.746ZM1412.24 378.963L1414.35 381.093L1414.48 380.971L1414.58 380.837L1412.24 378.963ZM1231.02 558.669L1228.91 556.539L1228.8 556.652L1228.7 556.777L1231.02 558.669ZM1218.53 556.53L1188.83 527.334L1184.62 531.612L1214.32 560.808L1218.53 556.53ZM1188.53 527.073C1186.26 525.369 1185.7 523.975 1185.7 522.929C1185.7 521.747 1186.39 519.954 1188.85 517.5L1184.61 513.257C1181.69 516.172 1179.7 519.413 1179.7 522.929C1179.7 526.581 1181.83 529.549 1184.93 531.873L1188.53 527.073ZM1188.84 517.508L1390.7 317.163L1386.47 312.904L1184.61 513.249L1188.84 517.508ZM1390.7 317.155C1400.09 307.767 1405.17 297.988 1405.17 287.851C1405.17 277.714 1400.09 267.935 1390.7 258.547L1386.46 262.79C1395.19 271.524 1399.17 279.867 1399.17 287.851C1399.17 295.836 1395.19 304.178 1386.46 312.912L1390.7 317.155ZM1390.69 258.531L1188.83 59.6969L1184.62 63.9714L1386.48 262.806L1390.69 258.531ZM1188.85 59.7129C1187.43 58.2987 1186.71 56.5617 1186.71 54.2835H1180.71C1180.71 58.0459 1181.99 61.3426 1184.61 63.9555L1188.85 59.7129ZM1186.71 54.2835C1186.71 51.507 1187.51 50.3185 1188.39 49.7324L1185.06 44.7401C1181.92 46.8386 1180.71 50.3483 1180.71 54.2835H1186.71ZM1188.87 49.3396L1218.57 19.1369L1214.29 14.9301L1184.59 45.1328L1188.87 49.3396ZM1218.16 19.4844C1220.71 17.6789 1222.76 17.0132 1224.36 17.0132C1225.86 17.0132 1227.35 17.6005 1228.9 19.1548L1233.15 14.9122C1230.67 12.4394 1227.72 11.0132 1224.36 11.0132C1221.09 11.0132 1217.84 12.361 1214.7 14.5826L1218.16 19.4844ZM1228.91 19.1578L1410.12 199.871L1414.36 195.622L1233.14 14.9092L1228.91 19.1578ZM1410.12 199.868C1413.46 203.205 1415.28 207.906 1415.28 214.358H1421.28C1421.28 206.715 1419.08 200.342 1414.36 195.625L1410.12 199.868ZM1415.28 214.358V362.855H1421.28V214.358H1415.28ZM1415.28 362.855C1415.28 367.79 1413.56 372.514 1409.9 377.089L1414.58 380.837C1418.98 375.344 1421.28 369.329 1421.28 362.855H1415.28ZM1410.13 376.833L1228.91 556.539L1233.14 560.799L1414.35 381.093L1410.13 376.833ZM1228.7 556.777C1226.83 559.069 1225.3 559.696 1224.1 559.696C1222.81 559.696 1220.98 558.976 1218.55 556.548L1214.31 560.79C1217.25 563.731 1220.53 565.696 1224.1 565.696C1227.77 565.696 1230.85 563.638 1233.35 560.561L1228.7 556.777ZM829.832 316.564C828.013 316.564 826.685 315.934 825.593 314.623L820.983 318.464C823.247 321.181 826.282 322.564 829.832 322.564V316.564ZM825.593 314.623C824.431 313.23 823.771 311.424 823.771 308.993H817.771C817.771 312.602 818.789 315.831 820.983 318.464L825.593 314.623ZM823.771 308.993V266.709H817.771V308.993H823.771ZM823.771 266.709C823.771 263.742 824.446 262.077 825.266 261.166C826.033 260.314 827.361 259.642 829.832 259.642V253.642C826.263 253.642 823.06 254.648 820.807 257.152C818.607 259.596 817.771 262.964 817.771 266.709H823.771ZM829.832 259.642H1325.66V253.642H829.832V259.642ZM1325.66 259.642C1328.76 259.642 1330.52 260.382 1331.52 261.331C1332.49 262.254 1333.23 263.854 1333.23 266.709H1339.23C1339.23 262.853 1338.21 259.419 1335.66 256.986C1333.13 254.58 1329.61 253.642 1325.66 253.642V259.642ZM1333.23 266.709V308.993H1339.23V266.709H1333.23ZM1333.23 308.993C1333.23 311.271 1332.5 313.008 1331.09 314.422L1335.33 318.665C1337.94 316.052 1339.23 312.755 1339.23 308.993H1333.23ZM1331.09 314.422C1329.68 315.837 1327.94 316.564 1325.66 316.564V322.564C1329.42 322.564 1332.72 321.278 1335.33 318.665L1331.09 314.422ZM1325.66 316.564H829.832V322.564H1325.66V316.564Z" fill="#EBFF00"/>
</svg>
