<svg width="65" height="65" viewBox="0 0 65 65" fill="none" xmlns="http://www.w3.org/2000/svg">
<path fill-rule="evenodd" clip-rule="evenodd" d="M52.2099 0.399902H12.5909C11.829 0.399902 11.0671 0.399902 11.0671 1.16181L1.1623 11.0666C0.400391 11.0666 0.400391 11.8285 0.400391 12.5904V52.2094C0.400391 52.9713 0.400391 53.7332 1.1623 53.7332L11.0671 63.638C11.0671 64.3999 11.829 64.3999 12.5909 64.3999H52.2099C52.2099 64.3999 52.9718 64.3999 53.7337 63.638L63.6385 53.7332C64.4004 53.7332 64.4004 52.9713 64.4004 52.2094V12.5904C64.4004 11.8285 64.4004 11.8285 63.6385 11.0666L53.7337 1.16181C52.9718 0.399902 52.2099 0.399902 52.2099 0.399902ZM8.01944 8.78086C8.78134 8.01895 9.54325 7.25705 11.0671 7.25705H53.7337C54.4956 7.25705 55.2575 8.01895 56.0194 8.78086C56.7813 9.54276 56.7813 10.3047 56.7813 11.0666V53.7332C56.7813 54.6095 56.7813 54.9819 56.6365 55.285C56.5294 55.509 56.3432 55.6952 56.0194 56.019C55.2575 56.7809 54.4956 56.7809 53.7337 56.7809H10.3052C8.01944 56.7809 7.25753 56.019 7.25753 53.7332V11.0666C7.25753 9.54276 7.25753 9.54276 8.01944 8.78086ZM43.8293 30.8742L24.7816 20.2076C24.0197 19.4457 23.2578 20.2076 23.2578 21.7314V43.0647C23.2578 43.8266 24.0197 44.5885 24.7816 43.8266L43.8293 33.1599C44.5912 33.1599 44.5912 31.6361 43.8293 30.8742Z" fill="white"/>
</svg>
