<svg width="27" height="27" viewBox="0 0 27 27" fill="none" xmlns="http://www.w3.org/2000/svg">
<rect width="27" height="27" rx="13.5" fill="white"/>
<path d="M11.568 15.656V14.984C11.568 14.472 11.664 14.056 11.856 13.736C12.0587 13.416 12.4 13.144 12.88 12.92L13.232 12.76C13.744 12.536 14.144 12.28 14.432 11.992C14.72 11.704 14.864 11.304 14.864 10.792C14.864 10.4187 14.768 10.104 14.576 9.848C14.384 9.592 14.1227 9.39467 13.792 9.256C13.4613 9.11733 13.0827 9.048 12.656 9.048C12.2293 9.048 11.8347 9.12267 11.472 9.272C11.12 9.41067 10.8373 9.62933 10.624 9.928C10.4107 10.2267 10.304 10.6 10.304 11.048V11.496H8.608V11.048C8.608 10.3227 8.784 9.69867 9.136 9.176C9.49867 8.65333 9.984 8.25867 10.592 7.992C11.2 7.71467 11.888 7.576 12.656 7.576C13.4133 7.576 14.0853 7.71467 14.672 7.992C15.2587 8.26933 15.7173 8.648 16.048 9.128C16.3893 9.608 16.56 10.1627 16.56 10.792C16.56 11.4107 16.4427 11.928 16.208 12.344C15.984 12.7493 15.6907 13.08 15.328 13.336C14.9653 13.592 14.5813 13.8107 14.176 13.992L13.824 14.152C13.632 14.2373 13.4933 14.344 13.408 14.472C13.3333 14.6 13.296 14.792 13.296 15.048V15.656H11.568ZM12.464 19.224C12.1013 19.224 11.792 19.1013 11.536 18.856C11.2907 18.6107 11.168 18.296 11.168 17.912C11.168 17.528 11.2907 17.2187 11.536 16.984C11.792 16.7387 12.1013 16.616 12.464 16.616C12.848 16.616 13.1627 16.7387 13.408 16.984C13.6533 17.2187 13.776 17.528 13.776 17.912C13.776 18.296 13.6533 18.6107 13.408 18.856C13.1627 19.1013 12.848 19.224 12.464 19.224Z" fill="black"/>
</svg>
