<svg xmlns="http://www.w3.org/2000/svg" width="139" height="36" viewBox="0 0 139 36" fill="none"><path d="M19.1625 36C17.7463 36 16.2993 35.9854 14.6065 35.9561L14.5319 35.9546L14.4544 35.9517C10.5656 35.7952 7.22688 34.4784 4.80406 32.1434C3.54876 30.9334 2.55827 29.5508 1.86039 28.0366C1.0835 26.3497 0.689941 24.5472 0.689941 22.6803C0.689941 19.7176 1.71993 16.7725 3.59119 14.3892C5.16251 12.3862 7.27224 10.8456 9.61313 9.97367C9.73018 9.52743 9.87209 9.08559 10.0345 8.65252C10.6256 7.08705 11.4917 5.67081 12.6109 4.44038C13.8077 3.12363 15.2444 2.07608 16.8801 1.32699C18.5524 0.560351 20.3886 0.131675 22.3344 0.049744C22.371 0.0482809 22.4807 0.0453548 22.4807 0.0453548C23.9555 0.0146306 25.3586 0 26.7719 0C28.1823 0 29.6292 0.0146306 31.3278 0.0438917L31.4025 0.0453548L31.4756 0.0482809C35.3688 0.204828 38.7075 1.52158 41.1303 3.85662C42.3856 5.06803 43.3761 6.44916 44.074 7.96342C44.8509 9.65033 45.2444 11.4528 45.2444 13.3197C45.2444 16.2824 44.2145 19.2275 42.3432 21.6108C40.7719 23.6138 38.6621 25.1544 36.3213 26.0263C36.2042 26.4726 36.0623 26.9144 35.8999 27.3475C35.3088 28.9129 34.4427 30.3307 33.3234 31.5596C32.1267 32.8764 30.6899 33.9239 29.0542 34.673C27.3805 35.4397 25.5444 35.8683 23.5985 35.9503C23.5502 35.9517 23.4537 35.9546 23.4537 35.9546C21.9818 35.9854 20.5773 36 19.1625 36Z" fill="white"/><path d="M55.9145 16.2312C55.9145 15.2743 56.8348 14.575 58.3812 14.575C60.074 14.575 61.5473 15.1265 62.7251 16.5267L65.2649 13.8756C63.9394 12.0351 61.4361 10.9671 58.27 10.9671C53.7785 10.9671 51.4961 13.545 51.4961 16.2326C51.4961 22.5647 60.9577 21.0183 60.9577 24.1843C60.9577 25.2889 60.074 26.0249 58.3432 26.0249C56.2452 26.0249 54.5509 25.2889 53.1888 23.7791L50.6855 26.651C52.1954 28.4184 54.7353 29.6328 58.0857 29.6328C62.8714 29.6328 65.4112 27.0929 65.4112 24.1112C65.4127 17.5201 55.9145 19.3241 55.9145 16.2312Z" fill="#17121F"/><path d="M74.6489 11.4821V6.91733H70.1573V11.4821H67.0278V15.4587H70.1207V23.0797C70.1207 27.387 72.4031 29.6328 75.9744 29.6328C78.1471 29.6328 79.8033 28.8237 80.7967 27.8654L78.7718 24.515C78.33 25.03 77.5194 25.3987 76.7104 25.3987C75.3848 25.3987 74.6855 24.5896 74.6855 22.932V15.4587H82.8713V29.1178H87.3629V11.4821H82.8713H74.6489Z" fill="#17121F"/><path d="M85.0808 3.82443C83.6455 3.82443 82.4663 5.03877 82.4663 6.47549C82.4663 7.94879 83.6441 9.08998 85.0808 9.08998C86.5541 9.08998 87.7319 7.94879 87.7319 6.47549C87.7319 5.04023 86.5526 3.82443 85.0808 3.82443Z" fill="#17121F"/><path d="M99.4154 25.3987C98.0899 25.3987 97.3906 24.5896 97.3906 22.932V15.4587H102.14V11.4821H97.354V6.91733H92.8624V11.4821H89.7329V15.4587H92.8258V23.0797C92.8258 27.387 95.1082 29.6328 98.6795 29.6328C100.852 29.6328 102.508 28.8237 103.502 27.8654L101.477 24.515C101.035 25.03 100.224 25.3987 99.4154 25.3987Z" fill="#17121F"/><path d="M113.698 15.1997C115.429 15.1997 116.754 15.7527 117.859 16.8193L120.435 13.6167C118.889 11.9971 116.495 10.9671 113.477 10.9671C108.323 10.9671 104.273 15.1646 104.273 20.3189C104.273 25.4367 108.323 29.6328 113.55 29.6328C116.348 29.6328 118.889 28.5282 120.288 26.9817L118.005 23.6679C116.901 24.7725 115.465 25.3987 113.661 25.3987C110.789 25.3987 108.765 23.1163 108.765 20.2809C108.765 17.4455 110.753 15.1997 113.698 15.1997Z" fill="#17121F"/><path d="M132.299 10.9671C130.127 10.9671 128.434 11.7776 127.329 13.2129V3.78784H122.838V29.1163H127.329V19.1031C127.329 16.7096 128.692 15.2012 130.937 15.2012C133.11 15.2012 134.509 16.711 134.509 19.1031V29.1163H139V18.4389C138.999 13.839 136.386 10.9671 132.299 10.9671Z" fill="#17121F"/><path d="M41.6817 9.06512C41.1213 7.84932 40.3211 6.73446 39.3028 5.75275C37.3525 3.87272 34.6078 2.81054 31.3686 2.67887L31.3247 2.6774L31.2808 2.67594C29.6027 2.64668 28.1704 2.63205 26.7717 2.63205C25.3759 2.63205 23.9889 2.64668 22.5332 2.67594H22.523C22.4966 2.67594 22.4688 2.6774 22.4425 2.67887C20.839 2.74617 19.3364 3.09584 17.9758 3.7191C16.6649 4.31896 15.5149 5.15729 14.5581 6.20923C13.6641 7.1924 12.9706 8.32774 12.4966 9.58011C12.1967 10.3731 11.9948 11.1909 11.8909 12.0205L11.3701 12.1653C9.14914 12.7842 7.12134 14.1507 5.66121 16.0117C4.15426 17.9356 3.32324 20.3029 3.32324 22.6789C3.32324 24.1639 3.63634 25.5947 4.25228 26.9334C4.81264 28.1492 5.61293 29.2641 6.63122 30.2458C8.58147 32.1258 11.3262 33.188 14.5654 33.3197L14.6093 33.3212L14.6532 33.3226C16.3313 33.3519 17.7636 33.3665 19.1623 33.3665C20.5581 33.3665 21.945 33.3519 23.4008 33.3226H23.411C23.4374 33.3226 23.4637 33.3212 23.49 33.3197C25.0935 33.2524 26.5976 32.9027 27.9597 32.2795C29.2706 31.6796 30.4205 30.8413 31.3774 29.7893C32.2713 28.8062 32.9648 27.6708 33.4388 26.4184C33.7388 25.6255 33.9407 24.8076 34.0445 23.9781L34.5654 23.8332C36.7863 23.2143 38.8141 21.8479 40.2742 19.9868C41.7826 18.0644 42.6137 15.6972 42.6137 13.3212C42.6122 11.8361 42.2991 10.4038 41.6817 9.06512ZM33.5295 20.1244C33.4008 19.2334 32.3986 16.7315 30.7702 15.583C30.7556 15.5728 30.7629 15.5494 30.7819 15.5494C30.9443 15.5509 31.1023 15.5509 31.2633 15.5479C32.8975 15.5479 33.7812 14.4623 33.7812 13.4338C33.7812 12.9612 33.6188 12.4316 33.2355 12.0161C32.8653 11.6167 32.2172 11.3329 31.4798 11.3197C28.7673 11.2743 25.632 11.2699 22.9209 11.3197C22.1835 11.3329 21.5354 11.6167 21.1652 12.0161C20.7819 12.4302 20.6195 12.9612 20.6195 13.4338C20.6195 13.9488 20.8829 14.4609 21.2135 14.812C21.8061 15.4426 22.9838 15.6738 23.6715 15.8084C26.1469 16.2956 27.4169 17.0095 28.4908 18.1478C29.5017 19.1807 30.2742 20.7637 30.2742 22.6789V22.6803C30.2742 25.8654 27.9348 29.2846 23.3291 29.4748C23.3291 29.4748 23.3276 29.4748 23.3247 29.4748C20.3035 29.5362 17.7358 29.5274 14.7234 29.4748C12.4908 29.3841 10.6107 28.733 9.30569 27.4762C8.00064 26.2195 7.17547 24.5955 7.17547 22.6803C7.17547 19.4967 9.48125 16.6935 12.4074 15.8771C12.5361 16.7681 13.5383 19.2699 15.1667 20.4184C15.1813 20.4287 15.174 20.4521 15.155 20.4521C14.9926 20.4506 14.8346 20.4506 14.6736 20.4536C13.0394 20.4536 12.1557 21.5391 12.1557 22.5677C12.1557 23.0402 12.3181 23.5699 12.7014 23.9854C13.0716 24.3848 13.7197 24.6686 14.4571 24.6818C17.1696 24.7272 20.305 24.7315 23.016 24.6818C23.7534 24.6686 24.4015 24.3848 24.7717 23.9854C25.155 23.5713 25.3174 23.0402 25.3174 22.5677C25.3174 22.0527 25.054 21.5406 24.7234 21.1895C24.1309 20.5589 22.9531 20.3277 22.2655 20.1931C19.79 19.7059 18.52 18.992 17.4461 17.8537C16.4352 16.8208 15.6627 15.2378 15.6627 13.3226V13.3212C15.6627 10.1361 18.0021 6.71691 22.6078 6.52671C22.6078 6.52671 22.6093 6.52671 22.6122 6.52671C25.6334 6.46526 28.2011 6.47404 31.2135 6.52671C33.4461 6.61742 35.3262 7.26848 36.6312 8.52525C37.9363 9.78348 38.7614 11.406 38.7614 13.3212C38.7614 16.5048 36.4571 19.308 33.5295 20.1244Z" fill="#911FFF"/></svg>