<svg width="63" height="32" viewBox="0 0 63 32" fill="none" xmlns="http://www.w3.org/2000/svg">
<path fill-rule="evenodd" clip-rule="evenodd" d="M5.42123 24.2501C5.86365 25.1946 6.494 25.8883 7.31227 26.3313L7.30791 26.3339C8.12613 26.7775 9.05515 26.9993 10.0949 26.9993C11.0297 27.0131 11.9561 26.8207 12.8083 26.4358C13.6153 26.0609 14.3263 25.507 14.8878 24.8164C15.4664 24.1095 15.9097 23.2509 16.2179 22.241C16.5259 21.2309 16.6799 20.0898 16.6799 18.8176C16.6909 17.7154 16.53 16.6182 16.2029 15.5656C15.9191 14.6338 15.4668 13.7621 14.8686 12.9938C14.3077 12.2841 13.5977 11.7066 12.7891 11.3023C11.9433 10.889 11.0122 10.6812 10.0713 10.6958C8.99059 10.6952 8.08466 10.9263 7.35349 11.3892C6.60021 11.8733 5.96001 12.5143 5.47646 13.2685H5.38879C5.42676 12.8062 5.46036 12.2617 5.48959 11.635C5.51884 11.0083 5.53343 10.3675 5.53343 9.71269V5H1V26.5051H5.36335V24.2501H5.42123ZM12.0588 18.7888C12.0588 20.1767 11.794 21.2851 11.2645 22.1137L11.268 22.111C10.739 22.9396 9.94499 23.3539 8.88597 23.3539C7.7889 23.3539 6.93235 22.9347 6.31635 22.0962C5.7003 21.2576 5.3923 20.1639 5.3923 18.815C5.3887 18.1926 5.45663 17.5717 5.59482 16.9647C5.70886 16.4337 5.92308 15.9293 6.22602 15.4787C6.50675 15.0721 6.87722 14.7357 7.30876 14.4956C7.78436 14.2449 8.31625 14.1207 8.85353 14.1348C9.93476 14.1348 10.7384 14.5635 11.2645 15.4208C11.794 16.278 12.0588 17.4007 12.0588 18.7888Z" fill="white"/>
<path fill-rule="evenodd" clip-rule="evenodd" d="M27.1383 24.632C27.1666 25.0182 27.2344 25.4006 27.3408 25.7731L27.3425 25.7775C27.4134 26.0368 27.5202 26.285 27.6598 26.5148H32.0749V26.2515C31.6903 26.0004 31.4981 25.2874 31.4981 24.1124V16.2204C31.4987 15.1794 31.3107 14.2689 30.9344 13.4888C30.5499 12.6979 29.9295 12.0462 29.159 11.6236C28.579 11.2805 27.9439 11.0408 27.2819 10.9152C26.4436 10.7597 25.5921 10.687 24.7396 10.6984C23.6011 10.699 22.6097 10.8389 21.7657 11.118C20.9218 11.3971 20.2205 11.7728 19.6617 12.2451C19.1387 12.6787 18.7136 13.2187 18.415 13.8294C18.1163 14.44 17.9508 15.1072 17.9293 15.7868H22.1199C22.1778 15.1695 22.4233 14.6779 22.8564 14.3122C23.2895 13.9464 23.9391 13.7636 24.8053 13.7636C25.5943 13.763 26.1718 13.9315 26.5377 14.2692C26.9035 14.6068 27.0864 15.0548 27.0864 15.613C27.0864 16.1911 26.7831 16.6151 26.1765 16.8849C25.5698 17.1547 24.5832 17.3861 23.2168 17.5792C22.4195 17.6655 21.6288 17.8039 20.8496 17.9935C20.1728 18.1555 19.5271 18.4277 18.9385 18.7992C18.4052 19.1398 17.9639 19.6065 17.6531 20.158C17.3358 20.7146 17.1771 21.4168 17.1771 22.2646C17.1646 22.9543 17.2975 23.6391 17.5673 24.2738C17.8114 24.8413 18.1874 25.342 18.664 25.7345C19.1611 26.1314 19.7295 26.4294 20.3385 26.6123C21.0168 26.8197 21.7228 26.9222 22.4321 26.9159C23.6268 26.9159 24.5747 26.7135 25.2761 26.3085C25.994 25.89 26.6105 25.3174 27.0812 24.632H27.1383ZM26.97 22.1423C26.8131 22.5058 26.5795 22.8311 26.2852 23.096L26.2887 23.0986C25.6826 23.6579 24.8694 23.9377 23.8489 23.9377C23.2322 23.9371 22.7027 23.8019 22.2602 23.5321C21.8178 23.2623 21.5966 22.7904 21.5966 22.1163C21.5954 21.4416 21.8359 20.9501 22.3181 20.6417C22.8003 20.3333 23.5414 20.0732 24.5414 19.8614C25.0424 19.7443 25.5274 19.6229 25.9967 19.497C26.4198 19.3923 26.8239 19.2216 27.1944 18.9915V20.9893C27.2034 21.3853 27.127 21.7786 26.97 22.1423Z" fill="white"/>
<path d="M36.584 26.6195C35.7702 26.4028 35.0023 26.0403 34.3177 25.5494C33.7112 25.112 33.2088 24.5455 32.8469 23.8906C32.485 23.2359 32.2722 22.5089 32.2241 21.762H36.4972C36.6322 22.4946 36.9642 23.0537 37.4931 23.4394C38.0221 23.825 38.7295 24.0175 39.6156 24.0169C40.4239 24.0169 41.0496 23.8627 41.4926 23.5543C41.9356 23.2459 42.156 22.8135 42.1537 22.257C42.1606 22.103 42.1359 21.9493 42.0814 21.805C42.0268 21.6609 41.9434 21.5295 41.8363 21.4188C41.5883 21.185 41.2928 21.0075 40.9701 20.8982C40.5625 20.751 40.143 20.6389 39.7164 20.563C39.2447 20.4757 38.7396 20.3841 38.2006 20.2881C37.508 20.153 36.8345 19.9988 36.1799 19.8256C35.5537 19.6647 34.9586 19.401 34.4185 19.0453C33.8986 18.6979 33.4681 18.2323 33.1621 17.6865C32.8448 17.1271 32.6861 16.3956 32.6861 15.4921C32.6861 14.7015 32.8544 14.0075 33.1912 13.4101C33.529 12.812 33.9979 12.2982 34.5623 11.9073C35.1853 11.4821 35.88 11.1731 36.6128 10.9954C37.4443 10.7879 38.2985 10.6859 39.1554 10.6916C41.2922 10.6916 42.9091 11.1109 44.0061 11.9495C44.5341 12.339 44.9796 12.8296 45.3167 13.3928C45.6539 13.9561 45.8758 14.5807 45.97 15.2305H41.754C41.4658 14.1327 40.5997 13.5836 39.1554 13.583C38.4628 13.583 37.9092 13.7179 37.4949 13.9876C37.2983 14.1079 37.1371 14.2783 37.0281 14.4814C36.9191 14.6846 36.8658 14.9131 36.8741 15.1436C36.8696 15.2755 36.8929 15.4068 36.9427 15.5289C36.9926 15.6511 37.068 15.7612 37.1634 15.852C37.397 16.0587 37.673 16.2118 37.9718 16.3005C38.3679 16.4281 38.7732 16.5246 39.1842 16.5893C39.6466 16.6665 40.1375 16.7543 40.6571 16.8527C41.3497 16.9697 42.0426 17.1189 42.7357 17.3003C43.4019 17.4716 44.0358 17.7499 44.6129 18.1245C45.1773 18.4974 45.6469 18.9973 45.984 19.5843C46.34 20.1916 46.5179 20.977 46.5179 21.9402C46.5179 22.7688 46.345 23.5003 45.9989 24.1346C45.6507 24.772 45.1557 25.3173 44.555 25.725C43.8873 26.1716 43.1449 26.4946 42.3632 26.6783C41.4556 26.8978 40.5247 27.0047 39.5911 26.9969C38.5777 27.01 37.5674 26.8836 36.5884 26.6212L36.584 26.6195Z" fill="white"/>
<path d="M51.8965 11.7923V11.2138L51.8937 11.2174V5.00195H47.3604V26.5071H51.8937V17.8339C51.8937 16.8514 52.1632 16.0421 52.7021 15.406C53.2409 14.77 53.9532 14.4519 54.8387 14.4519C55.6856 14.4531 56.3256 14.7085 56.7586 15.2182C57.1917 15.7279 57.4083 16.4073 57.4083 17.2564V26.5071H61.9234V16.3891C61.9234 14.6541 61.4558 13.271 60.5206 12.24C59.5855 11.2089 58.2704 10.6933 56.5755 10.6933C55.4983 10.6933 54.5742 10.9248 53.8033 11.3877C53.0262 11.8574 52.3882 12.5261 51.9552 13.3249H51.8675C51.8675 13.0703 51.8719 12.8131 51.8815 12.5437C51.8911 12.2742 51.8965 12.0232 51.8965 11.7923Z" fill="white"/>
</svg>
