<?xml version="1.0" encoding="utf-8"?>
<!-- Generator: Adobe Illustrator 27.5.0, SVG Export Plug-In . SVG Version: 6.00 Build 0)  -->
<svg version="1.1" id="Layer_1" xmlns="http://www.w3.org/2000/svg" xmlns:xlink="http://www.w3.org/1999/xlink" x="0px" y="0px"
	 viewBox="0 0 1342.2349 697.4766" style="enable-background:new 0 0 1342.2349 697.4766;" xml:space="preserve">
<style type="text/css">
	.st0{fill:#FF5B00;}
</style>
<path class="st0" d="M1342.2349,232.7153V0.5l-0.5-0.5H671.0327l-0.5,0.5v232.2153v205.7108l-9.1509-205.9022l-0.998,0.0439
	l9.3164,209.6434l-18.6377-209.7098l-0.9961,0.0889l18.6216,209.5309L640.7422,232.48l-0.9922,0.1318l27.9131,209.3805
	l-37.2432-209.5338l-0.9844,0.1748l37.1782,209.1708l-46.5161-209.3666l-0.9766,0.2168l46.418,208.9238L609.7744,232.417
	l-0.9668,0.2578l55.6279,208.648l-64.9854-208.9253l-0.9551,0.2969l64.8057,208.3477L589.125,232.3784l-0.9414,0.335
	l73.9424,208.0078l-83.3271-208.3608l-0.9277,0.3711l83.0244,207.6037l-92.4219-207.9923l-0.9141,0.4062l92.0562,207.1687
	L558.1475,232.3262l-0.8984,0.4395l101.0376,206.7108L547.8213,232.3106l-0.8828,0.4707L656.9077,439.017L537.4941,232.2959
	l-0.8652,0.5l118.8359,205.7207L527.168,232.2818l-0.8496,0.5283l127.6343,205.17L516.8408,232.2686l-0.832,0.5547
	l136.3848,204.6204L506.5127,232.2564l-0.8145,0.5791l145.0493,204.0177l-154.561-204.6085l-0.7988,0.6025l153.6386,203.3875
	l-163.167-204.0012l-0.7812,0.625l162.1748,202.7611L475.5323,232.2232l-0.7637,0.6455l170.6338,202.1088L465.2061,232.2139
	l-0.748,0.6641l179.018,201.438L454.8789,232.2046l-0.7305,0.6826l187.3286,200.7515L444.5528,232.1963l-0.7148,0.6992
	l195.5576,200.0446L434.2256,232.1885l-0.6992,0.7148l203.7099,199.3229L423.8994,232.1812l-0.6836,0.7295L634.9863,431.487
	L413.5742,232.1743l-0.6699,0.7432L632.666,430.7444L403.2481,232.168l-0.6543,0.7559l227.6709,197.0643L392.9229,232.1616
	l-0.6406,0.7686l235.4883,196.2817L382.5977,232.1563l-0.627,0.7793l243.2422,195.5039L372.2725,232.1509l-0.6133,0.79
	L622.582,427.6637L361.9463,232.146l-0.5996,0.7998l258.4887,193.9073l-268.2133-194.712l-0.5879,0.8096l265.9511,193.0694
	L341.2979,232.1367l-0.5762,0.8184l273.3891,192.2672L330.9727,232.1328l-0.5625,0.8262l280.7241,191.4431L320.6494,232.1289
	l-0.5527,0.834l287.9546,190.5984l-297.726-191.4358l-0.541,0.8408L604.9331,422.745L300.001,232.1221l-0.5293,0.8477
	L601.6914,421.897L289.6768,232.1187l-0.5195,0.8545l309.1738,188.0506l-318.9775-188.908l-0.5098,0.8604l316.0674,187.1845
	L269.0303,232.1128l-0.5,0.8662l322.8974,186.3261L258.7071,232.1104l-0.4902,0.8711l329.6318,185.457L248.3838,232.1074
	l-0.4805,0.877l336.2295,184.5552L238.0615,232.105l-0.4727,0.8818l342.8057,183.6846L227.7383,232.103l-0.4629,0.8857
	l349.2871,182.8053L217.416,232.1006l-0.4551,0.8906l355.6396,181.8999L207.0928,232.0986l-0.4473,0.8945l361.9209,180.9986
	L196.7705,232.0967l-0.4395,0.8984l368.1152,180.0944l-377.998-180.9948l-0.4316,0.9023l374.2617,179.2058L176.126,232.0933
	l-0.4238,0.9053l380.2798,178.2938L165.8047,232.0918l-0.418,0.9087l386.1777,177.364l-396.082-178.2747l-0.4102,0.9121
	l392.0454,176.4578L145.1611,232.0884l-0.4043,0.915l397.8311,175.551l-407.75-176.4675l-0.3965,0.918l403.499,174.6277
	L124.5166,232.0855l-0.3906,0.9204l409.1089,173.7153L114.1953,232.0845l-0.3848,0.9229l414.5942,172.784L103.874,232.083
	l-0.3789,0.9258l420.0009,171.8548L93.5528,232.082l-0.373,0.9277l425.3642,170.9414L83.2315,232.0806l-0.3672,0.9302
	l430.601,170.0101L72.9102,232.0796l-0.3613,0.9326l435.7393,169.0727L62.5879,232.0786l-0.3555,0.9346L503.003,401.1391
	L52.2676,232.0777l-0.3516,0.9365l445.7222,167.181L41.9463,232.0767l-0.3457,0.9385l450.5791,166.2323L31.626,232.0757
	l-0.3418,0.9404L486.71,398.3266L21.3047,232.0752l-0.3359,0.9414l460.1826,164.3857L10.9844,232.0742l-0.332,0.9434
	l464.7515,163.4238L0.6641,232.0733l-0.3281,0.9453l667.894,231.2427H0.5l-0.5,0.5v232.2153l0.5,0.5h670.7021l0.5-0.5V464.7613
	V259.0504l9.1509,205.9022l0.998-0.0439l-9.3164-209.6434l18.6377,209.7098l0.9961-0.0889l-18.6216-209.5309l27.9458,209.6413
	l0.9922-0.1318l-27.9131-209.3805l37.2432,209.5338l0.9844-0.1748l-37.1782-209.1708l46.5161,209.3666l0.9766-0.2168
	l-46.418-208.9238l55.7646,209.1611l0.9668-0.2578l-55.6279-208.6479l64.9854,208.9253l0.9551-0.2969l-64.8057-208.3477
	l74.1758,208.6636l0.9414-0.335l-73.9424-208.0078l83.3271,208.3608l0.9277-0.3711l-83.0244-207.6036l92.4219,207.9923
	l0.9141-0.4062l-92.0562-207.1687l101.4683,207.5916l0.8984-0.4395L683.9482,258.0002L794.4136,465.166l0.8828-0.4707
	L685.3271,258.4596l119.4136,206.7211l0.8652-0.5L686.77,258.96l128.2969,206.2348l0.8496-0.5283l-127.6343-205.17L825.394,465.208
	l0.832-0.5547L689.8413,260.0329l145.8809,205.1873l0.8145-0.5791L691.4873,260.6234l154.561,204.6085l0.7988-0.6025
	L693.2085,261.2419l163.167,204.0012l0.7812-0.625l-162.1748-202.761l171.7207,203.3963l0.7637-0.6455L696.8325,262.4991
	l180.1963,202.7635l0.748-0.6641l-179.0181-201.438L887.356,465.2719l0.7305-0.6826L700.7578,263.8378l196.9243,201.4424
	l0.7148-0.6992L702.8394,264.5364l205.1699,200.7516l0.6992-0.7148l-203.71-199.3229l213.3369,200.045l0.6836-0.7295
	L707.2485,265.9895l221.4121,199.3127l0.6699-0.7432L709.5688,266.7321l229.418,198.5764l0.6543-0.7559L711.9702,267.4884
	L949.312,465.3149l0.6406-0.7686L714.4644,268.2647l245.1729,197.0556l0.627-0.7793L717.022,269.0371l252.9404,196.2886l0.6133-0.79
	L719.6528,269.8128l260.6357,195.5177l0.5996-0.7998L722.3994,270.6234l268.2134,194.712l0.5879-0.8096L725.2495,271.4565
	l275.6875,193.8834l0.5762-0.8184L728.124,272.2542l283.1382,193.0895l0.5625-0.8262L731.1006,273.0745l290.4849,192.2731
	l0.5527-0.834L734.1836,273.9153l297.7261,191.4358l0.541-0.8408L737.3018,274.7316l304.9321,190.6229l0.5293-0.8477
	L740.5435,275.5796l312.0146,189.7783l0.5195-0.8545L743.9038,276.4528l318.9775,188.908l0.5098-0.8604L747.3237,277.316
	l325.8809,188.0477l0.5-0.8662L750.8071,278.1714l332.7207,187.1948l0.4902-0.8711l-329.6318-185.457l339.4648,186.3311
	l0.4805-0.877L758.1021,279.937l346.0713,185.4346l0.4727-0.8818L761.8403,280.8051l352.6562,184.5684l0.4629-0.8857
	L765.6724,281.6825l359.1465,183.6935l0.4551-0.8906L769.6343,282.5855l365.5078,182.7924l0.4473-0.8945L773.6685,283.4848
	l371.7959,181.8951l0.4395-0.8984L777.7886,284.3871l377.998,180.9948l0.4316-0.9023L781.9565,285.2737l384.1523,180.1096
	l0.4238-0.9053L786.2529,286.1842l390.1772,179.2005l0.418-0.9087L790.6704,287.112l396.082,178.2747l0.4102-0.9121
	L795.1172,288.0168l401.9565,177.3713l0.4043-0.915L799.647,288.9221l407.75,176.4675l0.3965-0.918L804.2944,289.844
	l413.4238,175.5471l0.3906-0.9204L809,290.7554l419.0396,174.6367l0.3848-0.9229l-414.5942-172.784l424.5308,173.7083l0.3789-0.9258
	l-420.001-171.8548l429.9434,172.7816l0.373-0.9277L823.6909,293.5254l435.3125,171.8705l0.3672-0.9302L828.7695,294.4557
	l440.5552,170.9413l0.3613-0.9326L833.9468,295.3916l445.7002,170.0063l0.3555-0.9346L839.2319,296.3375l450.7354,169.0614
	l0.3516-0.9365l-445.7222-167.181l455.6919,168.1185l0.3457-0.9385L850.0552,298.2291l460.5537,167.1718l0.3418-0.9404
	L855.5249,299.1499l465.4053,166.2514l0.3359-0.9414L861.0835,300.0742l470.167,165.3281l0.332-0.9434L866.8311,301.0351
	l474.7397,164.3682l0.3281-0.9453l-667.894-231.2427h667.7299L1342.2349,232.7153z M1168.1382,2.9082L701.98,10.7177l-0.4863,0.4307
	l-28.0381,200.6167L692.1274,8.1406L1168.1382,2.9082z M691.6646,7.1455l-0.4922,0.4541l-18.667,203.5825l9.3252-206.6118
	l480.7432-2.6011L691.6646,7.1455z M671.5327,1h485.3604L681.3491,3.5727l-0.4971,0.4775l-9.3193,206.4971V1z M1,465.2613h485.3604
	L10.8154,467.834l-0.4971,0.4775L1,674.8062V465.2613z M11.2969,468.8316l480.7197-2.6011l-470.8857,5.1758l-0.4922,0.4541
	l-18.666,203.583L11.2969,468.8316z M21.5938,472.4014l476.0342-5.2324L31.4463,474.979l-0.4863,0.4307L2.9229,676.0264
	L21.5938,472.4014z M31.8906,475.9717l471.21-7.894L41.7617,478.5513l-0.4795,0.4067L3.8584,676.5547L31.8906,475.9717z
	 M42.1895,479.542l466.334-10.5874L52.0772,482.1241l-0.4717,0.3828L4.7862,677.0308L42.1895,479.542z M52.4883,483.1128
	l461.3271-13.3105L62.3926,485.6968l-0.4619,0.3584L5.7129,677.4531L52.4883,483.1128z M62.7881,486.6831l456.2529-16.064
	L72.709,489.2696l-0.4512,0.335L6.6455,677.8267L62.7881,486.6831z M73.0899,490.2544l451.0478-18.8477L83.0235,492.8418
	l-0.4385,0.3115L7.5918,678.1499L73.0899,490.2544z M83.3916,493.8252l445.7832-21.6616L93.3389,496.4151l-0.4258,0.2886
	L8.5567,678.4321L83.3916,493.8252z M93.6934,497.3965l440.4131-24.5059l-430.4531,27.0972l-0.4111,0.2666L9.5498,678.668
	L93.6934,497.3965z M103.9961,500.9683l434.9326-27.3794l-424.9609,29.9717l-0.3955,0.2451L10.5762,678.8643L103.9961,500.9683z
	 M114.3008,504.5396l429.3808-30.2832l-419.3994,32.877l-0.3789,0.2246L11.6416,679.0254L114.3008,504.5396z M124.6055,508.1114
	l423.7031-33.2148l-413.7119,35.8096l-0.3623,0.2056L12.7539,679.1519L124.6055,508.1114z M134.9111,511.6826l417.9678-36.1777
	l-407.9668,38.7744l-0.3447,0.187L13.9151,679.2524L134.9111,511.6826z M145.2188,515.2544l412.1064-39.1679l-402.0996,41.7656
	l-0.3262,0.1699L15.1358,679.3218L145.2188,515.2544z M155.5254,518.8262l406.1748-42.1884l-396.1611,44.7876l-0.3076,0.1533
	L16.4151,679.373L155.5254,518.8262z M165.834,522.3979l400.1377-45.2368l-390.1182,47.8374l-0.2891,0.1387L17.7598,679.4048
	L165.834,522.3979z M176.1426,525.9702l393.9961-48.3125L186.167,528.5713l-0.2695,0.1245L19.1729,679.4219L176.1426,525.9702z
	 M186.4522,529.542l387.7715-51.4174l-377.7432,54.02l-0.251,0.1118L20.6572,679.4272L186.4522,529.542z M196.7627,533.1143
	l381.4424-54.5488L206.793,535.7178l-0.2314,0.0996L22.2178,679.4243L196.7627,533.1143z M207.0742,536.686l375.0381-57.7099
	l-365.0059,60.3154l-0.2119,0.0884L23.8545,679.417L207.0742,536.686z M217.3867,540.2588l368.5127-60.895l-358.4795,63.5009
	l-0.1934,0.0781L25.5762,679.4033L217.3867,540.2588z M227.6992,543.8306l361.917-64.1093l-351.8838,66.7173l-0.1748,0.0684
	L27.374,679.3945L227.6992,543.8306z M238.0117,547.4033l355.2148-67.3491l-345.1826,69.958l-0.1553,0.0601L29.2569,679.3867
	L238.0117,547.4033z M248.3252,550.9756l348.418-70.6137l-338.3867,73.2241l-0.1367,0.0513L31.2285,679.3823L248.3252,550.9756z
	 M258.6397,554.5479l341.5341-73.9052L268.668,557.1602l-0.1182,0.0435L33.2803,679.3892L258.6397,554.5479z M268.9541,558.1206
	l334.5468-77.2197l-324.5215,79.8335l-0.0996,0.0356L35.4258,679.4014L268.9541,558.1206z M279.2696,561.6924l327.5556-80.5796
	L289.209,564.3379L37.6543,679.4277L279.2696,561.6924z M289.544,565.2764l320.3896-83.9453l-310.3945,86.5742L39.9326,679.4844
	L289.544,565.2764z M299.8711,568.8462l313.0918-87.3227l-303.0957,89.9507L42.3565,679.5303L299.8711,568.8462z M310.1973,572.417
	l305.705-90.7231l-295.707,93.3486L44.8721,679.5923L310.1973,572.417z M320.5235,575.9863l298.2431-94.1479l-288.2431,96.7734
	L47.4717,679.6743L320.5235,575.9863z M330.8506,579.5566l290.6914-97.5952L340.8506,582.1812L50.1612,679.7759L330.8506,579.5566z
	 M341.1778,583.126l283.0498-101.0615L351.1778,585.751L52.9395,679.8984L341.1778,583.126z M351.5059,586.6948L626.833,482.1446
	L361.5039,589.3208l-305.709,90.7246L351.5059,586.6948z M361.834,590.2637l267.5117-108.0561L371.8311,592.8911L58.7442,680.2129
	L361.834,590.2637z M372.1631,593.832l259.6064-111.5786l-249.6123,114.208L61.7666,680.4072L372.1631,593.832z M382.4922,597.3999
	l251.5517-115.0883L392.4317,600.0449L64.8819,680.6235L382.4922,597.3999z M392.7217,601.0029l0.0996-0.0356l243.455-118.6308
	L402.7461,603.6177L68.1944,680.8384L392.7217,601.0029z M403.0332,604.5776l0.1182-0.0435l235.2675-122.1841L413.0616,607.1899
	L71.5264,681.0957L403.0332,604.5776z M413.3448,608.1519l0.1367-0.0513l226.9941-125.7461L423.376,610.7622L74.9619,681.375
	L413.3448,608.1519z M423.6573,611.7256l0.1553-0.0601l218.6328-129.3144L433.6895,614.3345L78.4727,681.6841L423.6573,611.7256z
	 M433.9688,615.2993l0.1748-0.0684l210.1855-132.8877L444.003,617.9067L82.0908,682.0156L433.9688,615.2993z M444.2823,618.8726
	l0.1934-0.0781L646.1279,482.333L454.3155,621.479L85.7949,682.3755L444.2823,618.8726z M454.5948,622.4463l0.2129-0.0884
	l193.0361-140.0341L464.627,625.0513L89.6006,682.7598L454.5948,622.4463z M464.9082,626.0195l0.2314-0.0996l184.3447-143.6064
	l-174.5459,146.31L93.4883,683.1733L464.9082,626.0195z M475.2207,629.5933l0.251-0.1118l175.5722-147.1704L485.2491,632.1953
	L97.4795,683.6128L475.2207,629.5933z M485.5342,633.166l0.2695-0.1245l166.7256-150.7251L495.5586,635.7676l-394.0059,48.314
	L485.5342,633.166z M495.8477,636.7393l0.2891-0.1387l157.8066-154.2685L505.8672,639.3398l-400.1377,45.2368L495.8477,636.7393z
	 M506.1621,640.3125l0.3076-0.1533l148.8183-157.7949L516.1768,642.9111l-406.166,42.188L506.1621,640.3125z M516.4766,643.8853
	l0.3262-0.1699l139.7646-161.3008l-130.084,164.0688l-412.1181,39.1689L516.4766,643.8853z M526.79,647.4585l0.3447-0.187
	l130.6504-164.7837L536.79,650.0547l-417.9521,36.1768L526.79,647.4585z M537.1045,651.0312l0.3623-0.2056l121.4824-168.2412
	l-111.8535,171.042l-423.7168,33.2158L537.1045,651.0312z M547.4189,654.6045l0.3789-0.2246l112.2617-171.6665L557.4004,657.1978
	l-429.3662,30.2827L547.4189,654.6045z M557.7334,658.1768l0.3955-0.2451L661.126,482.8731l-93.4209,177.8965l-434.9482,27.3804
	L557.7334,658.1768z M568.0479,661.75l0.4111-0.2666l93.6924-178.4126l-84.1436,181.2705l-440.4121,24.5059L568.0479,661.75z
	 M578.3623,665.3228l0.4258-0.2886l84.3574-181.7285l-74.835,184.6064L142.542,689.5737L578.3623,665.3228z M588.6787,668.8955
	l0.4385-0.3115l74.9932-184.9975l-65.498,187.8969l-451.0625,18.8481L588.6787,668.8955z M598.9932,672.4683l0.4512-0.335
	l65.6123-188.2216l-56.1436,191.1425l-456.2324,16.064L598.9932,672.4683z M609.3086,676.0405l0.4619-0.3584l56.2178-191.396
	L619.2129,678.625L157.876,691.9355L609.3086,676.0405z M619.624,679.6138l0.4717-0.3828l46.8193-194.5234l-37.4033,197.4878
	l-466.3115,10.5869L619.624,679.6138z M629.9395,683.186l0.4795-0.4067l37.4238-197.5966l-28.0322,200.5835l-471.2383,7.8945
	L629.9395,683.186z M640.2549,686.7588l0.4863-0.4307l28.0381-200.6167l-18.6719,203.6245l-476.0107,5.2324L640.2549,686.7588z
	 M650.5703,690.3311l0.4922-0.4541l18.667-203.5825l-9.3252,206.6118l-480.7432,2.6011L650.5703,690.3311z M670.7021,696.4766
	H185.3418l475.5439-2.5728l0.4971-0.4775l9.3193-206.497V696.4766z M702.4243,11.7104l471.2383-7.8945L712.2954,14.2905
	l-0.4795,0.4067l-37.4238,197.5967L702.4243,11.7104z M712.7231,15.2812l466.3115-10.5869L722.6108,17.8627l-0.4717,0.3828
	L675.3198,212.769L712.7231,15.2812z M723.022,18.8515L1184.3589,5.541L732.9263,21.436l-0.4619,0.3584l-56.2178,191.396
	L723.022,18.8515z M733.3218,22.4223l456.2324-16.064L743.2417,25.0083l-0.4512,0.335l-65.6123,188.2217L733.3218,22.4223z
	 M743.6226,25.9931L1194.6851,7.145L753.5562,28.581l-0.4385,0.3115l-74.9932,184.9976L743.6226,25.9931z M753.9243,29.5644
	l445.7686-21.6616l-435.8203,24.251l-0.4258,0.2886l-84.3574,181.7285L753.9243,29.5644z M764.2271,33.1352l440.4121-24.5059
	L774.187,35.7265l-0.4111,0.2666l-93.6924,178.4126L764.2271,33.1352z M774.5298,36.707L1209.478,9.3266L784.5015,39.2998
	l-0.3955,0.2451L681.1089,214.6035L774.5298,36.707z M784.8345,40.2788L1214.2007,9.996L794.8159,42.872l-0.3789,0.2246
	L682.1753,214.7631L784.8345,40.2788z M795.1392,43.8501l423.7168-33.2158l-413.7256,35.811l-0.3623,0.2056L683.2856,214.892
	L795.1392,43.8501z M805.4448,47.4218l417.9521-36.1768L815.4448,50.018l-0.3447,0.187L684.4497,214.9887L805.4448,47.4218z
	 M815.7515,50.9931l412.1182-39.1689L825.7583,53.5913l-0.3262,0.1699L685.6675,215.062L815.7515,50.9931z M826.0581,54.5654
	l406.166-42.188L836.0728,57.164l-0.3076,0.1533L686.9468,215.1123L826.0581,54.5654z M836.3677,58.1367l400.1377-45.2368
	L846.3872,60.7373l-0.2891,0.1387L688.2915,215.1445L836.3677,58.1367z M846.6763,61.7089l394.0059-48.314L856.7007,64.3105
	l-0.2695,0.1245L689.7056,215.1601L846.6763,61.7089z M856.9858,65.2812l387.7695-51.4175L867.0142,67.8833l-0.251,0.1118
	L691.1909,215.1655L856.9858,65.2812z M867.2964,68.853l381.4502-54.5498L877.3267,71.457l-0.2314,0.0996L692.7505,215.163
	L867.2964,68.853z M877.6079,72.4252l375.0264-57.7085L887.6401,75.0302l-0.2129,0.0884L694.3911,215.1528L877.6079,72.4252z
	 M887.9194,75.9975l368.5205-60.8965L897.9526,78.604l-0.1934,0.0781L696.1069,215.1435L887.9194,75.9975z M898.2319,79.5698
	l361.9121-64.1089L908.2661,82.1772l-0.1748,0.0684L697.9058,215.1333L898.2319,79.5698z M908.5454,83.142l355.2168-67.3496
	L918.5776,85.7509l-0.1553,0.0601L699.7896,215.1254L908.5454,83.142z M918.8589,86.7143l348.4141-70.6128L928.8901,89.3247
	l-0.1367,0.0513L701.7593,215.122L918.8589,86.7143z M929.1733,90.2866l341.5352-73.9058L939.2017,92.8989l-0.1182,0.0435
	L703.8159,215.1264L929.1733,90.2866z M939.4888,93.8588l334.5518-77.2207L949.5132,96.4736l-0.0996,0.0356L705.9585,215.1401
	L939.4888,93.8588z M949.8032,97.4316L1277.353,16.853l-317.6104,83.2236L708.1909,215.165L949.8032,97.4316z M960.0776,101.0151
	l320.3906-83.9458l-310.3965,86.5752L710.4653,215.2231L960.0776,101.0151z M970.4038,104.5854l313.0869-87.3218l-303.0898,89.9492
	L712.8892,215.269L970.4038,104.5854z M980.731,108.1557l305.709-90.7246L990.729,110.7817L715.4019,215.332L980.731,108.1557z
	 M991.0571,111.7255l298.2383-94.1475l-288.2383,96.7725L718.0073,215.4121L991.0571,111.7255z M1001.3843,115.2954
	l290.6895-97.5947l-280.6895,100.2192l-290.6914,97.5952L1001.3843,115.2954z M1011.7114,118.8647l283.0518-101.0625
	l-273.0518,103.688l-298.2432,94.1479L1011.7114,118.8647z M1022.0396,122.434l275.3232-104.5498l-265.3252,107.1753
	l-305.7051,90.7231L1022.0396,122.434z M1032.3677,126.0024l267.5107-108.0562l-257.5146,110.6841L729.272,215.9531
	L1032.3677,126.0024z M1042.6958,129.5712l259.6064-111.5791l-249.6113,114.208l-320.3896,83.9453L1042.6958,129.5712z
	 M1053.0259,133.1386l251.5547-115.0898l-241.6152,117.7354l-327.5557,80.5796L1053.0259,133.1386z M1063.2554,136.7421
	l0.0996-0.0356l243.4541-118.6313l-233.5283,121.2808l-334.5469,77.2197L1063.2554,136.7421z M1073.5669,140.3164l0.1182-0.0435
	l235.2695-122.1855l-225.3594,124.8413L742.061,216.8339L1073.5669,140.3164z M1083.8784,143.8906l0.1367-0.0513l226.9912-125.7451
	l-217.0967,128.4067l-348.418,70.6138L1083.8784,143.8906z M1094.1909,147.4643l0.1553-0.0601L1312.978,18.0898l-208.7549,131.9834
	l-355.2148,67.3491L1094.1909,147.4643z M1104.5024,151.038l0.1748-0.0684L1314.8608,18.082l-200.3252,135.564l-361.917,64.1094
	L1104.5024,151.038z M1114.8149,154.6118l0.1934-0.0781l201.6504-136.4604l-191.8105,139.1445l-368.5127,60.895L1114.8149,154.6118z
	 M1125.1284,158.185l0.2119-0.0884l193.04-140.0371l-183.2197,142.731l-375.0381,57.71L1125.1284,158.185z M1135.4419,161.7587
	l0.2314-0.0996l184.3438-143.6069l-174.5449,146.3101l-381.4424,54.5488L1135.4419,161.7587z M1145.7544,165.332l0.251-0.1118
	l175.5723-147.1709l-165.7949,149.8853L768.0112,219.352L1145.7544,165.332z M1156.0679,168.9052l0.2695-0.1245L1323.062,18.0546
	l-156.9697,153.4517l-393.9961,48.3125L1156.0679,168.9052z M1166.3813,172.478l0.2891-0.1387l157.8047-154.2676l-148.0742,157.0068
	l-400.1377,45.2368L1166.3813,172.478z M1176.6958,176.0512l0.3076-0.1533l148.8164-157.7944l-139.1104,160.5469l-406.1748,42.1885
	L1176.6958,176.0512z M1187.0093,179.6245l0.3262-0.1699l139.7637-161.2998l-130.083,164.0674l-412.1064,39.168L1187.0093,179.6245z
	 M1197.3228,183.1972l0.3447-0.187l130.6523-164.7861l-120.9961,167.5698L789.356,221.9716L1197.3228,183.1972z M1207.6382,186.7705
	l0.3623-0.2056L1329.481,18.3247l-111.8516,171.0405L793.9263,222.58L1207.6382,186.7705z M1217.9526,190.3432l0.3789-0.2246
	l112.2617-171.6675L1227.9341,192.937l-429.3809,30.2832L1217.9526,190.3432z M1228.2671,193.916l0.3955-0.2451l102.9961-175.0586
	l-93.4199,177.896l-434.9326,27.3794L1228.2671,193.916z M1238.5815,197.4887l0.4111-0.2666l93.6924-178.4136L1248.5415,200.08
	l-440.4131,24.5059L1238.5815,197.4887z M1248.896,201.0615l0.4258-0.2886l84.3564-181.7285l-74.835,184.6069l-445.7832,21.6616
	L1248.896,201.0615z M1259.2114,204.6347l0.4385-0.3115l74.9932-184.9966l-65.498,187.8955l-451.0479,18.8477L1259.2114,204.6347z
	 M1269.5259,208.207l0.4512-0.335l65.6123-188.2222l-56.1426,191.1436l-456.2529,16.064L1269.5259,208.207z M1279.8423,211.7797
	l0.4619-0.3584l56.2178-191.3979l-46.7754,194.3403l-461.3271,13.3105L1279.8423,211.7797z M1290.1577,215.3525l0.4717-0.3828
	l46.8193-194.5239l-37.4033,197.4888l-466.334,10.5874L1290.1577,215.3525z M1300.4731,218.9252l0.4795-0.4067l37.4238-197.5967
	l-28.0322,200.583l-471.21,7.894L1300.4731,218.9252z M1310.7886,222.4975l0.4863-0.4307l28.0371-200.6167l-18.6709,203.625
	l-476.0342,5.2324L1310.7886,222.4975z M1321.104,226.0703l0.4922-0.4541l18.666-203.583l-9.3242,206.6118l-480.7197,2.6011
	L1321.104,226.0703z M1341.2349,232.2153H855.8745l475.5449-2.5728l0.4971-0.4775l9.3184-206.4946V232.2153z"/>
</svg>
