<svg width="115" height="25" viewBox="0 0 115 25" fill="none" xmlns="http://www.w3.org/2000/svg">
<path d="M32.2066 18.4248V18.1025H32.3372V18.0359H32.0066V18.1025H32.1372V18.4248H32.2094H32.2066ZM32.8483 18.4248V18.0359H32.7483L32.6316 18.3025L32.515 18.0359H32.415V18.4248H32.4872V18.1331L32.5955 18.3859H32.6705L32.7789 18.1331V18.4275H32.8511L32.8483 18.4248ZM50.3653 15.597V11.422C50.3653 9.84976 49.3625 8.79143 47.7486 8.77754C46.8986 8.76365 46.0235 9.02754 45.4124 9.96087C44.9541 9.22476 44.2291 8.77754 43.2152 8.77754C42.5068 8.77754 41.8096 8.98587 41.2679 9.76643V8.94421H39.8207V15.5942H41.2818V11.9081C41.2818 10.7525 41.9207 10.1414 42.9096 10.1414C43.8985 10.1414 44.3568 10.7664 44.3568 11.8942V15.5942H45.818V11.9081C45.818 10.7525 46.4847 10.1414 47.4458 10.1414C48.4069 10.1414 48.9069 10.7664 48.9069 11.8942V15.5942H50.3681L50.3653 15.597ZM71.9851 8.94698H69.6212V6.93032H68.16V8.94698H66.81V10.2692H68.16V13.3025C68.16 14.847 68.7573 15.7664 70.4684 15.7664C71.0934 15.7664 71.8184 15.572 72.2768 15.2525L71.8601 14.0137C71.4295 14.2637 70.9545 14.3887 70.5795 14.3887C69.8573 14.3887 69.6184 13.9442 69.6184 13.2748V10.2692H71.9823V8.94698H71.9851ZM84.327 8.78032C83.4936 8.78032 82.9492 9.16921 82.5742 9.75532V8.94976H81.1408V15.5998H82.5881V11.872C82.5881 10.772 83.0603 10.1609 84.0075 10.1609C84.2992 10.1609 84.6048 10.2025 84.9131 10.3275L85.3576 8.96365C85.0381 8.83865 84.6214 8.7831 84.327 8.7831V8.78032ZM65.6683 9.47476C64.9739 9.01643 64.0127 8.78032 62.9544 8.78032C61.271 8.78032 60.1849 9.58865 60.1849 10.9081C60.1849 11.9942 60.9905 12.6609 62.4794 12.8692L63.16 12.9664C63.9516 13.0775 64.3294 13.2859 64.3294 13.6609C64.3294 14.1748 63.8016 14.4664 62.8127 14.4664C61.8238 14.4664 61.0877 14.147 60.6016 13.772L59.921 14.8998C60.7127 15.4831 61.7155 15.7637 62.8016 15.7637C64.7211 15.7637 65.835 14.8581 65.835 13.5942C65.835 12.4248 64.9572 11.8137 63.5127 11.6053L62.8322 11.5081C62.2072 11.4248 61.7044 11.2998 61.7044 10.8553C61.7044 10.3692 62.1766 10.0748 62.9711 10.0748C63.8211 10.0748 64.6405 10.3942 65.0433 10.6442L65.6683 9.47476ZM104.43 8.78032C103.594 8.78032 103.052 9.16921 102.677 9.75532V8.94976H101.244V15.5998H102.691V11.872C102.691 10.772 103.163 10.1609 104.111 10.1609C104.402 10.1609 104.708 10.2025 105.016 10.3275L105.461 8.96365C105.141 8.83865 104.725 8.7831 104.43 8.7831V8.78032ZM85.7853 12.272C85.7853 14.2887 87.1909 15.7637 89.3326 15.7637C90.3354 15.7637 91.0021 15.5414 91.7243 14.9692L91.0299 13.7998C90.4882 14.1887 89.916 14.397 89.291 14.397C88.1354 14.3831 87.2881 13.547 87.2881 12.2692C87.2881 10.9914 88.1382 10.1553 89.291 10.1414C89.916 10.1414 90.4882 10.3498 91.0299 10.7387L91.7243 9.56921C91.0021 8.99976 90.3326 8.77476 89.3326 8.77476C87.1909 8.77476 85.7853 10.2498 85.7853 12.2664V12.272ZM99.3356 12.272V8.94698H97.8883V9.75254C97.43 9.15532 96.7328 8.77754 95.7883 8.77754C93.9244 8.77754 92.4632 10.2387 92.4632 12.2692C92.4632 14.2998 93.9244 15.7609 95.7883 15.7609C96.7355 15.7609 97.43 15.3859 97.8883 14.7859V15.5914H99.3356V12.2664V12.272ZM93.9521 12.272C93.9521 11.1025 94.7161 10.1442 95.9689 10.1442C97.2217 10.1442 97.9717 11.0637 97.9717 12.272C97.9717 13.4803 97.1661 14.3998 95.9689 14.3998C94.7716 14.3998 93.9521 13.4387 93.9521 12.272ZM76.4907 8.78032C74.5435 8.78032 73.1796 10.1998 73.1796 12.272C73.1796 14.3442 74.599 15.7637 76.588 15.7637C77.5908 15.7637 78.5074 15.5137 79.3158 14.8303L78.6074 13.7581C78.0519 14.2025 77.3408 14.4525 76.6741 14.4525C75.7407 14.4525 74.8935 14.022 74.6852 12.8248H79.6241C79.638 12.6442 79.6519 12.4637 79.6519 12.2692C79.638 10.197 78.3574 8.77754 76.4935 8.77754L76.4907 8.78032ZM76.463 10.0748C77.3963 10.0748 77.9935 10.6581 78.1463 11.6887H74.6963C74.849 10.7275 75.4324 10.0748 76.463 10.0748ZM112.764 12.272V6.27476H111.316V9.75254C110.858 9.15532 110.161 8.77754 109.216 8.77754C107.352 8.77754 105.891 10.2387 105.891 12.2692C105.891 14.2998 107.352 15.7609 109.216 15.7609C110.164 15.7609 110.858 15.3859 111.316 14.7859V15.5914H112.764V12.2664V12.272ZM114.455 14.9831C114.514 14.9831 114.569 14.9942 114.622 15.0164C114.675 15.0386 114.719 15.0692 114.758 15.1081C114.797 15.147 114.828 15.1914 114.85 15.2414C114.872 15.2914 114.883 15.347 114.883 15.4053C114.883 15.4637 114.872 15.5164 114.85 15.5692C114.828 15.6192 114.797 15.6637 114.758 15.7025C114.719 15.7414 114.675 15.772 114.622 15.7942C114.569 15.8164 114.514 15.8275 114.455 15.8275C114.397 15.8275 114.339 15.8164 114.286 15.7942C114.233 15.772 114.189 15.7414 114.15 15.7025C114.111 15.6637 114.08 15.6192 114.058 15.5692C114.036 15.5192 114.025 15.4637 114.025 15.4053C114.025 15.347 114.036 15.2914 114.058 15.2414C114.08 15.1887 114.111 15.1442 114.15 15.1081C114.189 15.0692 114.233 15.0386 114.286 15.0164C114.339 14.9942 114.394 14.9831 114.455 14.9831ZM114.455 15.7331C114.5 15.7331 114.544 15.7248 114.583 15.7081C114.622 15.6914 114.658 15.6664 114.686 15.6387C114.716 15.6081 114.739 15.5748 114.755 15.5331C114.772 15.4942 114.78 15.4498 114.78 15.4053C114.78 15.3609 114.772 15.3164 114.755 15.2775C114.739 15.2387 114.716 15.2025 114.686 15.172C114.655 15.1414 114.622 15.1192 114.583 15.1025C114.544 15.0859 114.503 15.0775 114.455 15.0775C114.408 15.0775 114.366 15.0859 114.325 15.1025C114.283 15.1192 114.25 15.1414 114.219 15.172C114.189 15.2025 114.166 15.2359 114.15 15.2775C114.133 15.3164 114.125 15.3609 114.125 15.4053C114.125 15.4498 114.133 15.4942 114.15 15.5331C114.166 15.572 114.189 15.6081 114.219 15.6387C114.25 15.6692 114.283 15.6914 114.325 15.7081C114.366 15.7248 114.408 15.7331 114.455 15.7331ZM114.48 15.2053C114.53 15.2053 114.569 15.2164 114.597 15.2387C114.625 15.2609 114.639 15.2914 114.639 15.3303C114.639 15.3637 114.628 15.3887 114.605 15.4109C114.583 15.4331 114.553 15.4442 114.514 15.4498L114.641 15.597H114.541L114.422 15.4498H114.383V15.597H114.3V15.2053H114.48ZM114.383 15.2775V15.3831H114.48C114.503 15.3831 114.519 15.3775 114.533 15.3692C114.547 15.3609 114.553 15.347 114.553 15.3303C114.553 15.3137 114.547 15.2998 114.533 15.2914C114.519 15.2831 114.503 15.2775 114.48 15.2775H114.383ZM107.38 12.2692C107.38 11.0998 108.144 10.1414 109.397 10.1414C110.65 10.1414 111.4 11.0609 111.4 12.2692C111.4 13.4775 110.594 14.397 109.397 14.397C108.2 14.397 107.38 13.4359 107.38 12.2692ZM58.5182 12.2692V8.94421H57.071V9.74976C56.6126 9.15254 55.9154 8.77476 54.9709 8.77476C53.107 8.77476 51.6459 10.2359 51.6459 12.2664C51.6459 14.297 53.107 15.7581 54.9709 15.7581C55.9182 15.7581 56.6126 15.3831 57.071 14.7831V15.5887H58.5182V12.2637V12.2692ZM53.1348 12.2692C53.1348 11.0998 53.8987 10.1414 55.1515 10.1414C56.4043 10.1414 57.1543 11.0609 57.1543 12.2692C57.1543 13.4775 56.3487 14.397 55.1515 14.397C53.9542 14.397 53.1348 13.4359 53.1348 12.2692ZM16.0952 20.3553C16.173 20.422 16.2564 20.4886 16.3369 20.5553C14.7508 21.6109 12.848 22.2275 10.8007 22.2275C5.27839 22.2275 0.800537 17.7498 0.800537 12.2275C0.800537 6.70532 5.27839 2.22754 10.8007 2.22754C12.848 2.22754 14.7508 2.84421 16.3369 3.89976C16.2564 3.96643 16.173 4.03032 16.0952 4.09976C13.7396 6.14976 12.3868 9.11365 12.3868 12.2275C12.3868 15.3414 13.7369 18.3053 16.0952 20.3553ZM23.162 2.22754C21.1148 2.22754 19.212 2.84421 17.6258 3.89976C17.7064 3.96643 17.7897 4.03032 17.8675 4.09976C20.2231 6.14976 21.5759 9.11087 21.5759 12.2275C21.5759 15.3442 20.2259 18.3053 17.8703 20.3553C17.7925 20.422 17.7092 20.4886 17.6286 20.5553C19.2147 21.6109 21.1176 22.2275 23.1648 22.2275C28.6871 22.2275 33.165 17.7498 33.165 12.2275C33.165 6.70532 28.6871 2.22754 23.1648 2.22754H23.162ZM16.9814 4.36921C16.8536 4.46921 16.7258 4.57476 16.6036 4.68309C14.4952 6.51643 13.1619 9.21643 13.1619 12.2275C13.1619 15.2387 14.4952 17.9387 16.6036 19.772C16.7258 19.8803 16.8536 19.9831 16.9814 20.0859C17.1092 19.9831 17.2369 19.8803 17.3592 19.772C19.4675 17.9387 20.8009 15.2387 20.8009 12.2275C20.8009 9.21643 19.4675 6.51643 17.3592 4.68309C17.2369 4.57476 17.1092 4.47198 16.9814 4.36921Z" fill="white"/>
</svg>
