<svg width="108" height="25" viewBox="0 0 108 25" fill="none" xmlns="http://www.w3.org/2000/svg">
<path d="M11.6153 24.9101C11.6072 24.9101 11.5994 24.9125 11.5927 24.917C11.586 24.9215 11.5808 24.9279 11.5778 24.9354C11.5747 24.9428 11.5739 24.951 11.5755 24.9589C11.5771 24.9668 11.581 24.9741 11.5867 24.9797C11.5924 24.9854 11.5996 24.9893 11.6075 24.9909C11.6154 24.9925 11.6236 24.9917 11.631 24.9886C11.6385 24.9856 11.6449 24.9804 11.6494 24.9737C11.6539 24.967 11.6563 24.9592 11.6564 24.9511C11.6564 24.9402 11.652 24.9298 11.6443 24.9221C11.6366 24.9144 11.6262 24.9101 11.6153 24.9101ZM10.4786 24.516C10.4679 24.5159 10.4573 24.518 10.4473 24.522C10.4374 24.5261 10.4284 24.5321 10.4208 24.5396C10.4132 24.5472 10.4072 24.5562 10.4031 24.5662C10.399 24.5761 10.3969 24.5867 10.397 24.5974C10.3969 24.6137 10.4016 24.6295 10.4106 24.6431C10.4195 24.6566 10.4323 24.6672 10.4473 24.6734C10.4622 24.6797 10.4787 24.6813 10.4946 24.6782C10.5105 24.6751 10.5252 24.6673 10.5367 24.6558C10.5481 24.6444 10.556 24.6298 10.5591 24.6139C10.5623 24.598 10.5607 24.5815 10.5545 24.5665C10.5483 24.5515 10.5377 24.5387 10.5242 24.5297C10.5107 24.5207 10.4949 24.516 10.4786 24.516ZM9.38544 24.0039C9.35377 24.0053 9.32385 24.0188 9.30192 24.0417C9.27999 24.0646 9.26774 24.095 9.26774 24.1267C9.26774 24.1584 9.27999 24.1889 9.30192 24.2118C9.32385 24.2347 9.35377 24.2482 9.38544 24.2495C9.40201 24.2502 9.41855 24.2476 9.43406 24.2417C9.44957 24.2359 9.46374 24.2269 9.47571 24.2155C9.48769 24.204 9.49721 24.1902 9.50372 24.175C9.51023 24.1597 9.51358 24.1433 9.51358 24.1267C9.51358 24.1101 9.51023 24.0937 9.50372 24.0785C9.49721 24.0632 9.48769 24.0494 9.47571 24.038C9.46374 24.0265 9.44957 24.0176 9.43406 24.0117C9.41855 24.0059 9.40201 24.0032 9.38544 24.0039ZM8.34794 23.3791C8.31554 23.3792 8.28391 23.389 8.25703 23.4071C8.23015 23.4252 8.20924 23.4508 8.19693 23.4808C8.18462 23.5108 8.18147 23.5437 8.18787 23.5755C8.19428 23.6072 8.20994 23.6364 8.2329 23.6592C8.25586 23.6821 8.28508 23.6977 8.31687 23.7039C8.34865 23.7102 8.38159 23.7069 8.41151 23.6945C8.44143 23.6821 8.467 23.661 8.48499 23.6341C8.50298 23.6071 8.51258 23.5755 8.51258 23.5431C8.51261 23.5215 8.50836 23.5001 8.50009 23.4801C8.49182 23.4602 8.47968 23.4421 8.46438 23.4268C8.44908 23.4116 8.43091 23.3995 8.41093 23.3913C8.39095 23.3831 8.36954 23.379 8.34794 23.3791ZM7.37812 22.6494C7.33755 22.6493 7.29788 22.6613 7.26414 22.6838C7.23039 22.7063 7.20408 22.7383 7.18853 22.7758C7.17299 22.8133 7.16891 22.8545 7.17681 22.8943C7.18471 22.9341 7.20425 22.9706 7.23293 22.9993C7.26162 23.028 7.29817 23.0475 7.33796 23.0555C7.37774 23.0634 7.41898 23.0593 7.45646 23.0437C7.49393 23.0282 7.52594 23.0019 7.54845 22.9681C7.57096 22.9344 7.58296 22.8947 7.58291 22.8541C7.58291 22.7998 7.56134 22.7477 7.52293 22.7093C7.48452 22.6709 7.43243 22.6494 7.37812 22.6494ZM6.48551 21.8198C6.43694 21.8199 6.3895 21.8344 6.34918 21.8615C6.30885 21.8885 6.27745 21.9269 6.25892 21.9718C6.2404 22.0167 6.23558 22.0661 6.24509 22.1137C6.2546 22.1613 6.278 22.2051 6.31234 22.2394C6.34668 22.2738 6.39042 22.2972 6.43805 22.3067C6.48568 22.3162 6.53505 22.3114 6.57995 22.2928C6.62484 22.2743 6.66324 22.2429 6.6903 22.2026C6.71737 22.1623 6.73188 22.1148 6.73201 22.0663C6.73213 22.0339 6.72583 22.0017 6.71349 21.9718C6.70114 21.9418 6.68299 21.9146 6.66008 21.8917C6.63716 21.8688 6.60994 21.8506 6.57998 21.8383C6.55002 21.8259 6.51791 21.8196 6.48551 21.8198ZM5.6812 20.9018C5.62453 20.9022 5.56922 20.9192 5.52224 20.951C5.47527 20.9827 5.43874 21.0276 5.41726 21.08C5.39579 21.1325 5.39033 21.1901 5.40157 21.2457C5.41282 21.3012 5.44026 21.3522 5.48045 21.3921C5.52063 21.4321 5.57175 21.4593 5.62736 21.4702C5.68296 21.4812 5.74057 21.4754 5.7929 21.4536C5.84523 21.4319 5.88994 21.3951 5.9214 21.348C5.95286 21.3008 5.96964 21.2454 5.96964 21.1887C5.96964 21.1509 5.96217 21.1135 5.94766 21.0786C5.93314 21.0437 5.91187 21.012 5.88507 20.9853C5.85826 20.9587 5.82645 20.9376 5.79147 20.9232C5.75648 20.9089 5.71901 20.9016 5.6812 20.9018ZM4.97475 19.9018C4.9098 19.9018 4.84631 19.9211 4.79231 19.9572C4.73831 19.9933 4.69622 20.0446 4.67137 20.1046C4.64651 20.1646 4.64001 20.2306 4.65268 20.2943C4.66535 20.358 4.69662 20.4165 4.74255 20.4624C4.78847 20.5083 4.84698 20.5396 4.91068 20.5523C4.97438 20.565 5.04041 20.5585 5.10041 20.5336C5.16042 20.5088 5.2117 20.4667 5.24778 20.4127C5.28387 20.3587 5.30313 20.2952 5.30313 20.2302C5.30315 20.1871 5.29468 20.1444 5.27819 20.1045C5.2617 20.0647 5.23751 20.0285 5.20701 19.998C5.17651 19.9675 5.1403 19.9433 5.10045 19.9268C5.06059 19.9103 5.01788 19.9018 4.97475 19.9018ZM4.76463 19.1901C4.76463 19.1171 4.74298 19.0457 4.70242 18.985C4.66186 18.9243 4.60422 18.8769 4.53677 18.849C4.46932 18.821 4.39509 18.8137 4.32348 18.8279C4.25187 18.8422 4.18608 18.8773 4.13444 18.9289C4.0828 18.9805 4.04761 19.0463 4.03334 19.1179C4.01907 19.1895 4.02635 19.2637 4.05426 19.3312C4.08217 19.3987 4.12946 19.4563 4.19015 19.4969C4.25083 19.5375 4.32219 19.5592 4.3952 19.5593C4.49309 19.5591 4.58692 19.5201 4.65615 19.451C4.72539 19.3818 4.76439 19.288 4.76463 19.1901ZM4.3688 18.0827C4.36884 18.0016 4.34484 17.9222 4.29982 17.8548C4.25479 17.7873 4.19077 17.7347 4.11585 17.7036C4.04093 17.6725 3.95847 17.6643 3.8789 17.68C3.79932 17.6958 3.7262 17.7348 3.66877 17.7921C3.61135 17.8494 3.5722 17.9224 3.55628 18.0019C3.54036 18.0815 3.54837 18.164 3.57932 18.2389C3.61026 18.3139 3.66274 18.3781 3.73012 18.4232C3.7975 18.4684 3.87676 18.4926 3.95788 18.4927C4.01179 18.4928 4.06518 18.4822 4.115 18.4616C4.16482 18.4411 4.21011 18.4109 4.24826 18.3728C4.28642 18.3347 4.3167 18.2895 4.33739 18.2397C4.35807 18.1899 4.36874 18.1366 4.3688 18.0827ZM4.12185 16.9278C4.12185 16.8385 4.09538 16.7513 4.04579 16.6771C3.99621 16.6029 3.92572 16.545 3.84326 16.5109C3.76079 16.4767 3.67005 16.4678 3.58251 16.4852C3.49497 16.5026 3.41455 16.5456 3.35144 16.6087C3.28832 16.6718 3.24534 16.7522 3.22793 16.8398C3.21051 16.9273 3.21945 17.018 3.25361 17.1005C3.28777 17.183 3.34561 17.2535 3.41983 17.303C3.49404 17.3526 3.5813 17.3791 3.67055 17.3791C3.79023 17.379 3.90498 17.3315 3.9896 17.2469C4.07423 17.1622 4.12179 17.0475 4.12185 16.9278ZM4.02889 15.7465C4.02902 15.6492 4.00026 15.5539 3.94626 15.4729C3.89225 15.3919 3.81542 15.3287 3.7255 15.2914C3.63557 15.254 3.53659 15.2442 3.44108 15.2631C3.34557 15.2821 3.25782 15.3289 3.18894 15.3977C3.12005 15.4665 3.07313 15.5543 3.05412 15.6498C3.0351 15.7452 3.04484 15.8442 3.0821 15.9342C3.11936 16.0242 3.18247 16.101 3.26345 16.1551C3.34442 16.2092 3.43961 16.238 3.53698 16.238C3.60157 16.2381 3.66554 16.2254 3.72523 16.2008C3.78492 16.1761 3.83916 16.1399 3.88485 16.0943C3.93054 16.0486 3.96678 15.9944 3.99149 15.9347C4.01621 15.8751 4.02891 15.8111 4.02889 15.7465ZM3.55851 15.0884C3.66383 15.0884 3.76678 15.0572 3.85435 14.9987C3.94192 14.9402 4.01017 14.857 4.05048 14.7597C4.09078 14.6624 4.10133 14.5554 4.08078 14.4521C4.06023 14.3488 4.00952 14.2539 3.93504 14.1794C3.86057 14.1049 3.76569 14.0542 3.66239 14.0337C3.5591 14.0131 3.45203 14.0237 3.35473 14.064C3.25742 14.1043 3.17426 14.1725 3.11574 14.2601C3.05723 14.3477 3.026 14.4506 3.026 14.5559C3.026 14.6972 3.0821 14.8326 3.18197 14.9325C3.28183 15.0323 3.41728 15.0884 3.55851 15.0884Z" fill="white"/>
<path d="M3.16184 13.3794C3.16193 13.4929 3.19567 13.6038 3.25881 13.6982C3.32194 13.7925 3.41163 13.866 3.51654 13.9094C3.62144 13.9527 3.73685 13.964 3.84817 13.9418C3.95949 13.9196 4.06173 13.8649 4.14195 13.7846C4.22217 13.7042 4.27678 13.6019 4.29886 13.4906C4.32095 13.3792 4.30953 13.2639 4.26604 13.159C4.22254 13.0541 4.14894 12.9645 4.05453 12.9015C3.96011 12.8385 3.84913 12.8049 3.73562 12.8049C3.66019 12.8049 3.5855 12.8197 3.51582 12.8485C3.44614 12.8774 3.38283 12.9197 3.32953 12.9731C3.27623 13.0264 3.23398 13.0898 3.20521 13.1595C3.17643 13.2292 3.1617 13.3039 3.16184 13.3794ZM20.3895 22.1701C20.3823 22.1701 20.3752 22.1722 20.3692 22.1762C20.3632 22.1801 20.3585 22.1858 20.3557 22.1925C20.3529 22.1991 20.3522 22.2065 20.3536 22.2136C20.355 22.2206 20.3584 22.2271 20.3635 22.2322C20.3686 22.2373 20.3751 22.2408 20.3822 22.2422C20.3893 22.2436 20.3966 22.2429 20.4033 22.2401C20.4099 22.2373 20.4156 22.2326 20.4196 22.2266C20.4236 22.2206 20.4257 22.2135 20.4257 22.2063C20.4255 22.1968 20.4216 22.1877 20.4149 22.1809C20.4081 22.1742 20.399 22.1703 20.3895 22.1701ZM19.3353 22.6873C19.3258 22.6872 19.3163 22.6889 19.3075 22.6925C19.2986 22.696 19.2905 22.7013 19.2837 22.708C19.2769 22.7147 19.2715 22.7226 19.2678 22.7314C19.2641 22.7402 19.2622 22.7497 19.2621 22.7592C19.2616 22.7691 19.2631 22.779 19.2665 22.7884C19.2699 22.7977 19.2752 22.8062 19.282 22.8134C19.2888 22.8206 19.297 22.8264 19.3062 22.8303C19.3153 22.8342 19.3251 22.8362 19.335 22.8362C19.3449 22.8362 19.3548 22.8342 19.3639 22.8303C19.373 22.8264 19.3812 22.8206 19.388 22.8134C19.3949 22.8062 19.4001 22.7977 19.4036 22.7884C19.407 22.779 19.4084 22.7691 19.4079 22.7592C19.4078 22.7401 19.4001 22.7217 19.3865 22.7083C19.3729 22.6948 19.3545 22.6873 19.3353 22.6873ZM18.2293 23.0911C18.2004 23.0911 18.1727 23.1026 18.1523 23.123C18.1318 23.1435 18.1203 23.1712 18.1203 23.2001C18.1203 23.229 18.1318 23.2567 18.1523 23.2771C18.1727 23.2975 18.2004 23.309 18.2293 23.309C18.2582 23.309 18.2859 23.2975 18.3063 23.2771C18.3268 23.2567 18.3382 23.229 18.3382 23.2001C18.3382 23.1712 18.3268 23.1435 18.3063 23.123C18.2859 23.1026 18.2582 23.0911 18.2293 23.0911ZM17.0829 23.376C17.0454 23.3775 17.0099 23.3934 16.9839 23.4204C16.9579 23.4475 16.9434 23.4835 16.9434 23.521C16.9434 23.5585 16.9579 23.5946 16.9839 23.6216C17.0099 23.6486 17.0454 23.6646 17.0829 23.666C17.1024 23.6668 17.1218 23.6636 17.1401 23.6567C17.1584 23.6497 17.175 23.6392 17.1891 23.6256C17.2032 23.6121 17.2144 23.5958 17.222 23.5779C17.2297 23.5599 17.2336 23.5406 17.2336 23.521C17.2336 23.5015 17.2297 23.4822 17.222 23.4642C17.2144 23.4462 17.2032 23.43 17.1891 23.4164C17.175 23.4029 17.1584 23.3923 17.1401 23.3854C17.1218 23.3784 17.1024 23.3753 17.0829 23.376ZM15.9096 23.5378C15.8736 23.5374 15.8383 23.5478 15.8082 23.5675C15.7781 23.5873 15.7546 23.6155 15.7406 23.6487C15.7266 23.6818 15.7228 23.7184 15.7296 23.7537C15.7364 23.7891 15.7536 23.8216 15.779 23.8471C15.8043 23.8727 15.8367 23.8901 15.872 23.8972C15.9073 23.9043 15.9439 23.9007 15.9771 23.887C16.0104 23.8732 16.0388 23.8499 16.0588 23.82C16.0788 23.79 16.0894 23.7548 16.0893 23.7188C16.0891 23.6711 16.0702 23.6253 16.0365 23.5915C16.0029 23.5576 15.9573 23.5383 15.9096 23.5378ZM14.7216 23.5755C14.6786 23.5755 14.6366 23.5882 14.6009 23.6121C14.5651 23.636 14.5373 23.6699 14.5208 23.7096C14.5043 23.7493 14.5 23.793 14.5083 23.8352C14.5167 23.8774 14.5374 23.9161 14.5677 23.9465C14.5981 23.977 14.6368 23.9977 14.6789 24.0061C14.7211 24.0146 14.7648 24.0103 14.8045 23.9939C14.8443 23.9776 14.8783 23.9498 14.9022 23.9141C14.9262 23.8784 14.939 23.8364 14.9391 23.7934C14.9392 23.7648 14.9337 23.7364 14.9228 23.7099C14.912 23.6835 14.896 23.6594 14.8757 23.6391C14.8555 23.6189 14.8315 23.6028 14.8051 23.5919C14.7786 23.581 14.7503 23.5754 14.7216 23.5755ZM13.5313 23.4885C13.4811 23.4886 13.4321 23.5036 13.3905 23.5316C13.3489 23.5596 13.3165 23.5993 13.2974 23.6456C13.2783 23.692 13.2734 23.743 13.2833 23.7922C13.2932 23.8413 13.3175 23.8865 13.353 23.9218C13.3885 23.9572 13.4338 23.9813 13.483 23.991C13.5322 24.0006 13.5831 23.9955 13.6294 23.9762C13.6757 23.9569 13.7153 23.9244 13.7431 23.8826C13.7708 23.8409 13.7856 23.7918 13.7855 23.7417C13.7855 23.7083 13.779 23.6753 13.7662 23.6445C13.7534 23.6138 13.7346 23.5858 13.711 23.5623C13.6874 23.5388 13.6593 23.5201 13.6285 23.5075C13.5976 23.4948 13.5646 23.4884 13.5313 23.4885ZM12.3553 23.2737C12.2979 23.2737 12.2418 23.2908 12.194 23.3227C12.1463 23.3547 12.1092 23.4 12.0873 23.4531C12.0654 23.5062 12.0597 23.5646 12.071 23.6209C12.0823 23.6772 12.1101 23.7288 12.1508 23.7693C12.1915 23.8098 12.2433 23.8373 12.2997 23.8483C12.3561 23.8594 12.4144 23.8534 12.4674 23.8312C12.5203 23.809 12.5655 23.7716 12.5972 23.7237C12.6289 23.6758 12.6456 23.6196 12.6453 23.5622C12.645 23.4855 12.6143 23.4121 12.56 23.358C12.5056 23.3039 12.432 23.2736 12.3553 23.2737ZM11.21 22.9116C11.1456 22.9117 11.0826 22.9309 11.0291 22.9668C10.9756 23.0026 10.9339 23.0536 10.9093 23.1131C10.8848 23.1727 10.8784 23.2382 10.8911 23.3013C10.9037 23.3645 10.9348 23.4225 10.9804 23.468C11.026 23.5135 11.0841 23.5444 11.1473 23.5569C11.2105 23.5694 11.276 23.5628 11.3355 23.5381C11.395 23.5134 11.4458 23.4716 11.4815 23.4179C11.5172 23.3643 11.5362 23.3013 11.5361 23.2369C11.5359 23.1506 11.5014 23.0678 11.4403 23.0069C11.3792 22.9459 11.2963 22.9116 11.21 22.9116ZM10.1184 22.4018C10.0467 22.4016 9.97653 22.4228 9.91685 22.4625C9.85718 22.5023 9.81063 22.5588 9.78311 22.625C9.75559 22.6912 9.74834 22.7641 9.76226 22.8344C9.77618 22.9048 9.81066 22.9694 9.86133 23.0201C9.912 23.0709 9.97658 23.1054 10.0469 23.1194C10.1172 23.1334 10.1901 23.1263 10.2563 23.0988C10.3226 23.0714 10.3792 23.0249 10.419 22.9653C10.4588 22.9057 10.4801 22.8356 10.48 22.7639C10.48 22.7163 10.4707 22.6693 10.4526 22.6254C10.4344 22.5814 10.4078 22.5415 10.3742 22.5079C10.3406 22.4743 10.3007 22.4476 10.2568 22.4294C10.2129 22.4112 10.1659 22.4018 10.1184 22.4018ZM9.49643 22.1502C9.49643 22.0712 9.47301 21.994 9.42912 21.9283C9.38524 21.8626 9.32287 21.8114 9.24989 21.7812C9.17691 21.7509 9.09661 21.743 9.01914 21.7585C8.94167 21.7739 8.8705 21.8119 8.81465 21.8678C8.7588 21.9236 8.72076 21.9948 8.70535 22.0722C8.68994 22.1497 8.69785 22.23 8.72808 22.303C8.7583 22.376 8.80949 22.4383 8.87517 22.4822C8.94085 22.5261 9.01806 22.5495 9.09705 22.5495C9.14955 22.5497 9.20156 22.5395 9.2501 22.5195C9.29863 22.4995 9.34273 22.4701 9.37985 22.433C9.41697 22.3958 9.44638 22.3517 9.46639 22.3032C9.4864 22.2547 9.49661 22.2027 9.49643 22.1502ZM8.16761 20.9744C8.08166 20.9743 7.99761 20.9998 7.92611 21.0474C7.8546 21.0951 7.79885 21.163 7.76591 21.2424C7.73296 21.3217 7.72431 21.4091 7.74104 21.4934C7.75777 21.5777 7.79914 21.6552 7.8599 21.716C7.92066 21.7768 7.99809 21.8182 8.08239 21.8349C8.16668 21.8517 8.25406 21.8431 8.33347 21.8102C8.41287 21.7773 8.48073 21.7216 8.52846 21.6501C8.57619 21.5786 8.60165 21.4946 8.6016 21.4086C8.60125 21.2936 8.55542 21.1834 8.47411 21.1021C8.39281 21.0207 8.28262 20.9748 8.16761 20.9744ZM7.3409 20.0805C7.24761 20.0804 7.15638 20.1079 7.07875 20.1596C7.00112 20.2114 6.94058 20.285 6.9048 20.3711C6.86902 20.4573 6.8596 20.5521 6.87774 20.6436C6.89587 20.7351 6.94075 20.8192 7.00668 20.8852C7.07262 20.9512 7.15665 20.9962 7.24814 21.0144C7.33963 21.0326 7.43447 21.0233 7.52066 20.9876C7.60685 20.9519 7.68051 20.8914 7.73232 20.8138C7.78413 20.7362 7.81176 20.645 7.81172 20.5518C7.81172 20.4268 7.76213 20.307 7.67385 20.2187C7.58556 20.1303 7.46581 20.0806 7.3409 20.0805ZM6.63422 20.1022C6.73459 20.1023 6.83273 20.0726 6.91623 20.0169C6.99973 19.9612 7.06484 19.882 7.10332 19.7893C7.1418 19.6966 7.15193 19.5946 7.13242 19.4962C7.1129 19.3977 7.06463 19.3072 6.99371 19.2362C6.92278 19.1652 6.83239 19.1168 6.73396 19.0972C6.63553 19.0775 6.53348 19.0875 6.44073 19.1259C6.34798 19.1642 6.26869 19.2292 6.21289 19.3127C6.15708 19.3961 6.12727 19.4942 6.12723 19.5946C6.12705 19.6612 6.14004 19.7273 6.16545 19.7889C6.19086 19.8505 6.22819 19.9065 6.27529 19.9537C6.3224 20.0009 6.37835 20.0383 6.43994 20.0638C6.50154 20.0892 6.56756 20.1023 6.63422 20.1022ZM6.59983 18.554C6.59974 18.4466 6.56783 18.3417 6.50813 18.2525C6.44842 18.1633 6.36361 18.0937 6.26441 18.0527C6.16521 18.0117 6.05607 18.001 5.95078 18.022C5.8455 18.0429 5.7488 18.0947 5.6729 18.1706C5.59701 18.2465 5.54533 18.3432 5.52439 18.4485C5.50345 18.5538 5.5142 18.663 5.55527 18.7621C5.59634 18.8613 5.6659 18.9461 5.75514 19.0058C5.84439 19.0654 5.94932 19.0973 6.05667 19.0973C6.20075 19.0973 6.3389 19.04 6.44075 18.9381C6.54261 18.8362 6.59983 18.698 6.59983 18.554ZM24.6517 14.0283C24.6432 14.0283 24.6349 14.0316 24.6288 14.0375C24.6226 14.0434 24.619 14.0515 24.6187 14.0601C24.6188 14.0688 24.6223 14.0772 24.6285 14.0834C24.6346 14.0896 24.643 14.0932 24.6517 14.0934C24.656 14.0933 24.6603 14.0924 24.6642 14.0907C24.6682 14.089 24.6718 14.0865 24.6748 14.0834C24.6777 14.0803 24.6801 14.0767 24.6817 14.0727C24.6832 14.0687 24.684 14.0644 24.6839 14.0601C24.6839 14.0559 24.6831 14.0517 24.6815 14.0478C24.6798 14.044 24.6775 14.0404 24.6745 14.0375C24.6715 14.0345 24.6679 14.0322 24.664 14.0306C24.6601 14.0291 24.6559 14.0283 24.6517 14.0283ZM24.2978 15.1326C24.285 15.1325 24.2725 15.1363 24.2618 15.1433C24.2512 15.1504 24.2428 15.1604 24.2379 15.1722C24.2329 15.184 24.2316 15.197 24.234 15.2096C24.2365 15.2222 24.2426 15.2337 24.2517 15.2428C24.2607 15.2518 24.2722 15.258 24.2848 15.2605C24.2973 15.263 24.3103 15.2617 24.3222 15.2568C24.334 15.2519 24.3441 15.2436 24.3512 15.233C24.3583 15.2223 24.362 15.2098 24.362 15.197C24.362 15.1885 24.3604 15.1802 24.3572 15.1724C24.3539 15.1646 24.3492 15.1575 24.3433 15.1515C24.3373 15.1455 24.3302 15.1408 24.3224 15.1375C24.3146 15.1343 24.3063 15.1326 24.2978 15.1326ZM23.8264 16.1925C23.8071 16.1927 23.7883 16.1985 23.7723 16.2093C23.7563 16.2201 23.7439 16.2354 23.7366 16.2533C23.7293 16.2712 23.7275 16.2908 23.7314 16.3097C23.7352 16.3286 23.7446 16.3459 23.7583 16.3595C23.772 16.3731 23.7894 16.3823 23.8084 16.386C23.8273 16.3897 23.8469 16.3877 23.8647 16.3802C23.8825 16.3728 23.8977 16.3602 23.9083 16.3442C23.919 16.3281 23.9247 16.3092 23.9247 16.2899C23.9246 16.2771 23.9221 16.2644 23.9171 16.2525C23.9121 16.2406 23.9049 16.2299 23.8957 16.2208C23.8866 16.2118 23.8758 16.2046 23.8639 16.1998C23.852 16.1949 23.8392 16.1924 23.8264 16.1925ZM23.2428 17.1987C23.2172 17.1988 23.1923 17.2065 23.1711 17.2208C23.1498 17.2351 23.1333 17.2553 23.1236 17.279C23.1139 17.3026 23.1114 17.3286 23.1165 17.3537C23.1215 17.3788 23.1339 17.4018 23.152 17.4198C23.1702 17.4378 23.1932 17.4501 23.2183 17.455C23.2434 17.46 23.2694 17.4573 23.293 17.4475C23.3166 17.4377 23.3368 17.4211 23.351 17.3998C23.3651 17.3785 23.3727 17.3535 23.3726 17.3279C23.3726 17.3109 23.3692 17.294 23.3627 17.2783C23.3561 17.2626 23.3466 17.2484 23.3345 17.2364C23.3224 17.2244 23.3081 17.2149 23.2924 17.2084C23.2767 17.202 23.2598 17.1987 23.2428 17.1987ZM22.5535 18.136C22.5214 18.1362 22.4902 18.1459 22.4638 18.1639C22.4373 18.1819 22.4167 18.2073 22.4046 18.2369C22.3925 18.2665 22.3895 18.2991 22.3958 18.3304C22.4022 18.3618 22.4177 18.3906 22.4404 18.4131C22.4631 18.4357 22.492 18.4511 22.5234 18.4573C22.5548 18.4635 22.5873 18.4602 22.6168 18.448C22.6464 18.4357 22.6717 18.415 22.6895 18.3884C22.7073 18.3619 22.7169 18.3306 22.717 18.2986C22.7169 18.2772 22.7127 18.256 22.7045 18.2362C22.6962 18.2164 22.6842 18.1985 22.669 18.1833C22.6538 18.1682 22.6357 18.1563 22.6159 18.1481C22.5961 18.14 22.5749 18.1359 22.5535 18.136ZM21.7653 18.9955C21.7268 18.9955 21.6891 19.0069 21.6571 19.0282C21.625 19.0496 21.6 19.08 21.5852 19.1156C21.5704 19.1512 21.5665 19.1904 21.574 19.2282C21.5815 19.266 21.6001 19.3007 21.6273 19.328C21.6545 19.3553 21.6892 19.3738 21.727 19.3814C21.7648 19.3889 21.804 19.3851 21.8396 19.3703C21.8752 19.3556 21.9057 19.3306 21.9271 19.2986C21.9485 19.2665 21.9599 19.2289 21.9599 19.1903C21.96 19.1647 21.9549 19.1394 21.9452 19.1158C21.9354 19.0921 21.9211 19.0707 21.903 19.0526C21.8849 19.0345 21.8635 19.0201 21.8399 19.0103C21.8162 19.0005 21.7909 18.9955 21.7653 18.9955ZM20.888 19.7688C20.8432 19.7689 20.7993 19.7824 20.7621 19.8075C20.7249 19.8326 20.6959 19.8681 20.6789 19.9096C20.6619 19.9512 20.6576 19.9968 20.6665 20.0408C20.6754 20.0848 20.6971 20.1251 20.729 20.1568C20.7608 20.1884 20.8013 20.2099 20.8454 20.2185C20.8894 20.2271 20.935 20.2225 20.9765 20.2052C21.0179 20.1878 21.0532 20.1587 21.078 20.1213C21.1029 20.0839 21.116 20.0399 21.1159 19.9951C21.1159 19.9652 21.1101 19.9356 21.0986 19.9081C21.0871 19.8805 21.0703 19.8555 21.0491 19.8344C21.028 19.8134 21.0028 19.7967 20.9752 19.7855C20.9475 19.7742 20.9179 19.7685 20.888 19.7688ZM19.9302 20.4415C19.8788 20.4412 19.8284 20.4562 19.7855 20.4846C19.7426 20.513 19.7091 20.5534 19.6893 20.6008C19.6694 20.6483 19.664 20.7005 19.6738 20.751C19.6837 20.8015 19.7083 20.8479 19.7445 20.8844C19.7808 20.9209 19.827 20.9458 19.8774 20.956C19.9278 20.9662 19.9801 20.9611 20.0277 20.9416C20.0752 20.922 20.1159 20.8888 20.1446 20.8461C20.1733 20.8034 20.1886 20.7532 20.1887 20.7017C20.1886 20.6331 20.1614 20.5672 20.113 20.5185C20.0646 20.4697 19.9989 20.4421 19.9302 20.4415ZM18.8907 20.9884C18.8329 20.9883 18.7763 21.0053 18.7281 21.0374C18.68 21.0694 18.6424 21.115 18.6202 21.1684C18.598 21.2218 18.5922 21.2806 18.6034 21.3374C18.6146 21.3941 18.6425 21.4463 18.6833 21.4872C18.7242 21.5281 18.7763 21.5559 18.8331 21.5672C18.8898 21.5785 18.9486 21.5727 19.002 21.5505C19.0554 21.5284 19.1011 21.4908 19.1332 21.4427C19.1653 21.3946 19.1823 21.338 19.1823 21.2802C19.182 21.2029 19.1512 21.1289 19.0966 21.0743C19.0419 21.0196 18.968 20.9888 18.8907 20.9884ZM17.7829 21.3931C17.7185 21.3929 17.6555 21.4118 17.6019 21.4474C17.5483 21.483 17.5065 21.5337 17.4817 21.5932C17.457 21.6526 17.4504 21.718 17.4629 21.7811C17.4753 21.8443 17.5063 21.9023 17.5518 21.9478C17.5972 21.9934 17.6552 22.0244 17.7183 22.037C17.7815 22.0495 17.8469 22.0431 17.9064 22.0184C17.9658 21.9937 18.0166 21.9519 18.0523 21.8984C18.088 21.8448 18.1069 21.7819 18.1068 21.7175C18.1068 21.6316 18.0726 21.5492 18.0119 21.4883C17.9512 21.4275 17.8688 21.3933 17.7829 21.3931ZM16.628 21.6489C16.5573 21.6488 16.4882 21.6696 16.4294 21.7088C16.3706 21.7479 16.3247 21.8037 16.2975 21.8689C16.2704 21.9341 16.2632 22.0059 16.2769 22.0753C16.2905 22.1446 16.3245 22.2083 16.3744 22.2584C16.4242 22.3084 16.4878 22.3425 16.5571 22.3564C16.6264 22.3703 16.6983 22.3633 16.7636 22.3364C16.8289 22.3094 16.8848 22.2637 16.9241 22.205C16.9634 22.1463 16.9845 22.0773 16.9846 22.0066C16.9845 21.912 16.947 21.8212 16.8801 21.7541C16.8133 21.6871 16.7227 21.6493 16.628 21.6489ZM15.4452 21.7497C15.3682 21.7496 15.2929 21.7724 15.2289 21.8151C15.1648 21.8578 15.1149 21.9186 15.0854 21.9897C15.0558 22.0608 15.048 22.139 15.063 22.2146C15.0779 22.2901 15.1149 22.3595 15.1692 22.414C15.2236 22.4685 15.2929 22.5057 15.3684 22.5208C15.4438 22.536 15.5221 22.5284 15.5933 22.4991C15.6645 22.4698 15.7254 22.42 15.7683 22.3561C15.8112 22.2921 15.8342 22.2169 15.8343 22.1399C15.8345 22.0366 15.7935 21.9374 15.7206 21.8642C15.6476 21.7911 15.5485 21.7498 15.4452 21.7497ZM14.6768 22.1178C14.6768 22.0344 14.6521 21.9529 14.6058 21.8836C14.5594 21.8142 14.4936 21.7602 14.4166 21.7283C14.3395 21.6964 14.2548 21.688 14.173 21.7043C14.0912 21.7206 14.0161 21.7607 13.9572 21.8197C13.8982 21.8786 13.8581 21.9537 13.8418 22.0355C13.8255 22.1173 13.8339 22.2021 13.8658 22.2791C13.8977 22.3561 13.9517 22.422 14.021 22.4683C14.0904 22.5146 14.1719 22.5393 14.2553 22.5393C14.367 22.539 14.474 22.4945 14.553 22.4155C14.632 22.3365 14.6765 22.2295 14.6768 22.1178ZM13.5328 21.9414C13.5329 21.8516 13.5063 21.7637 13.4564 21.689C13.4066 21.6143 13.3357 21.5561 13.2527 21.5216C13.1697 21.4872 13.0784 21.4782 12.9903 21.4956C12.9022 21.5131 12.8213 21.5563 12.7577 21.6198C12.6942 21.6832 12.6508 21.7641 12.6333 21.8522C12.6157 21.9403 12.6246 22.0316 12.6589 22.1146C12.6932 22.1976 12.7513 22.2686 12.826 22.3186C12.9006 22.3685 12.9884 22.3952 13.0782 22.3953C13.1379 22.3954 13.197 22.3837 13.2521 22.361C13.3073 22.3382 13.3574 22.3048 13.3996 22.2626C13.4418 22.2204 13.4753 22.1704 13.4982 22.1152C13.5211 22.0601 13.5328 22.001 13.5328 21.9414ZM12.4219 21.6121C12.4219 21.5156 12.3933 21.4212 12.3396 21.3409C12.286 21.2606 12.2097 21.1981 12.1205 21.1611C12.0314 21.1242 11.9332 21.1145 11.8385 21.1334C11.7438 21.1522 11.6569 21.1987 11.5886 21.2669C11.5203 21.3352 11.4738 21.4222 11.455 21.5169C11.4362 21.6116 11.4458 21.7097 11.4828 21.7989C11.5197 21.8881 11.5823 21.9643 11.6626 22.018C11.7428 22.0716 11.8372 22.1002 11.9338 22.1002C11.9979 22.1004 12.0614 22.0879 12.1207 22.0634C12.18 22.0389 12.2339 22.0029 12.2792 21.9576C12.3246 21.9122 12.3605 21.8584 12.385 21.7991C12.4095 21.7398 12.422 21.6762 12.4219 21.6121ZM11.3615 21.1368C11.3615 21.0342 11.331 20.9339 11.2739 20.8485C11.2169 20.7632 11.1358 20.6967 11.0409 20.6575C10.946 20.6183 10.8417 20.608 10.741 20.6281C10.6403 20.6482 10.5479 20.6977 10.4754 20.7703C10.4028 20.843 10.3534 20.9355 10.3335 21.0362C10.3135 21.1369 10.3239 21.2412 10.3632 21.336C10.4026 21.4308 10.4692 21.5118 10.5546 21.5688C10.64 21.6258 10.7404 21.6561 10.843 21.656C10.9112 21.6561 10.9787 21.6427 11.0416 21.6166C11.1046 21.5905 11.1618 21.5522 11.21 21.504C11.2581 21.4558 11.2963 21.3985 11.3223 21.3355C11.3483 21.2725 11.3616 21.205 11.3615 21.1368ZM21.9049 5.31879C21.9094 5.31916 21.9139 5.3186 21.9181 5.31714C21.9223 5.31569 21.9262 5.31337 21.9295 5.31034C21.9328 5.3073 21.9354 5.30362 21.9372 5.29952C21.939 5.29541 21.94 5.29098 21.94 5.2865C21.94 5.28202 21.939 5.27759 21.9372 5.27349C21.9354 5.26939 21.9328 5.2657 21.9295 5.26267C21.9262 5.25964 21.9223 5.25732 21.9181 5.25586C21.9139 5.25441 21.9094 5.25385 21.9049 5.25422C21.8968 5.25489 21.8893 5.25858 21.8837 5.26456C21.8782 5.27054 21.8752 5.27838 21.8752 5.2865C21.8752 5.29463 21.8782 5.30246 21.8837 5.30844C21.8893 5.31442 21.8968 5.31811 21.9049 5.31879ZM22.4596 6.40598C22.4724 6.40598 22.485 6.40218 22.4957 6.39504C22.5064 6.38791 22.5147 6.37777 22.5196 6.3659C22.5246 6.35404 22.5259 6.34098 22.5234 6.32837C22.5209 6.31577 22.5147 6.30418 22.5056 6.29508C22.4966 6.28598 22.485 6.27977 22.4724 6.27724C22.4598 6.27471 22.4468 6.27596 22.4349 6.28085C22.423 6.28574 22.4128 6.29403 22.4057 6.30469C22.3985 6.31536 22.3946 6.3279 22.3946 6.34075C22.3945 6.34933 22.3961 6.35785 22.3993 6.3658C22.4025 6.37376 22.4073 6.38099 22.4133 6.38706C22.4194 6.39314 22.4266 6.39795 22.4346 6.4012C22.4425 6.40445 22.451 6.40607 22.4596 6.40598ZM22.8985 7.54444C22.9177 7.54448 22.9365 7.53882 22.9525 7.52816C22.9685 7.51751 22.981 7.50235 22.9884 7.4846C22.9958 7.46684 22.9978 7.4473 22.994 7.42843C22.9903 7.40956 22.9811 7.39223 22.9675 7.37861C22.9539 7.365 22.9366 7.35572 22.9177 7.35196C22.8989 7.34819 22.8793 7.3501 22.8616 7.35745C22.8438 7.3648 22.8286 7.37725 22.8179 7.39324C22.8072 7.40923 22.8015 7.42802 22.8015 7.44725C22.8015 7.46 22.804 7.47264 22.8088 7.48443C22.8137 7.49622 22.8208 7.50693 22.8298 7.51596C22.8388 7.52498 22.8495 7.53215 22.8613 7.53703C22.8731 7.54192 22.8857 7.54444 22.8985 7.54444ZM23.2202 8.72305C23.2459 8.72313 23.2711 8.71557 23.2926 8.70132C23.314 8.68707 23.3308 8.66676 23.3407 8.64299C23.3506 8.61921 23.3532 8.59303 23.3482 8.56777C23.3432 8.54251 23.3308 8.5193 23.3126 8.50109C23.2944 8.48288 23.2712 8.47049 23.2459 8.46548C23.2206 8.46048 23.1945 8.46309 23.1707 8.47299C23.1469 8.48289 23.1266 8.49962 23.1123 8.52107C23.0981 8.54252 23.0905 8.56772 23.0906 8.59347C23.0906 8.61049 23.0939 8.62736 23.1004 8.64309C23.1069 8.65882 23.1165 8.67312 23.1285 8.68516C23.1405 8.6972 23.1548 8.70674 23.1706 8.71324C23.1863 8.71974 23.2032 8.72307 23.2202 8.72305ZM23.2561 9.76742C23.2563 9.79949 23.2659 9.8308 23.2838 9.85739C23.3017 9.88399 23.3271 9.90467 23.3568 9.91683C23.3865 9.92899 23.4191 9.93208 23.4505 9.92572C23.482 9.91935 23.5108 9.9038 23.5334 9.88105C23.556 9.8583 23.5713 9.82935 23.5775 9.79788C23.5837 9.76641 23.5803 9.73382 23.568 9.70423C23.5556 9.67464 23.5348 9.64938 23.508 9.63164C23.4813 9.6139 23.45 9.60448 23.4179 9.60456C23.3748 9.60474 23.3336 9.62199 23.3033 9.65252C23.273 9.68306 23.256 9.72438 23.2561 9.76742ZM23.492 10.7601C23.4535 10.7602 23.416 10.7717 23.3841 10.7931C23.3521 10.8145 23.3272 10.8449 23.3126 10.8804C23.2979 10.916 23.2941 10.9551 23.3016 10.9928C23.3091 11.0305 23.3277 11.0651 23.3548 11.0923C23.382 11.1195 23.4167 11.138 23.4544 11.1455C23.4921 11.153 23.5312 11.1492 23.5667 11.1345C23.6022 11.1199 23.6326 11.095 23.654 11.0631C23.6755 11.0311 23.6869 10.9936 23.687 10.9551C23.687 10.9034 23.6665 10.8538 23.6299 10.8172C23.5933 10.7806 23.5437 10.7601 23.492 10.7601ZM23.4403 11.917C23.3953 11.917 23.3513 11.9304 23.3138 11.9555C23.2764 11.9805 23.2473 12.0161 23.2301 12.0578C23.2129 12.0994 23.2085 12.1452 23.2173 12.1893C23.2261 12.2335 23.2479 12.274 23.2798 12.3058C23.3117 12.3376 23.3523 12.3592 23.3965 12.368C23.4406 12.3767 23.4864 12.3721 23.528 12.3548C23.5696 12.3375 23.6051 12.3082 23.63 12.2707C23.655 12.2332 23.6682 12.1892 23.6682 12.1442C23.6682 12.1143 23.6624 12.0846 23.6509 12.057C23.6395 12.0294 23.6227 12.0043 23.6015 11.9831C23.5803 11.962 23.5552 11.9453 23.5275 11.9339C23.4998 11.9226 23.4702 11.9168 23.4403 11.917ZM23.2626 13.0623C23.2113 13.0624 23.1611 13.0778 23.1185 13.1064C23.0759 13.135 23.0428 13.1756 23.0232 13.223C23.0037 13.2705 22.9986 13.3226 23.0087 13.3729C23.0188 13.4233 23.0436 13.4694 23.0799 13.5057C23.1162 13.5419 23.1625 13.5666 23.2128 13.5765C23.2632 13.5865 23.3153 13.5813 23.3627 13.5617C23.4101 13.542 23.4506 13.5087 23.4791 13.466C23.5076 13.4234 23.5228 13.3732 23.5228 13.3219C23.5229 13.2877 23.5162 13.2539 23.5031 13.2223C23.4901 13.1908 23.4709 13.1621 23.4467 13.138C23.4225 13.1138 23.3938 13.0947 23.3622 13.0817C23.3306 13.0688 23.2967 13.0621 23.2626 13.0623ZM23.2284 14.4663C23.2284 14.4085 23.2112 14.352 23.179 14.304C23.1468 14.2559 23.1011 14.2185 23.0477 14.1965C22.9943 14.1744 22.9355 14.1687 22.8788 14.18C22.8221 14.1914 22.7701 14.2193 22.7293 14.2602C22.6884 14.3012 22.6607 14.3533 22.6495 14.41C22.6383 14.4668 22.6442 14.5255 22.6664 14.5789C22.6887 14.6323 22.7262 14.6778 22.7744 14.7099C22.8225 14.7419 22.879 14.7589 22.9369 14.7588C22.9752 14.7588 23.0132 14.7513 23.0487 14.7366C23.0842 14.7219 23.1164 14.7004 23.1435 14.6732C23.1706 14.646 23.192 14.6137 23.2066 14.5782C23.2212 14.5427 23.2286 14.5047 23.2284 14.4663ZM22.4625 15.2342C22.3983 15.2342 22.3356 15.2533 22.2823 15.2889C22.2289 15.3246 22.1873 15.3752 22.1628 15.4345C22.1382 15.4938 22.1318 15.559 22.1443 15.6219C22.1568 15.6848 22.1877 15.7426 22.2331 15.788C22.2785 15.8334 22.3363 15.8643 22.3992 15.8768C22.4621 15.8893 22.5273 15.8829 22.5866 15.8583C22.6459 15.8338 22.6966 15.7922 22.7322 15.7389C22.7678 15.6855 22.7869 15.6228 22.7869 15.5586C22.7869 15.516 22.7786 15.4738 22.7623 15.4344C22.746 15.395 22.7221 15.3593 22.692 15.3291C22.6619 15.299 22.6261 15.2751 22.5867 15.2588C22.5473 15.2425 22.5051 15.2342 22.4625 15.2342ZM21.8497 16.2225C21.7792 16.2226 21.7103 16.2436 21.6517 16.2828C21.5931 16.322 21.5475 16.3777 21.5206 16.4429C21.4936 16.5081 21.4866 16.5797 21.5004 16.6489C21.5143 16.718 21.5483 16.7815 21.5981 16.8313C21.648 16.8811 21.7116 16.9151 21.7807 16.9288C21.8499 16.9425 21.9215 16.9354 21.9867 16.9084C22.0518 16.8814 22.1074 16.8357 22.1466 16.7771C22.1858 16.7185 22.2067 16.6495 22.2067 16.579C22.2067 16.5322 22.1974 16.4858 22.1795 16.4425C22.1615 16.3992 22.1352 16.3599 22.1021 16.3268C22.0689 16.2936 22.0296 16.2674 21.9862 16.2495C21.9429 16.2316 21.8965 16.2224 21.8497 16.2225ZM21.1077 17.1206C21.0307 17.1206 20.9554 17.1434 20.8914 17.1862C20.8273 17.2289 20.7774 17.2897 20.7479 17.3609C20.7185 17.432 20.7108 17.5103 20.7258 17.5859C20.7409 17.6614 20.778 17.7307 20.8324 17.7852C20.8869 17.8396 20.9563 17.8766 21.0319 17.8916C21.1074 17.9065 21.1857 17.8987 21.2568 17.8692C21.3279 17.8396 21.3887 17.7897 21.4314 17.7256C21.4741 17.6615 21.4968 17.5862 21.4967 17.5092C21.4967 17.4581 21.4866 17.4075 21.467 17.3604C21.4475 17.3132 21.4188 17.2704 21.3827 17.2343C21.3466 17.1982 21.3037 17.1696 21.2565 17.1501C21.2093 17.1306 21.1588 17.1206 21.1077 17.1206ZM20.251 17.9134C20.1677 17.9134 20.0861 17.9381 20.0168 17.9845C19.9475 18.0308 19.8935 18.0966 19.8616 18.1737C19.8296 18.2507 19.8213 18.3354 19.8376 18.4172C19.8538 18.499 19.894 18.5741 19.9529 18.6331C20.0119 18.692 20.087 18.7322 20.1688 18.7484C20.2506 18.7647 20.3353 18.7564 20.4124 18.7245C20.4894 18.6925 20.5552 18.6385 20.6016 18.5692C20.6479 18.4999 20.6726 18.4184 20.6726 18.335C20.6726 18.2232 20.6282 18.1159 20.5491 18.0369C20.4701 17.9578 20.3628 17.9134 20.251 17.9134ZM19.2943 18.5884C19.2046 18.5884 19.1168 18.6151 19.0422 18.6649C18.9676 18.7148 18.9095 18.7857 18.8751 18.8686C18.8408 18.9515 18.8318 19.0428 18.8493 19.1308C18.8668 19.2188 18.9099 19.2997 18.9734 19.3632C19.0368 19.4267 19.1176 19.4699 19.2056 19.4875C19.2936 19.5051 19.3849 19.4962 19.4678 19.4619C19.5508 19.4276 19.6217 19.3696 19.6717 19.295C19.7216 19.2204 19.7484 19.1327 19.7485 19.043C19.7485 18.9833 19.7368 18.9242 19.714 18.869C19.6912 18.8139 19.6578 18.7638 19.6156 18.7215C19.5734 18.6793 19.5233 18.6458 19.4682 18.623C19.4131 18.6001 19.354 18.5884 19.2943 18.5884ZM18.2533 19.132C18.157 19.1319 18.0628 19.1603 17.9827 19.2137C17.9025 19.2672 17.8401 19.3431 17.8031 19.432C17.7661 19.521 17.7564 19.6188 17.775 19.7133C17.7937 19.8078 17.8399 19.8946 17.9079 19.9628C17.9759 20.031 18.0625 20.0775 18.157 20.0965C18.2514 20.1154 18.3493 20.106 18.4383 20.0693C18.5273 20.0326 18.6035 19.9704 18.6572 19.8904C18.7108 19.8105 18.7396 19.7164 18.7398 19.6201C18.74 19.5561 18.7275 19.4926 18.7032 19.4334C18.6788 19.3742 18.643 19.3204 18.5978 19.2751C18.5526 19.2297 18.4989 19.1938 18.4398 19.1692C18.3807 19.1446 18.3173 19.132 18.2533 19.132ZM17.1454 19.536C17.0427 19.5361 16.9424 19.5666 16.8571 19.6237C16.7717 19.6808 16.7053 19.762 16.666 19.8569C16.6268 19.9518 16.6166 20.0561 16.6367 20.1568C16.6568 20.2575 16.7063 20.35 16.779 20.4226C16.8516 20.4951 16.9442 20.5445 17.0449 20.5645C17.1456 20.5844 17.25 20.5741 17.3448 20.5348C17.4396 20.4954 17.5207 20.4288 17.5777 20.3434C17.6347 20.258 17.6651 20.1576 17.6651 20.055C17.6649 19.9173 17.6101 19.7852 17.5127 19.6879C17.4152 19.5906 17.2831 19.5359 17.1454 19.536ZM13.7602 1.05697C13.7666 1.05689 13.7728 1.05492 13.7781 1.05131C13.7834 1.04771 13.7874 1.04264 13.7898 1.03672C13.7922 1.03081 13.7928 1.02432 13.7915 1.01807C13.7902 1.01182 13.7872 1.00609 13.7826 1.0016C13.7781 0.997103 13.7723 0.994044 13.7661 0.992805C13.7598 0.991566 13.7534 0.992201 13.7475 0.994631C13.7416 0.997062 13.7365 1.00118 13.7329 1.00647C13.7294 1.01176 13.7274 1.01798 13.7274 1.02436C13.7274 1.02866 13.7283 1.03292 13.7299 1.03689C13.7316 1.04086 13.734 1.04447 13.737 1.0475C13.7401 1.05053 13.7437 1.05293 13.7477 1.05455C13.7517 1.05618 13.7559 1.057 13.7602 1.05697ZM14.8967 1.44348C14.9095 1.44339 14.922 1.43951 14.9327 1.43233C14.9433 1.42514 14.9516 1.41497 14.9564 1.4031C14.9613 1.39122 14.9625 1.37818 14.96 1.3656C14.9574 1.35303 14.9512 1.34148 14.9421 1.33243C14.9331 1.32337 14.9215 1.31721 14.9089 1.31471C14.8963 1.31221 14.8833 1.31349 14.8714 1.31839C14.8596 1.32329 14.8494 1.33159 14.8423 1.34224C14.8351 1.35289 14.8313 1.36542 14.8312 1.37825C14.8312 1.38684 14.8329 1.39536 14.8362 1.4033C14.8395 1.41124 14.8443 1.41845 14.8504 1.42452C14.8564 1.43059 14.8637 1.43539 14.8716 1.43864C14.8796 1.4419 14.8881 1.44354 14.8967 1.44348ZM15.9901 1.94626C16.0094 1.94621 16.0282 1.94045 16.0442 1.9297C16.0602 1.91895 16.0727 1.9037 16.08 1.88587C16.0873 1.86804 16.0892 1.84844 16.0854 1.82955C16.0815 1.81066 16.0722 1.79332 16.0585 1.77974C16.0448 1.76616 16.0275 1.75694 16.0085 1.75325C15.9896 1.74956 15.97 1.75156 15.9523 1.75901C15.9345 1.76646 15.9193 1.77901 15.9087 1.79508C15.898 1.81115 15.8924 1.83002 15.8925 1.8493C15.8926 1.87509 15.9029 1.89978 15.9212 1.91796C15.9395 1.93614 15.9643 1.94631 15.9901 1.94626ZM17.0276 2.56285C17.0533 2.56276 17.0783 2.55508 17.0996 2.54076C17.1209 2.52645 17.1374 2.50614 17.1472 2.48242C17.157 2.45869 17.1595 2.43261 17.1544 2.40746C17.1494 2.38231 17.137 2.35923 17.1188 2.34112C17.1006 2.32301 17.0775 2.31069 17.0523 2.30572C17.0272 2.30075 17.0011 2.30334 16.9774 2.31318C16.9537 2.32302 16.9334 2.33965 16.9192 2.36099C16.905 2.38232 16.8974 2.4074 16.8974 2.43305C16.8973 2.45014 16.9007 2.46707 16.9072 2.48286C16.9138 2.49865 16.9234 2.51299 16.9355 2.52506C16.9476 2.53712 16.9619 2.54667 16.9778 2.55316C16.9936 2.55965 17.0105 2.56294 17.0276 2.56285ZM17.9974 3.28395C18.0294 3.28395 18.0607 3.27447 18.0873 3.25669C18.1139 3.23892 18.1346 3.21366 18.1469 3.1841C18.1591 3.15455 18.1623 3.12202 18.1561 3.09065C18.1498 3.05927 18.1344 3.03045 18.1118 3.00783C18.0892 2.98521 18.0604 2.9698 18.029 2.96356C17.9976 2.95732 17.9651 2.96053 17.9355 2.97277C17.906 2.98501 17.8807 3.00574 17.8629 3.03234C17.8452 3.05894 17.8357 3.09021 17.8357 3.1222C17.8356 3.14346 17.8398 3.16452 17.8479 3.18417C17.856 3.20382 17.8679 3.22168 17.8829 3.23671C17.898 3.25174 17.9158 3.26365 17.9355 3.27176C17.9551 3.27987 17.9762 3.28401 17.9974 3.28395ZM18.8894 4.10512C18.928 4.10534 18.9658 4.09409 18.998 4.07281C19.0302 4.05152 19.0554 4.02115 19.0703 3.98555C19.0853 3.94994 19.0893 3.91071 19.0819 3.87281C19.0745 3.83491 19.0561 3.80005 19.0289 3.77266C19.0017 3.74526 18.9669 3.72656 18.9291 3.71892C18.8912 3.71128 18.852 3.71504 18.8163 3.72974C18.7806 3.74443 18.75 3.76939 18.7285 3.80146C18.707 3.83353 18.6955 3.87126 18.6955 3.90987C18.6955 3.96142 18.7158 4.01088 18.7522 4.04746C18.7885 4.08404 18.8378 4.10477 18.8894 4.10512ZM19.695 5.01481C19.74 5.01473 19.784 5.00129 19.8214 4.97619C19.8587 4.9511 19.8878 4.91549 19.9049 4.87386C19.922 4.83223 19.9264 4.78646 19.9175 4.74234C19.9086 4.69823 19.8868 4.65775 19.8548 4.62603C19.8229 4.59431 19.7823 4.57278 19.7381 4.56417C19.6939 4.55556 19.6482 4.56025 19.6067 4.57764C19.5651 4.59504 19.5297 4.62436 19.5049 4.6619C19.4801 4.69943 19.4669 4.74349 19.4671 4.7885C19.4674 4.84872 19.4915 4.90638 19.5342 4.94882C19.577 4.99125 19.6348 5.01499 19.695 5.01481ZM20.4015 6.00661C20.4528 6.00656 20.503 5.99129 20.5457 5.96273C20.5884 5.93416 20.6217 5.89358 20.6413 5.84611C20.661 5.79865 20.6661 5.74642 20.6561 5.69604C20.646 5.64567 20.6213 5.59939 20.585 5.56307C20.5486 5.52675 20.5024 5.502 20.452 5.49197C20.4016 5.48194 20.3494 5.48707 20.3019 5.5067C20.2545 5.52634 20.2139 5.55961 20.1853 5.6023C20.1567 5.64499 20.1415 5.6952 20.1414 5.74657C20.1414 5.78073 20.1481 5.81457 20.1611 5.84615C20.1741 5.87772 20.1933 5.90641 20.2175 5.93057C20.2416 5.95473 20.2703 5.97388 20.3019 5.98693C20.3335 5.99998 20.3673 6.00666 20.4015 6.00661ZM20.9803 7.07805C21.038 7.07783 21.0943 7.06053 21.1421 7.02834C21.19 6.99615 21.2272 6.9505 21.2491 6.89717C21.271 6.84384 21.2766 6.78521 21.2653 6.72868C21.2539 6.67216 21.226 6.62027 21.1852 6.57958C21.1443 6.53889 21.0923 6.51121 21.0357 6.50004C20.9792 6.48887 20.9206 6.49471 20.8673 6.51683C20.8141 6.53895 20.7686 6.57634 20.7366 6.6243C20.7045 6.67226 20.6875 6.72862 20.6875 6.78628C20.6875 6.82467 20.6951 6.86268 20.7099 6.89812C20.7247 6.93357 20.7462 6.96576 20.7734 6.99286C20.8006 7.01995 20.8329 7.04142 20.8684 7.05604C20.9039 7.07066 20.942 7.07814 20.9803 7.07805ZM21.0928 7.89256C21.0927 7.95679 21.1115 8.01963 21.1471 8.07312C21.1826 8.12661 21.2333 8.16836 21.2926 8.19307C21.3518 8.21778 21.4171 8.22435 21.4801 8.21194C21.5432 8.19953 21.6011 8.16871 21.6466 8.12337C21.6921 8.07803 21.7231 8.02022 21.7357 7.95724C21.7483 7.89426 21.742 7.82896 21.7175 7.76959C21.693 7.71022 21.6514 7.65945 21.598 7.62372C21.5447 7.58798 21.4819 7.56889 21.4177 7.56884C21.3751 7.5687 21.3328 7.57696 21.2934 7.59316C21.254 7.60937 21.2182 7.63319 21.188 7.66326C21.1579 7.69334 21.1339 7.72907 21.1176 7.76842C21.1012 7.80777 21.0928 7.84996 21.0928 7.89256ZM21.3484 9.04898C21.3486 9.11955 21.3696 9.1885 21.4089 9.24712C21.4482 9.30573 21.504 9.35139 21.5692 9.37831C21.6345 9.40524 21.7062 9.41222 21.7754 9.39839C21.8446 9.38456 21.9082 9.35053 21.958 9.3006C22.0079 9.25067 22.0419 9.18707 22.0556 9.11786C22.0693 9.04864 22.0623 8.9769 22.0353 8.9117C22.0083 8.8465 21.9625 8.79077 21.9039 8.75154C21.8452 8.71232 21.7762 8.69136 21.7057 8.69132C21.6587 8.69117 21.6121 8.70033 21.5687 8.71825C21.5252 8.73618 21.4858 8.76253 21.4526 8.79578C21.4194 8.82902 21.3931 8.86851 21.3752 8.91197C21.3573 8.95543 21.3482 9.00199 21.3484 9.04898ZM21.4489 10.2314C21.449 10.3085 21.4719 10.3838 21.5148 10.4479C21.5577 10.512 21.6186 10.562 21.6899 10.5914C21.7611 10.6209 21.8395 10.6285 21.9151 10.6134C21.9908 10.5983 22.0602 10.5611 22.1147 10.5066C22.1692 10.452 22.2062 10.3825 22.2212 10.3068C22.2362 10.2312 22.2284 10.1528 22.1988 10.0816C22.1692 10.0104 22.1192 9.94955 22.055 9.90677C21.9909 9.864 21.9155 9.84122 21.8383 9.84131C21.7871 9.84131 21.7365 9.8514 21.6892 9.87101C21.6419 9.89062 21.5989 9.91936 21.5628 9.95559C21.5266 9.99182 21.4979 10.0348 21.4784 10.0821C21.4589 10.1295 21.4489 10.1802 21.4489 10.2314ZM22.2379 11.4204C22.2379 11.337 22.2132 11.2555 22.1669 11.1862C22.1206 11.1169 22.0547 11.0628 21.9777 11.0309C21.9007 10.999 21.8159 10.9907 21.7341 11.0069C21.6524 11.0232 21.5772 11.0634 21.5183 11.1223C21.4593 11.1813 21.4192 11.2564 21.4029 11.3382C21.3866 11.4199 21.395 11.5047 21.4269 11.5817C21.4588 11.6588 21.5128 11.7246 21.5822 11.7709C21.6515 11.8172 21.733 11.842 21.8164 11.842C21.9282 11.842 22.0354 11.7976 22.1145 11.7185C22.1935 11.6394 22.2379 11.5322 22.2379 11.4204ZM22.0937 12.5979C22.0937 12.508 22.067 12.4202 22.017 12.3455C21.967 12.2709 21.896 12.2127 21.813 12.1784C21.7299 12.1441 21.6386 12.1351 21.5505 12.1528C21.4624 12.1704 21.3815 12.2138 21.318 12.2774C21.2545 12.341 21.2114 12.422 21.194 12.5101C21.1766 12.5983 21.1857 12.6896 21.2202 12.7726C21.2547 12.8556 21.3131 12.9264 21.3879 12.9762C21.4627 13.026 21.5506 13.0525 21.6404 13.0523C21.7608 13.0521 21.8761 13.0042 21.9612 12.919C22.0462 12.8337 22.0938 12.7183 22.0937 12.5979ZM21.7986 13.7419C21.7986 13.6457 21.7701 13.5516 21.7167 13.4716C21.6632 13.3916 21.5873 13.3292 21.4984 13.2923C21.4096 13.2554 21.3117 13.2457 21.2173 13.2644C21.123 13.283 21.0362 13.3293 20.9681 13.3972C20.8999 13.4652 20.8535 13.5518 20.8345 13.6461C20.8156 13.7405 20.8251 13.8383 20.8617 13.9273C20.8983 14.0162 20.9605 14.0924 21.0404 14.146C21.1203 14.1997 21.2143 14.2284 21.3105 14.2287C21.3745 14.2288 21.438 14.2164 21.4972 14.192C21.5564 14.1676 21.6102 14.1317 21.6555 14.0865C21.7008 14.0413 21.7368 13.9876 21.7614 13.9285C21.7859 13.8693 21.7986 13.8059 21.7986 13.7419ZM20.8361 14.3137C20.7334 14.3139 20.6331 14.3445 20.5478 14.4016C20.4625 14.4588 20.3961 14.54 20.3569 14.6349C20.3177 14.7299 20.3075 14.8343 20.3277 14.935C20.3478 15.0357 20.3974 15.1281 20.47 15.2007C20.5427 15.2732 20.6353 15.3226 20.736 15.3426C20.8367 15.3626 20.9411 15.3522 21.036 15.3129C21.1308 15.2735 21.2119 15.207 21.2689 15.1216C21.326 15.0362 21.3564 14.9358 21.3564 14.8331C21.3564 14.7648 21.3429 14.6972 21.3167 14.6342C21.2906 14.5711 21.2522 14.5138 21.2039 14.4656C21.1556 14.4173 21.0982 14.3791 21.0351 14.353C20.972 14.327 20.9044 14.3136 20.8361 14.3137ZM4.98678 3.80248C4.99531 3.80248 5.0035 3.79909 5.00953 3.79306C5.01556 3.78702 5.01895 3.77884 5.01895 3.77031C5.0189 3.76175 5.0155 3.75355 5.00949 3.74746C5.00349 3.74137 4.99534 3.73786 4.98678 3.73769C4.97813 3.73769 4.96983 3.74113 4.96372 3.74724C4.9576 3.75336 4.95417 3.76166 4.95417 3.77031C4.95413 3.77458 4.95496 3.77881 4.95659 3.78276C4.95823 3.7867 4.96064 3.79028 4.96368 3.79328C4.96672 3.79628 4.97033 3.79864 4.9743 3.80022C4.97827 3.8018 4.98251 3.80257 4.98678 3.80248ZM6.04003 3.28151C6.0528 3.28142 6.06526 3.27755 6.07583 3.27038C6.08639 3.26322 6.0946 3.25308 6.09941 3.24124C6.10421 3.22941 6.1054 3.21642 6.10282 3.20392C6.10025 3.19141 6.09402 3.17995 6.08493 3.17098C6.07583 3.16201 6.06429 3.15594 6.05175 3.15354C6.03921 3.15113 6.02623 3.1525 6.01447 3.15747C6.00271 3.16243 5.99268 3.17078 5.98566 3.18144C5.97863 3.19211 5.97493 3.20462 5.97502 3.21739C5.97508 3.22587 5.97681 3.23425 5.98011 3.24206C5.9834 3.24988 5.98821 3.25696 5.99425 3.26291C6.00028 3.26887 6.00743 3.27358 6.01529 3.27677C6.02314 3.27996 6.03155 3.28157 6.04003 3.28151ZM7.14609 2.87459C7.16551 2.87476 7.18454 2.86916 7.20076 2.85849C7.21698 2.84781 7.22966 2.83255 7.23718 2.81465C7.2447 2.79675 7.24673 2.77701 7.243 2.75796C7.23927 2.7389 7.22996 2.72138 7.21624 2.70764C7.20253 2.69389 7.18503 2.68453 7.16598 2.68076C7.14693 2.67699 7.12719 2.67897 7.10928 2.68645C7.09136 2.69393 7.07607 2.70658 7.06536 2.72277C7.05465 2.73897 7.049 2.75799 7.04913 2.77741C7.04913 2.80314 7.05934 2.82783 7.07751 2.84605C7.09569 2.86427 7.12035 2.87453 7.14609 2.87459ZM8.29231 2.58571C8.31798 2.58557 8.34303 2.57783 8.3643 2.56346C8.38558 2.54909 8.40211 2.52873 8.41181 2.50496C8.42151 2.4812 8.42395 2.45509 8.41881 2.42993C8.41367 2.40478 8.40119 2.38172 8.38295 2.36366C8.3647 2.3456 8.34151 2.33336 8.31631 2.32848C8.2911 2.3236 8.26502 2.3263 8.24135 2.33625C8.21769 2.34619 8.1975 2.36293 8.18335 2.38435C8.16919 2.40577 8.16171 2.4309 8.16184 2.45657C8.16181 2.47365 8.16517 2.49057 8.17174 2.50633C8.1783 2.5221 8.18793 2.53641 8.20007 2.54842C8.21221 2.56044 8.22661 2.56992 8.24244 2.57632C8.25828 2.58272 8.27523 2.58591 8.29231 2.58571ZM9.46603 2.41952C9.49808 2.41943 9.52937 2.40986 9.55598 2.392C9.58258 2.37414 9.6033 2.34881 9.61552 2.31919C9.62774 2.28957 9.63092 2.257 9.62464 2.22558C9.61837 2.19416 9.60293 2.1653 9.58028 2.14264C9.55762 2.11998 9.52876 2.10455 9.49734 2.09827C9.46592 2.092 9.43335 2.09518 9.40373 2.1074C9.37411 2.11962 9.34877 2.14034 9.33092 2.16694C9.31306 2.19355 9.30349 2.22484 9.3034 2.25688C9.30328 2.27827 9.30741 2.29948 9.31554 2.31926C9.32367 2.33905 9.33565 2.35702 9.35077 2.37215C9.3659 2.38727 9.38387 2.39925 9.40366 2.40738C9.42344 2.41551 9.44464 2.41964 9.46603 2.41952ZM10.6542 2.37847C10.6927 2.37838 10.7304 2.36687 10.7623 2.34539C10.7943 2.32392 10.8192 2.29343 10.8339 2.2578C10.8486 2.22217 10.8523 2.183 10.8447 2.14522C10.8371 2.10745 10.8185 2.07278 10.7912 2.0456C10.7639 2.01842 10.7291 1.99994 10.6913 1.99251C10.6535 1.98508 10.6143 1.98903 10.5788 2.00386C10.5432 2.01868 10.5129 2.04372 10.4915 2.0758C10.4702 2.10789 10.4588 2.14558 10.4589 2.18411C10.4588 2.20973 10.4638 2.23512 10.4736 2.2588C10.4834 2.28248 10.4978 2.30398 10.516 2.32206C10.5341 2.34013 10.5557 2.35443 10.5794 2.36411C10.6032 2.3738 10.6286 2.37868 10.6542 2.37847ZM11.8434 2.46168C11.8884 2.46176 11.9323 2.44853 11.9697 2.42364C12.0071 2.39875 12.0362 2.36333 12.0535 2.32187C12.0707 2.2804 12.0753 2.23475 12.0666 2.19069C12.0579 2.14663 12.0363 2.10614 12.0045 2.07435C11.9728 2.04257 11.9324 2.0209 11.8883 2.01211C11.8443 2.00332 11.7986 2.00778 11.7571 2.02495C11.7156 2.04212 11.6802 2.07121 11.6552 2.10855C11.6302 2.14588 11.6169 2.18978 11.6169 2.2347C11.6168 2.26451 11.6225 2.29405 11.6338 2.32163C11.6452 2.3492 11.6618 2.37426 11.6829 2.39536C11.704 2.41647 11.729 2.43319 11.7565 2.44457C11.7841 2.45595 11.8136 2.46176 11.8434 2.46168ZM13.0209 2.67246C13.0723 2.67246 13.1224 2.65725 13.1651 2.62876C13.2078 2.60026 13.2411 2.55976 13.2607 2.51236C13.2804 2.46496 13.2856 2.4128 13.2756 2.36246C13.2656 2.31212 13.241 2.26587 13.2047 2.22954C13.1685 2.1932 13.1223 2.16843 13.072 2.15834C13.0217 2.14824 12.9695 2.15329 12.9221 2.17284C12.8746 2.19238 12.834 2.22555 12.8054 2.26816C12.7768 2.31076 12.7615 2.36088 12.7614 2.4122C12.7612 2.44637 12.7678 2.48024 12.7807 2.51185C12.7937 2.54346 12.8128 2.57219 12.837 2.59639C12.8611 2.62058 12.8898 2.63976 12.9213 2.65281C12.9529 2.66587 12.9868 2.67255 13.0209 2.67246ZM14.1656 3.03123C14.2234 3.03128 14.2798 3.0142 14.3279 2.98215C14.3759 2.9501 14.4134 2.90453 14.4355 2.85119C14.4577 2.79785 14.4635 2.73915 14.4523 2.6825C14.441 2.62585 14.4133 2.5738 14.3725 2.53293C14.3317 2.49207 14.2796 2.46422 14.223 2.45291C14.1664 2.4416 14.1077 2.44734 14.0543 2.4694C14.0009 2.49146 13.9553 2.52885 13.9232 2.57684C13.8911 2.62483 13.8739 2.68127 13.8738 2.73902C13.8741 2.81636 13.905 2.89044 13.9596 2.94517C14.0142 2.99989 14.0883 3.03083 14.1656 3.03123ZM15.2575 3.53734C15.3217 3.53756 15.3846 3.5187 15.4381 3.48317C15.4916 3.44764 15.5334 3.39702 15.5582 3.33772C15.5829 3.27843 15.5895 3.21313 15.5771 3.15008C15.5647 3.08704 15.5339 3.0291 15.4885 2.98359C15.4431 2.93809 15.3853 2.90706 15.3223 2.89444C15.2593 2.88183 15.194 2.88819 15.1346 2.91273C15.0752 2.93726 15.0245 2.97887 14.9888 3.03227C14.953 3.08568 14.934 3.14848 14.934 3.21273C14.9339 3.25529 14.9422 3.29745 14.9584 3.3368C14.9746 3.37615 14.9984 3.41192 15.0285 3.44206C15.0585 3.47221 15.0942 3.49614 15.1335 3.51249C15.1728 3.52883 15.2149 3.53728 15.2575 3.53734ZM15.9209 3.82578C15.9208 3.89636 15.9416 3.96538 15.9808 4.02411C16.0199 4.08284 16.0756 4.12864 16.1408 4.15571C16.206 4.18278 16.2778 4.18991 16.347 4.1762C16.4162 4.16248 16.4798 4.12854 16.5298 4.07866C16.5797 4.02878 16.6137 3.96521 16.6275 3.89599C16.6414 3.82677 16.6343 3.75501 16.6073 3.68979C16.5803 3.62457 16.5346 3.56882 16.4759 3.5296C16.4172 3.49038 16.3482 3.46944 16.2777 3.46944C16.2308 3.46941 16.1845 3.47861 16.1412 3.4965C16.0979 3.51439 16.0586 3.54063 16.0255 3.57372C15.9923 3.60681 15.9661 3.6461 15.9481 3.68934C15.9302 3.73259 15.9209 3.77895 15.9209 3.82578ZM17.2089 4.95735C17.2858 4.95713 17.3609 4.93414 17.4247 4.89127C17.4886 4.8484 17.5383 4.78758 17.5676 4.71649C17.5969 4.6454 17.6045 4.56722 17.5894 4.49182C17.5743 4.41642 17.5372 4.34718 17.4828 4.29284C17.4284 4.23849 17.3591 4.20149 17.2837 4.18648C17.2083 4.17148 17.1301 4.17916 17.059 4.20854C16.988 4.23793 16.9272 4.28771 16.8844 4.3516C16.8416 4.41548 16.8187 4.49062 16.8186 4.56751C16.8186 4.61875 16.8286 4.66949 16.8483 4.71683C16.8679 4.76417 16.8966 4.80718 16.9329 4.84339C16.9691 4.8796 17.0122 4.90831 17.0595 4.92786C17.1069 4.94742 17.1576 4.95744 17.2089 4.95735ZM18.0354 5.84685C18.1187 5.84685 18.2003 5.82213 18.2696 5.77581C18.3389 5.72948 18.3929 5.66364 18.4248 5.58661C18.4568 5.50958 18.4651 5.42482 18.4488 5.34304C18.4326 5.26127 18.3924 5.18615 18.3335 5.1272C18.2745 5.06824 18.1994 5.02809 18.1176 5.01182C18.0358 4.99556 17.9511 5.0039 17.874 5.03581C17.797 5.06772 17.7312 5.12175 17.6848 5.19108C17.6385 5.2604 17.6138 5.34191 17.6138 5.42529C17.6138 5.53709 17.6582 5.64432 17.7373 5.72338C17.8163 5.80244 17.9236 5.84685 18.0354 5.84685ZM18.7414 5.92739C18.6516 5.92739 18.5637 5.95403 18.4891 6.00394C18.4144 6.05384 18.3561 6.12478 18.3218 6.20777C18.2874 6.29076 18.2784 6.38208 18.2959 6.47018C18.3135 6.55829 18.3567 6.63921 18.4202 6.70273C18.4837 6.76625 18.5647 6.80951 18.6528 6.82703C18.7409 6.84456 18.8322 6.83556 18.9152 6.80119C18.9982 6.76681 19.0691 6.7086 19.119 6.63391C19.1689 6.55922 19.1956 6.47141 19.1956 6.38158C19.1956 6.32192 19.1839 6.26285 19.1611 6.20773C19.1382 6.15262 19.1048 6.10254 19.0626 6.06036C19.0204 6.01818 18.9703 5.98472 18.9152 5.96191C18.8601 5.93909 18.801 5.92737 18.7414 5.92739ZM18.8321 7.42329C18.8323 7.51943 18.8609 7.61337 18.9144 7.69324C18.9679 7.7731 19.0439 7.83531 19.1328 7.87199C19.2217 7.90866 19.3194 7.91817 19.4137 7.8993C19.5079 7.88043 19.5945 7.83404 19.6624 7.76598C19.7303 7.69792 19.7765 7.61126 19.7952 7.51695C19.8138 7.42264 19.8041 7.32491 19.7672 7.23613C19.7303 7.14735 19.6679 7.07149 19.588 7.01816C19.508 6.96482 19.414 6.9364 19.3178 6.93649C19.2539 6.93646 19.1907 6.94904 19.1317 6.97351C19.0726 6.99798 19.019 7.03385 18.9739 7.07907C18.9288 7.1243 18.8931 7.17798 18.8687 7.23705C18.8444 7.29612 18.832 7.35941 18.8321 7.42329ZM19.2351 8.52979C19.235 8.63241 19.2653 8.73276 19.3222 8.81814C19.3792 8.90353 19.4601 8.97011 19.5549 9.00949C19.6497 9.04886 19.754 9.05925 19.8547 9.03935C19.9554 9.01945 20.0479 8.97014 20.1205 8.89767C20.1932 8.8252 20.2427 8.73281 20.2629 8.63219C20.283 8.53156 20.2729 8.42722 20.2338 8.33235C20.1947 8.23748 20.1283 8.15634 20.043 8.09919C19.9578 8.04204 19.8575 8.01144 19.7549 8.01126C19.6173 8.01121 19.4852 8.06577 19.3877 8.16299C19.2903 8.26021 19.2354 8.39213 19.2351 8.52979ZM20.0405 9.13285C19.9313 9.13281 19.8246 9.16513 19.7338 9.22574C19.6431 9.28635 19.5723 9.37251 19.5305 9.47334C19.4887 9.57417 19.4778 9.68512 19.499 9.79218C19.5203 9.89923 19.5728 9.99758 19.65 10.0748C19.7271 10.152 19.8255 10.2045 19.9325 10.2259C20.0396 10.2472 20.1505 10.2362 20.2514 10.1945C20.3522 10.1527 20.4384 10.082 20.499 9.99125C20.5597 9.9005 20.5921 9.79381 20.5921 9.68466C20.592 9.53837 20.5339 9.39808 20.4305 9.29462C20.327 9.19115 20.1868 9.13297 20.0405 9.13285ZM0.723858 11.8551C0.715521 11.8546 0.707169 11.8558 0.699316 11.8586C0.691464 11.8615 0.684276 11.8659 0.678195 11.8716C0.672114 11.8773 0.667268 11.8842 0.663956 11.8919C0.660644 11.8996 0.658936 11.9078 0.658936 11.9162C0.658936 11.9245 0.660644 11.9328 0.663956 11.9405C0.667268 11.9481 0.672114 11.955 0.678195 11.9608C0.684276 11.9665 0.691464 11.9709 0.699316 11.9738C0.707169 11.9766 0.715521 11.9778 0.723858 11.9773C0.732195 11.9778 0.740547 11.9766 0.7484 11.9738C0.756253 11.9709 0.76344 11.9665 0.769521 11.9608C0.775602 11.955 0.780448 11.9481 0.78376 11.9405C0.787072 11.9328 0.788781 11.9245 0.788781 11.9162C0.788781 11.9078 0.787072 11.8996 0.78376 11.8919C0.780448 11.8842 0.775602 11.8773 0.769521 11.8716C0.76344 11.8659 0.756253 11.8615 0.7484 11.8586C0.740547 11.8558 0.732195 11.8546 0.723858 11.8551ZM1.07842 10.6574C1.05418 10.6572 1.03044 10.6643 1.01022 10.6777C0.989993 10.691 0.974191 10.7101 0.964812 10.7325C0.955434 10.7548 0.9529 10.7795 0.957533 10.8032C0.962165 10.827 0.973755 10.8489 0.990835 10.8661C1.00791 10.8833 1.02972 10.8951 1.05348 10.8999C1.07724 10.9047 1.10189 10.9023 1.12431 10.8931C1.14673 10.8839 1.16592 10.8682 1.17943 10.8481C1.19295 10.828 1.20018 10.8043 1.20023 10.7801C1.20011 10.7477 1.18727 10.7167 1.16448 10.6937C1.14168 10.6708 1.11077 10.6577 1.07842 10.6574ZM1.73318 9.68688C1.73331 9.65045 1.72263 9.6148 1.70249 9.58443C1.68236 9.55407 1.65367 9.53036 1.62006 9.51631C1.58644 9.50226 1.54942 9.49849 1.51366 9.50548C1.47791 9.51248 1.44503 9.52992 1.41919 9.5556C1.39335 9.58129 1.37571 9.61406 1.3685 9.64977C1.36129 9.68548 1.36484 9.72253 1.37869 9.75623C1.39254 9.78992 1.41607 9.81875 1.44631 9.83907C1.47656 9.85939 1.51214 9.87028 1.54857 9.87037C1.59736 9.87043 1.64418 9.85115 1.67878 9.81676C1.71338 9.78237 1.73294 9.73566 1.73318 9.68688ZM2.13211 8.89389C2.18038 8.89389 2.22757 8.87958 2.26771 8.85276C2.30784 8.82594 2.33913 8.78782 2.3576 8.74323C2.37607 8.69863 2.3809 8.64956 2.37149 8.60221C2.36207 8.55487 2.33882 8.51138 2.30469 8.47725C2.27056 8.44311 2.22707 8.41987 2.17973 8.41045C2.13238 8.40103 2.08331 8.40587 2.03871 8.42434C1.99411 8.44281 1.956 8.4741 1.92918 8.51423C1.90236 8.55437 1.88805 8.60156 1.88805 8.64983C1.8884 8.71445 1.91422 8.77632 1.95992 8.82202C2.00561 8.86772 2.06749 8.89354 2.13211 8.89389ZM2.82193 7.98486C2.88246 7.98491 2.94165 7.96699 2.992 7.93339C3.04235 7.89978 3.0816 7.852 3.10478 7.79608C3.12797 7.74017 3.13405 7.67863 3.12225 7.61926C3.11045 7.55988 3.08131 7.50534 3.0385 7.46254C2.9957 7.41974 2.94116 7.39059 2.88179 7.37879C2.82241 7.36699 2.76087 7.37307 2.70496 7.39626C2.64904 7.41944 2.60126 7.45869 2.56765 7.50904C2.53405 7.55939 2.51614 7.61858 2.51618 7.67911C2.51612 7.71928 2.52399 7.75907 2.53934 7.79619C2.55468 7.83331 2.5772 7.86704 2.6056 7.89544C2.634 7.92384 2.66773 7.94636 2.70485 7.96171C2.74198 7.97705 2.78176 7.98492 2.82193 7.98486ZM3.60981 7.15327C3.68239 7.15327 3.75335 7.13174 3.8137 7.09142C3.87405 7.05109 3.92109 6.99378 3.94886 6.92672C3.97664 6.85966 3.98391 6.78587 3.96975 6.71469C3.95559 6.6435 3.92063 6.57811 3.86931 6.52678C3.81799 6.47546 3.7526 6.44051 3.68141 6.42635C3.61022 6.41219 3.53643 6.41946 3.46937 6.44723C3.40232 6.47501 3.345 6.52204 3.30468 6.5824C3.26435 6.64275 3.24283 6.7137 3.24283 6.78628C3.24283 6.88361 3.28149 6.97696 3.35032 7.04578C3.41914 7.1146 3.51248 7.15327 3.60981 7.15327ZM4.48711 6.41087C4.57202 6.41104 4.65507 6.38602 4.72576 6.33898C4.79644 6.29193 4.85158 6.22498 4.88419 6.14658C4.91681 6.06819 4.92543 5.98188 4.90897 5.89859C4.89252 5.81529 4.85172 5.73874 4.79174 5.67864C4.73177 5.61854 4.65531 5.57759 4.57204 5.56096C4.48878 5.54433 4.40246 5.55277 4.32399 5.58522C4.24553 5.61768 4.17846 5.67268 4.13127 5.74326C4.08408 5.81385 4.05889 5.89685 4.05889 5.98176C4.05883 6.03805 4.06986 6.0938 4.09135 6.14583C4.11284 6.19786 4.14437 6.24515 4.18413 6.285C4.2239 6.32484 4.27112 6.35647 4.3231 6.37807C4.37509 6.39966 4.43082 6.41081 4.48711 6.41087ZM5.4434 5.76454C5.54034 5.76484 5.63518 5.73638 5.71593 5.68274C5.79667 5.6291 5.85967 5.5527 5.89696 5.46322C5.93425 5.37375 5.94414 5.27522 5.92539 5.18011C5.90663 5.08501 5.86007 4.99761 5.79161 4.92899C5.72314 4.86037 5.63585 4.81361 5.54079 4.79464C5.44573 4.77567 5.34718 4.78534 5.25762 4.82243C5.16806 4.85951 5.09152 4.92234 5.03769 5.00296C4.98387 5.08358 4.95519 5.17836 4.95527 5.2753C4.95545 5.40481 5.0069 5.52898 5.09837 5.62066C5.18984 5.71234 5.3139 5.76407 5.4434 5.76454ZM6.47957 5.23869C6.58848 5.23873 6.69496 5.20648 6.78554 5.14602C6.87612 5.08555 6.94674 4.99959 6.98847 4.89899C7.03019 4.79839 7.04116 4.68768 7.01997 4.58085C6.99878 4.47403 6.94639 4.37588 6.86943 4.29882C6.79247 4.22177 6.69438 4.16926 6.58758 4.14794C6.48078 4.12663 6.37005 4.13746 6.26941 4.17906C6.16876 4.22067 6.08271 4.29118 6.02213 4.38169C5.96156 4.4722 5.92918 4.57864 5.92909 4.68755C5.92903 4.75988 5.94323 4.83152 5.97086 4.89837C5.9985 4.96523 6.03903 5.02598 6.09015 5.07716C6.14127 5.12834 6.20198 5.16895 6.26879 5.19666C6.33561 5.22438 6.40723 5.23866 6.47957 5.23869Z" fill="white"/>
<path d="M7.58206 4.85395C7.72826 4.85333 7.86939 4.80031 7.97983 4.70452C8.09028 4.60873 8.16272 4.47651 8.18401 4.33187C8.25013 4.42704 8.33977 4.50346 8.4442 4.55369C8.54863 4.60392 8.66429 4.62624 8.77992 4.61849C8.89554 4.61074 9.00718 4.57317 9.10397 4.50945C9.20076 4.44573 9.2794 4.35802 9.33222 4.25488C9.39692 4.34102 9.47982 4.41183 9.57502 4.46225C9.67023 4.51267 9.77538 4.54146 9.88299 4.54657C9.9906 4.55168 10.098 4.53297 10.1976 4.4918C10.2971 4.45062 10.3864 4.38798 10.4589 4.30835C10.5799 4.47931 10.7636 4.59552 10.9699 4.63168C11.1762 4.66784 11.3884 4.621 11.5603 4.50139C11.5893 4.54942 11.6235 4.59407 11.6624 4.63451C11.4667 4.65507 11.2833 4.73961 11.1405 4.87503C11.0522 4.7943 10.9478 4.73313 10.8342 4.69552C10.7206 4.65791 10.6004 4.6447 10.4814 4.65676C10.3623 4.66883 10.2471 4.70589 10.1434 4.76552C10.0397 4.82516 9.9497 4.90602 9.87937 5.00283C9.73845 4.8915 9.56396 4.8312 9.38436 4.83176C9.23115 4.83198 9.08118 4.87595 8.95211 4.95849C8.82303 5.04103 8.7202 5.15872 8.65572 5.2977C8.55389 5.22842 8.43669 5.18502 8.31429 5.17127C8.19189 5.15753 8.06799 5.17384 7.95332 5.2188C7.83865 5.26376 7.73668 5.33602 7.65625 5.4293C7.57582 5.52258 7.51935 5.63407 7.49175 5.7541C7.38414 5.68849 7.26101 5.65269 7.13499 5.65041C7.00898 5.64812 6.88463 5.67942 6.77471 5.74108C6.66479 5.80275 6.57326 5.89257 6.50954 6.00131C6.44581 6.11005 6.41218 6.23379 6.4121 6.35983V6.36249C6.31137 6.30431 6.19708 6.27368 6.08076 6.27369C5.96443 6.27371 5.85015 6.30436 5.74943 6.36257C5.64871 6.42078 5.5651 6.50449 5.50702 6.60528C5.44893 6.70607 5.41841 6.82038 5.41853 6.93671C5.4188 6.99894 5.42768 7.06085 5.44494 7.12064C5.34881 7.06065 5.23785 7.02869 5.12455 7.02834C5.00277 7.02826 4.8837 7.06428 4.7824 7.13186C4.6811 7.19944 4.60212 7.29555 4.55543 7.40802C4.50875 7.52049 4.49647 7.64428 4.52014 7.76374C4.54381 7.88319 4.60237 7.99294 4.68842 8.07911C4.77446 8.16528 4.88413 8.224 5.00355 8.24784C5.12297 8.27169 5.24678 8.25958 5.35932 8.21306C5.47185 8.16654 5.56807 8.08769 5.6358 7.98649C5.70353 7.88529 5.73972 7.76627 5.73981 7.6445C5.73905 7.59288 5.73205 7.54155 5.71896 7.49162C5.8173 7.5559 5.93097 7.59285 6.04831 7.59869C6.16565 7.60452 6.28243 7.57903 6.38667 7.52482C6.4909 7.47062 6.57883 7.38965 6.64144 7.29024C6.70404 7.19082 6.73907 7.07654 6.74292 6.95912C6.85627 7.03141 6.98788 7.0699 7.12233 7.07006C7.13475 7.07006 7.14829 7.06828 7.16138 7.06828C7.00799 7.20786 6.91383 7.40086 6.89823 7.60766C6.78566 7.58639 6.66979 7.59021 6.55887 7.61884C6.44794 7.64747 6.3447 7.70022 6.25649 7.77332C6.16828 7.84642 6.09728 7.93807 6.04855 8.04175C5.99982 8.14543 5.97456 8.25858 5.97456 8.37314C5.97439 8.40365 5.97647 8.43413 5.98077 8.46433C5.95246 8.46053 5.92391 8.45876 5.89535 8.45901C5.79848 8.45898 5.70255 8.47803 5.61304 8.51508C5.52354 8.55213 5.44221 8.60645 5.3737 8.67494C5.30519 8.74343 5.25085 8.82474 5.21377 8.91424C5.17669 9.00373 5.15761 9.09965 5.15761 9.19653C5.15716 9.27648 5.17029 9.35593 5.19644 9.43149C5.18135 9.43149 5.16715 9.4295 5.15206 9.4295C5.02825 9.42938 4.90665 9.46231 4.79982 9.52488C4.69298 9.58746 4.60479 9.67742 4.54434 9.78547C4.48389 9.89353 4.45338 10.0158 4.45595 10.1395C4.45853 10.2633 4.49409 10.3842 4.55898 10.4896C4.55226 10.4892 4.54551 10.4892 4.53879 10.4896C4.40715 10.4895 4.27852 10.529 4.16966 10.603C4.0608 10.677 3.97675 10.7821 3.92847 10.9045C3.88019 11.027 3.86993 11.1612 3.899 11.2896C3.92808 11.4179 3.99516 11.5346 4.09149 11.6243C4.08172 11.6243 4.07285 11.6214 4.06397 11.6214C3.92091 11.6211 3.78217 11.6705 3.67149 11.7611C3.5608 11.8518 3.48505 11.9781 3.45716 12.1184C3.42928 12.2587 3.45101 12.4044 3.51863 12.5304C3.58625 12.6565 3.69557 12.7552 3.82789 12.8096C3.96021 12.864 4.10732 12.8707 4.24407 12.8287C4.38081 12.7866 4.4987 12.6983 4.57757 12.579C4.65645 12.4596 4.69141 12.3166 4.67648 12.1743C4.66156 12.032 4.59767 11.8993 4.49575 11.7989C4.5095 11.7989 4.52415 11.8007 4.53879 11.8007C4.62916 11.8007 4.71854 11.782 4.8013 11.7457C4.88406 11.7095 4.9584 11.6564 5.0196 11.5899V11.6121C5.0193 11.7744 5.07075 11.9326 5.16648 12.0636C5.04684 12.1061 4.94051 12.1794 4.85818 12.276C4.77584 12.3727 4.72042 12.4893 4.69748 12.6142C4.67454 12.739 4.68489 12.8678 4.72749 12.9874C4.7701 13.107 4.84345 13.2132 4.94017 13.2955C4.82317 13.349 4.72351 13.4342 4.65253 13.5415C4.58155 13.6488 4.54208 13.7739 4.53862 13.9025C4.53515 14.0311 4.56782 14.1581 4.63292 14.2691C4.69802 14.38 4.79294 14.4705 4.90689 14.5302C4.78737 14.5907 4.68942 14.6865 4.62638 14.8047C4.56334 14.9229 4.53829 15.0577 4.55465 15.1906C4.571 15.3235 4.62796 15.4482 4.71776 15.5476C4.80756 15.6469 4.92583 15.7162 5.05643 15.7459C4.93282 15.808 4.83381 15.9101 4.77546 16.0356C4.7171 16.161 4.70282 16.3025 4.73491 16.4371C4.76701 16.5717 4.84362 16.6915 4.95231 16.7771C5.061 16.8627 5.19542 16.9091 5.33378 16.9087C5.3717 16.9085 5.40952 16.9046 5.44671 16.8972C5.30994 16.9428 5.19539 17.0382 5.12595 17.1646C5.0565 17.2909 5.03728 17.4388 5.07211 17.5786C5.10694 17.7185 5.19326 17.8401 5.31384 17.9191C5.43441 17.9981 5.58035 18.0287 5.72251 18.0048C5.86467 17.9809 5.99258 17.9043 6.08068 17.7902C6.16878 17.6761 6.21059 17.5329 6.19776 17.3894C6.18492 17.2458 6.11839 17.1123 6.01145 17.0157C5.90451 16.919 5.76503 16.8662 5.62089 16.8679C5.58551 16.868 5.55023 16.8715 5.51549 16.8781C5.64108 16.84 5.75111 16.7626 5.82939 16.6573C5.90768 16.552 5.95009 16.4243 5.95037 16.293C5.95037 16.2775 5.94682 16.2644 5.94549 16.2487C6.04207 16.3549 6.16893 16.4289 6.30893 16.4608C6.22448 16.5597 6.1702 16.6808 6.15252 16.8097C6.13484 16.9386 6.15451 17.0698 6.2092 17.1879C6.26388 17.3059 6.35128 17.4058 6.46103 17.4756C6.57077 17.5455 6.69825 17.5824 6.82834 17.5819H6.84321C6.7729 17.6787 6.73075 17.793 6.72144 17.9122C6.71212 18.0315 6.736 18.1509 6.79043 18.2574C6.84486 18.3639 6.92771 18.4533 7.0298 18.5155C7.1319 18.5778 7.24924 18.6106 7.36883 18.6103C7.43264 18.6101 7.49609 18.6007 7.55721 18.5824C7.49568 18.6752 7.46046 18.783 7.45528 18.8943C7.4501 19.0055 7.47516 19.1161 7.52779 19.2143C7.58042 19.3125 7.65867 19.3946 7.75421 19.4518C7.84975 19.5091 7.95902 19.5394 8.07041 19.5395C8.21014 19.5393 8.3455 19.4908 8.45359 19.4022C8.37984 19.4878 8.33252 19.5929 8.31738 19.7049C8.30224 19.8168 8.31994 19.9308 8.36831 20.0328C8.41669 20.1349 8.49367 20.2208 8.58991 20.2799C8.68614 20.3391 8.79748 20.3691 8.91041 20.3662C9.02335 20.3633 9.13301 20.3276 9.22607 20.2636C9.31914 20.1996 9.39161 20.1099 9.43468 20.0054C9.47776 19.901 9.48958 19.7863 9.46871 19.6753C9.44784 19.5643 9.39519 19.4617 9.31714 19.38C9.39351 19.3786 9.46922 19.3656 9.54167 19.3414V19.3494C9.54172 19.4809 9.57807 19.6098 9.64669 19.7219C9.71532 19.834 9.81358 19.925 9.93063 19.9849C9.89549 19.9772 9.85963 19.9735 9.82368 19.9735C9.68748 19.9727 9.55567 20.0217 9.45311 20.1113C9.35054 20.2009 9.28431 20.3249 9.26689 20.46C9.24948 20.5951 9.2821 20.7319 9.35859 20.8446C9.43508 20.9573 9.55016 21.0381 9.68213 21.0718C9.81409 21.1055 9.95383 21.0897 10.075 21.0275C10.1961 20.9653 10.2903 20.8609 10.3398 20.734C10.3893 20.6071 10.3906 20.4664 10.3436 20.3386C10.2965 20.2108 10.2043 20.1046 10.0844 20.0401C10.1403 20.0546 10.1977 20.0621 10.2555 20.0623C10.3888 20.0623 10.5195 20.0249 10.6326 19.9542C10.6433 20.0849 10.6915 20.2097 10.7715 20.3137C10.8515 20.4176 10.9598 20.4962 11.0834 20.54C11.2069 20.5838 11.3406 20.591 11.4681 20.5606C11.5957 20.5303 11.7118 20.4637 11.8024 20.3689C11.8237 20.5031 11.8867 20.6271 11.9823 20.7236C12.078 20.8201 12.2015 20.884 12.3355 20.9065C12.4694 20.9289 12.6071 20.9088 12.729 20.8488C12.8508 20.7888 12.9508 20.692 13.0147 20.5722C13.0438 20.7162 13.1235 20.8451 13.2395 20.9355C13.3554 21.0259 13.4998 21.0717 13.6467 21.0648C13.7935 21.0578 13.933 20.9985 14.0398 20.8976C14.1467 20.7967 14.2139 20.6609 14.2293 20.5147C14.237 20.6274 14.2774 20.7354 14.3455 20.8255C14.4135 20.9157 14.5063 20.9841 14.6126 21.0225C14.7188 21.0608 14.8339 21.0674 14.9439 21.0415C15.0538 21.0156 15.1539 20.9583 15.2318 20.8766C15.3098 20.7948 15.3623 20.6922 15.3829 20.5811C15.4036 20.4701 15.3915 20.3554 15.3482 20.2511C15.3048 20.1468 15.2321 20.0574 15.1388 19.9937C15.0455 19.93 14.9357 19.8947 14.8228 19.8923C14.8759 19.8368 14.9203 19.7736 14.9546 19.7048C15.0471 19.7996 15.1641 19.8668 15.2926 19.8987C15.4211 19.9307 15.556 19.9263 15.6821 19.8859C15.5727 19.9599 15.4934 20.0708 15.4588 20.1983C15.4241 20.3257 15.4364 20.4614 15.4933 20.5807C15.5502 20.6999 15.648 20.7948 15.769 20.848C15.8899 20.9012 16.0259 20.9093 16.1523 20.8708C16.2786 20.8322 16.387 20.7496 16.4576 20.638C16.5283 20.5263 16.5565 20.393 16.5372 20.2623C16.5179 20.1316 16.4523 20.0122 16.3524 19.9257C16.2525 19.8392 16.1249 19.7915 15.9927 19.7912C15.9391 19.7917 15.8858 19.8004 15.8348 19.8171C15.9164 19.7677 15.9873 19.7024 16.0433 19.6252C16.0993 19.548 16.1393 19.4603 16.1609 19.3674C16.2834 19.4718 16.4393 19.529 16.6002 19.5287C16.7807 19.5283 16.9536 19.4565 17.0812 19.3289C17.2088 19.2013 17.2806 19.0284 17.281 18.848C17.281 18.8429 17.2794 18.8375 17.2794 18.8333C17.3896 18.9137 17.5226 18.9569 17.659 18.9567C17.7443 18.9568 17.8287 18.9401 17.9075 18.9075C17.9862 18.875 18.0578 18.8272 18.1181 18.767C18.1785 18.7067 18.2263 18.6352 18.259 18.5565C18.2916 18.4778 18.3085 18.3934 18.3085 18.3081C18.3088 18.2443 18.2993 18.1807 18.2803 18.1198C18.4024 18.2023 18.55 18.2382 18.6964 18.2209C18.8427 18.2037 18.978 18.1344 19.0775 18.0257C19.177 17.9171 19.2342 17.7763 19.2385 17.629C19.2429 17.4817 19.1942 17.3377 19.1012 17.2234C19.206 17.3156 19.3407 17.3664 19.4802 17.3663C19.6351 17.3663 19.7836 17.3047 19.8932 17.1952C20.0027 17.0857 20.0642 16.9372 20.0642 16.7823C20.0642 16.6274 20.0027 16.4789 19.8932 16.3693C19.7836 16.2598 19.6351 16.1983 19.4802 16.1983C19.3301 16.1983 19.1859 16.2568 19.0782 16.3614C19.0765 16.2846 19.0636 16.2086 19.04 16.1355H19.0467C19.1782 16.1354 19.3071 16.0991 19.4193 16.0305C19.5314 15.962 19.6226 15.8638 19.6826 15.7468C19.6755 15.7818 19.6718 15.8175 19.6715 15.8533C19.6699 15.9897 19.7183 16.122 19.8075 16.2252C19.8967 16.3284 20.0206 16.3954 20.1559 16.4135C20.2911 16.4317 20.4283 16.3997 20.5415 16.3236C20.6548 16.2476 20.7363 16.1327 20.7707 16.0007C20.8052 15.8687 20.7901 15.7286 20.7283 15.607C20.6666 15.4853 20.5625 15.3904 20.4356 15.3403C20.3087 15.2901 20.1679 15.2881 20.0396 15.3346C19.9114 15.3811 19.8046 15.473 19.7394 15.5928C19.7537 15.537 19.7612 15.4796 19.7616 15.422C19.7609 15.2886 19.7233 15.158 19.6528 15.0448C19.7835 15.0341 19.9083 14.9859 20.0122 14.9059C20.1161 14.826 20.1947 14.7177 20.2385 14.5941C20.2823 14.4705 20.2894 14.3369 20.2591 14.2094C20.2287 14.0819 20.1621 13.9658 20.0673 13.8752C20.2013 13.8537 20.3251 13.7908 20.4214 13.6952C20.5177 13.5996 20.5816 13.4762 20.6041 13.3424C20.6265 13.2086 20.6065 13.0711 20.5468 12.9493C20.487 12.8275 20.3906 12.7275 20.271 12.6634C20.4153 12.6346 20.5444 12.555 20.635 12.4391C20.7256 12.3231 20.7716 12.1785 20.7647 12.0316C20.7577 11.8846 20.6983 11.745 20.5971 11.6382C20.496 11.5313 20.3599 11.4643 20.2135 11.4492C20.3646 11.4398 20.5062 11.3724 20.6088 11.2612C20.7115 11.1499 20.7673 11.0034 20.7646 10.852C20.7619 10.7007 20.701 10.5562 20.5945 10.4487C20.4879 10.3411 20.3441 10.2788 20.1927 10.2747C20.0414 10.2705 19.8944 10.3249 19.7821 10.4265C19.6699 10.5281 19.6012 10.669 19.5903 10.82C19.5793 10.9709 19.627 11.1203 19.7235 11.237C19.8199 11.3536 19.9576 11.4286 20.1079 11.4464C19.9749 11.4543 19.8482 11.5053 19.7468 11.5917C19.6454 11.6782 19.575 11.7953 19.5462 11.9253C19.5174 12.0554 19.5317 12.1913 19.5871 12.3125C19.6424 12.4336 19.7358 12.5334 19.853 12.5968C19.7361 12.617 19.627 12.6689 19.5376 12.7468C19.4482 12.8248 19.3819 12.9258 19.346 13.0389C19.3101 13.1519 19.3059 13.2727 19.334 13.3879C19.362 13.5032 19.4212 13.6085 19.5051 13.6924C19.394 13.7073 19.2883 13.7495 19.1974 13.8151C19.1066 13.8808 19.0333 13.9679 18.9843 14.0686C18.9352 14.1694 18.9118 14.2808 18.9162 14.3928C18.9206 14.5048 18.9526 14.614 19.0094 14.7106C18.827 14.7203 18.6553 14.7995 18.5295 14.9319C18.4037 15.0644 18.3335 15.24 18.3333 15.4226C18.3334 15.4928 18.3442 15.5625 18.3655 15.6294C18.3547 15.6279 18.3438 15.6271 18.3329 15.627C18.1349 15.627 17.945 15.7057 17.805 15.8457C17.665 15.9857 17.5863 16.1756 17.5863 16.3736C17.5863 16.3914 17.5874 16.4093 17.5894 16.4271C17.5506 16.4206 17.5113 16.4173 17.472 16.4173C17.2849 16.4171 17.104 16.4844 16.9626 16.607C16.8211 16.7295 16.7287 16.899 16.7023 17.0843C16.633 17.0655 16.5616 17.0558 16.4898 17.0552C16.3355 17.0554 16.1845 17.0995 16.0544 17.1823C15.9243 17.2652 15.8205 17.3834 15.7551 17.5231C15.6705 17.4541 15.5711 17.4056 15.4647 17.3812C15.3583 17.3569 15.2477 17.3574 15.1415 17.3827C15.0353 17.4081 14.9364 17.4576 14.8525 17.5274C14.7685 17.5972 14.7018 17.6854 14.6575 17.7852C14.5804 17.7014 14.4845 17.6373 14.3776 17.5981C14.2707 17.559 14.1561 17.546 14.0431 17.5603C13.9302 17.5745 13.8223 17.6155 13.7285 17.6799C13.6347 17.7443 13.5576 17.8302 13.5037 17.9305C13.4399 17.8507 13.3598 17.7855 13.2687 17.7393C13.1776 17.6931 13.0776 17.667 12.9756 17.6626C12.8735 17.6583 12.7717 17.6758 12.677 17.7141C12.5823 17.7524 12.4969 17.8105 12.4265 17.8846C12.3829 17.7886 12.3186 17.7035 12.2383 17.6352C12.158 17.567 12.0636 17.5173 11.9619 17.4898C11.8601 17.4622 11.7536 17.4575 11.6498 17.4758C11.546 17.4942 11.4476 17.5353 11.3615 17.5961C11.3381 17.4926 11.292 17.3955 11.2265 17.312C11.161 17.2285 11.0777 17.1606 10.9827 17.1133C10.8877 17.0659 10.7833 17.0403 10.6772 17.0383C10.5711 17.0363 10.4658 17.0579 10.3691 17.1016C10.3661 16.9999 10.3415 16.9 10.2968 16.8086C10.2521 16.7172 10.1883 16.6364 10.1098 16.5717C10.0314 16.507 9.93994 16.4598 9.84171 16.4333C9.74348 16.4068 9.64073 16.4017 9.54034 16.4182C9.56462 16.314 9.56522 16.2057 9.54208 16.1013C9.51894 15.9969 9.47266 15.899 9.40665 15.8149C9.34064 15.7307 9.25658 15.6624 9.16068 15.6151C9.06478 15.5678 8.95947 15.5425 8.85252 15.5413C8.8933 15.4477 8.9135 15.3465 8.91175 15.2444C8.91001 15.1423 8.88637 15.0418 8.84243 14.9496C8.79848 14.8575 8.73526 14.7758 8.65704 14.7102C8.57882 14.6446 8.48742 14.5965 8.38902 14.5693C8.45121 14.4886 8.49544 14.3955 8.51873 14.2963C8.54202 14.1971 8.54384 14.0941 8.52407 13.9942C8.5043 13.8942 8.46339 13.7997 8.40409 13.7168C8.34479 13.634 8.26847 13.5648 8.18024 13.5138C8.26424 13.4493 8.33289 13.367 8.38126 13.2728C8.42962 13.1786 8.45649 13.0749 8.45993 12.9691C8.46337 12.8632 8.44329 12.7579 8.40114 12.6608C8.35899 12.5637 8.29582 12.4771 8.21618 12.4073C8.30843 12.3609 8.3896 12.2951 8.45418 12.2145C8.51877 12.1339 8.56526 12.0404 8.59049 11.9403C8.61552 11.8408 8.6187 11.7371 8.59982 11.6363C8.58093 11.5355 8.54043 11.4399 8.4811 11.3563C8.57981 11.3341 8.67267 11.2912 8.75353 11.2304C8.83439 11.1696 8.90141 11.0923 8.95014 11.0036C8.99888 10.915 9.02821 10.817 9.03621 10.7161C9.04421 10.6153 9.03068 10.5139 8.99652 10.4186C9.10243 10.424 9.20821 10.4059 9.30622 10.3654C9.40423 10.3249 9.49202 10.2631 9.56324 10.1846C9.63446 10.106 9.68733 10.0126 9.71802 9.9111C9.74871 9.8096 9.75646 9.70254 9.7407 9.59768C9.84072 9.62224 9.94485 9.62495 10.046 9.60561C10.1472 9.58627 10.243 9.54534 10.3269 9.48561C10.4108 9.42589 10.4808 9.34877 10.5322 9.25952C10.5836 9.17027 10.6151 9.07098 10.6247 8.96844C10.7148 9.01574 10.814 9.04324 10.9157 9.04909C11.0173 9.05495 11.119 9.03902 11.214 9.00239C11.309 8.96575 11.3951 8.90925 11.4665 8.83666C11.5379 8.76407 11.5929 8.67707 11.628 8.58148C11.7018 8.64851 11.7889 8.69918 11.8837 8.73015C11.9784 8.76113 12.0787 8.77171 12.1778 8.7612C12.2859 8.75092 12.3902 8.71581 12.4826 8.65863C12.575 8.60144 12.6529 8.52371 12.7103 8.43149C12.7697 8.5165 12.8469 8.58753 12.9366 8.63962C13.0263 8.6917 13.1262 8.72359 13.2295 8.73305C13.3328 8.74252 13.4368 8.72933 13.5345 8.69442C13.6321 8.6595 13.721 8.60369 13.7948 8.53089C13.834 8.62925 13.8945 8.71766 13.9721 8.78969C14.0497 8.86173 14.1423 8.91558 14.2433 8.94734C14.3443 8.97911 14.4511 8.98798 14.5559 8.97332C14.6608 8.95867 14.761 8.92084 14.8494 8.8626C14.8692 8.96673 14.9119 9.06516 14.9743 9.15083C15.0367 9.2365 15.1174 9.30727 15.2104 9.35805H15.2091C15.3652 9.44404 15.5478 9.46843 15.721 9.42639C15.7403 9.45301 15.7609 9.47875 15.7822 9.50272C15.7912 9.66095 15.8538 9.81141 15.9597 9.92939C15.9643 9.93458 15.9694 9.9394 15.9748 9.94381C16.3393 10.3252 17.1853 11.2511 17.0271 12.4907C16.987 12.7996 17.1603 12.9556 17.3821 12.7168C18.7256 11.2686 18.5153 9.48985 18.4851 9.28306C18.4779 9.15062 18.4485 9.02034 18.3981 8.89766C18.4139 8.82099 18.4219 8.74295 18.4221 8.66469C18.4221 8.48756 18.3811 8.31284 18.3025 8.15413C18.2239 7.99541 18.1097 7.857 17.9688 7.74967C17.9819 7.68114 17.9887 7.61154 17.989 7.54177C17.9891 7.32205 17.9234 7.10732 17.8006 6.92518C17.6777 6.74303 17.5031 6.60179 17.2994 6.51958C17.2947 6.27198 17.2029 6.03394 17.0402 5.84729C16.8774 5.66063 16.6541 5.5373 16.4094 5.49894C16.3668 5.26853 16.2448 5.06031 16.0647 4.91037C15.8846 4.76043 15.6578 4.67822 15.4234 4.678C15.4052 4.678 15.3886 4.67977 15.3693 4.68044C15.3075 4.48955 15.1867 4.32316 15.0245 4.20516C14.8622 4.08717 14.6667 4.02363 14.466 4.02368C14.3853 4.02367 14.3048 4.03426 14.2268 4.05519C14.1769 3.94582 14.1056 3.84755 14.0171 3.76619C13.9286 3.68483 13.8246 3.62202 13.7115 3.58146C13.5983 3.54091 13.4781 3.52343 13.3581 3.53007C13.238 3.5367 13.1205 3.56731 13.0125 3.62009C12.9508 3.51529 12.8674 3.42493 12.7678 3.35509C12.6682 3.28526 12.5549 3.23757 12.4353 3.21524C12.3158 3.19291 12.1928 3.19646 12.0748 3.22565C11.9567 3.25484 11.8463 3.30899 11.7509 3.38446C11.6794 3.28511 11.5859 3.20366 11.4776 3.14649C11.3694 3.08932 11.2494 3.05799 11.127 3.05493C11.0047 3.05188 10.8833 3.0772 10.7723 3.1289C10.6614 3.1806 10.5639 3.25729 10.4875 3.35295C10.4089 3.25561 10.3066 3.18005 10.1905 3.13348C10.0743 3.0869 9.9482 3.07087 9.8241 3.08692C9.7 3.10296 9.58208 3.15054 9.4816 3.22512C9.38112 3.2997 9.30142 3.39879 9.25013 3.51292C9.16534 3.4123 9.05291 3.33875 8.92675 3.30138C8.80059 3.26401 8.66624 3.26445 8.54033 3.30266C8.41442 3.34087 8.30248 3.41516 8.21836 3.51634C8.13425 3.61752 8.08165 3.74115 8.06708 3.87192C8.00396 3.78943 7.92084 3.7244 7.82558 3.68297C7.73033 3.64154 7.62608 3.6251 7.5227 3.63518C7.41932 3.64526 7.32021 3.68154 7.23476 3.74058C7.1493 3.79963 7.08031 3.87949 7.03431 3.97263C6.98831 4.06576 6.96682 4.16908 6.97188 4.27283C6.97693 4.37658 7.00836 4.47733 7.06319 4.56555C7.11802 4.65378 7.19444 4.72656 7.28523 4.77702C7.37602 4.82748 7.47818 4.85396 7.58206 4.85395ZM3.46957 20.6436C3.46339 20.6437 3.45729 20.645 3.45162 20.6474C3.44594 20.6499 3.4408 20.6534 3.4365 20.6579C3.43219 20.6623 3.4288 20.6675 3.42652 20.6733C3.42424 20.679 3.42311 20.6851 3.42319 20.6913C3.42319 20.7037 3.42803 20.7157 3.43669 20.7246C3.44535 20.7335 3.45715 20.7387 3.46957 20.739C3.48225 20.7389 3.49438 20.7339 3.50341 20.725C3.51244 20.7161 3.51765 20.704 3.51794 20.6913C3.51782 20.6786 3.51266 20.6664 3.5036 20.6575C3.49453 20.6485 3.4823 20.6435 3.46957 20.6436ZM2.91709 19.5422C2.90469 19.5421 2.8924 19.5445 2.88092 19.5492C2.86944 19.5539 2.85901 19.5609 2.85021 19.5696C2.8414 19.5783 2.83441 19.5887 2.82963 19.6002C2.82486 19.6116 2.82238 19.6239 2.82235 19.6363C2.82235 19.6614 2.83231 19.6854 2.85003 19.7031C2.86776 19.7208 2.8918 19.7308 2.91687 19.7308C2.94194 19.7308 2.96598 19.7208 2.98371 19.7031C3.00143 19.6854 3.01139 19.6614 3.01139 19.6363C3.01142 19.6239 3.009 19.6116 3.00427 19.6002C2.99954 19.5888 2.99259 19.5784 2.98382 19.5696C2.97506 19.5609 2.96465 19.5539 2.9532 19.5492C2.94174 19.5445 2.92947 19.5421 2.91709 19.5422ZM2.47711 18.3884C2.449 18.3884 2.42151 18.3967 2.3981 18.4123C2.3747 18.4278 2.35644 18.45 2.34562 18.4759C2.3348 18.5019 2.33192 18.5305 2.33732 18.558C2.34273 18.5856 2.3562 18.611 2.37601 18.6309C2.39582 18.6509 2.4211 18.6645 2.44865 18.6701C2.4762 18.6756 2.50479 18.6729 2.5308 18.6623C2.55682 18.6516 2.57909 18.6335 2.5948 18.6102C2.61052 18.5869 2.61898 18.5594 2.61911 18.5313C2.61917 18.4936 2.60426 18.4573 2.57764 18.4305C2.55102 18.4038 2.51487 18.3886 2.47711 18.3884ZM2.15561 17.1952C2.1182 17.1953 2.08165 17.2065 2.05058 17.2273C2.01952 17.2482 1.99533 17.2777 1.98107 17.3123C1.96682 17.3469 1.96313 17.385 1.97048 17.4216C1.97784 17.4583 1.9959 17.492 2.02238 17.5184C2.04887 17.5449 2.08259 17.5628 2.11929 17.5701C2.15599 17.5774 2.19403 17.5736 2.22858 17.5593C2.26314 17.5449 2.29267 17.5207 2.31345 17.4896C2.33423 17.4584 2.34532 17.4219 2.34532 17.3845C2.34534 17.3596 2.34045 17.3349 2.33093 17.3119C2.3214 17.2889 2.30742 17.268 2.28979 17.2504C2.27216 17.2328 2.25123 17.2189 2.22821 17.2094C2.20518 17.1999 2.18051 17.1951 2.15561 17.1952ZM2.19333 16.2116C2.19346 16.1647 2.17966 16.1188 2.15367 16.0797C2.12768 16.0406 2.09068 16.0102 2.04736 15.9921C2.00403 15.9741 1.95633 15.9694 1.9103 15.9785C1.86427 15.9876 1.82199 16.0102 1.78881 16.0434C1.75563 16.0766 1.73304 16.1189 1.72392 16.1649C1.7148 16.2109 1.71955 16.2586 1.73757 16.3019C1.75558 16.3453 1.78606 16.3823 1.82513 16.4083C1.8642 16.4342 1.91011 16.448 1.95703 16.4479C2.01966 16.4478 2.0797 16.4229 2.12399 16.3786C2.16828 16.3343 2.19321 16.2742 2.19333 16.2116ZM2.16781 15.0228C2.16768 14.9666 2.15092 14.9118 2.11965 14.8652C2.08838 14.8185 2.044 14.7822 1.9921 14.7608C1.94021 14.7393 1.88312 14.7337 1.82806 14.7447C1.77299 14.7557 1.72241 14.7827 1.68269 14.8224C1.64297 14.8621 1.6159 14.9127 1.60489 14.9677C1.59387 15.0228 1.59941 15.0799 1.62081 15.1318C1.64221 15.1837 1.6785 15.2281 1.72511 15.2594C1.77172 15.2907 1.82655 15.3075 1.8827 15.3077C1.92017 15.3078 1.95729 15.3006 1.99193 15.2863C2.02657 15.272 2.05805 15.2511 2.08455 15.2246C2.11106 15.1981 2.13206 15.1666 2.14635 15.132C2.16063 15.0974 2.16793 15.0603 2.16781 15.0228ZM1.60358 13.8342C1.60362 13.8997 1.62308 13.9637 1.65949 14.0181C1.69589 14.0726 1.74762 14.115 1.80813 14.14C1.86863 14.1651 1.93521 14.1717 1.99944 14.1589C2.06367 14.1461 2.12268 14.1146 2.169 14.0683C2.21533 14.022 2.24689 13.963 2.2597 13.8988C2.27252 13.8346 2.26601 13.768 2.241 13.7075C2.21598 13.6469 2.17359 13.5952 2.11918 13.5587C2.06477 13.5223 2.00078 13.5028 1.93529 13.5027C1.8917 13.5026 1.84852 13.511 1.80823 13.5276C1.76793 13.5442 1.73131 13.5687 1.70049 13.5995C1.66966 13.6303 1.64523 13.6669 1.6286 13.7072C1.61196 13.7474 1.60346 13.7906 1.60358 13.8342ZM2.11323 13.0357C2.18816 13.0355 2.26136 13.0132 2.32359 12.9715C2.38583 12.9298 2.43429 12.8705 2.46288 12.8013C2.49146 12.732 2.49887 12.6558 2.48417 12.5824C2.46947 12.5089 2.43333 12.4414 2.3803 12.3885C2.32727 12.3356 2.25975 12.2995 2.18625 12.285C2.11276 12.2704 2.0366 12.2779 1.96739 12.3066C1.89818 12.3353 1.83903 12.3839 1.79742 12.4462C1.75581 12.5085 1.7336 12.5818 1.7336 12.6567C1.73357 12.7065 1.74338 12.7559 1.76245 12.8019C1.78153 12.8479 1.8095 12.8898 1.84477 12.925C1.88003 12.9602 1.9219 12.9881 1.96797 13.0071C2.01404 13.0261 2.0634 13.0358 2.11323 13.0357ZM2.43939 11.0858C2.35506 11.0857 2.27259 11.1106 2.20241 11.1573C2.13223 11.2041 2.0775 11.2706 2.04514 11.3485C2.01277 11.4263 2.00424 11.5121 2.02061 11.5948C2.03698 11.6775 2.07752 11.7535 2.1371 11.8132C2.19668 11.8729 2.27263 11.9135 2.35533 11.93C2.43803 11.9465 2.52376 11.9381 2.60168 11.9059C2.6796 11.8736 2.74621 11.819 2.79307 11.7489C2.83994 11.6788 2.86495 11.5964 2.86495 11.512C2.86489 11.3991 2.82006 11.2908 2.74028 11.2109C2.66051 11.131 2.5523 11.086 2.43939 11.0858ZM2.91221 10.8934C3.006 10.8937 3.09775 10.866 3.17584 10.8141C3.25392 10.7621 3.31484 10.6882 3.35088 10.6016C3.38691 10.515 3.39644 10.4197 3.37826 10.3277C3.36008 10.2356 3.31501 10.1511 3.24875 10.0847C3.1825 10.0183 3.09803 9.9731 3.00605 9.95474C2.91407 9.93639 2.81872 9.94574 2.73206 9.98162C2.6454 10.0175 2.57133 10.0783 2.51923 10.1563C2.46713 10.2342 2.43935 10.3259 2.43939 10.4197C2.43945 10.5452 2.48925 10.6655 2.57789 10.7543C2.66652 10.8431 2.78675 10.8931 2.91221 10.8934Z" fill="white"/>
<path d="M3.52592 9.92036C3.62893 9.92014 3.72956 9.88939 3.8151 9.83199C3.90064 9.77459 3.96724 9.69313 4.00648 9.59789C4.04573 9.50265 4.05586 9.39791 4.0356 9.29691C4.01534 9.19592 3.96559 9.1032 3.89264 9.03047C3.8197 8.95774 3.72683 8.90826 3.62577 8.8883C3.52471 8.86834 3.42001 8.87878 3.32488 8.91832C3.22976 8.95785 3.14849 9.02469 3.09135 9.1104C3.03421 9.1961 3.00376 9.29683 3.00385 9.39984C3.00379 9.46834 3.01726 9.53618 3.0435 9.59946C3.06973 9.66274 3.10821 9.72022 3.15672 9.76858C3.20523 9.81695 3.26282 9.85526 3.32618 9.8813C3.38954 9.90735 3.45742 9.92062 3.52592 9.92036ZM4.83566 8.46884C4.83571 8.35646 4.80242 8.24658 4.74002 8.15311C4.67762 8.05964 4.5889 7.98678 4.48509 7.94373C4.38128 7.90068 4.26703 7.88938 4.1568 7.91127C4.04656 7.93315 3.94529 7.98723 3.86579 8.06666C3.7863 8.1461 3.73214 8.24733 3.71017 8.35754C3.6882 8.46776 3.69941 8.58202 3.74238 8.68586C3.78534 8.78971 3.85814 8.87848 3.95156 8.94096C4.04498 9.00343 4.15483 9.0368 4.26721 9.03685C4.41788 9.03679 4.56237 8.97694 4.66895 8.87044C4.77552 8.76395 4.83549 8.61951 4.83566 8.46884ZM34.0629 17.5319C33.4593 17.5346 32.8616 17.4138 32.3065 17.1768C31.772 16.9484 31.2865 16.619 30.8767 16.2068C30.4679 15.7913 30.1418 15.3019 29.9157 14.7646C29.6815 14.206 29.5609 13.6064 29.5609 13.0007C29.5609 12.395 29.6815 11.7953 29.9157 11.2368C30.3692 10.1523 31.2253 9.28594 32.3043 8.81963C32.8633 8.57926 33.4656 8.45583 34.0741 8.45693C34.6826 8.45804 35.2844 8.58366 35.8425 8.82606C36.3847 9.06593 36.8764 9.40664 37.2914 9.83006C37.3822 9.92448 37.4505 10.0383 37.4911 10.1629C37.5162 10.2371 37.5241 10.316 37.5141 10.3938C37.5041 10.4715 37.4765 10.5459 37.4334 10.6113C37.3311 10.7646 37.182 10.8489 36.9896 10.8616H36.9834C36.7724 10.8616 36.6249 10.7999 36.5059 10.6783C36.1648 10.3923 35.7927 10.1455 35.3966 9.94233C34.984 9.72735 34.5254 9.6158 34.0602 9.61728C33.6112 9.61581 33.1667 9.70683 32.7544 9.88464C32.3561 10.0578 31.9951 10.3065 31.6912 10.6168C31.3896 10.9294 31.1488 11.2953 30.9812 11.696C30.8076 12.1095 30.7181 12.5535 30.7181 13.0019C30.7181 13.4503 30.8076 13.8943 30.9812 14.3078C31.316 15.115 31.953 15.7594 32.7562 16.1036C33.1681 16.2814 33.6123 16.372 34.0609 16.3699C34.5303 16.3727 34.9951 16.2773 35.4254 16.0897C35.8381 15.9079 36.2092 15.6436 36.5159 15.3131C36.6109 15.2076 36.7364 15.1343 36.8749 15.1034C36.9192 15.0925 36.9646 15.0868 37.0103 15.0863C37.1164 15.0869 37.2197 15.1199 37.3065 15.1811C37.3768 15.2358 37.4332 15.3063 37.4712 15.3869C37.5091 15.4675 37.5275 15.556 37.5248 15.645C37.5248 15.8263 37.4695 15.9778 37.3608 16.0983C36.9485 16.5493 36.4464 16.909 35.8867 17.1542C35.3119 17.4065 34.6905 17.5351 34.0629 17.5319Z" fill="white"/>
<path d="M43.4866 17.5161C42.8826 17.5186 42.2844 17.3978 41.7287 17.1611C41.1955 16.9342 40.7107 16.6072 40.3005 16.1979C39.8921 15.7875 39.5651 15.3034 39.3369 14.7712C39.1042 14.2148 38.9843 13.6176 38.9843 13.0144C38.9843 12.4112 39.1042 11.8141 39.3369 11.2576C39.5663 10.7236 39.8931 10.237 40.3005 9.8225C40.7098 9.41047 41.1947 9.08125 41.7287 8.8529C42.2848 8.6187 42.8821 8.49805 43.4855 8.49805C44.0889 8.49805 44.6863 8.6187 45.2424 8.8529C46.3254 9.31249 47.1877 10.1746 47.6475 11.2576C47.882 11.8136 48.0027 12.411 48.0027 13.0144C48.0027 13.6179 47.882 14.2152 47.6475 14.7712C47.4202 15.3057 47.0916 15.791 46.6797 16.2004C46.2648 16.6073 45.7778 16.9334 45.2435 17.162C44.6881 17.3986 44.0903 17.5191 43.4866 17.5161ZM43.4866 9.65787C43.0385 9.6561 42.5947 9.74469 42.1816 9.91835C41.7829 10.0847 41.4209 10.3282 41.1166 10.6348C40.8135 10.9444 40.5716 11.3084 40.4037 11.7078C40.0587 12.5438 40.0587 13.4824 40.4037 14.3184C40.7525 15.1334 41.4092 15.7774 42.2309 16.1102C43.0525 16.443 43.9723 16.4375 44.79 16.095C45.1893 15.9272 45.5533 15.6854 45.8627 15.3823C46.3312 14.9091 46.6493 14.3079 46.7772 13.6545C46.9051 13.001 46.8371 12.3243 46.5816 11.7093C46.4117 11.3096 46.1677 10.9456 45.8625 10.6366C45.5545 10.3309 45.1906 10.0872 44.7906 9.91902C44.3779 9.74545 43.9344 9.65664 43.4866 9.65787Z" fill="white"/>
<path d="M55.9825 17.5441C55.9063 17.5443 55.8307 17.5295 55.7602 17.5004C55.6897 17.4713 55.6257 17.4286 55.5717 17.3747C55.5178 17.3209 55.475 17.2568 55.4458 17.1864C55.4167 17.1159 55.4017 17.0404 55.4019 16.9641V11.7975C55.4041 11.5085 55.346 11.2222 55.2315 10.9568C55.0051 10.432 54.586 10.0141 54.0606 9.7893C53.7954 9.67541 53.5097 9.61667 53.221 9.61667C52.9324 9.61667 52.6467 9.67541 52.3815 9.7893C52.1242 9.90085 51.8907 10.0607 51.6936 10.2601C51.4968 10.4621 51.3388 10.6987 51.2277 10.9579C51.1132 11.223 51.0544 11.5088 51.0551 11.7975V16.9633C51.0564 17.0399 51.042 17.116 51.0127 17.1869C50.9834 17.2577 50.9398 17.3218 50.8847 17.3751C50.8313 17.4292 50.7676 17.472 50.6973 17.5009C50.627 17.5298 50.5515 17.5442 50.4755 17.5432C50.3992 17.5437 50.3235 17.529 50.2528 17.5C50.1821 17.471 50.1179 17.4284 50.0638 17.3745C50.0097 17.3205 49.9669 17.2564 49.9377 17.1859C49.9085 17.1153 49.8936 17.0396 49.8938 16.9633V11.7975C49.8919 11.3522 49.9798 10.911 50.1523 10.5004C50.3174 10.1033 50.5593 9.7427 50.8643 9.4394C51.1684 9.13502 51.5283 8.89207 51.9244 8.72385C52.3343 8.54718 52.7761 8.45614 53.2225 8.45633C53.6689 8.45653 54.1105 8.54794 54.5203 8.72495C55.3196 9.06443 55.9565 9.70016 56.2974 10.4989C56.4748 10.9087 56.5655 11.3509 56.5636 11.7975V16.9633C56.565 17.0395 56.5509 17.1152 56.5221 17.1858C56.4934 17.2564 56.4506 17.3204 56.3963 17.3739C56.3422 17.4286 56.2778 17.4718 56.2067 17.501C56.1356 17.5302 56.0594 17.5449 55.9825 17.5441ZM61.6865 17.5441C61.2589 17.5468 60.8341 17.4743 60.4316 17.33C60.0545 17.1943 59.7046 16.9927 59.3981 16.7345C59.1063 16.4887 58.8679 16.1857 58.6976 15.8443C58.5271 15.5043 58.4393 15.1288 58.4414 14.7485C58.4414 14.6018 58.4996 14.4612 58.6033 14.3575C58.707 14.2538 58.8476 14.1956 58.9943 14.1956C59.1409 14.1956 59.2816 14.2538 59.3852 14.3575C59.4889 14.4612 59.5472 14.6018 59.5472 14.7485C59.5464 14.9732 59.6011 15.1947 59.7065 15.3932C59.8169 15.5993 59.9683 15.7805 60.1514 15.9258C60.3554 16.0838 60.5844 16.2066 60.829 16.2892C61.1009 16.379 61.3857 16.424 61.6721 16.4223C61.9616 16.4235 62.2494 16.378 62.5243 16.2874C62.7755 16.2039 63.0115 16.0804 63.2233 15.9215C63.413 15.7812 63.569 15.6002 63.6799 15.3919C63.7831 15.1978 63.8293 14.9784 63.813 14.7591C63.7967 14.5493 63.7294 14.3466 63.6169 14.1687C63.495 13.9745 63.3404 13.8028 63.16 13.6613C62.962 13.5058 62.7423 13.3802 62.5079 13.2883C62.2577 13.1878 61.9973 13.1147 61.7313 13.0704C61.3478 13.0437 60.9692 12.9683 60.6047 12.8461C60.2624 12.734 59.9383 12.5726 59.6426 12.3668C59.373 12.1811 59.143 11.9435 58.9661 11.6679C58.7916 11.3963 58.6998 11.0798 58.7021 10.7569C58.7007 10.4343 58.7856 10.1172 58.9481 9.83856C59.1166 9.55181 59.3426 9.30298 59.6118 9.10769C59.8862 8.90312 60.2108 8.74026 60.5798 8.61956C61.3456 8.38072 62.1659 8.38072 62.9317 8.61956C63.2967 8.74004 63.6222 8.9029 63.8991 9.10769C64.182 9.31981 64.4041 9.56432 64.5618 9.83856C64.7255 10.1168 64.8113 10.4341 64.8101 10.7569C64.8103 10.8331 64.7953 10.9087 64.7662 10.9791C64.737 11.0496 64.6943 11.1136 64.6403 11.1674C64.5863 11.2213 64.5223 11.2639 64.4518 11.293C64.3812 11.322 64.3057 11.3367 64.2295 11.3364C64.152 11.3379 64.0752 11.3225 64.0043 11.2912C63.9335 11.2599 63.8703 11.2136 63.8192 11.1554C63.7185 11.0445 63.6626 10.8954 63.6499 10.7116C63.6401 10.5696 63.5884 10.4337 63.5013 10.3211C63.3919 10.1766 63.2565 10.0537 63.1019 9.95904C62.913 9.84263 62.708 9.75464 62.4935 9.69789C62.2535 9.63283 62.0059 9.60007 61.7573 9.60048C61.5013 9.59934 61.2462 9.63209 60.9987 9.69789C60.7842 9.75308 60.5794 9.84078 60.3914 9.95793C60.2367 10.0572 60.1037 10.1868 60.0005 10.3389C59.9116 10.4652 59.8637 10.6158 59.8631 10.7702C59.8631 10.9131 59.9164 11.0414 60.0282 11.1638C60.1616 11.3085 60.3193 11.4287 60.4942 11.5188C60.6974 11.627 60.9106 11.7153 61.1307 11.7826C61.3417 11.849 61.5579 11.8972 61.7771 11.9269C62.1955 11.9717 62.6057 12.0739 62.9963 12.2306C63.3819 12.3893 63.7203 12.5885 64.0009 12.823C64.2842 13.0565 64.5163 13.3459 64.6828 13.673C64.8483 14.0022 64.9334 14.3659 64.931 14.7343C64.9325 15.1165 64.8445 15.4937 64.6739 15.8357C64.5059 16.179 64.2672 16.4829 63.9734 16.7274C63.3309 17.2601 62.5212 17.5493 61.6865 17.5441ZM67.5414 17.5441C67.4651 17.5445 67.3894 17.5298 67.3188 17.5008C67.2482 17.4718 67.184 17.4291 67.13 17.3752C67.0759 17.3213 67.0331 17.2572 67.004 17.1866C66.9748 17.1161 66.9599 17.0405 66.9601 16.9641V9.03736C66.9592 8.96067 66.9738 8.88459 67.0031 8.8137C67.0324 8.74282 67.0757 8.67859 67.1305 8.62489C67.1838 8.57006 67.2477 8.52674 67.3184 8.49762C67.3891 8.46851 67.465 8.4542 67.5414 8.4556H72.3783C72.4547 8.4553 72.5304 8.47016 72.6009 8.49933C72.6715 8.52849 72.7356 8.57138 72.7894 8.62549C72.8433 8.67961 72.8859 8.74388 72.9147 8.81458C72.9436 8.88528 72.9581 8.961 72.9574 9.03736C72.9588 9.11341 72.9446 9.18894 72.9156 9.25927C72.8867 9.32961 72.8436 9.39325 72.789 9.44628C72.7356 9.50084 72.6716 9.54399 72.6011 9.57312C72.5305 9.60226 72.4547 9.61678 72.3783 9.61579H68.1218V12.391H71.1354C71.2894 12.391 71.4371 12.4522 71.546 12.5611C71.6549 12.67 71.716 12.8177 71.716 12.9717C71.716 13.1257 71.6549 13.2734 71.546 13.3823C71.4371 13.4912 71.2894 13.5523 71.1354 13.5523H68.1218V16.3822H72.3792C72.4556 16.3816 72.5313 16.3963 72.6019 16.4254C72.6725 16.4544 72.7366 16.4973 72.7905 16.5514C72.8444 16.6054 72.887 16.6697 72.9158 16.7404C72.9447 16.8111 72.9591 16.8869 72.9583 16.9633C72.9598 17.0396 72.9456 17.1154 72.9166 17.186C72.8876 17.2566 72.8445 17.3206 72.7899 17.3739C72.7364 17.4284 72.6725 17.4715 72.6019 17.5006C72.5313 17.5297 72.4556 17.5442 72.3792 17.5432L67.5414 17.5441ZM80.6062 17.5441C80.5299 17.5444 80.4542 17.5296 80.3836 17.5006C80.3129 17.4716 80.2487 17.4289 80.1947 17.375C80.1406 17.3212 80.0976 17.2571 80.0684 17.1866C80.0391 17.1161 80.024 17.0405 80.024 16.9641V11.7975C80.0262 11.5085 79.9681 11.2221 79.8534 10.9568C79.6272 10.4323 79.2086 10.0144 78.6836 9.7893C78.4186 9.67541 78.1331 9.61668 77.8446 9.61668C77.5561 9.61668 77.2706 9.67541 77.0056 9.7893C76.7479 9.9 76.5142 10.0599 76.3178 10.2601C76.1207 10.4621 75.9619 10.6982 75.8492 10.9568C75.7358 11.2225 75.6779 11.5086 75.679 11.7975V16.9633C75.679 17.1171 75.6179 17.2647 75.509 17.3735C75.4002 17.4823 75.2527 17.5435 75.0988 17.5435C74.9449 17.5435 74.7973 17.4823 74.6885 17.3735C74.5797 17.2647 74.5186 17.1171 74.5186 16.9633V11.7975C74.5173 11.1425 74.709 10.5016 75.0698 9.95485C75.4305 9.40812 75.9444 8.97981 76.5472 8.7234C76.9577 8.54703 77.3998 8.45621 77.8465 8.45647C78.2933 8.45674 78.7353 8.5481 79.1456 8.72495C79.5409 8.89286 79.9001 9.13544 80.2035 9.4394C80.5074 9.74374 80.7505 10.1033 80.9195 10.4989C81.0971 10.9087 81.1878 11.3509 81.1857 11.7975V16.9633C81.1863 17.0396 81.1717 17.1152 81.1427 17.1859C81.1138 17.2565 81.0712 17.3207 81.0173 17.3747C80.9634 17.4287 80.8993 17.4715 80.8287 17.5006C80.7581 17.5297 80.6825 17.5445 80.6062 17.5441ZM86.3107 17.5441C85.883 17.5467 85.4583 17.4742 85.0557 17.33C84.6781 17.1946 84.3279 16.9926 84.0216 16.7336C83.7302 16.4872 83.4914 16.1846 83.3195 15.8439C83.1501 15.5037 83.0625 15.1285 83.0639 14.7485C83.0634 14.676 83.0774 14.6041 83.1052 14.5372C83.1329 14.4702 83.1738 14.4095 83.2255 14.3586C83.3029 14.2812 83.4015 14.2284 83.5089 14.2069C83.6163 14.1854 83.7276 14.1962 83.8289 14.2379C83.9302 14.2796 84.0168 14.3503 84.078 14.4412C84.1391 14.532 84.172 14.639 84.1724 14.7485C84.1712 14.9727 84.2254 15.1937 84.3302 15.3919C84.4394 15.5984 84.5906 15.7797 84.7739 15.9244C84.9777 16.0835 85.207 16.2069 85.452 16.2894C85.7245 16.3795 86.0099 16.4245 86.2969 16.4225C86.5864 16.4237 86.8742 16.3782 87.1491 16.2876C87.4001 16.2044 87.6358 16.0808 87.8469 15.9218C88.0357 15.7802 88.1916 15.5995 88.3038 15.3919C88.4072 15.198 88.4534 14.9787 88.4369 14.7596C88.42 14.5498 88.3527 14.3473 88.2408 14.1692C88.1188 13.9747 87.9641 13.8029 87.7835 13.6613C87.586 13.5054 87.3662 13.3799 87.1316 13.289C86.881 13.1878 86.62 13.1148 86.3533 13.0711C85.9703 13.0446 85.5922 12.9693 85.2283 12.8468C84.8857 12.7351 84.5613 12.5737 84.2656 12.3677C83.9963 12.1817 83.7665 11.9442 83.5896 11.6688C83.4149 11.3972 83.323 11.0807 83.3249 10.7578C83.3251 10.4354 83.4099 10.1187 83.5709 9.83944C83.7402 9.55265 83.9668 9.30385 84.2366 9.10858C84.5123 8.90401 84.8367 8.74115 85.2028 8.62045C85.9686 8.3819 86.7889 8.3819 87.5547 8.62045C87.9208 8.74093 88.2457 8.90379 88.5226 9.10858C88.7917 9.30365 89.0174 9.55253 89.1853 9.83944C89.3483 10.118 89.434 10.435 89.4336 10.7578C89.4342 10.8344 89.4192 10.9104 89.3896 10.9811C89.36 11.0518 89.3164 11.1158 89.2614 11.1692C89.2088 11.224 89.1452 11.2674 89.0749 11.2963C89.0046 11.3253 88.929 11.3392 88.8529 11.3373C88.7751 11.3389 88.698 11.3234 88.6268 11.2919C88.5557 11.2605 88.4923 11.2138 88.4411 11.1552C88.3415 11.0467 88.2845 10.8974 88.2734 10.7147C88.2634 10.5727 88.2115 10.4368 88.1243 10.3242C88.0143 10.1795 87.8784 10.0563 87.7236 9.96103C87.5351 9.8443 87.3303 9.75629 87.1159 9.69988C86.8756 9.63362 86.6273 9.60085 86.3781 9.60248C86.1221 9.60165 85.867 9.6344 85.6195 9.69988C85.4055 9.75451 85.2014 9.84225 85.0145 9.95992C84.8598 10.0593 84.7267 10.1889 84.6233 10.3409C84.5344 10.4672 84.4863 10.6177 84.4855 10.7722C84.4855 10.9155 84.5403 11.0433 84.6495 11.1658C84.7843 11.31 84.9429 11.4301 85.1183 11.5208C85.3217 11.6294 85.5353 11.7177 85.756 11.7846C85.966 11.8506 86.1813 11.8988 86.3994 11.9289C86.8182 11.9734 87.2289 12.0756 87.6197 12.2326C87.9832 12.3776 88.3223 12.5773 88.6253 12.825C88.9071 13.0586 89.1384 13.3472 89.3051 13.673C89.4719 14.0025 89.5577 14.367 89.5554 14.7363C89.5568 15.118 89.4693 15.4948 89.2998 15.8368C89.1302 16.1795 88.8912 16.4832 88.5978 16.7285C87.9553 17.2601 87.1463 17.5486 86.3124 17.5435L86.3107 17.5441ZM95.0544 17.5441C94.9781 17.5445 94.9024 17.5298 94.8318 17.5008C94.7612 17.4718 94.697 17.4291 94.643 17.3752C94.5889 17.3213 94.5461 17.2572 94.5169 17.1866C94.4878 17.1161 94.4729 17.0405 94.4731 16.9641V14.0094L90.8997 9.39214C90.8523 9.33422 90.8168 9.26748 90.7954 9.19577C90.7739 9.12406 90.7668 9.0488 90.7746 8.97435C90.7794 8.89898 90.8001 8.82548 90.8353 8.75868C90.8705 8.69188 90.9195 8.63328 90.979 8.58673C91.084 8.50023 91.2159 8.45314 91.3519 8.4536C91.5534 8.46758 91.6865 8.53991 91.7866 8.6635L95.0573 12.8685L98.3899 8.66394C98.4365 8.6037 98.4953 8.55401 98.5625 8.51814C98.6297 8.48227 98.7037 8.46103 98.7797 8.45582H98.7895C98.967 8.45582 99.0914 8.50019 99.1984 8.58473C99.2588 8.63148 99.3087 8.6904 99.3448 8.75767C99.381 8.82494 99.4026 8.89907 99.4083 8.97523C99.4201 9.12595 99.3735 9.27543 99.2783 9.3928L95.635 14.0105V16.9633C95.6365 17.0398 95.6223 17.1159 95.5932 17.1867C95.5642 17.2575 95.5208 17.3216 95.466 17.3751C95.4123 17.4295 95.3481 17.4725 95.2774 17.5015C95.2067 17.5306 95.1308 17.5451 95.0544 17.5441ZM103.78 17.5441C103.352 17.5466 102.926 17.4741 102.523 17.33C102.146 17.1943 101.797 16.9926 101.491 16.7345C101.2 16.4877 100.961 16.185 100.789 15.8443C100.619 15.5046 100.532 15.1295 100.534 14.7496C100.534 14.6401 100.566 14.533 100.627 14.442C100.688 14.351 100.775 14.2801 100.876 14.2383C100.977 14.1965 101.088 14.1858 101.196 14.2074C101.303 14.229 101.401 14.282 101.479 14.3597C101.53 14.4105 101.571 14.4712 101.599 14.5382C101.627 14.6051 101.641 14.6771 101.641 14.7496C101.64 14.9741 101.694 15.1955 101.798 15.3944C101.909 15.6004 102.061 15.7817 102.245 15.9269C102.448 16.0852 102.677 16.2081 102.922 16.2903C103.194 16.3804 103.478 16.4254 103.765 16.4234C104.054 16.4247 104.342 16.3791 104.618 16.2885C104.869 16.2052 105.104 16.0816 105.316 15.9226C105.505 15.7809 105.661 15.5998 105.773 15.3919C105.877 15.1982 105.924 14.9785 105.906 14.7591C105.889 14.5497 105.822 14.3474 105.711 14.1687C105.588 13.9751 105.433 13.8036 105.253 13.6613C105.055 13.5059 104.836 13.3804 104.601 13.289C104.351 13.1885 104.09 13.1154 103.823 13.0711C103.44 13.0448 103.062 12.9694 102.697 12.8468C102.354 12.735 102.03 12.5735 101.734 12.3675C101.465 12.1815 101.235 11.944 101.058 11.6686C100.884 11.3969 100.793 11.0805 100.795 10.7578C100.795 10.4355 100.879 10.1187 101.04 9.83944C101.209 9.55278 101.436 9.30401 101.705 9.10858C101.98 8.90401 102.304 8.74115 102.671 8.62045C103.438 8.3817 104.259 8.3817 105.025 8.62045C105.371 8.72985 105.697 8.8947 105.99 9.10858C106.26 9.30279 106.487 9.55135 106.656 9.83833C106.818 10.1173 106.903 10.4341 106.903 10.7567C106.902 10.9106 106.841 11.0582 106.732 11.1668C106.623 11.2755 106.475 11.3364 106.321 11.3362C106.244 11.338 106.167 11.3227 106.096 11.2914C106.026 11.2601 105.963 11.2136 105.912 11.1552C105.811 11.0465 105.753 10.8974 105.74 10.7136C105.732 10.5717 105.68 10.4356 105.593 10.3231C105.484 10.1773 105.347 10.054 105.191 9.95992C105.003 9.84351 104.799 9.75551 104.585 9.69877C104.345 9.63259 104.096 9.59981 103.847 9.60137C103.591 9.60034 103.336 9.63309 103.089 9.69877C102.875 9.75328 102.671 9.84103 102.484 9.95881C102.329 10.0573 102.195 10.187 102.093 10.3398C102.003 10.466 101.955 10.6166 101.955 10.7711C101.955 10.914 102.007 11.0422 102.119 11.1647C102.253 11.3091 102.412 11.4292 102.587 11.5197C102.79 11.6281 103.003 11.7165 103.223 11.7835C103.434 11.8495 103.65 11.8977 103.868 11.9278C104.287 11.9725 104.698 12.0747 105.089 12.2315C105.473 12.3901 105.811 12.5883 106.094 12.8239C106.377 13.0574 106.609 13.3468 106.775 13.6739C106.941 14.0031 107.026 14.3667 107.024 14.7352C107.026 15.117 106.938 15.4938 106.768 15.8357C106.599 16.1787 106.359 16.4824 106.066 16.7274C105.423 17.2597 104.614 17.5488 103.78 17.5441Z" fill="white"/>
</svg>
