<svg width="74" height="25" viewBox="0 0 74 25" fill="none" xmlns="http://www.w3.org/2000/svg">
<path d="M11.6953 18.6571L8.53441 16.5869L7.95972 18.2718L11.0487 20.5641L11.6953 18.6571Z" fill="white"/>
<path d="M11.0752 23.1426L10.3503 24.9581L20.0549 20.9614L13.1977 16.625L12.6948 18.3034L16.2802 20.7916L11.0752 23.1426Z" fill="white"/>
<path d="M5.64807 24.874L10.2653 22.9997L10.964 20.9883L6.3142 23.1303L5.64807 24.874Z" fill="white"/>
<path d="M14.6539 20.5968L12.4009 19.0947L11.356 22.1641L14.6539 20.5968Z" fill="white"/>
<path d="M7.04554 18.6565L3.80633 16.5732L3.21204 18.2516L6.40553 20.4525L7.04554 18.6565Z" fill="white"/>
<path d="M6.26842 20.9033L1.59899 22.9213L0.867554 24.9915L5.54351 23.0584L6.26842 20.9033Z" fill="white"/>
<path d="M9.73604 20.6548L7.65276 19.1396L6.62744 22.1372L9.73604 20.6548Z" fill="white"/>
<path d="M2.91155 19.0615L1.95154 21.935L4.94912 20.5962L2.91155 19.0615Z" fill="white"/>
<path d="M21.8372 21.1788C22.1507 20.2841 22.8821 19.6963 23.7115 19.6963C24.2078 19.6963 24.5605 19.8922 24.678 20.2057L24.8348 19.7616H25.3311L24.3319 22.6416H23.8356L23.9662 22.2628C23.6462 22.5437 23.2217 22.7069 22.7711 22.7069C21.9482 22.7069 21.5433 22.0343 21.8372 21.1788ZM22.9866 22.1975C23.5482 22.1975 24.0903 21.7796 24.2927 21.1918C24.5017 20.6041 24.247 20.1926 23.6723 20.1926C23.0976 20.1926 22.5686 20.6106 22.3662 21.2049C22.1637 21.7926 22.4119 22.1975 22.9866 22.1975Z" fill="white"/>
<path d="M26.9314 22.1906L26.7747 22.6412H26.2783L27.6955 18.5596H28.2441L27.7151 20.0878C28.022 19.8396 28.4269 19.6959 28.8514 19.6959C29.6677 19.6959 30.0792 20.3686 29.7722 21.2176C29.4588 22.1188 28.7208 22.7066 27.8914 22.7066C27.4016 22.7066 27.0489 22.5106 26.9314 22.1906ZM27.9371 22.2037C28.4987 22.2037 29.0408 21.7792 29.2432 21.1914C29.4457 20.6102 29.1975 20.1988 28.6294 20.1988C28.0612 20.1988 27.5257 20.6102 27.3167 21.2045C27.1142 21.7988 27.3689 22.2037 27.9371 22.2037Z" fill="white"/>
<path d="M30.0728 21.1983C30.3928 20.2775 31.1699 19.6963 32.045 19.6963C33.0638 19.6963 33.3316 20.4147 32.9136 21.4073H30.543C30.4189 21.8971 30.667 22.2041 31.2156 22.2041C31.5748 22.2041 31.9797 22.0735 32.2409 21.871L32.476 22.2237C32.0973 22.5241 31.6009 22.7069 31.1177 22.7069C30.1903 22.72 29.7593 22.0996 30.0728 21.1983ZM32.5609 20.9567C32.6915 20.4604 32.4826 20.1861 31.934 20.1861C31.4246 20.1861 30.9675 20.48 30.7128 20.9567H32.5609Z" fill="white"/>
<path d="M33.5468 21.7069L34.0562 20.2309H33.5011L33.6644 19.7607H34.226L34.4938 18.9836L35.0619 18.9248L34.7746 19.7607H35.6236L35.4538 20.2309H34.6048L34.1019 21.6807C33.9844 22.0138 34.0236 22.1836 34.3305 22.1836C34.4742 22.1836 34.6309 22.151 34.7681 22.0791V22.5363C34.5264 22.6277 34.3305 22.6734 34.1281 22.6734C33.5272 22.6799 33.3313 22.3338 33.5468 21.7069Z" fill="white"/>
<path d="M35.6692 21.7069L36.1786 20.2309H35.6235L35.7868 19.7607H36.3484L36.6162 18.9836L37.1844 18.9248L36.897 19.7607H37.746L37.5762 20.2309H36.7272L36.2244 21.6807C36.1068 22.0138 36.146 22.1836 36.4529 22.1836C36.5966 22.1836 36.7533 22.151 36.8905 22.0791V22.5363C36.6488 22.6277 36.4529 22.6734 36.2505 22.6734C35.6497 22.6799 35.4472 22.3338 35.6692 21.7069Z" fill="white"/>
<path d="M37.4522 21.1983C37.7722 20.2775 38.5494 19.6963 39.4245 19.6963C40.4433 19.6963 40.711 20.4147 40.2931 21.4073H37.9224C37.7984 21.8971 38.0465 22.2041 38.5951 22.2041C38.9543 22.2041 39.3592 22.0735 39.6204 21.871L39.8555 22.2237C39.4767 22.5241 38.9804 22.7069 38.4971 22.7069C37.5763 22.72 37.1453 22.0996 37.4522 21.1983ZM39.9469 20.9567C40.0776 20.4604 39.8686 20.1861 39.32 20.1861C38.8106 20.1861 38.3535 20.48 38.0988 20.9567H39.9469Z" fill="white"/>
<path d="M41.3248 19.7612H41.8211L41.6774 20.1923C41.9974 19.8592 42.3239 19.709 42.6897 19.709C42.9705 19.709 43.2186 19.7939 43.3427 19.9376L42.9444 20.4078C42.8268 20.2967 42.6701 20.238 42.4872 20.238C42.0235 20.238 41.5599 20.6363 41.3705 21.1914L40.8741 22.6413H40.3256L41.3248 19.7612Z" fill="white"/>
<path d="M44.3684 19.7617H44.9235L44.8974 20.8719L44.8517 22.0083L46.3733 19.7617H46.8762L46.8239 22.0148L47.5946 20.8719L48.3325 19.7617H48.9268L46.9611 22.6417H46.3341L46.3407 21.8254L46.3864 20.5389L45.5243 21.8254L44.9758 22.6417H44.3423L44.3684 19.7617Z" fill="white"/>
<path d="M48.5544 21.1788C48.8679 20.2841 49.5993 19.6963 50.4287 19.6963C50.9251 19.6963 51.2777 19.8922 51.3953 20.2057L51.552 19.7616H52.0483L51.0491 22.6416H50.5528L50.6834 22.2628C50.3634 22.5437 49.9389 22.7069 49.4883 22.7069C48.6589 22.7069 48.254 22.0343 48.5544 21.1788ZM49.7038 22.1975C50.2655 22.1975 50.8075 21.7796 51.01 21.1918C51.2189 20.6041 50.9642 20.1926 50.3895 20.1926C49.8149 20.1926 49.2859 20.6106 49.0834 21.2049C48.8744 21.7926 49.1291 22.1975 49.7038 22.1975Z" fill="white"/>
<path d="M51.3882 23.6736L51.767 23.236C51.9955 23.445 52.2894 23.5626 52.6094 23.5626C53.1776 23.5626 53.6217 23.223 53.8241 22.6417L53.9547 22.263C53.6282 22.5568 53.256 22.694 52.8641 22.694C52.1261 22.694 51.8323 22.1519 52.1196 21.3291L52.6617 19.7617H53.2102L52.6617 21.3225C52.4657 21.8972 52.6355 22.1911 53.1449 22.1911C53.6217 22.1911 54.1049 21.8058 54.2813 21.2834L54.8037 19.7617H55.3523L54.327 22.7005C54.007 23.6083 53.3931 24.0785 52.4984 24.0785C52.0739 24.0785 51.6559 23.9283 51.3882 23.6736Z" fill="white"/>
<path d="M56.9002 21.7069L57.4096 20.2309H56.8545L57.0178 19.7607H57.5794L57.8471 18.9836L58.4153 18.9248L58.128 19.7607H58.977L58.8072 20.2309H57.9582L57.4553 21.6807C57.3378 22.0138 57.3769 22.1836 57.6774 22.1836C57.821 22.1836 57.9778 22.151 58.1149 22.0791V22.5363C57.8733 22.6277 57.6774 22.6734 57.4749 22.6734C56.8806 22.6799 56.6782 22.3338 56.9002 21.7069Z" fill="white"/>
<path d="M58.6242 21.4658C58.794 20.4731 59.7083 19.6895 60.701 19.6895C61.4651 19.6895 61.8896 20.1858 61.7589 20.9303C61.5891 21.9295 60.6879 22.7001 59.6952 22.7001C58.9246 22.7066 58.4936 22.2103 58.6242 21.4658ZM59.8389 22.2038C60.4659 22.2038 61.0928 21.6421 61.2038 20.9956C61.2887 20.5188 61.021 20.1988 60.5377 20.1988C59.9108 20.1988 59.2838 20.754 59.1728 21.4005C59.0944 21.8772 59.3622 22.2038 59.8389 22.2038Z" fill="white"/>
<path d="M63.953 19.7616H64.4494L64.3188 20.1404C64.6388 19.8596 65.0633 19.6963 65.5204 19.6963C66.3367 19.6963 66.7482 20.3689 66.4412 21.2179C66.1278 22.1192 65.3898 22.7069 64.5604 22.7069C64.1033 22.7069 63.7702 22.5371 63.633 22.2628L63.0257 23.9935H62.4836L63.953 19.7616ZM64.6061 22.2041C65.1677 22.2041 65.7098 21.7796 65.9122 21.1918C66.1147 20.6106 65.8665 20.1992 65.2984 20.1992C64.7302 20.1992 64.1947 20.6106 63.9857 21.2049C63.7832 21.7992 64.0445 22.2041 64.6061 22.2041Z" fill="white"/>
<path d="M66.7489 21.1788C67.0624 20.2841 67.7938 19.6963 68.6232 19.6963C69.1196 19.6963 69.4722 19.8922 69.5898 20.2057L69.7465 19.7616H70.2428L69.2436 22.6416H68.7473L68.8779 22.2628C68.5579 22.5437 68.1334 22.7069 67.6828 22.7069C66.86 22.7069 66.455 22.0343 66.7489 21.1788ZM67.8983 22.1975C68.46 22.1975 69.002 21.7796 69.2045 21.1918C69.4134 20.6041 69.1587 20.1926 68.584 20.1926C68.0093 20.1926 67.4804 20.6106 67.2779 21.2049C67.0755 21.7926 67.3236 22.1975 67.8983 22.1975Z" fill="white"/>
<path d="M69.5831 23.6736L69.9619 23.236C70.1905 23.445 70.4844 23.5626 70.8044 23.5626C71.3725 23.5626 71.8166 23.223 72.0191 22.6417L72.1497 22.263C71.8231 22.5568 71.4509 22.694 71.0591 22.694C70.3211 22.694 70.0272 22.1519 70.3146 21.3291L70.8566 19.7617H71.4052L70.8566 21.3225C70.6607 21.8972 70.8305 22.1911 71.3399 22.1911C71.8166 22.1911 72.2999 21.8058 72.4762 21.2834L72.9987 19.7617H73.5472L72.5219 22.7005C72.2019 23.6083 71.588 24.0785 70.6933 24.0785C70.2754 24.0785 69.8574 23.9283 69.5831 23.6736Z" fill="white"/>
<path d="M9.02448 7.43144C8.52162 8.64614 7.30692 9.20778 6.09874 9.20778C4.53138 9.20778 2.94443 8.26736 2.9379 6.17102C2.9379 6.09265 2.9379 6.01428 2.94443 5.94244C4.79914 6.84368 7.27426 6.83061 9.1355 5.94244C9.83428 5.57019 10.5069 5.1457 11.1274 4.68202C10.742 3.29099 9.82776 2.29179 8.70448 1.70403C7.93386 1.24689 7.04569 0.992188 6.1118 0.992188C5.28894 0.992188 4.4922 1.19464 3.78035 1.56689C2.14769 2.30485 0.887268 3.85263 0.880737 6.17102C0.893799 9.51472 3.51913 11.2584 6.09874 11.2584C8.68489 11.2584 11.3037 9.50819 11.3233 6.17102V6.16448C11.3233 6.08612 11.3167 6.01428 11.3167 5.93591C10.6441 6.60204 9.84735 7.02 9.02448 7.43144ZM4.7273 3.38895C5.15833 3.21262 5.62853 3.12772 6.09874 3.12772C6.6212 3.12772 7.14365 3.23221 7.61386 3.44772C7.88815 3.60446 8.13631 3.80691 8.35182 4.04201C7.05875 4.70814 5.1518 4.72774 3.83913 4.08773C4.0873 3.80038 4.38771 3.56527 4.7273 3.38895Z" fill="white"/>
<path d="M43.4605 1.45074H44.4597L44.4793 3.33811C45.1911 2.08422 46.6605 1.27441 48.4108 1.27441C51.2255 1.27441 53.1912 3.31852 53.1912 6.21161C53.1912 9.1047 51.2255 11.1488 48.4108 11.1488C46.7128 11.1488 45.2891 10.3978 44.5511 9.20266V15.5635H43.454L43.4605 1.45074ZM48.3193 10.1235C50.5398 10.1235 52.1006 8.56265 52.1006 6.20508C52.1006 3.8475 50.5398 2.2932 48.3193 2.2932C46.0989 2.2932 44.5577 3.85403 44.5577 6.20508C44.5577 8.55612 46.1185 10.1235 48.3193 10.1235Z" fill="white"/>
<path d="M54.0273 6.21161C54.0273 3.31852 55.9931 1.27441 58.7882 1.27441C60.545 1.27441 62.0078 2.08422 62.7393 3.3577V1.45074H63.7646V10.979H62.7393V9.09163C62.0078 10.3455 60.5384 11.1553 58.7882 11.1553C55.9931 11.1488 54.0273 9.1047 54.0273 6.21161ZM58.8862 10.13C61.1066 10.13 62.6674 8.56918 62.6674 6.21161C62.6674 3.85403 61.1066 2.29973 58.8862 2.29973C56.6657 2.29973 55.1245 3.86056 55.1245 6.21161C55.1245 8.56265 56.6919 10.13 58.8862 10.13Z" fill="white"/>
<path d="M68.5314 10.9207L64.6 1.45117H65.7951L69.1519 9.64717L70.3861 6.73449L72.6588 1.45117H73.8539L67.7216 15.5705H66.5069L68.5314 10.9207Z" fill="white"/>
<path d="M12.0217 6.24957C12.0217 3.30423 13.9744 1.24707 16.8022 1.24707C18.3042 1.24707 19.5712 1.80871 20.3157 2.7426L20.3353 1.46258H22.2879V11.0431H20.3353L20.3157 9.76307C19.5712 10.697 18.2846 11.2586 16.8022 11.2586C13.9744 11.2586 12.0217 9.20143 12.0217 6.24957ZM17.1548 9.2798C18.892 9.2798 20.1002 8.03897 20.1002 6.2561C20.1002 4.47322 18.892 3.2324 17.1548 3.2324C15.4177 3.2324 14.2095 4.47322 14.2095 6.2561C14.2095 8.03897 15.4177 9.2798 17.1548 9.2798Z" fill="white"/>
<path d="M23.2609 9.8611L24.2731 8.2872C25.1352 8.96639 26.4021 9.3517 27.6691 9.3517C28.936 9.3517 29.6021 8.96639 29.6021 8.26761C29.6021 7.56883 28.9752 7.26189 27.4927 7.10515C24.9784 6.87004 23.5482 5.82514 23.5482 4.15981C23.5482 2.49449 25.2266 1.22754 27.7278 1.22754C29.1907 1.22754 30.4773 1.59326 31.5548 2.33122L30.6013 3.88553C29.7393 3.34348 28.825 3.06919 27.8323 3.06919C26.4478 3.06919 25.7033 3.4545 25.7033 4.15328C25.7033 4.7737 26.2715 5.10676 27.6756 5.25697C30.523 5.57044 31.7769 6.4782 31.7769 8.28067C31.7769 10.0831 30.1181 11.2652 27.6168 11.2652C25.9907 11.2783 24.5474 10.808 23.2609 9.8611Z" fill="white"/>
<path d="M35.9307 10.9846L32.1233 1.46289H34.4678L36.1462 5.82538L37.1388 8.58133L38.2491 5.82538L40.0646 1.46289H42.4091L36.3552 15.4647H33.9715L35.9307 10.9846Z" fill="white"/>
</svg>
