<svg width="115" height="25" viewBox="0 0 115 25" fill="none" xmlns="http://www.w3.org/2000/svg">
<mask id="mask0_645_728" style="mask-type:luminance" maskUnits="userSpaceOnUse" x="0" y="1" width="24" height="23">
<path d="M4.88482 11.9109L4.33205 11.8578L5.56042 9.40587L5.00356 9.13207L7.02628 7.28906L6.61682 6.8518L9.24144 5.83835L8.99986 5.21721H11.8661V4.74317L14.3228 5.69941L14.5234 5.17634L16.5707 7.03978L16.9392 6.63113L18.1676 9.05443L18.7081 8.78472L18.9251 11.5431L19.5434 11.4859L18.8022 14.0931L19.3345 14.2443L17.6967 16.4224L18.1635 16.7738L15.8214 18.2245L16.1244 18.7149L13.4547 19.2135L13.5653 19.7978L10.8629 19.2911L10.736 19.8877L8.39796 18.4411L8.09087 18.9356L6.43257 16.7411L5.93303 17.1171L5.17553 14.4609L4.61867 14.6202L4.88482 11.9109ZM10.9571 1.94392L13.2828 4.06073L7.66094 1.88671L7.25148 2.96146L10.1177 4.0689H4.26245V5.22129H7.66094L1.72791 7.50565L2.13737 8.58039L5.13459 7.42392L0.626472 11.5431L1.40444 12.3972L3.91441 10.1128L1.13829 15.6827L2.17012 16.2099L3.59503 13.3493L3.03817 19.3483L4.18874 19.4546L4.49174 16.1854L6.16642 22.0536L7.27605 21.7389L6.35477 18.5065L10.1095 23.4675L11.0308 22.7728L9.06947 20.1779L14.2696 23.3899L14.8797 22.4091L12.0749 20.705L18.1062 21.8206L18.3314 20.705L15.0926 20.1002L21.1362 18.956L20.9232 17.8241L17.6967 18.4207L22.8886 15.2128L22.2785 14.232L19.5024 15.9483L23.1875 11.0691L22.2663 10.3744L20.3418 12.9162L21.9796 7.11743L20.8946 6.81094L19.961 10.0801L19.3878 3.89727L18.2372 4.00352L18.5402 7.27272L15.7968 1.77229L14.7609 2.28719L16.1899 5.14774L11.735 1.08984L10.9571 1.94392Z" fill="white"/>
</mask>
<g mask="url(#mask0_645_728)">
<path d="M23.1957 1.09375H0.626472V23.4755H23.1957V1.09375Z" fill="white"/>
</g>
<mask id="mask1_645_728" style="mask-type:luminance" maskUnits="userSpaceOnUse" x="0" y="0" width="25" height="25">
<path d="M10.7359 22.1107L17.0825 23.2917L17.1562 22.8831L10.826 21.7143L10.7359 22.1107ZM7.27604 21.0155L12.7832 24.3828L12.9961 24.0395L7.50534 20.6723L7.27604 21.0155ZM14.2982 21.4855L14.3719 21.8941L20.7021 20.705L20.6284 20.2963L14.2982 21.4855ZM4.47126 18.7394L8.35291 23.8679L8.67638 23.6227L4.79064 18.4942L4.47126 18.7394ZM12.2018 18.106L15.846 18.7843L15.9197 18.3757L12.2755 17.6973L12.2018 18.106ZM10.0931 17.8036L13.2459 19.7528L13.4588 19.4095L10.306 17.4603L10.0931 17.8036ZM17.4347 20.0389L17.6476 20.3862L23.122 17.0026L22.9091 16.6593L17.4347 20.0389ZM14.2 17.2274L14.2737 17.636L17.9178 16.9576L17.8441 16.549L14.2 17.2274ZM8.23826 16.7492L10.4739 19.7038L10.7974 19.4586L8.56173 16.504L8.23826 16.7492ZM2.61643 15.6091L4.38118 21.792L4.79064 21.6816L3.00541 15.4988L2.61643 15.6091ZM6.8543 15.1146L7.86975 18.6617L8.27921 18.5514L7.24329 14.9839L6.8543 15.1146ZM15.7886 16.1117L16.0016 16.455L19.1544 14.5057L18.9251 14.1666L15.7886 16.1117ZM5.85523 16.8064L6.26468 16.8432L6.60453 13.1654L6.19508 13.1286L5.85523 16.8064ZM19.8545 17.542L20.178 17.7872L24.0597 12.6546L23.7362 12.4094L19.8545 17.542ZM1.46995 18.4574L1.87941 18.4942L2.47312 12.0947L2.06366 12.0579L1.46995 18.4574ZM16.9024 14.469L17.2258 14.7142L19.4615 11.7596L19.138 11.5144L16.9024 14.469ZM4.68418 14.33L5.0486 14.5098L6.68642 11.1957L6.32201 11.0159L4.68418 14.33ZM4.42622 11.5635L4.70056 11.8618L7.4603 9.36493L7.18596 9.06662L4.42622 11.5635ZM17.361 12.5606L17.7704 12.6709L18.7859 9.11157L18.3764 9.00124L17.361 12.5606ZM0 14.2892L0.364416 14.469L3.23061 8.71518L2.8662 8.53538L0 14.2892ZM21.2262 14.3627L21.6357 14.4731L23.4004 8.29018L22.991 8.17985L21.2262 14.3627ZM5.28608 8.88681L5.41301 9.26277L8.86883 7.92649L8.72142 7.54644L5.28608 8.88681ZM16.6854 6.94573L17.0293 10.6236L17.4388 10.5868L17.0948 6.90895L16.6854 6.94573ZM7.05084 7.03972H10.7605V6.63107H7.05084V7.03972ZM0.0900801 9.83079L0.364416 10.1332L5.1223 5.80151L4.84796 5.50319L0.0900801 9.83079ZM14.3801 5.58492L16.0179 8.89907L16.3824 8.71927L14.7445 5.40512L14.3801 5.58492ZM9.19639 5.65439L12.6522 6.99068L12.7996 6.61063L9.3438 5.27435L9.19639 5.65439ZM11.8005 5.17627L14.5398 7.66904L14.8141 7.37072L12.0749 4.87796L11.8005 5.17627ZM20.6898 4.52652L21.2835 10.926L21.693 10.8892L21.0952 4.48157L20.6898 4.52652ZM1.85484 5.71569L2.00224 6.09574L8.00897 3.77461L7.86975 3.38639L1.85484 5.71569ZM5.01175 2.85514H11.4484V2.44649H5.00356L5.01175 2.85514ZM17.234 1.90708L20.1002 7.66086L20.4646 7.48106L17.5984 1.72727L17.234 1.90708ZM8.79922 1.02439L14.8059 3.34552L14.9533 2.96548L8.95072 0.628003L8.79922 1.02439ZM13.119 0.681127L17.881 5.01281L18.1553 4.7145L13.3933 0.382812L13.119 0.681127Z" fill="white"/>
</mask>
<g mask="url(#mask1_645_728)">
<path d="M24.0597 0.382812H0V24.3992H24.0597V0.382812Z" fill="white"/>
</g>
<mask id="mask2_645_728" style="mask-type:luminance" maskUnits="userSpaceOnUse" x="1" y="1" width="22" height="23">
<path d="M11.5139 19.0705L15.9401 19.8878L15.2809 20.2965L15.3219 20.366L14.0157 20.6112L11.5139 19.0705ZM10.8915 20.8032L9.13088 18.4739L12.9224 20.8196L12.1977 20.9544V21.0525L10.8915 20.8032ZM13.9829 18.76L18.4092 17.9427L17.9465 18.5556L18.0161 18.6088L16.8778 19.3198L13.9829 18.76ZM7.86976 19.8306L7.05084 16.9456L9.82286 20.6234L9.08175 20.4845V20.5785L7.86976 19.8306ZM20.0429 15.2292L19.8218 16.0016H19.875L19.0807 17.0682L16.2145 17.6076L20.0429 15.2292ZM5.41302 17.8446L5.67916 14.984L6.90753 19.2585L6.30563 18.8866L6.26059 18.9561L5.41302 17.8446ZM3.85708 15.2292L5.14687 12.6466L4.73741 16.9619L4.32796 16.3939L4.22559 16.4715L3.85708 15.2292ZM20.4851 12.1889L20.5629 12.9408H20.6857L20.3377 14.1667L17.8032 15.7319L20.4851 12.1889ZM3.36573 12.0622L5.61365 10.019L3.56227 14.1667L3.33707 13.3494L3.25518 13.374L3.36573 12.0622ZM19.8545 9.20165L20.1616 9.81463L20.2558 9.76968L20.3787 11.0896L18.6753 13.3372L19.8545 9.20165ZM3.54999 10.2192H3.49267L4.10685 8.99324L6.78879 7.95527L3.48038 10.9629L3.54999 10.2192ZM18.1348 6.4637L18.7244 6.99903L18.7572 6.96225L19.3714 8.1882L18.5525 11.0487L18.1348 6.4637ZM4.91757 7.35456L4.79883 7.29734L5.89618 6.30024H8.98348L4.5941 7.99614L4.91757 7.35456ZM5.96169 12.0091L5.48672 11.9641L6.52264 9.89227L6.0313 9.64708L7.74282 8.09012L7.39888 7.71417L9.63042 6.85191L9.4175 6.30432H11.8497V5.89568L13.9256 6.71297L14.0976 6.27572L15.8337 7.85719L16.149 7.50984L17.1685 9.55309L17.6394 9.32016L17.8564 11.6454L18.3969 11.5963L17.7786 13.799L18.2331 13.9297L16.8369 15.7727L17.2463 16.0792L15.2604 17.3052L15.5225 17.7138L13.2664 18.1225L13.3565 18.6619L11.0635 18.2532L10.9693 18.76L8.98757 17.534L8.72143 17.9427L7.31699 16.0833L6.87887 16.4143L6.23193 14.1667L5.74877 14.3057L5.96169 12.0091ZM15.5307 4.57165L16.3168 4.87405V4.82501L17.2954 5.71587L17.5739 8.69901L15.5307 4.57165ZM7.16959 5.14376L7.10817 5.07429L8.41433 4.56756L10.953 5.54832H6.71918L7.16959 5.14376ZM9.45026 4.17117L10.1627 3.89738L10.1013 3.738H11.432L11.3788 3.79522L13.5325 5.75673L9.45026 4.17117ZM12.4352 3.73392H13.3688L14.4948 4.14257L15.8132 6.81105L12.4352 3.73392ZM13.2541 2.01759L15.3014 3.86877L9.60585 1.67432L9.40112 2.20148L11.8947 3.16589H6.00263V3.73392H9.00395L8.6641 3.86469L8.57812 3.83199L8.54945 3.90964L3.04226 6.0387L3.24699 6.56995L5.82247 5.5851L1.31845 9.70838L1.69925 10.117L3.9185 8.0983L3.82433 8.28628L3.75062 8.31488L3.77519 8.38027L1.11372 13.6927L1.62145 13.9461L2.80478 11.5759L2.84982 11.629L2.29705 17.5381L2.8621 17.5912L3.12825 14.7307L3.18557 14.9227L3.1651 14.9636H3.20195L4.81521 20.6316L5.36388 20.4763L4.54497 17.6157L4.66781 17.7792V17.9222H4.79883L8.34473 22.6095L8.79922 22.2662L7.1614 20.1289L7.24329 20.1044L12.3001 23.2265L12.599 22.7443L10.1422 21.2241L10.306 21.2527L10.3511 21.3099L10.4043 21.2691L16.239 22.3561L16.3455 21.7962L13.4793 21.265L13.6226 21.2364L13.7045 21.2895L13.7496 21.216L19.572 20.1289L19.4697 19.5732L16.6321 20.1003L16.7509 20.0268H16.8409V19.9451L21.8527 16.8475L21.5865 16.4143L19.1298 17.9182L19.2199 17.7956H19.31V17.7138L22.8641 13.0144L22.4096 12.6711L20.7267 14.8982L20.7635 14.7675L22.4014 9.04637L21.8527 8.89108L21.0338 11.7761L21.0092 11.5146L21.0747 11.4247L20.9928 11.3634L20.4483 5.53606L19.8832 5.5851L20.1248 8.20046L19.9938 8.16368L17.3773 2.92479L16.8778 3.17815L18.1062 5.68318L18.0447 5.62597V5.5851H17.9997L13.6308 1.59668L13.2541 2.01759Z" fill="white"/>
</mask>
<g mask="url(#mask2_645_728)">
<path d="M22.8681 1.59668H1.10554V23.251H22.8681V1.59668Z" fill="white"/>
</g>
<path d="M76.2234 16.4988H75.5234L72.9779 10.3889H74.117L75.4407 13.5645C75.6215 13.9781 75.7766 14.4023 75.9052 14.8348C76.0389 14.4347 76.1916 14.0345 76.3952 13.5645L77.7698 10.3889H78.8962L76.2234 16.4988ZM69.2232 11.3225C69.9614 11.3225 70.2732 11.7481 70.2732 12.2435C70.2765 12.3801 70.2498 12.5157 70.1952 12.6409C70.1406 12.7662 70.0592 12.8781 69.9569 12.9687C69.8545 13.0594 69.7335 13.1268 69.6024 13.166C69.4713 13.2053 69.3332 13.2156 69.1977 13.1962H68.5614V11.3225H69.2232ZM72.1506 16.448C71.598 15.4901 70.959 14.5844 70.2414 13.7424C70.5768 13.6327 70.8683 13.4188 71.0733 13.132C71.2782 12.8452 71.3859 12.5004 71.3805 12.1482C71.3805 11.24 70.7951 10.4143 69.2423 10.4143H67.454V16.448H68.5868V14.1298H69.2232C69.4714 14.1298 70.0632 15.0889 70.9096 16.448H72.1506ZM65.1185 11.3225H62.8594V12.9167H65.1058V13.825H62.8594V15.508H65.3349V16.448H61.7839V10.3889H65.4558L65.1185 11.3225ZM59.8365 14.7776C59.8365 12.5737 57.0873 13.1073 57.0873 11.856C57.0873 11.3924 57.5392 11.1574 58.061 11.1574C58.565 11.1744 59.056 11.3209 59.4865 11.5829V10.6112C59.0052 10.3925 58.4816 10.282 57.9528 10.2873C56.7373 10.2873 56.0437 10.9859 56.0437 11.9069C56.033 12.1327 56.0706 12.3583 56.154 12.5685C56.2374 12.7788 56.3647 12.9689 56.5273 13.1263C57.3165 13.8631 58.7674 13.8377 58.7674 14.8475C58.7674 15.4064 58.2456 15.7113 57.6028 15.7113C57.1279 15.6877 56.6673 15.5411 56.2664 15.2857L55.8782 16.0797C56.4337 16.4213 57.078 16.5915 57.7301 16.5687C58.831 16.5687 59.8556 15.9336 59.8556 14.7713M53.1863 16.448L50.8762 13.8377V16.448H49.8008V10.3889H50.8762V13.0564L53.04 10.3889H54.2745L51.8117 13.3931L54.5482 16.448H53.1863ZM47.3507 16.448V10.3889H46.2625V13.7424C46.2625 14.206 46.2625 14.5045 46.2625 14.8031C45.9705 14.3307 45.6496 13.8767 45.3015 13.4439L43.0042 10.3889H41.8587V16.448H42.9342V12.9421C42.9342 12.5166 42.9342 12.1927 42.9342 11.9196C43.206 12.3585 43.5012 12.7826 43.8188 13.1898L46.3134 16.448H47.3507ZM37.6267 12.8532C37.4867 12.4785 37.3785 12.18 37.3149 11.945C37.2276 12.2531 37.1235 12.5563 37.0031 12.8532L36.5385 14.1235H38.1231L37.6267 12.8532ZM39.0395 16.448L38.4413 15.0126H36.1758L35.6158 16.448H34.4639L36.9776 10.3635H37.6649L40.1786 16.448H39.0395ZM32.0393 14.0409C32.0393 14.8666 31.4538 15.4636 30.3401 15.4636H29.1819V12.7452H30.4038C31.4538 12.7452 32.0011 13.3041 32.0011 14.0155M30.092 9.1885C31.0529 9.1885 31.5047 9.66485 31.5047 10.4207C31.5104 10.5973 31.479 10.7731 31.4127 10.9369C31.3464 11.1007 31.2465 11.249 31.1196 11.3721C30.9926 11.4952 30.8413 11.5906 30.6753 11.652C30.5093 11.7135 30.3323 11.7397 30.1556 11.729H29.1819V9.1885H30.092ZM33.1784 13.952C33.2024 13.4978 33.056 13.0509 32.7677 12.6986C32.4795 12.3463 32.07 12.1139 31.6193 12.0466C31.95 11.8808 32.2254 11.6227 32.4118 11.3035C32.5982 10.9844 32.6877 10.6181 32.6693 10.2492C32.6695 9.96632 32.6107 9.68653 32.4967 9.42759C32.3827 9.16864 32.216 8.9362 32.0071 8.74504C31.7982 8.55389 31.5517 8.40821 31.2834 8.31726C31.015 8.22631 30.7306 8.19208 30.4483 8.21676H28.0683V16.448H30.3083C32.4848 16.448 33.2039 15.1778 33.2039 13.9774" fill="white"/>
<path d="M107.75 16.0226C107.149 16.3893 106.456 16.5787 105.752 16.5688C105.35 16.581 104.951 16.5096 104.579 16.3592C104.207 16.2088 103.87 15.9826 103.591 15.6952C103.311 15.4078 103.095 15.0654 102.955 14.6898C102.815 14.3142 102.756 13.9137 102.78 13.5138C102.777 12.9538 102.92 12.4027 103.196 11.9151C103.473 11.4276 103.872 11.0205 104.354 10.7343C104.836 10.448 105.385 10.2925 105.946 10.2832C106.507 10.2739 107.061 10.411 107.553 10.6811V11.6656C107.103 11.3582 106.57 11.1964 106.025 11.2019C105.735 11.1975 105.446 11.2537 105.178 11.367C104.911 11.4803 104.67 11.6481 104.471 11.8598C104.272 12.0715 104.119 12.3223 104.023 12.5962C103.927 12.8701 103.889 13.161 103.912 13.4503C103.889 13.7296 103.923 14.0108 104.014 14.2759C104.105 14.5411 104.25 14.7845 104.441 14.9906C104.631 15.1967 104.862 15.361 105.12 15.4731C105.377 15.5851 105.655 15.6425 105.936 15.6415C106.476 15.6378 107.003 15.4815 107.457 15.1905L107.75 16.0226ZM100.794 16.4481H99.7187V10.389H100.794V16.4481ZM95.1749 11.3226H94.5003V13.1899H95.1367C95.2717 13.2092 95.4092 13.1991 95.5399 13.1601C95.6705 13.1212 95.7911 13.0545 95.8934 12.9645C95.9956 12.8745 96.0771 12.7635 96.1322 12.639C96.1872 12.5145 96.2145 12.3796 96.2122 12.2435C96.2122 11.7418 95.9004 11.3226 95.1622 11.3226M98.0832 16.4481H96.8104C95.9577 15.0889 95.3722 14.1299 95.124 14.1299H94.4876V16.4481H93.4058V10.389H95.194C96.7404 10.389 97.3322 11.2083 97.3322 12.1229C97.3386 12.4753 97.2313 12.8205 97.0262 13.1075C96.8211 13.3945 96.5291 13.6082 96.1931 13.717C96.9018 14.5749 97.5402 15.4882 98.1023 16.4481M91.4584 10.389L91.1339 11.3226H88.862V12.9803H91.1084V13.9012H88.862V16.4417H87.7865V10.389H91.4584ZM83.7518 13.3423L82.8927 10.859C82.7667 10.5252 82.6626 10.1836 82.5809 9.83639C82.4918 10.1349 82.3963 10.4715 82.2436 10.8462L81.3145 13.3423H83.7518ZM86.1255 16.4481H84.9609L84.1209 14.3014H80.939L80.1626 16.4481H79.0235L82.2054 8.19141H82.9182L86.1255 16.4481ZM114.998 16.4481H113.859L113.261 15.0127H110.995L110.435 16.4481H109.284L111.797 10.3635H112.497L114.998 16.4481ZM112.924 14.1172L112.446 12.8469C112.306 12.4722 112.198 12.1737 112.135 11.9323C112.045 12.1673 111.944 12.4595 111.797 12.8469L111.333 14.1172H112.924Z" fill="white"/>
</svg>
