<svg width="72" height="25" viewBox="0 0 72 25" fill="none" xmlns="http://www.w3.org/2000/svg">
<g clip-path="url(#clip0_630_1162)">
<path d="M7.6686 0.229492V9.44338H5.82151V5.52196H1.87343V9.44338H0.0263367V0.229492H1.87343V4.01762H5.82151V0.229492H7.6686Z" fill="white"/>
<path d="M9.45729 3.79184C9.72712 3.24829 10.1435 2.791 10.6595 2.47158C11.1707 2.16239 11.7581 2.00233 12.3555 2.00949C12.852 1.99871 13.3434 2.11217 13.7849 2.33956C14.1707 2.54003 14.5068 2.82411 14.7688 3.17107V2.12882H16.6298V9.4423H14.7713V8.3734C14.5163 8.73164 14.1788 9.02335 13.7875 9.22395C13.3417 9.45549 12.845 9.57159 12.3428 9.56163C11.7476 9.56784 11.1633 9.40257 10.6595 9.08558C10.1433 8.7581 9.72733 8.2947 9.45729 7.74627C9.15344 7.12883 9.00196 6.44756 9.01552 5.75954C9.00233 5.07765 9.15388 4.40265 9.45729 3.79184ZM14.5073 4.63097C14.3435 4.3223 14.0963 4.06585 13.7938 3.89086C13.5009 3.72221 13.1683 3.63458 12.8303 3.63697C12.4968 3.6351 12.1688 3.72278 11.8807 3.89086C11.5825 4.06576 11.3379 4.31911 11.1736 4.62335C10.9861 4.97435 10.8929 5.36805 10.9032 5.76589C10.8942 6.16763 10.9872 6.56511 11.1736 6.92111C11.3378 7.23512 11.5845 7.49844 11.8871 7.6828C12.1711 7.85606 12.4976 7.94744 12.8303 7.94685C13.1683 7.94924 13.5009 7.86161 13.7938 7.69296C14.096 7.51764 14.3432 7.26128 14.5073 6.95285C14.6919 6.59642 14.7828 6.19887 14.7713 5.79762C14.7849 5.39253 14.6939 4.99076 14.5073 4.63097Z" fill="white"/>
<path d="M21.2749 2.34891C21.7169 2.11836 22.2097 2.00226 22.7081 2.01122C23.3055 2.00427 23.8929 2.16431 24.4041 2.47332C24.9186 2.79135 25.3345 3.24629 25.6051 3.78723C25.9105 4.39965 26.0625 5.07708 26.0481 5.76127C26.0613 6.4494 25.9094 7.13067 25.6051 7.74801C25.3355 8.29638 24.92 8.75981 24.4041 9.08731C23.8961 9.40519 23.3074 9.57043 22.7081 9.56336C22.2149 9.57358 21.727 9.46011 21.2888 9.2333C20.8999 9.03179 20.5591 8.74858 20.2898 8.40306V12.9313H18.4414V2.13056H20.2898V3.18676C20.5481 2.83425 20.8855 2.54727 21.2749 2.34891ZM23.8887 4.61874C23.7244 4.3137 23.4788 4.06015 23.1791 3.88625C22.888 3.71868 22.5578 3.63109 22.2219 3.63235C21.89 3.63077 21.5638 3.71846 21.2774 3.88625C20.9759 4.06479 20.7294 4.32309 20.5652 4.6327C20.3791 4.98423 20.286 5.37756 20.2948 5.77523C20.2861 6.1729 20.3792 6.5662 20.5652 6.91777C20.7265 7.23327 20.9722 7.49783 21.2749 7.68199C21.6184 7.88755 22.0192 7.97661 22.4174 7.93589C22.5771 7.92097 22.7339 7.8838 22.8833 7.82544C23.3167 7.65803 23.6751 7.33977 23.8925 6.92919C24.0804 6.57144 24.1735 6.17154 24.1629 5.76762C24.1724 5.36708 24.077 4.97102 23.8862 4.61874H23.8887Z" fill="white"/>
<path d="M30.2234 2.34892C30.6649 2.11827 31.1573 2.00216 31.6554 2.01124C32.2527 2.00428 32.8401 2.16432 33.3514 2.47333C33.8662 2.791 34.2821 3.24604 34.5523 3.78724C34.8583 4.39945 35.0103 5.07704 34.9954 5.76128C35.0091 6.44947 34.8572 7.13088 34.5523 7.74802C34.2832 8.29666 33.8675 8.76018 33.3514 9.08732C32.8433 9.40521 32.2546 9.57044 31.6554 9.56338C31.1621 9.57359 30.6742 9.46012 30.2361 9.23331C29.8482 9.0313 29.5083 8.74814 29.2395 8.40307V12.9313H27.3912V2.13057H29.2395V3.18678C29.4971 2.83409 29.8342 2.54705 30.2234 2.34892ZM32.8372 4.61875C32.6744 4.31846 32.4329 4.06821 32.1385 3.89487C31.8442 3.72153 31.5082 3.63166 31.1666 3.6349C30.8351 3.63336 30.5093 3.72106 30.2234 3.8888C29.9214 4.06716 29.6745 4.32547 29.5099 4.63525C29.3238 4.98678 29.2307 5.38011 29.2395 5.77779C29.2308 6.17545 29.3239 6.56875 29.5099 6.92032C29.6745 7.2301 29.9214 7.48841 30.2234 7.66677C30.5668 7.87259 30.9676 7.96166 31.3659 7.92067C31.5252 7.9056 31.6815 7.86843 31.8305 7.81022C32.2659 7.64351 32.6266 7.32526 32.8461 6.91397C33.034 6.55621 33.127 6.15632 33.1165 5.7524C33.1226 5.35677 33.0264 4.96628 32.8372 4.61875Z" fill="white"/>
<path d="M43.3384 2.12988L38.8102 12.9014H36.8438L38.4268 9.25802L35.493 2.12988H37.5661L39.4538 7.23827L41.3707 2.12988H43.3384Z" fill="white"/>
<path d="M53.8395 4.46672C53.5866 4.91577 53.2051 5.27879 52.744 5.50897C52.2463 5.77302 51.6192 5.90504 50.8626 5.90504H49.3176V9.44309H47.4693V0.229197H50.8626C51.4901 0.211355 52.1133 0.337737 52.6843 0.598616C53.154 0.816001 53.5473 1.16992 53.8129 1.6142C54.0693 2.05981 54.2009 2.56635 54.1937 3.08045C54.1941 3.56497 54.0722 4.04176 53.8395 4.46672ZM51.9188 4.06303C52.1651 3.83071 52.2882 3.50192 52.2882 3.08045C52.2882 2.18335 51.7868 1.73438 50.7839 1.73353H49.3176V4.4134H50.7839C51.2942 4.4134 51.6725 4.29661 51.9188 4.06303Z" fill="white"/>
<path d="M55.4632 3.79188C55.7322 3.24815 56.1482 2.79074 56.6641 2.47162C57.1754 2.16261 57.7628 2.00257 58.3601 2.00952C58.8579 1.99848 59.3506 2.11194 59.7934 2.33959C60.1787 2.54021 60.5144 2.82429 60.776 3.1711V2.12886H62.6383V9.44233H60.776V8.37343C60.5214 8.73165 60.1844 9.02338 59.7934 9.22398C59.346 9.45615 58.8475 9.57226 58.3436 9.56166C57.7485 9.56751 57.1642 9.40227 56.6603 9.08561C56.1441 8.75846 55.7285 8.29495 55.4594 7.74631C55.1545 7.12917 55.0026 6.44776 55.0163 5.75957C55.0041 5.0772 55.1574 4.40204 55.4632 3.79188ZM60.5119 4.631C60.3486 4.32238 60.1018 4.06591 59.7997 3.8909C59.5068 3.72224 59.1742 3.63461 58.8362 3.637C58.4965 3.63379 58.1624 3.72381 57.8703 3.89728C57.5782 4.07075 57.3393 4.32102 57.1795 4.62085C56.9915 4.97173 56.8979 5.36543 56.9079 5.76338C56.8992 6.16524 56.9927 6.56272 57.1795 6.91861C57.3433 7.23252 57.5895 7.49586 57.8917 7.68029C58.1762 7.85372 58.503 7.94511 58.8362 7.94435C59.1742 7.94674 59.5068 7.8591 59.7997 7.69045C60.1015 7.51506 60.3482 7.25868 60.5119 6.95034C60.6965 6.59391 60.7874 6.19636 60.776 5.79512C60.789 5.39087 60.6981 4.99004 60.5119 4.631Z" fill="white"/>
<path d="M71.4421 2.12988L66.9152 12.9014H64.9449L66.5292 9.25802L63.6018 2.12988H65.6736L67.5613 7.23827L69.4757 2.12988H71.4421Z" fill="white"/>
<path d="M33.2397 24.2274C30.5173 24.2242 27.8384 23.5434 25.4448 22.2462C23.0513 20.949 21.0183 19.0763 19.5293 16.7971C19.4553 16.6973 19.4023 16.5835 19.3737 16.4625C19.3451 16.3416 19.3415 16.216 19.363 16.0936C19.3846 15.9712 19.4309 15.8545 19.4991 15.7506C19.5673 15.6467 19.656 15.5578 19.7597 15.4894C19.8635 15.4209 19.9801 15.3743 20.1024 15.3524C20.2248 15.3306 20.3503 15.3339 20.4713 15.3622C20.5923 15.3905 20.7063 15.4432 20.8063 15.517C20.9062 15.5909 20.9901 15.6843 21.0527 15.7917C22.3756 17.8186 24.1824 19.4841 26.3101 20.6379C28.4378 21.7918 30.8193 22.3975 33.2397 22.4006C39.0298 22.4006 44.2842 18.9362 46.6327 13.5752C46.7331 13.3582 46.9145 13.1891 47.1381 13.1043C47.3617 13.0195 47.6095 13.0257 47.8286 13.1215C48.0476 13.2174 48.2204 13.3952 48.3099 13.6169C48.3994 13.8387 48.3984 14.0866 48.3072 14.3076C45.6705 20.3351 39.756 24.2274 33.2397 24.2274Z" fill="white"/>
</g>
<defs>
<clipPath id="clip0_630_1162">
<rect width="71.4158" height="24" fill="white" transform="translate(0.0263367 0.227539)"/>
</clipPath>
</defs>
</svg>
