<svg width="70" height="25" viewBox="0 0 70 25" fill="none" xmlns="http://www.w3.org/2000/svg">
<path d="M8.116 6.91564C9.29213 6.91564 10.3638 7.05357 11.3669 7.33026C11.229 6.01619 11.6436 4.56337 13.027 3.83696C15.3785 2.55717 17.8344 5.46198 15.6551 6.63812C14.0301 7.53756 13.8571 7.98645 13.9256 8.47128C15.2054 9.33562 15.9661 10.4775 15.9661 11.7564C15.9661 14.4188 12.4728 16.5981 8.116 16.5981C7.21655 16.5981 6.38648 16.4944 5.59152 16.3214C5.03815 16.5638 4.6578 16.8405 4.76146 17.1172C5.31483 18.57 15.6209 14.0051 16.6925 19.3992C17.3153 22.5807 11.5742 24.6906 7.80503 24.6906C3.82774 24.6906 0.68134 23.7569 0.0585811 21.5785C-0.667832 18.9846 5.59152 18.7079 6.11063 20.9557C6.38732 22.2004 6.62973 23.2035 7.77076 22.9619C9.77697 22.5122 11.6787 19.6074 10.5025 19.1234C9.46517 18.7088 8.49634 19.227 5.21118 19.227C1.06085 19.227 0.680504 16.945 2.85974 15.3191C1.26899 14.4548 0.265889 13.175 0.265889 11.7573C0.265889 9.05977 3.79346 6.91564 8.116 6.91564ZM6.1449 11.7573C6.1449 13.4517 7.04435 14.8351 8.116 14.8351C9.18764 14.8351 10.0871 13.4517 10.0871 11.7573C10.0871 10.0629 9.22275 8.64515 8.116 8.64515C7.00924 8.64515 6.1449 10.0286 6.1449 11.7573ZM18.1453 11.2733V7.91874C18.1453 5.56731 17.108 4.66786 17.108 2.76615C17.108 1.24478 18.2841 0.691406 20.4968 0.691406C22.7095 0.691406 23.8513 1.24478 23.8513 2.76615C23.8513 4.66786 22.8139 5.56731 22.8139 7.91874V11.2733C22.8139 13.6247 23.8513 14.5242 23.8513 16.4259C23.8513 17.9472 22.6752 18.4663 20.4968 18.4663C18.3184 18.4663 17.108 17.9472 17.108 16.4259C17.108 14.5242 18.1453 13.6247 18.1453 11.2733ZM30.8371 20.5411C31.7365 19.227 29.9727 16.6332 28.3469 14.3854C26.6174 11.9989 25.753 11.2733 24.4732 9.33646C23.4701 7.81509 25.3376 6.91564 27.5511 6.91564C29.7646 6.91564 31.2517 7.64205 32.1503 8.95611C32.9804 10.2359 33.1534 11.6879 34.1565 13.5211V13.4868C35.0902 11.1002 34.0871 10.4089 34.8136 8.67943C35.3669 7.43475 36.197 6.91564 37.5111 6.91564C38.8251 6.91564 39.6209 7.91874 39.1712 8.95611C38.5835 10.3738 37.1307 11.1345 36.1276 13.4868C36.1276 13.4868 34.1565 18.4663 33.7068 19.4001C32.3585 22.2706 30.7669 24.6914 27.7584 24.6914C25.8567 24.6914 23.7468 24.0001 23.5044 22.1669C23.2971 20.3689 25.3376 18.4663 27.5503 19.8155C28.6227 20.4725 30.0405 21.7523 30.8354 20.5419L30.8371 20.5411ZM39.2406 12.691C39.2406 9.50949 42.1111 6.91564 45.673 6.91564C47.2294 6.91564 48.6814 7.39964 49.7882 8.2297V7.91874C49.7882 5.56731 48.7165 4.66786 48.7165 2.76615C48.7165 1.24478 49.8927 0.691406 52.1054 0.691406C54.318 0.691406 55.4942 1.24478 55.4942 2.76615C55.4942 4.66786 54.4217 5.56731 54.4217 7.91874V11.2733C54.4217 13.6247 55.4942 14.5242 55.4942 16.4259C55.4942 17.9472 54.318 18.4663 52.1054 18.4663C50.6183 18.4663 49.5809 18.2239 49.0969 17.602C48.0938 18.1554 46.9185 18.4663 45.673 18.4663C42.1111 18.4663 39.2406 15.9076 39.2406 12.691ZM44.9123 12.691C44.9123 14.7657 46.019 16.4601 47.3331 16.4601C48.6472 16.4601 49.7882 14.7657 49.7882 12.691C49.7882 10.6162 48.6814 8.92184 47.3331 8.92184C45.9848 8.92184 44.9123 10.6162 44.9123 12.691ZM56.1863 12.691C56.1863 9.50949 59.2642 6.91564 63.0684 6.91564C66.596 6.91564 69.4314 9.16342 69.4314 11.2039C69.4314 13.832 65.0044 13.2444 64.1752 14.973C65.5586 15.4921 67.0106 15.3534 67.4954 14.489C67.9452 13.7284 69.9163 14.0744 69.225 15.284C68.1182 17.1857 65.7668 18.4655 63.0693 18.4655C59.265 18.4655 56.1871 15.9068 56.1871 12.6902L56.1863 12.691ZM61.3046 10.9966C61.3046 12.38 61.9274 13.4517 62.7917 14.1438C62.9648 12.5188 64.3825 10.4432 64.3825 9.33646C64.3825 8.05667 61.3046 8.16032 61.3046 10.9966Z" fill="white"/>
</svg>
