<svg width="83" height="29" viewBox="0 0 83 29" fill="none" xmlns="http://www.w3.org/2000/svg">
<path d="M66.1632 21.0217C66.3235 19.6812 65.5066 18.8808 64.3147 18.8808C63.0882 18.8808 62.0676 19.7685 61.9073 21.2836C61.7695 22.6597 62.5123 23.4423 63.618 23.4423C64.9147 23.4423 66.0029 22.5368 66.1582 21.0168M64.7588 16.4554C65.3188 16.451 65.8739 16.5637 66.3883 16.7864C66.9027 17.009 67.3661 17.3368 67.7487 17.749C68.5958 18.6027 68.9412 19.7685 68.7852 21.2836C68.4564 24.4011 65.9864 25.8629 63.982 25.8629C63.3402 25.8629 62.806 25.7416 62.4096 25.4797C62.0132 25.2177 61.7678 24.9574 61.7178 24.731L61.2364 28.9966H58.5083L59.0617 23.756L59.8051 16.6413H62.5331L62.4129 17.4077C62.5227 17.2747 62.6501 17.1573 62.7917 17.0585C63.3797 16.6781 64.0632 16.4729 64.7621 16.4667M53.5126 23.4488C54.2203 23.4488 55.7416 22.9799 55.7416 20.8729C55.7416 19.636 54.8782 18.9051 53.7886 18.9051C52.4759 18.9051 51.5419 19.9496 51.5419 21.4292C51.5419 22.7357 52.3443 23.4488 53.5126 23.4488ZM55.9489 17.5112L56.0867 16.6413H58.8147L57.8649 25.6964H55.1366L55.2409 24.862C55.0163 25.297 54.0663 25.871 52.8899 25.871C51.8468 25.8751 50.8409 25.4804 50.0751 24.7666C49.2631 24.0341 48.8491 23.0073 48.8491 21.6669C48.8327 20.9905 48.9494 20.3177 49.1926 19.6871C49.4358 19.0565 49.8007 18.4807 50.2661 17.9931C50.6973 17.5107 51.2253 17.1262 51.8151 16.8649C52.405 16.6037 53.0432 16.4718 53.6875 16.478C55.0692 16.5136 55.8989 17.2622 55.9505 17.5048M45.1131 16.4602C45.5512 16.4486 45.9863 16.535 46.3873 16.7131C46.7883 16.8912 47.1451 17.1566 47.432 17.4902C48.0354 18.1693 48.2778 19.1784 48.1221 20.5366L47.57 25.6899H44.8419L45.3779 20.6579C45.5159 19.4564 45.1019 18.8646 44.1166 18.8646C43.8527 18.8602 43.5908 18.9104 43.3471 19.0123C43.1033 19.1141 42.8829 19.2653 42.6995 19.4564C42.3015 19.8397 42.0769 20.1712 42.0079 20.467L41.4044 25.6899H38.6763L39.973 13.3799H42.7012L42.1828 18.1515C42.3433 17.8023 42.6642 17.4368 43.2019 17.0536C43.7617 16.6484 44.4385 16.4403 45.1276 16.4618M38.4228 18.918L36.1584 19.4225C35.9514 18.9002 35.6224 18.6382 35.1955 18.6382C34.7141 18.6382 34.4012 18.9519 34.4012 19.3012C34.4012 19.5616 34.5729 19.7523 34.9195 19.9092L36.0076 20.3102C36.4585 20.46 36.8897 20.6647 37.2914 20.9198C38.0007 21.303 38.2767 21.8431 38.3458 22.7825C38.3609 23.2263 38.2642 23.6667 38.0646 24.0625C37.8651 24.4584 37.5692 24.7969 37.2047 25.0463C36.4091 25.6008 35.4598 25.8872 34.4926 25.8645C33.6466 25.8903 32.8142 25.6458 32.1143 25.166C31.8015 24.9479 31.537 24.6667 31.3379 24.3403C31.1387 24.0137 31.0091 23.649 30.9573 23.2693L33.151 22.6936C33.3757 23.3727 33.825 23.7042 34.4991 23.7042C35.1731 23.7042 35.6048 23.3566 35.6048 22.9556C35.6054 22.8226 35.5614 22.6933 35.4798 22.5887C35.3982 22.4842 35.2839 22.4106 35.1554 22.38L34.1364 21.9983C32.5316 21.4049 31.7164 20.501 31.7164 19.2996C31.7112 18.906 31.7977 18.5168 31.9688 18.163C32.1399 17.8092 32.3909 17.5006 32.7017 17.2622C33.3962 16.7152 34.2582 16.4293 35.1394 16.4537C36.8838 16.4537 38.0071 17.3948 38.4051 18.9099M26.0162 23.3388L29.6494 16.6171H31.5511L24.7773 28.9966H22.8756L24.8928 25.3762L21.9432 16.6171H23.7694L26.0162 23.3388ZM16.564 18.15C16.1428 18.1431 15.725 18.226 15.3378 18.3933C14.9506 18.5604 14.6029 18.8082 14.3173 19.1201C14.0179 19.4431 13.7848 19.8225 13.6314 20.2365C13.4779 20.6505 13.4073 21.091 13.4234 21.5327C13.4234 22.3848 13.6834 23.03 14.1841 23.5005C14.6815 23.9632 15.3383 24.2127 16.0151 24.1958C16.418 24.195 16.8166 24.1131 17.1875 23.9548C17.5585 23.7965 17.8943 23.565 18.1752 23.2741C18.7946 22.6645 19.1156 21.8059 19.1156 20.7436C19.1156 19.9254 18.8556 19.2883 18.3549 18.8291C17.8699 18.3814 17.2329 18.1383 16.5752 18.15M16.4998 16.478C17.1683 16.4517 17.8277 16.6409 18.3822 17.0181C18.9021 17.3657 19.2118 17.715 19.2985 18.0804L19.4719 16.6348H21.3382L20.3882 25.6899H18.5218L18.6935 24.2346C18.533 24.6356 18.1752 25.0172 17.6055 25.3665C17.011 25.7076 16.3365 25.8818 15.6524 25.871C14.5982 25.8757 13.5805 25.4816 12.8007 24.7666C11.9887 24.0179 11.5731 22.9879 11.5731 21.6846C11.5582 21.0061 11.6783 20.3315 11.9264 19.7005C12.1744 19.0695 12.5454 18.4951 13.0174 18.0109C13.4565 17.5208 13.9942 17.1306 14.5946 16.8663C15.1951 16.602 15.8445 16.4696 16.4998 16.478ZM5.95633 24.1909C6.74966 24.1838 7.51487 23.894 8.11636 23.3728C8.77325 22.8165 9.15361 22.0506 9.25737 21.075C9.34406 20.1517 9.13703 19.4209 8.61547 18.9164C8.37264 18.6628 8.08029 18.4626 7.75687 18.3284C7.43345 18.1943 7.08593 18.1291 6.73626 18.137C5.96428 18.14 5.22086 18.4315 4.65003 18.9552C4.04503 19.4952 3.68716 20.2617 3.57804 21.2545C3.47533 22.194 3.66469 22.9248 4.13168 23.431C4.36628 23.679 4.64985 23.8748 4.96411 24.0057C5.27838 24.1366 5.61638 24.1997 5.95633 24.1909ZM7.01066 16.4602C7.57043 16.4575 8.12476 16.571 8.63913 16.7935C9.1535 17.0161 9.61686 17.343 10.0004 17.7538C10.8477 18.6076 11.2104 19.7734 11.0547 21.2545C10.9518 22.4968 10.3945 23.6563 9.49092 24.5079C8.58736 25.3594 7.40199 25.8423 6.16495 25.8629C5.40589 25.8629 4.76558 25.6883 4.26489 25.3228C3.76419 24.9574 3.46249 24.5742 3.38386 24.157L2.84786 28.9966H0.981491L1.56884 23.473L2.27816 16.6348H4.14453L3.98405 18.0109C4.14024 17.6455 4.50293 17.2973 5.07209 16.9663C5.66067 16.6262 6.32902 16.4514 7.00747 16.4602" fill="white"/>
<path d="M74.1752 17.5655C73.7618 17.5655 73.3616 17.7098 73.0421 17.9739C72.7225 18.238 72.504 18.6056 72.4233 19.014C72.3426 19.4224 72.4052 19.8463 72.6001 20.2135C72.7944 20.5807 73.1096 20.8685 73.4917 21.0278C73.8733 21.1872 74.2982 21.2082 74.6935 21.0873C75.0888 20.9665 75.4308 20.7112 75.6603 20.365C75.8898 20.0188 75.993 19.6031 75.9523 19.1888C75.9123 18.7744 75.73 18.387 75.4379 18.0926C75.2727 17.9245 75.0761 17.7913 74.8593 17.7008C74.6424 17.6103 74.4096 17.5643 74.1752 17.5655Z" fill="white"/>
<path d="M75.4429 4.52009C75.1541 4.22949 74.7857 4.03172 74.3855 3.95178C73.9847 3.87183 73.5697 3.9133 73.1925 4.07094C72.8153 4.22857 72.493 4.49531 72.2663 4.83744C72.0396 5.17957 71.9188 5.58175 71.9188 5.99315C71.9188 6.40456 72.0396 6.80672 72.2663 7.14886C72.493 7.49101 72.8153 7.75772 73.1925 7.91539C73.5697 8.07301 73.9847 8.11446 74.3855 8.03453C74.7857 7.95459 75.1541 7.75684 75.4429 7.46619C75.6367 7.27398 75.7904 7.04488 75.8953 6.79228C76.0001 6.53968 76.0539 6.26858 76.0539 5.99477C76.0539 5.72096 76.0001 5.44987 75.8953 5.19727C75.7904 4.94466 75.6367 4.71558 75.4429 4.52333" fill="white"/>
<path d="M78.8126 7.91022C78.5233 7.62035 78.1555 7.42325 77.7552 7.34386C77.355 7.26448 76.94 7.30631 76.5633 7.46415C76.1867 7.62199 75.865 7.88876 75.6383 8.23073C75.4121 8.57271 75.2913 8.97464 75.2913 9.38574C75.2913 9.79684 75.4121 10.1988 75.6383 10.5407C75.865 10.8827 76.1867 11.1494 76.5633 11.3073C76.94 11.4651 77.355 11.507 77.7552 11.4276C78.1555 11.3482 78.5233 11.1511 78.8126 10.8612C79.0064 10.6689 79.1607 10.4397 79.2656 10.187C79.3704 9.93426 79.4248 9.66299 79.4248 9.38898C79.4248 9.11497 79.3704 8.8437 79.2656 8.59094C79.1607 8.33818 79.0064 8.10896 78.8126 7.9167" fill="white"/>
<path d="M82.183 11.2992C81.8942 11.0084 81.5258 10.8104 81.1256 10.7303C80.7248 10.6501 80.3098 10.6915 79.9326 10.849C79.5554 11.0066 79.2326 11.2734 79.0059 11.6155C78.7791 11.9577 78.6578 12.36 78.6578 12.7714C78.6578 13.183 78.7791 13.5852 79.0059 13.9274C79.2326 14.2696 79.5554 14.5363 79.9326 14.6939C80.3098 14.8515 80.7248 14.8928 81.1256 14.8127C81.5258 14.7326 81.8942 14.5345 82.183 14.2437C82.3768 14.0515 82.5305 13.8222 82.6359 13.5695C82.7408 13.3168 82.7946 13.0455 82.7946 12.7714C82.7946 12.4974 82.7408 12.2262 82.6359 11.9735C82.5305 11.7207 82.3768 11.4915 82.183 11.2992Z" fill="white"/>
<path d="M72.0857 7.90254C71.797 7.61151 71.4291 7.41326 71.0283 7.33294C70.6276 7.25268 70.2125 7.29385 69.8348 7.45136C69.4576 7.60887 69.1348 7.87558 68.9081 8.21784C68.6808 8.56003 68.56 8.9624 68.56 9.374C68.56 9.78559 68.6808 10.188 68.9081 10.5302C69.1348 10.8724 69.4576 11.1392 69.8348 11.2967C70.2125 11.4541 70.6276 11.4954 71.0283 11.415C71.4291 11.3347 71.797 11.1365 72.0857 10.8455C72.279 10.6532 72.4327 10.4241 72.5376 10.1715C72.6424 9.91889 72.6968 9.64784 72.6968 9.374C72.6968 9.1002 72.6424 8.8291 72.5376 8.5765C72.4327 8.3239 72.279 8.0948 72.0857 7.90254Z" fill="white"/>
<path d="M75.4522 11.2934C75.1634 11.0026 74.7956 10.8045 74.3948 10.7244C73.994 10.6443 73.579 10.6856 73.2018 10.8432C72.8247 11.0007 72.5024 11.2675 72.2751 11.6096C72.0484 11.9518 71.9276 12.3541 71.9276 12.7656C71.9276 13.1771 72.0484 13.5794 72.2751 13.9216C72.5024 14.2637 72.8247 14.5305 73.2018 14.6881C73.579 14.8456 73.994 14.887 74.3948 14.8068C74.7956 14.7267 75.1634 14.5287 75.4522 14.2379C75.6455 14.0453 75.7986 13.8159 75.9035 13.5632C76.0084 13.3105 76.0622 13.0394 76.0622 12.7656C76.0622 12.4918 76.0084 12.2207 75.9035 11.968C75.7986 11.7153 75.6455 11.486 75.4522 11.2934Z" fill="white"/>
<path d="M78.8126 14.6858C78.425 14.2954 77.8996 14.0762 77.3517 14.0762C76.8038 14.0762 76.2779 14.2954 75.8903 14.6858C75.602 14.9769 75.4055 15.3477 75.3259 15.7514C75.2463 16.155 75.2875 16.5733 75.4434 16.9534C75.5998 17.3336 75.8645 17.6585 76.2043 17.8871C76.5441 18.1156 76.9433 18.2376 77.3517 18.2376C77.7602 18.2376 78.1593 18.1156 78.4986 17.8871C78.8384 17.6585 79.1031 17.3336 79.2595 16.9534C79.416 16.5733 79.4572 16.155 79.3776 15.7514C79.298 15.3477 79.1014 14.9769 78.8126 14.6858Z" fill="white"/>
<path d="M77.1563 0.996108C76.8033 0.996434 76.4585 1.10222 76.1648 1.30009C75.8711 1.49797 75.6427 1.77906 75.5076 2.10784C75.3726 2.43662 75.3374 2.79834 75.4066 3.14729C75.4752 3.49624 75.6454 3.81676 75.8952 4.06836C76.061 4.23526 76.2581 4.36761 76.4744 4.45786C76.6913 4.5481 76.923 4.59447 77.1574 4.59432C77.3918 4.59417 77.6241 4.5475 77.8404 4.45698C78.0572 4.36646 78.2538 4.23385 78.4196 4.06674C78.5854 3.89962 78.7166 3.70127 78.8061 3.48301C78.8956 3.26474 78.9417 3.03084 78.9417 2.79465C78.9411 2.55847 78.895 2.32463 78.805 2.10648C78.7155 1.88833 78.5837 1.69014 78.4179 1.52324C78.2527 1.35538 78.0561 1.22231 77.8398 1.1318C77.6235 1.0413 77.3907 0.995168 77.1563 0.996108Z" fill="white"/>
</svg>
