<svg width="111" height="25" viewBox="0 0 111 25" fill="none" xmlns="http://www.w3.org/2000/svg">
<path d="M110.48 15.2137C109.237 17.0057 107.116 17.536 105.141 17.536C101.722 17.536 98.9055 15.7623 98.9055 13.0011C98.9055 10.368 101.74 8.48454 105.251 8.48454C106.878 8.48454 108.469 8.7954 109.694 9.89254L109.804 9.98397C109.859 10.0388 109.914 10.0937 109.968 10.1485C110.042 10.2217 110.096 10.2765 110.096 10.2765C109.95 10.4411 109.804 10.5143 109.676 10.5508C109.53 10.6057 109.383 10.5874 109.274 10.5508C109.036 10.4777 108.871 10.3131 108.871 10.3131C108.012 9.47197 106.933 9.1794 105.744 9.1794C103.221 9.1794 101.594 10.624 101.594 13.056C101.594 15.2137 102.874 16.4754 105.013 16.6765C105.214 16.7131 105.434 16.7314 105.69 16.7314C106.055 16.7314 106.439 16.6948 106.805 16.6034C107.28 16.512 107.738 16.3657 108.158 16.128C108.78 15.8171 109.328 15.3783 109.694 14.8663L110.48 15.2137ZM45.8035 17.536C42.3841 17.536 39.5681 15.7623 39.5681 13.0011C39.5681 10.368 42.4024 8.48454 45.9132 8.48454C47.5407 8.48454 49.1315 8.7954 50.3567 9.89254L50.4664 9.98397C50.5213 10.0388 50.5761 10.0937 50.631 10.1485C50.7041 10.2217 50.759 10.2765 50.759 10.2765C50.6127 10.4411 50.4664 10.5143 50.3384 10.5508C50.1921 10.6057 50.0458 10.5874 49.9361 10.5508C49.7898 10.496 49.6435 10.4228 49.5338 10.3131C48.6744 9.47197 47.5955 9.1794 46.407 9.1794C43.8835 9.1794 42.2561 10.624 42.2561 13.056C42.2561 15.2137 43.5361 16.4754 45.6755 16.6765C45.8767 16.7131 46.0961 16.7314 46.3521 16.7314C46.7178 16.7314 47.1018 16.6948 47.4675 16.6034C47.943 16.512 48.4001 16.3474 48.8207 16.128C49.4607 15.8171 49.991 15.3783 50.3567 14.8663L51.1613 15.1954C49.8995 17.0057 47.7967 17.536 45.8035 17.536ZM73.1042 11.2274C73.1042 12.6537 71.678 13.8788 69.7031 13.8788H66.8139V13.4948C66.8139 13.2754 66.9968 13.1108 67.1979 13.1108H68.5145C69.6482 13.1108 70.5808 12.2697 70.5808 11.264C70.5808 10.24 69.6482 9.41712 68.5145 9.41712H66.4482V17.3897H63.9431V8.64911H69.7031C71.678 8.64911 73.1042 9.80111 73.1042 11.2274ZM89.8906 8.64911H97.4793V9.41712H92.3958V12.3428H97.1501V13.1108H92.3958V16.64H97.4793V17.408H89.8906C89.8906 17.3897 89.8906 8.64911 89.8906 8.64911ZM59.7556 17.3897L58.1282 14.6468H54.7453L55.0744 14.0617C55.1476 13.952 55.2573 13.8971 55.3853 13.8971H57.6527L56.2082 11.4834L52.7156 17.408H51.4356L56.8116 8.42969L62.407 17.408H59.7556V17.3897ZM87.2026 8.64911H88.2632V9.41712H84.8986V17.3897H82.4117V9.41712H79.0471V8.64911H87.2026ZM74.9145 17.3714H77.438V8.63083H74.9145V17.3714Z" fill="white"/>
<path d="M22.7266 5.02832H11.5906V9.70946C11.5906 11.3735 12.962 12.7266 14.626 12.7266H20.4592C22.5438 12.7266 24.2444 14.4272 24.2444 16.5118V20.9369C28.2855 20.2603 31.3758 16.9689 31.3758 13.0375C31.3758 8.6489 27.481 5.02832 22.7266 5.02832Z" fill="white"/>
<path d="M18.4662 13.2756H12.6696C10.5851 13.2756 8.88447 11.5933 8.88447 9.50876V4.99219C4.36787 5.24819 0.765564 8.74076 0.765564 12.983C0.765564 17.3899 4.66044 20.9922 9.41476 20.9922H21.52V16.2928C21.5017 14.647 20.1302 13.2756 18.4662 13.2756Z" fill="white"/>
</svg>
