<svg width="98" height="25" viewBox="0 0 98 25" fill="none" xmlns="http://www.w3.org/2000/svg">
<g clip-path="url(#clip0_627_1093)">
<path fill-rule="evenodd" clip-rule="evenodd" d="M8.83931 17.6169C8.93616 17.9074 8.93616 19.1181 8.93616 19.3602V22.9922C8.74246 22.9922 5.44948 22.9922 5.3042 22.9922C5.25577 22.9922 5.20735 22.9922 5.15892 22.9922C5.01364 22.9922 4.86836 22.9438 4.67466 22.8469C4.62623 22.8469 4.62623 22.8469 4.62623 22.8469C4.28725 22.6532 4.04512 22.2658 4.04512 21.83C4.04512 21.7815 4.04512 21.7815 4.04512 21.7331C4.04512 21.2973 4.04512 20.6677 4.04512 20.3772C4.04512 19.6992 3.94827 18.8275 3.70614 18.3917L0.994272 14.0818C0.89742 13.8881 0.800568 13.6459 0.800568 13.4038C0.800568 13.2101 0.848994 13.0164 0.945846 12.9195C0.994272 12.8711 0.994272 12.8711 0.994272 12.8711C5.93374 6.38202 8.30662 3.28274 8.35505 3.18589C8.40347 3.18589 8.40347 3.13747 8.40347 3.13747C8.40347 3.08904 8.40347 3.08904 8.4519 3.08904C8.4519 3.08904 8.50033 3.08904 8.54875 3.04061C8.54875 3.04061 8.59718 3.04061 8.59718 3.08904C8.59718 3.13747 8.6456 3.13747 8.6456 3.18589C9.32357 4.34812 8.6456 5.31664 8.16134 6.18831C7.91921 6.62415 7.67708 7.01156 7.43495 7.39897C6.95069 8.17379 6.36957 9.04546 5.78846 9.91713C5.35263 10.4982 5.11049 11.1762 5.11049 11.9995C5.11049 12.8227 5.44948 13.7428 5.98217 14.4208C6.56328 15.3409 7.3381 15.8251 8.20977 16.5999C8.54875 16.9389 8.74246 17.1811 8.83931 17.6169ZM9.46885 15.2924C7.59233 15.2924 6.07902 13.8215 6.07902 11.9995C6.07902 10.1774 7.59233 8.70647 9.46885 8.70647C11.3454 8.70647 12.8587 10.1774 12.8587 11.9995C12.8587 13.8215 11.3454 15.2924 9.46885 15.2924ZM17.9434 12.8711C18.0403 13.0164 18.0887 13.2101 18.0887 13.4038C18.0887 13.6459 17.9918 13.8881 17.895 14.0818L15.1831 18.3433C14.941 18.7791 14.8442 19.6508 14.8442 20.3287C14.8442 20.6193 14.8442 21.2488 14.8442 21.6847C14.8442 21.7331 14.8442 21.7331 14.8442 21.7815C14.8442 22.2174 14.602 22.6048 14.263 22.7985C14.263 22.7985 14.263 22.7985 14.2146 22.7985C14.0209 22.8953 13.9241 22.9438 13.7788 22.9438C13.7303 22.9438 13.6819 22.9438 13.6335 22.9438C13.4882 22.9438 13.3914 22.9438 13.1977 22.9438H10.0015V19.3118C10.0015 19.0697 10.0015 17.859 10.0984 17.5685C10.1952 17.1326 10.3889 16.8905 10.7279 16.5515C11.5996 15.7767 12.3744 15.2924 12.9555 14.3723C13.4882 13.6944 13.8272 12.7743 13.8272 11.951C13.8272 11.1278 13.5851 10.4498 13.1492 9.8687C12.5681 8.99703 11.987 8.12536 11.5027 7.35054C11.2606 6.96313 11.0185 6.57572 10.8248 6.13989C10.3405 5.26822 9.61413 4.29969 10.3405 3.13747C10.3405 3.08904 10.3889 3.08904 10.3889 3.04061C10.3889 2.99219 10.4374 2.99219 10.4374 2.99219C10.3889 3.08904 10.4374 3.08904 10.4374 3.08904C10.4858 3.08904 10.4858 3.08904 10.4858 3.13747C10.4858 3.13747 10.4858 3.18589 10.5342 3.18589C10.5826 3.23432 12.9555 6.38202 17.9434 12.8711Z" fill="white"/>
<path fill-rule="evenodd" clip-rule="evenodd" d="M61.4301 12.1451C61.5754 12.7262 61.6238 13.3557 61.6238 14.0821V21.2008H58.3793V14.7117C58.3793 14.1305 58.3308 13.5979 58.1856 13.2104C57.895 12.3388 57.1202 11.7577 56.1517 11.7577C55.958 11.7577 55.7158 11.8061 55.5221 11.8545C55.1347 11.9514 54.7957 12.1935 54.5536 12.4841C54.5052 12.5325 54.4567 12.5809 54.4083 12.6293C54.0209 13.162 53.8272 13.9853 53.8272 15.1475V21.1039H50.5827V9.62691H53.8272V11.0797C53.8756 11.0313 53.9241 10.9344 53.9725 10.886C54.5052 10.2564 55.1831 9.77219 55.958 9.53006C56.4422 9.38478 56.8781 9.33635 57.3623 9.33635C58.234 9.33635 58.912 9.4332 59.4931 9.67533C60.0258 9.91747 60.4616 10.2564 60.8006 10.6439C61.1396 11.0797 61.3333 11.564 61.4301 12.1451ZM62.9313 5.26855H66.1759V21.1523H62.9313V5.26855ZM97.7497 13.4526V21.1039H94.5052V14.6148C94.5052 14.2274 94.5052 13.8884 94.4567 13.5494C94.4567 13.501 94.4567 13.501 94.4567 13.4526C94.3115 12.5325 93.4882 11.8545 92.4713 11.8545C91.5996 11.8545 90.8732 12.3388 90.5827 13.0652C90.4858 13.2589 90.4374 13.4526 90.389 13.6947C90.3405 14.0337 90.2921 14.4211 90.2921 14.7601V21.2008H87.0475C87.0475 20.8618 87.0475 14.0821 87.0475 13.7431C87.0475 13.6947 87.0475 13.6947 87.0475 13.6463C86.9023 12.6293 86.0306 11.9029 85.0136 11.9029C84.8684 11.9029 84.7715 11.9029 84.6747 11.9029C84.5778 11.9029 84.5294 11.9514 84.4325 11.9514C84.1904 12.0482 83.9483 12.1451 83.7061 12.3388C83.464 12.4841 83.2219 12.7746 83.0766 13.1136C82.9313 13.4526 82.8345 13.8884 82.8345 14.4695V21.1523H79.5899V9.67533H82.8345V11.0313C83.2219 10.4986 83.7061 10.1112 84.2388 9.82061C84.8684 9.48163 85.5463 9.33635 86.3212 9.33635C87.0475 9.33635 87.7255 9.48163 88.3551 9.77219C88.9846 10.0627 89.4204 10.547 89.7594 11.2734C90.1468 10.7407 90.6311 10.3049 91.2122 9.91747C91.7933 9.53006 92.5197 9.33635 93.3429 9.33635C93.9725 9.33635 94.5536 9.4332 95.0863 9.57848C95.619 9.72376 96.0548 9.96589 96.4422 10.3049C96.7812 10.5954 97.1202 11.0313 97.3139 11.564C97.556 12.0966 97.6529 12.7262 97.7497 13.4526ZM49.3236 20.087C49.372 20.5712 49.4689 20.9102 49.6626 21.1523H46.3696C46.3212 20.9586 46.2727 20.8133 46.2243 20.6196C46.1759 20.4259 46.1759 20.2322 46.1274 20.0385C45.5948 20.5712 45.0137 20.9102 44.2873 21.1039C43.5609 21.2976 42.7376 21.3945 42.1565 21.3945C41.3817 21.3945 40.849 21.2492 40.7037 21.2492C39.4931 21.0071 38.4277 19.9417 38.1371 18.6826C38.0887 18.4405 38.0887 18.2468 38.0887 18.0046C38.0887 17.8109 38.0887 17.6656 38.1371 17.5204C38.3308 16.3581 39.1541 15.3896 40.2679 14.9538C40.2679 14.9538 40.5584 14.8569 40.7037 14.8085C41.188 14.6632 41.6722 14.5664 42.1565 14.5179C42.6408 14.4211 43.125 14.3727 43.6093 14.3242C44.0936 14.2758 44.481 14.2274 44.8684 14.1305C44.9652 14.1305 45.0621 14.0821 45.1105 14.0337C45.6432 13.84 45.9822 13.3557 45.9822 12.823C45.9822 12.2903 45.6432 11.8061 45.1589 11.6124C44.8684 11.4671 44.481 11.4187 43.9483 11.4187C43.5609 11.4187 43.2219 11.4671 42.9798 11.564C42.4955 11.7092 42.1081 12.0482 41.9628 12.4841C41.8659 12.7746 41.8175 13.1136 41.7691 13.4041H38.5245V13.3557C38.5245 12.2903 39.0572 11.1281 39.8805 10.547C39.8805 10.547 39.8805 10.547 39.9289 10.4986C39.9289 10.4986 39.9773 10.4986 39.9773 10.4502C39.9773 10.4502 39.9773 10.4502 40.0258 10.4017C40.171 10.3049 40.3163 10.208 40.4616 10.1112C40.9943 9.82061 41.5754 9.62691 42.2049 9.48163C42.8345 9.33635 43.5124 9.28793 44.1904 9.28793C44.7715 9.28793 45.4011 9.33635 45.9822 9.4332C46.4664 9.48163 46.9507 9.62691 47.3381 9.77219C48.3551 10.208 49.0814 11.1281 49.3236 12.1935C49.372 12.3872 49.372 12.5809 49.372 12.7746V18.5857C49.2752 19.1184 49.2751 19.6027 49.3236 20.087ZM45.9822 15.5349C45.8369 15.6318 45.6916 15.7286 45.4495 15.8255C45.2558 15.8739 45.0137 15.9223 44.7715 15.9707C44.5294 16.0192 44.2873 16.0192 44.0451 16.0676C43.7061 16.116 42.9798 16.2129 42.4471 16.3581C42.3986 16.3581 42.3986 16.3581 42.3502 16.4066C41.866 16.5518 41.527 16.9393 41.3817 17.4235C41.3817 17.4235 41.3333 17.5688 41.3333 17.6656C41.3333 17.7141 41.3333 17.8109 41.3333 17.8594C41.3333 17.9078 41.3333 17.9562 41.3333 18.0046C41.3333 18.0531 41.3333 18.1015 41.3333 18.1015C41.3817 18.2952 41.4301 18.4405 41.527 18.5857C41.7207 18.8763 42.0112 19.1184 42.3502 19.2637C42.3502 19.2637 42.4955 19.3121 42.5923 19.3121C42.8345 19.3606 43.125 19.3606 43.3672 19.3606C43.9967 19.3606 44.5294 19.2637 44.8684 19.07C45.2074 18.8763 45.4979 18.6342 45.6432 18.3436C45.7885 18.0531 45.9337 17.7625 45.9337 17.4719C45.9822 17.1814 45.9822 16.9393 45.9822 16.7456V15.5349ZM78.3793 20.087C78.4277 20.5712 78.5245 20.9102 78.7182 21.1523H75.3768C75.3284 20.9586 75.28 20.8133 75.2316 20.6196C75.1831 20.4259 75.1831 20.2322 75.1347 20.0385C74.602 20.5712 74.0209 20.9102 73.2945 21.1039C72.5681 21.2976 71.7449 21.3945 71.1638 21.3945C70.389 21.3945 69.8563 21.2492 69.711 21.2492C68.5003 21.0071 67.435 19.9417 67.1928 18.6826C67.1444 18.4405 67.1444 18.2468 67.1444 18.0046C67.1444 17.8109 67.1444 17.6656 67.1928 17.5204C67.3865 16.3581 68.2098 15.3896 69.3236 14.9538C69.3236 14.9538 69.6141 14.8569 69.7594 14.8085C70.2437 14.6632 70.7279 14.5664 71.2122 14.5179C71.6965 14.4211 72.1807 14.3727 72.665 14.3242C73.1492 14.2758 73.5367 14.2274 73.9241 14.1305C74.0209 14.1305 74.1178 14.0821 74.1662 14.0337C74.6989 13.84 75.0379 13.3557 75.0379 12.823C75.0379 12.2903 74.6989 11.8061 74.2146 11.6124C74.2146 11.6124 74.2146 11.6124 74.1662 11.6124C73.8756 11.4671 73.4882 11.4187 72.9555 11.4187C72.5681 11.4187 72.2291 11.4671 71.987 11.564C71.5028 11.7092 71.1153 12.0482 70.9701 12.4841C70.8732 12.7746 70.8248 13.1136 70.7764 13.4041H67.5318V13.3557C67.5318 12.2903 68.0645 11.1281 68.8877 10.547C68.8877 10.547 68.8877 10.547 68.9362 10.4986C68.9362 10.4986 68.9362 10.4986 68.9846 10.4502C68.9846 10.4502 68.9846 10.4502 69.033 10.4017C69.1783 10.3049 69.3236 10.208 69.4689 10.1112C70.0015 9.82061 70.5827 9.62691 71.2122 9.48163C71.8417 9.33635 72.5197 9.28793 73.1977 9.28793C73.7788 9.28793 74.4083 9.33635 74.9894 9.4332C75.4737 9.48163 75.958 9.62691 76.3454 9.77219C77.3623 10.208 78.0887 11.1281 78.3308 12.1935C78.3793 12.3872 78.3793 12.5809 78.3793 12.7746V18.5857C78.2824 19.1184 78.3308 19.6027 78.3793 20.087ZM75.0379 15.5349C74.8926 15.6318 74.7473 15.7286 74.5052 15.8255C74.3115 15.8739 74.0693 15.9223 73.8272 15.9707C73.5851 16.0192 73.3429 16.0192 73.1008 16.0676C72.7618 16.116 72.0354 16.2129 71.5028 16.3581C71.4543 16.3581 71.4543 16.3581 71.4059 16.4066C70.9216 16.5518 70.5827 16.9393 70.4374 17.4235C70.4374 17.4235 70.3889 17.5688 70.3889 17.6656C70.3889 17.7141 70.3889 17.8109 70.3889 17.8594C70.3889 17.9078 70.3889 17.9562 70.3889 18.0046C70.3889 18.0531 70.3889 18.1015 70.3889 18.1015C70.4374 18.2952 70.4858 18.4405 70.5827 18.5857C70.7764 18.8763 71.0669 19.1184 71.4059 19.2637C71.4059 19.2637 71.5028 19.3121 71.648 19.3121C71.8902 19.3606 72.1807 19.3606 72.4228 19.3606C73.0524 19.3606 73.5851 19.2637 73.9241 19.07C74.263 18.8763 74.5536 18.6342 74.6989 18.3436C74.8442 18.0531 74.9894 17.7625 74.9894 17.4719C75.0379 17.1814 75.0379 16.9393 75.0379 16.7456V15.5349ZM37.0233 15.2928C37.3139 15.777 37.4107 16.3097 37.4107 17.0361C37.4107 17.8594 37.217 18.5857 36.8296 19.1184C36.4422 19.6995 35.9095 20.1838 35.3284 20.5228C34.6989 20.8618 34.0209 21.1523 33.2461 21.2976C32.4713 21.4429 31.7449 21.5397 30.9701 21.5397C30.05 21.5397 29.2267 21.4429 28.4519 21.2492C27.6771 21.0555 26.9991 20.7649 26.418 20.3291C25.8369 19.9417 25.4011 19.409 25.0621 18.8279C24.7231 18.2468 24.5778 17.5204 24.5294 16.6971H27.7255C27.8224 17.6172 28.1613 18.2468 28.7909 18.5857C29.4204 18.9247 30.1468 19.1184 30.9701 19.1184C31.2606 19.1184 31.5996 19.1184 31.987 19.07C32.3744 19.0216 32.7134 18.9247 33.0524 18.8279C33.2945 18.731 33.4882 18.6342 33.6819 18.4405C33.9725 18.1499 34.1662 17.8109 34.1662 17.3751C34.1662 16.9393 33.9725 16.5518 33.6819 16.3097C33.3914 16.0676 33.0524 15.8739 32.665 15.7286C32.2291 15.5833 31.7449 15.438 31.1638 15.3412C30.5827 15.2443 30.05 15.0991 29.4689 15.0022C28.8877 14.8569 28.3066 14.7117 27.7739 14.5664C27.2413 14.3727 26.757 14.1305 26.3212 13.84C25.8853 13.5494 25.5463 13.162 25.2558 12.6778C25.0136 12.1935 24.8684 11.6124 24.8684 10.9344C24.8684 10.1596 25.0621 9.53006 25.4495 9.04579C25.8369 8.51311 26.3212 8.1257 26.9023 7.78671C27.4834 7.49616 28.1129 7.25403 28.8393 7.10875C29.5657 6.96347 30.2437 6.91504 30.8732 6.91504C31.5996 6.91504 32.326 7.0119 33.004 7.15717C33.7304 7.2056 34.3115 7.44773 34.8926 7.78671C35.4253 8.1257 35.9095 8.56153 36.2485 9.14265C36.5875 9.67533 36.8296 10.3533 36.9265 11.1281H33.6335C33.4882 10.4017 33.1492 9.91746 32.5681 9.62691C32.0354 9.38478 31.4059 9.2395 30.6795 9.2395C30.4374 9.2395 30.1952 9.2395 29.9047 9.28793C29.6141 9.33635 29.372 9.38478 29.1299 9.48163C28.5972 9.67533 28.2582 10.1596 28.2582 10.7407C28.2582 11.225 28.5003 11.6124 28.8877 11.8545C28.9846 11.9029 29.0814 11.9514 29.1783 11.9998C29.1783 11.9998 29.3236 12.0482 29.3236 12.0966C29.3236 12.0966 29.5173 12.1451 29.5173 12.1935C29.9531 12.3388 30.4374 12.4841 31.0185 12.5809C31.5996 12.6778 32.1323 12.823 32.7618 12.9199C33.3429 13.0652 33.9241 13.2104 34.4567 13.3557C35.0379 13.5494 35.5221 13.7916 35.958 14.0821C36.3938 14.4211 36.7328 14.8085 37.0233 15.2928Z" fill="white"/>
</g>
<defs>
<clipPath id="clip0_627_1093">
<rect width="96.9492" height="24" fill="white" transform="translate(0.800568 0.992188)"/>
</clipPath>
</defs>
</svg>
