<svg width="125" height="25" viewBox="0 0 125 25" fill="none" xmlns="http://www.w3.org/2000/svg">
<path d="M10.991 24.6371C10.9954 24.6371 10.9987 24.636 11.002 24.6338C11.594 24.4342 12.1759 24.2059 12.739 23.951L4.1308 7.137L3.28506 6.50962C3.15759 6.41208 3.07224 6.26576 3.07224 6.09396V3.48357C3.07224 3.33726 3.18974 3.21976 3.33272 3.21976C3.38704 3.21976 3.44468 3.2375 3.4868 3.26743L5.57289 4.8392C5.70701 4.94117 5.77463 5.09857 5.77463 5.2593L5.78128 6.30123C6.64919 5.80687 7.69556 5.56079 8.7641 5.56079C8.88935 5.56079 9.01239 5.56412 9.13653 5.57077C11.0309 5.66831 12.3399 6.93748 14.6122 7.05498C14.7353 7.06163 14.855 7.06495 14.9725 7.06495C16.6119 7.06495 17.768 6.47859 18.6414 5.99198C18.7412 7.32544 18.8387 8.80077 18.8875 10.1331L18.9119 11.4533C17.8777 12.2968 16.1873 13.035 15.223 13.035C13.6257 13.035 12.5406 12.0219 11.0298 12.0219C10.2882 12.0219 9.61982 12.2436 9.04232 12.626L14.3806 23.1074C15.0479 22.7162 15.6841 22.2805 16.2782 21.8006C16.2793 21.8006 16.2793 21.8006 16.2793 21.7995C18.7046 19.8386 20.4282 17.1329 20.8029 13.6369C21.0656 11.2028 20.5513 5.12518 20.3329 2.77084C20.2819 2.20886 19.9394 1.73334 19.3952 1.61917C17.9132 1.31213 14.6521 0.691406 10.8258 0.691406C6.99946 0.691406 3.73509 1.31213 2.2531 1.61917C1.71329 1.73223 1.37078 2.20886 1.31757 2.77084C1.0981 5.12407 0.583785 11.2028 0.844269 13.6369C1.43729 19.1392 5.37004 22.6829 10.1197 24.4453C10.3525 24.5318 10.5886 24.6138 10.8258 24.6914C10.8801 24.6759 10.9355 24.657 10.991 24.6371ZM18.8576 13.4285C18.5483 16.3193 17.1218 18.6149 15.008 20.3108L12.0972 14.6179C11.8821 14.1967 11.5474 13.9096 11.5086 13.8741C12.4164 14.1579 13.4861 14.854 15.223 14.854C16.889 14.854 18.3056 13.8675 18.8676 13.3454L18.8576 13.4285ZM10.8258 2.66C14.037 2.66 16.8447 3.10781 18.433 3.41707C18.433 3.41707 18.4807 4.02117 18.5073 4.33597C17.6505 4.80373 16.5354 5.33246 14.978 5.33246C14.8583 5.33246 14.7364 5.32913 14.6111 5.32359C12.3399 5.20498 11.0852 4.03447 9.19085 3.93471C9.08555 3.92917 8.98135 3.92584 8.87716 3.92584C8.28968 3.92584 7.72327 4.0123 7.18457 4.17192L5.51636 3.04352C7.00721 2.83513 8.83615 2.66 10.8258 2.66ZM9.31499 21.9735C5.77463 20.2632 3.22631 17.4123 2.79735 13.4285C2.68096 12.3356 2.74082 10.336 2.86164 8.30197L9.81047 22.1985C9.64309 22.1254 9.47793 22.05 9.31499 21.9735Z" fill="white"/>
<path d="M85.2086 16.0785C84.8263 16.5458 84.2741 16.8431 83.6582 16.8644C82.7874 16.8644 82.2564 16.1635 82.2564 14.4856C82.2564 12.7228 82.8299 12.0644 83.7431 12.0644C84.2741 12.0856 84.8051 12.2768 85.2086 12.6166V16.0785ZM87.1414 18.3086V6.90332L85.2086 7.17943V11.3635C84.6776 10.9175 84.0829 10.429 83.0422 10.429C81.2369 10.429 80.2175 11.937 80.2175 14.5069C80.2175 17.0131 81.3856 18.4573 83.1484 18.4573C83.998 18.4361 84.8051 18.0325 85.336 17.3741L85.4635 18.2874L87.1414 18.3086ZM79.9414 12.1918V10.4502C78.306 10.4715 77.4139 11.5971 77.1378 11.8945L76.9891 10.6201H75.3325V18.3299H77.2653V13.2538C77.5838 12.9564 78.306 12.2131 79.9414 12.1918ZM71.5945 16.4608C71.2334 16.8219 70.7449 17.0343 70.2352 17.0555C69.7042 17.0555 69.1945 16.8219 69.1945 15.9936C69.1945 14.9529 69.9378 14.698 71.5732 14.5918V16.4608H71.5945ZM73.4635 18.3086V13.4874C73.4635 11.7883 73.421 10.4502 70.9785 10.4502C69.9591 10.4927 68.9396 10.7263 68.0051 11.1299L68.3449 12.2343C68.9821 12.0431 69.6617 11.9369 70.3201 11.9157C71.4458 11.9157 71.5945 12.3193 71.5945 13.2113V13.6148C69.8529 13.721 67.3467 13.6573 67.3467 16.0785C67.3467 17.7139 68.2812 18.4785 69.4706 18.4785C70.3201 18.4361 71.106 18.075 71.6794 17.4378L71.8281 18.3086H73.4635ZM64.1184 16.0998C63.7361 16.567 63.1838 16.8644 62.5679 16.8856C61.6971 16.8856 61.1661 16.1847 61.1661 14.5069C61.1661 12.744 61.7396 12.0856 62.6529 12.0856C63.1838 12.1069 63.7148 12.298 64.1184 12.6378V16.0998ZM66.0511 18.3086V6.90332L64.1184 7.17943V11.3635C63.5874 10.9175 62.9927 10.429 61.952 10.429C60.1467 10.429 59.1272 11.937 59.1272 14.5069C59.1272 17.0131 60.2954 18.4573 62.0582 18.4573C62.9077 18.4361 63.7148 18.0325 64.2458 17.3741L64.3732 18.2874L66.0511 18.3086ZM57.598 18.3086V13.275C57.598 12.0219 57.5343 10.429 55.4316 10.429C54.3272 10.429 53.2653 11.2148 52.798 11.6184L52.6493 10.5989H50.9715V18.3086H52.9042V12.744C53.2015 12.5529 53.9662 12.0431 54.667 12.0431C55.5378 12.0431 55.6228 12.6591 55.6228 13.6361V18.3086H57.598ZM47.3608 16.4608C46.9998 16.8219 46.5113 17.0343 46.0016 17.0555C45.4706 17.0555 44.9608 16.8219 44.9608 15.9936C44.9608 14.9529 45.7042 14.698 47.3396 14.5918V16.4608H47.3608ZM49.2299 18.3086V13.4874C49.2299 11.7883 49.1874 10.4502 46.7449 10.4502C45.7254 10.4927 44.706 10.7263 43.7715 11.1299L44.1113 12.2343C44.7485 12.0431 45.4281 11.9369 46.0865 11.9157C47.2122 11.9157 47.3608 12.3193 47.3608 13.2113V13.6148C45.6193 13.721 43.1131 13.6573 43.1131 16.0785C43.1131 17.7139 44.0476 18.4785 45.237 18.4785C46.0865 18.4361 46.8723 18.075 47.4458 17.4378L47.5945 18.3086H49.2299ZM42.667 17.9263L42.2635 16.8219C41.86 16.9706 41.4352 17.0555 40.9892 17.0555C40.1821 17.0555 40.1396 16.5458 40.1396 15.9086V11.9157H42.2635L42.4547 10.5989H40.1608V8.15642L38.483 8.43253L38.2069 10.5989L36.9113 10.8325V11.8945H38.2069V15.6325C38.2069 16.6945 38.2493 17.5228 38.8016 18.0113C39.1201 18.2874 39.6299 18.4785 40.352 18.4785C41.1591 18.4785 41.9662 18.2874 42.667 17.9263ZM36.7839 15.0803C36.7839 13.2325 35.637 12.5741 34.044 12.0644C32.621 11.6184 31.729 11.3423 31.729 10.3865C31.729 9.3458 32.5998 8.92102 33.5768 8.92102C34.4051 8.94226 35.2334 9.09093 35.998 9.36704L36.444 8.00775C35.4883 7.60421 34.4688 7.39182 33.4281 7.37058C31.1343 7.37058 29.7113 8.55996 29.7113 10.5352C29.7113 13.5936 32.9821 13.3812 34.2564 14.3582C34.575 14.5918 34.7662 14.9741 34.7662 15.3564C34.7662 16.2697 33.9803 16.9069 32.7272 16.9069C31.8777 16.9069 31.0281 16.6945 30.2635 16.2909L29.5839 17.629C29.6688 17.7139 30.8794 18.4573 32.8334 18.4573C35.3821 18.4573 36.8051 17.2042 36.7839 15.0803ZM124.288 18.3299L121.081 14.2945L124.076 10.6201H122.016L119.255 14.0608V6.92456L117.322 7.20067V18.3299H119.255V14.7193L122.037 18.3299H124.288ZM115.559 18.3299V13.2962C115.559 12.0431 115.495 10.4502 113.393 10.4502C112.288 10.4502 111.226 11.2361 110.759 11.6396L110.61 10.6201H108.932V18.3299H110.865V12.7653C111.163 12.5741 111.927 12.0644 112.628 12.0644C113.499 12.0644 113.605 12.6803 113.605 13.6573V18.3299H115.559ZM105.343 16.4608C104.982 16.8219 104.494 17.0343 103.984 17.0555C103.453 17.0555 102.943 16.8219 102.943 15.9936C102.943 14.9529 103.686 14.698 105.322 14.5918V16.4608H105.343ZM107.212 18.3086V13.4874C107.212 11.7883 107.17 10.4502 104.727 10.4502C103.708 10.4927 102.688 10.7263 101.754 11.1299L102.094 12.2343C102.731 12.0431 103.41 11.9369 104.069 11.9157C105.194 11.9157 105.343 12.3193 105.343 13.2113V13.6148C103.602 13.721 101.095 13.6573 101.095 16.0785C101.095 17.7139 102.03 18.4785 103.219 18.4785C104.069 18.4361 104.855 18.075 105.428 17.4378L105.577 18.3086H107.212ZM97.9095 15.1228C97.9095 15.9086 97.5909 16.3971 97.1024 16.652C96.6139 16.8856 96.1254 16.8856 95.2546 16.8856H94.5113V13.4874H95.552C96.5077 13.4874 96.8475 13.5299 97.1874 13.721C97.6546 13.9334 97.9307 14.4007 97.9095 15.1228ZM97.7821 10.429C97.7821 11.6608 97.2086 12.1069 95.3396 12.1069H94.5113V8.94226H95.552C96.5077 8.94226 96.8688 8.98474 97.2298 9.19713C97.5909 9.47324 97.8245 9.94049 97.7821 10.429ZM99.9909 15.3777C99.9909 13.7423 99.0989 12.9139 97.506 12.744C98.9927 12.5104 99.736 11.6396 99.736 10.1741C99.736 7.51925 97.4422 7.47677 95.4883 7.47677H92.536V18.2874H95.1697C97.0599 18.2874 97.6121 18.2237 98.2706 17.9688C99.3537 17.6077 100.055 16.5458 99.9909 15.3777Z" fill="white"/>
</svg>
