<svg width="80" height="24" viewBox="0 0 80 24" fill="none" xmlns="http://www.w3.org/2000/svg">
<path d="M18.2672 13.4493V3.91602H21.5508V13.4493C21.5508 15.183 22.7935 16.4717 24.4353 16.4717C26.0771 16.4717 27.2978 15.183 27.2978 13.4493V3.91602H30.5814V13.4493C30.5814 17.0269 27.963 19.6715 24.4353 19.6715C20.8844 19.6715 18.2672 17.0269 18.2672 13.4493Z" fill="white"/>
<path d="M48.4906 11.6914C48.4906 16.2471 45.0741 19.6914 40.5478 19.6914C36.0215 19.6914 32.6268 16.2471 32.6268 11.6914C32.6268 7.13571 36.0215 3.69141 40.5478 3.69141C45.0741 3.69141 48.4906 7.13571 48.4906 11.6914ZM35.9995 11.6914C35.9995 14.4253 37.9526 16.4916 40.5478 16.4916C43.1442 16.4916 45.0961 14.4253 45.0961 11.6914C45.0961 8.95754 43.1442 6.89117 40.5478 6.89117C37.9526 6.89117 35.9995 8.9587 35.9995 11.6914Z" fill="white"/>
<path d="M53.3345 3.91602L59.6574 12.9834V3.91602H62.9412V19.4721H60.1897L53.8227 10.4048V19.4721H50.5388V3.91602H53.3345Z" fill="white"/>
<path d="M74.9669 16.8716H68.9771L67.9783 19.471H64.4956L70.6629 3.91602H73.3252L79.5152 19.4721H75.9434L74.9669 16.8716ZM73.8803 14.0496L71.9943 9.07205L70.0646 14.0496H73.8803Z" fill="white"/>
<path d="M17.235 19.4701L10.412 12.2581H6.73619L10.1656 15.9064C9.51074 16.2819 8.74938 16.4916 7.92097 16.4916C5.32577 16.4916 3.37272 14.4253 3.37272 11.6914C3.37272 8.95754 5.32577 6.89117 7.92097 6.89117C10.5173 6.89117 12.4692 8.95754 12.4692 11.6914C12.4692 12.505 12.2933 13.2571 11.9821 13.9154C13.0686 13.9154 14.5773 13.9154 15.5747 13.9154C15.7621 13.2142 15.8639 12.4691 15.8639 11.6914C15.8628 7.13571 12.4472 3.69141 7.92097 3.69141C3.3947 3.69141 0 7.13571 0 11.6914C0 16.2471 3.3947 19.6914 7.92097 19.6914C9.63219 19.6914 11.1826 19.1966 12.4507 18.3378L13.514 19.4701H17.235Z" fill="white"/>
</svg>
