<svg width="45" height="25" viewBox="0 0 45 25" fill="none" xmlns="http://www.w3.org/2000/svg">
<path fill-rule="evenodd" clip-rule="evenodd" d="M3.55348 18.9923C3.87301 19.6792 4.32826 20.1837 4.91924 20.5059L4.91609 20.5078C5.50703 20.8304 6.17799 20.9917 6.92896 20.9917C7.60409 21.0017 8.27317 20.8618 8.88863 20.5819C9.47143 20.3092 9.98494 19.9064 10.3905 19.4041C10.8084 18.89 11.1285 18.2656 11.3511 17.5311C11.5735 16.7965 11.6848 15.9666 11.6848 15.0414C11.6927 14.2398 11.5765 13.4418 11.3403 12.6763C11.1353 11.9986 10.8087 11.3646 10.3766 10.8058C9.97153 10.2897 9.45872 9.86974 8.87472 9.57569C8.26392 9.27508 7.59145 9.12394 6.91186 9.13458C6.13137 9.13415 5.47708 9.30226 4.94901 9.6389C4.40497 9.99098 3.9426 10.4571 3.59337 11.0056H3.53005C3.55747 10.6694 3.58174 10.2734 3.60285 9.81763C3.62398 9.36184 3.63451 8.89583 3.63451 8.4196V4.99219H0.360352V20.6323H3.51168V18.9923H3.55348ZM8.34728 15.0204C8.34728 16.0298 8.15606 16.8359 7.77361 17.4385L7.77615 17.4366C7.39414 18.0392 6.82066 18.3405 6.0558 18.3405C5.26347 18.3405 4.64485 18.0356 4.19996 17.4258C3.75503 16.8159 3.53258 16.0205 3.53258 15.0395C3.52998 14.5868 3.57905 14.1352 3.67885 13.6938C3.76122 13.3076 3.91593 12.9408 4.13472 12.6131C4.33747 12.3173 4.60503 12.0727 4.9167 11.8981C5.26019 11.7158 5.64434 11.6254 6.03238 11.6357C6.81327 11.6357 7.3937 11.9474 7.77361 12.5709C8.15606 13.1944 8.34728 14.0109 8.34728 15.0204Z" fill="white"/>
<path fill-rule="evenodd" clip-rule="evenodd" d="M19.2379 19.2701C19.2584 19.551 19.3073 19.8291 19.3842 20.1L19.3854 20.1032C19.4366 20.2918 19.5138 20.4723 19.6146 20.6394H22.8033V20.4479C22.5255 20.2653 22.3867 19.7468 22.3867 18.8922V13.1526C22.3871 12.3955 22.2513 11.7333 21.9795 11.166C21.7019 10.5908 21.2538 10.1168 20.6973 9.80943C20.2784 9.5599 19.8197 9.38559 19.3417 9.29426C18.7362 9.18111 18.1212 9.1283 17.5055 9.13658C16.6833 9.13701 15.9673 9.23873 15.3577 9.44172C14.7482 9.64473 14.2417 9.91795 13.8381 10.2614C13.4604 10.5768 13.1534 10.9695 12.9377 11.4136C12.722 11.8577 12.6025 12.343 12.587 12.8372H15.6135C15.6553 12.3882 15.8326 12.0308 16.1454 11.7648C16.4582 11.4988 16.9273 11.3658 17.553 11.3658C18.1228 11.3654 18.5399 11.4879 18.8041 11.7335C19.0684 11.979 19.2005 12.3048 19.2005 12.7108C19.2005 13.1313 18.9814 13.4396 18.5433 13.6358C18.1051 13.832 17.3926 14.0003 16.4057 14.1408C15.8299 14.2035 15.2588 14.3042 14.696 14.4421C14.2073 14.5599 13.7409 14.7579 13.3158 15.0281C12.9307 15.2758 12.6119 15.6152 12.3875 16.0163C12.1583 16.4211 12.0437 16.9318 12.0437 17.5484C12.0346 18.05 12.1307 18.548 12.3255 19.0096C12.5018 19.4223 12.7734 19.7865 13.1176 20.0719C13.4766 20.3606 13.8871 20.5773 14.3269 20.7103C14.8168 20.8612 15.3267 20.9357 15.839 20.9311C16.7018 20.9311 17.3864 20.7839 17.893 20.4894C18.4115 20.185 18.8568 19.7686 19.1967 19.2701H19.2379ZM19.1164 17.4594C19.003 17.7238 18.8343 17.9604 18.6218 18.153L18.6243 18.1549C18.1866 18.5617 17.5993 18.7652 16.8622 18.7652C16.4168 18.7647 16.0344 18.6664 15.7148 18.4702C15.3954 18.274 15.2356 17.9308 15.2356 17.4405C15.2347 16.9498 15.4084 16.5924 15.7566 16.3681C16.1049 16.1438 16.6402 15.9546 17.3624 15.8006C17.7242 15.7154 18.0745 15.6271 18.4135 15.5356C18.719 15.4594 19.0109 15.3353 19.2784 15.1679V16.6209C19.285 16.9089 19.2298 17.1949 19.1164 17.4594Z" fill="white"/>
<path d="M26.0596 20.7159C25.4719 20.5583 24.9172 20.2947 24.4228 19.9377C23.9848 19.6196 23.6219 19.2076 23.3605 18.7313C23.0992 18.2551 22.9455 17.7264 22.9108 17.1832H25.9969C26.0944 17.716 26.3341 18.1226 26.7162 18.4031C27.0982 18.6836 27.6091 18.8236 28.2491 18.8231C28.8329 18.8231 29.2847 18.711 29.6047 18.4867C29.9247 18.2624 30.0838 17.9479 30.0822 17.5432C30.0871 17.4312 30.0693 17.3194 30.0299 17.2145C29.9905 17.1097 29.9303 17.0141 29.853 16.9336C29.6738 16.7636 29.4604 16.6345 29.2273 16.555C28.933 16.4479 28.63 16.3664 28.3219 16.3112C27.9812 16.2477 27.6164 16.1811 27.2271 16.1113C26.7269 16.013 26.2405 15.9009 25.7677 15.7749C25.3155 15.6579 24.8857 15.4661 24.4956 15.2074C24.1201 14.9547 23.8092 14.6161 23.5882 14.2192C23.359 13.8123 23.2444 13.2804 23.2444 12.6233C23.2444 12.0483 23.366 11.5436 23.6092 11.1091C23.8532 10.6741 24.1918 10.3004 24.5995 10.0162C25.0494 9.70687 25.5511 9.48217 26.0804 9.35289C26.6809 9.20204 27.2978 9.12784 27.9167 9.132C29.46 9.132 30.6277 9.43694 31.42 10.0468C31.8013 10.3301 32.1231 10.6869 32.3666 11.0965C32.6101 11.5061 32.7704 11.9604 32.8384 12.433H29.7935C29.5853 11.6346 28.9598 11.2352 27.9167 11.2348C27.4165 11.2348 27.0167 11.3329 26.7175 11.5291C26.5755 11.6165 26.4591 11.7405 26.3803 11.8882C26.3016 12.036 26.2631 12.2022 26.2691 12.3698C26.2658 12.4657 26.2827 12.5612 26.3187 12.65C26.3547 12.7389 26.4091 12.8189 26.478 12.885C26.6468 13.0353 26.8461 13.1467 27.0619 13.2112C27.348 13.304 27.6407 13.3742 27.9375 13.4212C28.2715 13.4774 28.626 13.5412 29.0013 13.6127C29.5015 13.6979 30.0019 13.8064 30.5025 13.9383C30.9837 14.0629 31.4415 14.2653 31.8582 14.5377C32.2659 14.8089 32.605 15.1725 32.8485 15.5994C33.1056 16.0411 33.2341 16.6123 33.2341 17.3128C33.2341 17.9154 33.1092 18.4474 32.8592 18.9087C32.6078 19.3723 32.2503 19.7689 31.8164 20.0654C31.3342 20.3902 30.7981 20.6251 30.2335 20.7587C29.578 20.9183 28.9057 20.9961 28.2314 20.9904C27.4995 20.9999 26.7698 20.908 26.0627 20.7172L26.0596 20.7159Z" fill="white"/>
<path d="M37.1186 9.93257V9.51188L37.1167 9.51444V4.99414H33.8425V20.6342H37.1167V14.3265C37.1167 13.6119 37.3113 13.0234 37.7005 12.5607C38.0897 12.0981 38.6041 11.8668 39.2436 11.8668C39.8552 11.8677 40.3175 12.0535 40.6302 12.4241C40.943 12.7948 41.0994 13.2889 41.0994 13.9064V20.6342H44.3603V13.2757C44.3603 12.0139 44.0226 11.008 43.3472 10.2581C42.6718 9.50827 41.7221 9.13333 40.4979 9.13333C39.72 9.13333 39.0525 9.30165 38.4958 9.63829C37.9345 9.97991 37.4738 10.4663 37.161 11.0472H37.0977C37.0977 10.862 37.1009 10.675 37.1078 10.479C37.1148 10.283 37.1186 10.1005 37.1186 9.93257Z" fill="white"/>
</svg>
