<svg width="121" height="25" viewBox="0 0 121 25" fill="none" xmlns="http://www.w3.org/2000/svg">
<g clip-path="url(#clip0_626_638)">
<path d="M118.642 7.31795C118.005 7.15217 117.393 7.06928 116.819 7.06928C116.073 7.06928 115.397 7.22868 114.804 7.54111C114.211 7.85355 113.752 8.29351 113.42 8.86736C113.089 9.44122 112.923 10.098 112.923 10.8504C112.923 11.539 113.044 12.0873 113.286 12.489C113.529 12.8907 113.86 13.1968 114.281 13.4136C114.702 13.624 115.269 13.828 115.983 14.0257C116.525 14.1851 116.959 14.3509 117.278 14.5167C117.603 14.6888 117.762 14.9503 117.762 15.3073C117.762 15.6644 117.622 15.9577 117.335 16.149C117.048 16.3403 116.717 16.4359 116.34 16.4359C115.486 16.4359 114.619 16.047 113.733 15.2691L112.476 17.6283C113.701 18.4827 115.027 18.9099 116.449 18.9099C117.75 18.9099 118.814 18.5592 119.656 17.8514C120.434 17.1947 120.823 16.1872 120.823 14.8227C120.823 13.9747 120.581 13.3179 120.09 12.8461C119.599 12.3679 118.916 12.0045 118.036 11.7494L117.29 11.5262C116.895 11.3923 116.576 11.2584 116.34 11.1054C116.105 10.9588 115.983 10.7356 115.983 10.4487C115.983 10.1617 116.117 9.92581 116.379 9.76003C116.646 9.59425 116.933 9.51136 117.239 9.51136C117.934 9.51136 118.585 9.76003 119.191 10.2574L120.357 7.98745C119.854 7.70052 119.286 7.47735 118.649 7.31157M103.894 7.36258H100.955V18.6166H103.894V14.0066H108.134V18.6166H111.074V7.36896H108.134V11.7111H103.894V7.36896V7.36258ZM99.8962 9.84292V7.36896H92.1109V9.8493H94.5338V18.6229H97.4733V9.8493H99.8962V9.84292ZM86.0152 9.60063C86.3978 9.60063 86.7358 9.63251 87.0291 9.70264C87.3224 9.77278 87.5647 9.91306 87.756 10.1235C87.9472 10.3275 88.0493 10.6208 88.0493 11.0034C88.0493 11.386 87.9536 11.6729 87.756 11.8833C87.5647 12.0937 87.316 12.2276 87.0227 12.2978C86.7294 12.3679 86.3914 12.4062 86.0089 12.4062H85.7219V9.60063H86.0089H86.0152ZM89.9749 13.4072C90.3447 13.1075 90.6252 12.7313 90.8165 12.285C91.0078 11.8323 91.1035 11.3477 91.1035 10.8249C91.1035 10.0533 90.9377 9.40934 90.5997 8.88649C90.2618 8.36364 89.8027 7.98107 89.2097 7.7324C88.6167 7.48373 87.9409 7.36258 87.1757 7.36258H82.7889V18.6166H85.7283V14.2871H85.7602L88.5275 18.6166H92.1874L88.6359 14.0066C89.1587 13.9109 89.6051 13.7133 89.9749 13.4136M76.7761 10.2446C77.2671 10.5188 77.6561 10.8886 77.943 11.3477C78.2299 11.8068 78.3766 12.2914 78.3766 12.8015C78.3766 13.4327 78.2363 14.0066 77.9494 14.5167C77.6624 15.0268 77.2799 15.4285 76.7889 15.7218C76.3043 16.0151 75.7687 16.1554 75.1885 16.1554C74.6082 16.1554 74.079 16.0087 73.5881 15.7218C73.0971 15.4348 72.7145 15.0331 72.4276 14.5167C72.1407 14.0066 72.0004 13.4327 72.0004 12.7951C72.0004 12.285 72.147 11.8004 72.434 11.3413C72.7209 10.8822 73.1162 10.5188 73.6072 10.2382C74.0981 9.95769 74.6274 9.82379 75.1949 9.82379C75.7623 9.82379 76.2979 9.96407 76.7889 10.2382M72.8548 7.41359C72.1024 7.69414 71.4265 8.09584 70.8399 8.61869C70.2533 9.14154 69.7942 9.75365 69.4563 10.4678C69.1183 11.1755 68.9526 11.9471 68.9526 12.7823C68.9526 13.675 69.1056 14.5039 69.4116 15.2627C69.7177 16.0278 70.1513 16.6846 70.7188 17.2457C71.2862 17.8068 71.9494 18.2404 72.7145 18.5401C73.4797 18.8397 74.3086 18.9928 75.2076 18.9928C76.1066 18.9928 76.9356 18.8397 77.7007 18.5401C78.4658 18.2404 79.129 17.8132 79.6901 17.2521C80.2512 16.6973 80.6848 16.0342 80.9908 15.2691C81.2969 14.5039 81.4499 13.675 81.4499 12.7823C81.4499 11.9534 81.2777 11.1819 80.9462 10.4678C80.6082 9.76003 80.1492 9.14154 79.5625 8.61869C78.9759 8.09584 78.3064 7.69414 77.554 7.41359C76.8017 7.13304 76.0174 6.98639 75.2076 6.98639C74.3978 6.98639 73.6199 7.12666 72.8612 7.41359M51.6157 7.36258L54.9823 18.6166H57.96L60.1789 12.0937H60.2108L62.1874 18.6166H65.1842L68.7676 7.36896H65.7134L63.5838 14.6314H63.5519L61.333 7.36896H58.9929L56.6274 14.6314H56.5955L54.6316 7.36896H51.5774L51.6157 7.36258ZM45.3798 7.36258V18.6166H51.8389V16.1362H48.3192V7.36896H45.3798V7.36258ZM39.3606 10.2382C39.8516 10.5124 40.2406 10.8822 40.5275 11.3413C40.8144 11.8004 40.9611 12.285 40.9611 12.7951C40.9611 13.4263 40.8208 14.0002 40.5339 14.5103C40.2469 15.0204 39.8644 15.4221 39.3734 15.7154C38.8824 16.0087 38.3532 16.149 37.773 16.149C37.1927 16.149 36.6635 16.0023 36.1725 15.7154C35.6816 15.4285 35.299 15.0268 35.0121 14.5103C34.7251 14.0002 34.5849 13.4263 34.5849 12.7887C34.5849 12.2786 34.7315 11.794 35.0185 11.3349C35.3054 10.8759 35.6943 10.5124 36.1853 10.2319C36.6763 9.95132 37.2055 9.81742 37.773 9.81742C38.3404 9.81742 38.876 9.95769 39.367 10.2319M35.4329 7.40721C34.6741 7.68777 34.0046 8.08947 33.418 8.61231C32.8314 9.13516 32.3723 9.74728 32.0344 10.4614C31.6965 11.1692 31.5307 11.9407 31.5307 12.776C31.5307 13.6686 31.6837 14.4975 31.9898 15.2563C32.2958 16.0215 32.7294 16.6782 33.2969 17.2393C33.8644 17.8004 34.5275 18.234 35.2926 18.5337C36.0578 18.8334 36.8867 18.9864 37.7857 18.9864C38.6848 18.9864 39.5137 18.8334 40.2788 18.5337C41.044 18.234 41.7071 17.8068 42.2682 17.2457C42.8293 16.691 43.2629 16.0278 43.5689 15.2627C43.875 14.4975 44.028 13.6686 44.028 12.776C44.028 11.9471 43.8622 11.1755 43.5243 10.4614C43.1864 9.75365 42.7273 9.13516 42.1407 8.61231C41.5541 8.08947 40.8846 7.68777 40.1322 7.40721C39.3798 7.12666 38.5955 6.98001 37.7857 6.98001C36.9759 6.98001 36.198 7.12029 35.4393 7.40721M26.0854 10.2319C26.5764 10.506 26.9653 10.8759 27.2522 11.3349C27.5392 11.794 27.6858 12.2786 27.6858 12.7887C27.6858 13.42 27.5456 13.9938 27.2586 14.5039C26.9717 15.014 26.5891 15.4157 26.0982 15.709C25.6072 16.0023 25.078 16.1426 24.4977 16.1426C23.9175 16.1426 23.3883 15.9959 22.8973 15.709C22.4063 15.4221 22.0238 15.0204 21.7368 14.5039C21.4499 13.9938 21.3096 13.42 21.3096 12.7823C21.3096 12.2723 21.4563 11.7877 21.7432 11.3286C22.0301 10.8695 22.4191 10.506 22.9164 10.2255C23.4074 9.94494 23.9366 9.81104 24.5041 9.81104C25.0716 9.81104 25.6072 9.95132 26.0982 10.2255M22.164 7.40084C21.4117 7.68139 20.7358 8.08309 20.1492 8.60594C19.5626 9.12879 19.0971 9.7409 18.7655 10.455C18.4276 11.1628 18.2618 11.9343 18.2618 12.7696C18.2618 13.6623 18.4148 14.4912 18.7209 15.2499C19.027 16.0151 19.4605 16.6718 20.028 17.2329C20.5955 17.794 21.2586 18.2276 22.0238 18.5273C22.7889 18.827 23.6178 18.98 24.5169 18.98C25.4159 18.98 26.2448 18.827 27.01 18.5273C27.7751 18.2276 28.4382 17.8004 28.9993 17.2393C29.5604 16.6846 29.994 16.0215 30.3001 15.2563C30.6061 14.4912 30.7592 13.6623 30.7592 12.7696C30.7592 11.9407 30.5934 11.1692 30.2554 10.455C29.9175 9.74728 29.4584 9.12879 28.8718 8.60594C28.2852 8.08309 27.6157 7.68139 26.8633 7.40084C26.1109 7.12029 25.3266 6.97363 24.5169 6.97363C23.7071 6.97363 22.9292 7.11391 22.1704 7.40084M0.867554 7.36896L4.23418 18.6229H7.21187L9.43078 12.1001H9.46266L11.4393 18.6229H14.4361L18.0514 7.36896H14.9972L12.8676 14.6314H12.8357L10.6168 7.36896H8.28307L5.9175 14.6314H5.88562L3.92175 7.36896H0.867554Z" fill="white"/>
</g>
<defs>
<clipPath id="clip0_626_638">
<rect width="119.949" height="12" fill="white" transform="translate(0.867554 6.99219)"/>
</clipPath>
</defs>
</svg>
