<svg width="116" height="25" viewBox="0 0 116 25" fill="none" xmlns="http://www.w3.org/2000/svg">
<path d="M115.878 19.9845H112.262C112.039 18.1919 111.815 16.3974 111.591 14.601L111.522 14.5868L111.026 15.837C110.877 16.2052 110.717 16.5706 110.583 16.9445C110.567 17.0215 110.522 17.0893 110.457 17.1335C110.392 17.1778 110.312 17.1949 110.235 17.1815C109.721 17.1815 109.207 17.1815 108.656 17.1815L108.3 19.9845H104.683C105.254 15.3346 105.825 10.6962 106.396 6.03771H110.018C109.673 8.84077 109.327 11.6296 108.979 14.4526H111.548C111.225 11.6353 110.883 8.85219 110.535 6.02344H114.157C114.731 10.6676 115.304 15.3089 115.878 19.9845Z" fill="white"/>
<path d="M61.0499 19.9847H57.4305L56.7482 14.4984C56.6626 14.6554 56.6169 14.7239 56.5855 14.801C56.3001 15.4946 56.0147 16.1883 55.7606 16.8904C55.74 16.9836 55.6843 17.0652 55.6051 17.1183C55.5259 17.1715 55.4293 17.1921 55.3353 17.1759C54.9699 17.1559 54.6017 17.1959 54.2392 17.1759C53.8767 17.1559 53.791 17.2701 53.7596 17.6012C53.6883 18.389 53.5713 19.1769 53.4742 19.9847H49.8491C50.4199 15.3234 50.9908 10.6849 51.5617 6.03215H55.1869C54.8386 8.84092 54.4932 11.6297 54.145 14.4528H56.7482L55.7007 6.0293H59.3172C59.8881 10.6649 60.459 15.3062 61.0499 19.9847Z" fill="white"/>
<path d="M6.77541 19.9006C6.13316 15.2736 5.49377 10.6636 4.84866 6.02516H8.43099C8.91053 9.55896 9.39198 13.1013 9.87534 16.6523H9.96382C10.4434 13.1146 10.9258 9.56943 11.411 6.0166H14.9905C14.3454 10.6522 13.706 15.2678 13.0752 19.9006H6.77541Z" fill="white"/>
<path d="M85.3945 19.9836C84.2699 19.9836 83.1995 19.9836 82.129 19.9836C82.0348 19.9836 81.9093 19.8152 81.8607 19.6982C80.8274 17.1882 79.7979 14.6753 78.7722 12.1596C78.7263 12.0371 78.6586 11.9239 78.5724 11.8256V19.9636H74.9473V6.02539H78.541V11.6172C79.2232 11.6172 79.8683 11.6172 80.5134 11.6172C80.5905 11.6172 80.6961 11.4374 80.7247 11.3318C80.9432 10.5514 80.9833 9.73179 80.842 8.93378C80.7006 8.13576 80.3815 7.37978 79.9083 6.72187C79.7627 6.50494 79.6057 6.29942 79.4259 6.05108C79.5344 6.05108 79.6057 6.02539 79.6771 6.02539C80.7275 6.02539 81.7779 6.02539 82.817 6.02539C82.8895 6.02912 82.9605 6.04837 83.025 6.08186C83.0895 6.11534 83.1461 6.16228 83.1909 6.21949C84.0432 7.78103 84.3258 9.59045 83.9901 11.3375C83.9473 11.5687 83.856 11.623 83.6333 11.623C83.0425 11.6087 82.4487 11.623 81.7751 11.623L85.3945 19.9836Z" fill="white"/>
<path d="M66.3706 11.6164H70.4182C70.3154 11.8762 70.2326 12.096 70.147 12.31C69.9215 12.8809 69.676 13.4518 69.4734 14.0227C69.4507 14.1255 69.3888 14.2153 69.3007 14.2729C69.2127 14.3305 69.1056 14.3514 69.0024 14.331C68.146 14.3167 67.2897 14.331 66.3934 14.331V19.9828H62.7854V6.03027H66.3706V11.6164Z" fill="white"/>
<path d="M20.6018 6.01367H24.1641V11.577H28.2032L27.8207 12.5418C27.6294 13.027 27.4268 13.5094 27.2498 14.0004C27.2293 14.0875 27.1769 14.1636 27.1028 14.2139C27.0288 14.2641 26.9387 14.2847 26.8502 14.2716C25.9938 14.2716 25.1175 14.2716 24.2098 14.2716V19.892H20.6018V6.01367Z" fill="white"/>
<path d="M36.6195 5.9968C36.4882 6.36217 36.3826 6.67044 36.2684 6.97872C36.0664 7.47118 36.0025 8.00936 36.0835 8.53542C36.1645 9.06149 36.3873 9.55553 36.728 9.96447C37.8012 11.3631 38.8821 12.758 39.9706 14.1491C40.9069 15.2623 41.3782 16.6936 41.2865 18.1453C41.2201 18.6849 41.1113 19.2184 40.9611 19.7409C40.9425 19.7878 40.9127 19.8294 40.8744 19.8622C40.8361 19.8951 40.7905 19.9181 40.7413 19.9293C39.5453 19.9293 38.3464 19.9293 37.1133 19.9293C37.2246 19.5782 37.3217 19.2528 37.4359 18.9331C37.6363 18.4162 37.692 17.8544 37.597 17.3082C37.5019 16.762 37.2597 16.252 36.8964 15.8332C35.806 14.4459 34.7251 13.0511 33.6537 11.6486C33.0525 10.9142 32.6475 10.0393 32.4768 9.10567C32.306 8.17207 32.3751 7.2104 32.6775 6.31079C32.6851 6.26185 32.7024 6.2149 32.7282 6.17263C32.754 6.13036 32.7879 6.09359 32.8279 6.06443C32.8679 6.03526 32.9133 6.01428 32.9615 6.00268C33.0096 5.99107 33.0596 5.98907 33.1085 5.9968C34.2589 6.01107 35.4121 5.9968 36.6195 5.9968Z" fill="white"/>
<path d="M97.6691 19.9829C96.4645 19.9829 95.2542 19.9829 94.0468 19.9829C93.9383 19.9829 93.7871 19.8259 93.7385 19.6974C93.1543 18.3145 92.7699 16.8556 92.5968 15.3644C92.2161 12.5135 92.5034 9.61317 93.436 6.89239C93.75 5.99609 93.7499 5.99609 94.6919 5.99609H97.3637C97.4379 5.99609 97.5121 5.99609 97.572 5.99609C95.4426 10.6945 95.4455 15.3301 97.6691 19.9829Z" fill="white"/>
<path d="M4.35195 6.02344V19.8989H0.801025V6.02344H4.35195Z" fill="white"/>
<path d="M15.4837 19.8733V6.0293H19.0689V19.8733H15.4837Z" fill="white"/>
<path d="M90.6388 19.9836H87.1421V6.02539H90.6388V19.9836Z" fill="white"/>
<path d="M103.166 8.94601C101.939 8.94601 100.777 8.94601 99.6127 8.94601C99.5718 8.94415 99.5317 8.9335 99.4953 8.91478C99.4588 8.89607 99.4268 8.86972 99.4015 8.83754C99.0218 7.91556 98.6536 6.99072 98.2597 6.00879H99.7354C100.341 6.00879 100.946 6.00879 101.551 6.00879C101.656 6.00879 101.822 6.06017 101.856 6.13724C102.296 7.04781 102.704 7.96408 103.166 8.94601Z" fill="white"/>
<path d="M103.168 17.061C102.785 18.023 102.42 18.9506 102.043 19.8755C102.019 19.9092 101.987 19.9372 101.95 19.9574C101.914 19.9777 101.874 19.9896 101.832 19.9925C100.667 19.9925 99.5027 19.9925 98.2838 19.9925C98.3438 19.8498 98.3866 19.7385 98.4379 19.6329C98.7976 18.8479 99.1544 18.0601 99.5255 17.2808C99.5712 17.1866 99.6882 17.0667 99.7738 17.0667C100.89 17.0581 102.009 17.061 103.168 17.061Z" fill="white"/>
<path d="M42.4448 8.93086C41.2231 8.93086 40.0728 8.93086 38.9224 8.93086C38.8765 8.92761 38.8319 8.91414 38.7919 8.89142C38.7519 8.86869 38.7175 8.83731 38.6912 8.79955C38.3173 7.89184 37.9548 6.97557 37.5666 6.00506H38.5199C39.2964 6.00506 40.0699 6.00506 40.8435 6.00506C40.9009 6.00335 40.9579 6.01423 41.0107 6.03691C41.0635 6.05959 41.1106 6.09353 41.1489 6.13636C41.5828 7.04407 41.9995 7.96035 42.4448 8.93086Z" fill="white"/>
<path d="M31.2546 16.9922C32.4163 16.9922 33.5096 16.9922 34.6028 16.9922C34.645 16.9914 34.6869 16.9999 34.7254 17.0172C34.7639 17.0345 34.7981 17.0601 34.8255 17.0921C35.2594 18.0141 35.6818 18.939 36.1328 19.9238H35.2765C34.4202 19.9238 33.5438 19.9238 32.6789 19.9238C32.579 19.9238 32.4163 19.8638 32.3935 19.7896C32.0024 18.8819 31.6428 17.9656 31.2546 16.9922Z" fill="white"/>
<path d="M30.9919 6.03027V8.88471H27.4124V6.03027H30.9919Z" fill="white"/>
<path d="M73.178 8.85129H69.6157V6.02539H73.178V8.85129Z" fill="white"/>
</svg>
