<svg width="85" height="24" viewBox="0 0 85 24" fill="none" xmlns="http://www.w3.org/2000/svg">
<path d="M34.1228 10.9191C34.1228 10.3344 34.6852 9.90698 35.6303 9.90698C36.6648 9.90698 37.5651 10.244 38.2848 11.0997L39.837 9.4796C39.0269 8.35483 37.4971 7.70215 35.5623 7.70215C32.8175 7.70215 31.4227 9.27754 31.4227 10.92C31.4227 14.7896 37.2048 13.8446 37.2048 15.7794C37.2048 16.4544 36.6647 16.9041 35.607 16.9041C34.3249 16.9041 33.2896 16.4544 32.4572 15.5317L30.9274 17.2868C31.8501 18.3669 33.4022 19.109 35.4497 19.109C38.3743 19.109 39.9264 17.5568 39.9264 15.7347C39.9273 11.7068 34.1228 12.8092 34.1228 10.9191Z" fill="white"/>
<path d="M45.5716 8.01613V5.22656H42.8268V8.01613H40.9143V10.4463H42.8044V15.1036C42.8044 17.7358 44.1992 19.1082 46.3817 19.1082C47.7094 19.1082 48.7215 18.6138 49.3286 18.0282L48.0912 15.9807C47.8212 16.2954 47.3258 16.5207 46.8314 16.5207C46.0214 16.5207 45.594 16.0263 45.594 15.0133V10.4463H50.5964V18.7935H53.3413V8.01613H50.5964H45.5716Z" fill="white"/>
<path d="M51.9465 3.33691C51.0694 3.33691 50.3488 4.07901 50.3488 4.95701C50.3488 5.85736 51.0685 6.55475 51.9465 6.55475C52.8468 6.55475 53.5666 5.85736 53.5666 4.95701C53.5666 4.0799 52.846 3.33691 51.9465 3.33691Z" fill="white"/>
<path d="M60.7069 16.5207C59.8968 16.5207 59.4695 16.0263 59.4695 15.0133V10.4463H62.3717V8.01613H59.4471V5.22656H56.7023V8.01613H54.7898V10.4463H56.6799V15.1036C56.6799 17.7358 58.0747 19.1082 60.2572 19.1082C61.5849 19.1082 62.597 18.6138 63.2041 18.0282L61.9667 15.9807C61.6966 16.2954 61.2013 16.5207 60.7069 16.5207Z" fill="white"/>
<path d="M69.435 10.2888C70.4927 10.2888 71.3028 10.6267 71.9778 11.2785L73.5523 9.32135C72.6073 8.33159 71.1445 7.70215 69.3 7.70215C66.1501 7.70215 63.6753 10.2673 63.6753 13.4172C63.6753 16.5447 66.1501 19.109 69.3447 19.109C71.0542 19.109 72.6073 18.4339 73.462 17.4889L72.0672 15.4638C71.3922 16.1388 70.5151 16.5215 69.4127 16.5215C67.6576 16.5215 66.4202 15.1267 66.4202 13.3939C66.4202 11.6612 67.6352 10.2888 69.435 10.2888Z" fill="white"/>
<path d="M80.8025 7.70176C79.4747 7.70176 78.4403 8.19708 77.7652 9.07419V3.31445H75.0204V18.793H77.7652V12.6738C77.7652 11.2111 78.5976 10.2893 79.9701 10.2893C81.2978 10.2893 82.1526 11.212 82.1526 12.6738V18.793H84.8974V12.2679C84.8965 9.45686 83.2997 7.70176 80.8025 7.70176Z" fill="white"/>
<path fill-rule="evenodd" clip-rule="evenodd" d="M8.8791 22.9732C9.91357 22.9911 10.7978 23 11.6633 23C12.5279 23 13.3862 22.9911 14.2857 22.9723L14.3742 22.9696C15.5633 22.9195 16.6854 22.6576 17.7083 22.1891C18.7078 21.7313 19.5858 21.0911 20.3172 20.2864C21.0012 19.5354 21.5305 18.669 21.8917 17.7123C21.9909 17.4477 22.0777 17.1777 22.1492 16.905C23.5797 16.3721 24.869 15.4306 25.8293 14.2066C26.9728 12.7501 27.6023 10.9503 27.6023 9.1398C27.6023 7.99894 27.3617 6.89742 26.887 5.86654C26.4605 4.94115 25.8552 4.09713 25.0881 3.35682C23.6075 1.92985 21.5671 1.12517 19.188 1.02951L19.1433 1.02772L19.0977 1.02682C18.0596 1.00894 17.1754 1 16.3135 1C15.4498 1 14.5923 1.00894 13.6911 1.02772C13.6911 1.02772 13.624 1.0295 13.6017 1.0304C12.4126 1.08047 11.2905 1.34244 10.2685 1.81094C9.26893 2.26871 8.39093 2.90888 7.65956 3.71357C6.97558 4.4655 6.44628 5.33098 6.08507 6.28765C5.98583 6.5523 5.8991 6.82232 5.82757 7.09502C4.39703 7.6279 3.10775 8.56937 2.14749 9.79338C1.00395 11.2499 0.374512 13.0497 0.374512 14.8602C0.374512 16.0011 0.615022 17.1026 1.08978 18.1335C1.51627 19.0588 2.12157 19.9038 2.8887 20.6432C4.36931 22.0701 6.40963 22.8748 8.78612 22.9705L8.8335 22.9723L8.8791 22.9732ZM23.9714 4.51549C24.5937 5.11543 25.0827 5.79673 25.4252 6.53972C25.8025 7.35781 25.9938 8.23313 25.9947 9.14063C25.9947 10.5926 25.4869 12.0393 24.5651 13.2141C23.6727 14.3514 22.4335 15.1865 21.0763 15.5647L20.758 15.6532C20.6945 16.1601 20.5711 16.6599 20.3879 17.1445C20.0982 17.9099 19.6744 18.6037 19.1281 19.2045C18.5433 19.8474 17.8406 20.3597 17.0395 20.7263C16.2071 21.1071 15.288 21.3208 14.308 21.362C14.2919 21.3629 14.2759 21.3637 14.2598 21.3637H14.2535C13.3639 21.3816 12.5163 21.3906 11.6633 21.3906C10.8086 21.3906 9.93325 21.3816 8.90773 21.3637L8.88091 21.3629L8.85408 21.362C6.87457 21.2815 5.19725 20.6324 4.00543 19.4835C3.38314 18.8835 2.89407 18.2022 2.55163 17.4593C2.17522 16.6412 1.98389 15.7667 1.98389 14.8592C1.98389 13.4072 2.49173 11.9606 3.41264 10.7849C4.30495 9.64758 5.54416 8.8125 6.90139 8.4343L7.21968 8.34578C7.28316 7.83883 7.40655 7.33904 7.58984 6.85444C7.87952 6.0891 8.30332 5.39528 8.84961 4.79445C9.43435 4.1516 10.1371 3.63929 10.9382 3.27271C11.7697 2.89183 12.6879 2.67814 13.6679 2.63701C13.684 2.63612 13.701 2.63522 13.717 2.63522H13.7233C14.6129 2.61734 15.4605 2.6084 16.3135 2.6084C17.1682 2.6084 18.0436 2.61734 19.0691 2.63522L19.0959 2.63612L19.1227 2.63701C21.1022 2.71748 22.7796 3.36659 23.9714 4.51549ZM18.757 10.5229C19.7522 11.2248 20.3646 12.7537 20.4433 13.2982C22.2324 12.7992 23.6406 11.0862 23.6406 9.14063C23.6406 7.97026 23.1363 6.97872 22.3388 6.2098C21.5412 5.44177 20.3923 5.0439 19.0279 4.98847C17.187 4.95628 15.6179 4.95092 13.7716 4.98847H13.7689C10.9543 5.1047 9.52465 7.19419 9.52465 9.14063V9.14152C9.52465 10.3119 9.99673 11.2793 10.6145 11.9105C11.2708 12.6061 12.0469 13.0424 13.5597 13.3402C13.9799 13.4224 14.6997 13.5637 15.0618 13.9491C15.2638 14.1636 15.4248 14.4766 15.4248 14.7913C15.4248 15.0801 15.3255 15.4046 15.0913 15.6577C14.8651 15.9017 14.469 16.0752 14.0184 16.0832C12.3616 16.1136 10.4456 16.111 8.78792 16.0832C8.3373 16.0752 7.94122 15.9017 7.71501 15.6577C7.48076 15.4037 7.38152 15.0801 7.38152 14.7913C7.38152 14.1627 7.92155 13.4993 8.92025 13.4993C9.0186 13.4975 9.11516 13.4975 9.2144 13.4984C9.22603 13.4984 9.2305 13.4841 9.22155 13.4779C8.22643 12.776 7.61398 11.2471 7.5353 10.7026C5.74712 11.2015 4.33803 12.9146 4.33803 14.8601C4.33803 16.0305 4.8423 17.0229 5.63983 17.791C6.43735 18.559 7.58626 18.9569 8.95064 19.0123C10.7916 19.0445 12.3607 19.0498 14.207 19.0123H14.2097C17.0243 18.8961 18.4539 16.8066 18.4539 14.8601V14.8592C18.4539 13.6889 17.9819 12.7215 17.364 12.0902C16.7078 11.3946 15.9317 10.9583 14.4189 10.6606C13.9987 10.5783 13.2789 10.4371 12.9168 10.0517C12.7148 9.83712 12.5538 9.52419 12.5538 9.20947C12.5538 8.92068 12.6531 8.59613 12.8873 8.3431C13.1135 8.09901 13.5096 7.92556 13.9602 7.91751C15.617 7.88711 17.533 7.8898 19.1907 7.91751C19.6413 7.92556 20.0374 8.09901 20.2636 8.3431C20.4978 8.59702 20.5971 8.92068 20.5971 9.20947C20.5971 9.83802 20.057 10.5014 19.0583 10.5014C18.96 10.5032 18.8634 10.5032 18.7642 10.5023C18.7526 10.5023 18.7481 10.5166 18.757 10.5229Z" fill="white"/>
</svg>
