<svg width="138" height="32" viewBox="0 0 138 32" fill="none" xmlns="http://www.w3.org/2000/svg">
<g clip-path="url(#clip0_506_961)">
<path d="M38.6107 23.4367V23.05H38.7673V22.97H38.3707V23.05H38.5273V23.4367H38.614H38.6107ZM39.3807 23.4367V22.97H39.2607L39.1207 23.29L38.9807 22.97H38.8607V23.4367H38.9473V23.0867L39.0773 23.39H39.1673L39.2973 23.0867V23.44H39.384L39.3807 23.4367ZM60.401 20.0433V15.0333C60.401 13.1467 59.1977 11.8767 57.261 11.86C56.241 11.8433 55.1909 12.16 54.4576 13.28C53.9076 12.3967 53.0376 11.86 51.8209 11.86C50.9709 11.86 50.1342 12.11 49.4842 13.0467V12.06H47.7475V20.04H49.5008V15.6167C49.5008 14.23 50.2675 13.4967 51.4542 13.4967C52.6409 13.4967 53.1909 14.2467 53.1909 15.6V20.04H54.9443V15.6167C54.9443 14.23 55.7443 13.4967 56.8976 13.4967C58.051 13.4967 58.651 14.2467 58.651 15.6V20.04H60.4044L60.401 20.0433ZM86.3448 12.0633H83.5081V9.64333H81.7547V12.0633H80.1347V13.65H81.7547V17.29C81.7547 19.1433 82.4714 20.2467 84.5248 20.2467C85.2748 20.2467 86.1448 20.0133 86.6948 19.63L86.1948 18.1433C85.6781 18.4433 85.1081 18.5933 84.6581 18.5933C83.7914 18.5933 83.5048 18.06 83.5048 17.2567V13.65H86.3415V12.0633H86.3448ZM101.155 11.8633C100.155 11.8633 99.5017 12.33 99.0517 13.0333V12.0667H97.3317V20.0467H99.0684V15.5733C99.0684 14.2533 99.635 13.52 100.772 13.52C101.122 13.52 101.488 13.57 101.858 13.72L102.392 12.0833C102.008 11.9333 101.508 11.8667 101.155 11.8667V11.8633ZM78.7647 12.6967C77.9313 12.1467 76.778 11.8633 75.508 11.8633C73.4879 11.8633 72.1846 12.8333 72.1846 14.4167C72.1846 15.72 73.1513 16.52 74.938 16.77L75.7546 16.8867C76.7047 17.02 77.158 17.27 77.158 17.72C77.158 18.3367 76.5247 18.6867 75.338 18.6867C74.1513 18.6867 73.2679 18.3033 72.6846 17.8533L71.8679 19.2067C72.8179 19.9067 74.0213 20.2433 75.3246 20.2433C77.628 20.2433 78.9647 19.1567 78.9647 17.64C78.9647 16.2367 77.9113 15.5033 76.178 15.2533L75.3613 15.1367C74.6113 15.0367 74.0079 14.8867 74.0079 14.3533C74.0079 13.77 74.5746 13.4167 75.528 13.4167C76.548 13.4167 77.5313 13.8 78.0147 14.1L78.7647 12.6967ZM125.279 11.8633C124.275 11.8633 123.625 12.33 123.175 13.0333V12.0667H121.455V20.0467H123.192V15.5733C123.192 14.2533 123.759 13.52 124.895 13.52C125.245 13.52 125.612 13.57 125.982 13.72L126.516 12.0833C126.132 11.9333 125.632 11.8667 125.279 11.8667V11.8633ZM102.905 16.0533C102.905 18.4733 104.592 20.2433 107.162 20.2433C108.365 20.2433 109.165 19.9767 110.032 19.29L109.199 17.8867C108.549 18.3533 107.862 18.6033 107.112 18.6033C105.725 18.5867 104.708 17.5833 104.708 16.05C104.708 14.5167 105.728 13.5133 107.112 13.4967C107.862 13.4967 108.549 13.7467 109.199 14.2133L110.032 12.81C109.165 12.1267 108.362 11.8567 107.162 11.8567C104.592 11.8567 102.905 13.6267 102.905 16.0467V16.0533ZM119.165 16.0533V12.0633H117.429V13.03C116.879 12.3133 116.042 11.86 114.909 11.86C112.672 11.86 110.919 13.6133 110.919 16.05C110.919 18.4867 112.672 20.24 114.909 20.24C116.045 20.24 116.879 19.79 117.429 19.07V20.0367H119.165V16.0467V16.0533ZM112.705 16.0533C112.705 14.65 113.622 13.5 115.125 13.5C116.629 13.5 117.529 14.6033 117.529 16.0533C117.529 17.5033 116.562 18.6067 115.125 18.6067C113.689 18.6067 112.705 17.4533 112.705 16.0533ZM91.7516 11.8633C89.4149 11.8633 87.7782 13.5667 87.7782 16.0533C87.7782 18.54 89.4815 20.2433 91.8683 20.2433C93.0716 20.2433 94.1716 19.9433 95.1416 19.1233L94.2916 17.8367C93.6249 18.37 92.7716 18.67 91.9716 18.67C90.8516 18.67 89.8349 18.1533 89.5849 16.7167H95.5116C95.5283 16.5 95.545 16.2833 95.545 16.05C95.5283 13.5633 93.9916 11.86 91.7549 11.86L91.7516 11.8633ZM91.7182 13.4167C92.8383 13.4167 93.5549 14.1167 93.7383 15.3533H89.5982C89.7815 14.2 90.4816 13.4167 91.7182 13.4167ZM135.279 16.0533V8.85667H133.542V13.03C132.992 12.3133 132.156 11.86 131.022 11.86C128.786 11.86 127.032 13.6133 127.032 16.05C127.032 18.4867 128.786 20.24 131.022 20.24C132.159 20.24 132.992 19.79 133.542 19.07V20.0367H135.279V16.0467V16.0533ZM137.309 19.3067C137.379 19.3067 137.446 19.32 137.509 19.3467C137.572 19.3733 137.626 19.41 137.672 19.4567C137.719 19.5033 137.756 19.5567 137.782 19.6167C137.809 19.6767 137.822 19.7433 137.822 19.8133C137.822 19.8833 137.809 19.9467 137.782 20.01C137.756 20.07 137.719 20.1233 137.672 20.17C137.626 20.2167 137.572 20.2533 137.509 20.28C137.446 20.3067 137.379 20.32 137.309 20.32C137.239 20.32 137.169 20.3067 137.106 20.28C137.042 20.2533 136.989 20.2167 136.942 20.17C136.896 20.1233 136.859 20.07 136.832 20.01C136.806 19.95 136.792 19.8833 136.792 19.8133C136.792 19.7433 136.806 19.6767 136.832 19.6167C136.859 19.5533 136.896 19.5 136.942 19.4567C136.989 19.41 137.042 19.3733 137.106 19.3467C137.169 19.32 137.236 19.3067 137.309 19.3067ZM137.309 20.2067C137.362 20.2067 137.416 20.1967 137.462 20.1767C137.509 20.1567 137.552 20.1267 137.586 20.0933C137.622 20.0567 137.649 20.0167 137.669 19.9667C137.689 19.92 137.699 19.8667 137.699 19.8133C137.699 19.76 137.689 19.7067 137.669 19.66C137.649 19.6133 137.622 19.57 137.586 19.5333C137.549 19.4967 137.509 19.47 137.462 19.45C137.416 19.43 137.366 19.42 137.309 19.42C137.252 19.42 137.202 19.43 137.152 19.45C137.102 19.47 137.062 19.4967 137.026 19.5333C136.989 19.57 136.962 19.61 136.942 19.66C136.922 19.7067 136.912 19.76 136.912 19.8133C136.912 19.8667 136.922 19.92 136.942 19.9667C136.962 20.0133 136.989 20.0567 137.026 20.0933C137.062 20.13 137.102 20.1567 137.152 20.1767C137.202 20.1967 137.252 20.2067 137.309 20.2067ZM137.339 19.5733C137.399 19.5733 137.446 19.5867 137.479 19.6133C137.512 19.64 137.529 19.6767 137.529 19.7233C137.529 19.7633 137.516 19.7933 137.489 19.82C137.462 19.8467 137.426 19.86 137.379 19.8667L137.532 20.0433H137.412L137.269 19.8667H137.222V20.0433H137.122V19.5733H137.339ZM137.222 19.66V19.7867H137.339C137.366 19.7867 137.386 19.78 137.402 19.77C137.419 19.76 137.426 19.7433 137.426 19.7233C137.426 19.7033 137.419 19.6867 137.402 19.6767C137.386 19.6667 137.366 19.66 137.339 19.66H137.222ZM128.819 16.05C128.819 14.6467 129.736 13.4967 131.239 13.4967C132.742 13.4967 133.642 14.6 133.642 16.05C133.642 17.5 132.676 18.6033 131.239 18.6033C129.802 18.6033 128.819 17.45 128.819 16.05ZM70.1845 16.05V12.06H68.4478V13.0267C67.8978 12.31 67.0612 11.8567 65.9278 11.8567C63.6911 11.8567 61.9377 13.61 61.9377 16.0467C61.9377 18.4833 63.6911 20.2367 65.9278 20.2367C67.0645 20.2367 67.8978 19.7867 68.4478 19.0667V20.0333H70.1845V16.0433V16.05ZM63.7244 16.05C63.7244 14.6467 64.6411 13.4967 66.1445 13.4967C67.6478 13.4967 68.5478 14.6 68.5478 16.05C68.5478 17.5 67.5812 18.6033 66.1445 18.6033C64.7078 18.6033 63.7244 17.45 63.7244 16.05ZM19.277 25.7533C19.3703 25.8333 19.4703 25.9133 19.567 25.9933C17.6636 27.26 15.3803 28 12.9235 28C6.29677 28 0.92334 22.6267 0.92334 16C0.92334 9.37333 6.29677 4 12.9235 4C15.3803 4 17.6636 4.74 19.567 6.00667C19.4703 6.08667 19.3703 6.16333 19.277 6.24667C16.4503 8.70667 14.8269 12.2633 14.8269 16C14.8269 19.7367 16.4469 23.2933 19.277 25.7533ZM27.7571 4C25.3004 4 23.0171 4.74 21.1137 6.00667C21.2104 6.08667 21.3104 6.16333 21.4037 6.24667C24.2304 8.70667 25.8538 12.26 25.8538 16C25.8538 19.74 24.2337 23.2933 21.407 25.7533C21.3137 25.8333 21.2137 25.9133 21.117 25.9933C23.0204 27.26 25.3038 28 27.7605 28C34.3873 28 39.7607 22.6267 39.7607 16C39.7607 9.37333 34.3873 4 27.7605 4H27.7571ZM20.3403 6.57C20.187 6.69 20.0337 6.81667 19.887 6.94667C17.357 9.14667 15.7569 12.3867 15.7569 16C15.7569 19.6133 17.357 22.8533 19.887 25.0533C20.0337 25.1833 20.187 25.3067 20.3403 25.43C20.4937 25.3067 20.647 25.1833 20.7937 25.0533C23.3237 22.8533 24.9238 19.6133 24.9238 16C24.9238 12.3867 23.3237 9.14667 20.7937 6.94667C20.647 6.81667 20.4937 6.69333 20.3403 6.57Z" fill="white"/>
</g>
<defs>
<clipPath id="clip0_506_961">
<rect width="136.899" height="32" fill="white" transform="translate(0.92334)"/>
</clipPath>
</defs>
</svg>
