<svg width="67" height="40" viewBox="0 0 67 40" fill="none" xmlns="http://www.w3.org/2000/svg">
<g clip-path="url(#clip0_9_6689)">
<path fill-rule="evenodd" clip-rule="evenodd" d="M24.7426 35.7271H42.3801V4.27292H24.7426V35.7271Z" fill="#FF5F00"/>
<path fill-rule="evenodd" clip-rule="evenodd" d="M25.8676 20.0062C25.8676 13.6215 28.8801 7.94072 33.5676 4.28527C30.1301 1.59308 25.8051 0 21.1051 0C9.98008 0 0.955078 8.95338 0.955078 20.0062C0.955078 31.059 9.98008 40.0124 21.1051 40.0124C25.8051 40.0124 30.1301 38.4193 33.5551 35.7394C28.8676 32.0716 25.8551 26.3909 25.8551 20.0185" fill="#EB001B"/>
<path fill-rule="evenodd" clip-rule="evenodd" d="M65.5426 32.3929V31.6148H65.3426L65.1051 32.1459L64.8676 31.6148H64.6676V32.3929H64.8176V31.8124L65.0426 32.3188H65.1926L65.4176 31.8124V32.4052H65.5676L65.5426 32.3929ZM64.2426 32.3929V31.7507H64.5051V31.6148H63.8426V31.7507H64.1051V32.3929H64.2426ZM66.1676 19.994C66.1676 31.0344 57.1426 40.0002 46.0176 40.0002C41.3176 40.0002 36.9926 38.4071 33.5676 35.7272C38.2551 32.0594 41.2676 26.3787 41.2676 20.0063C41.2676 13.634 38.2551 7.94087 33.5676 4.28542C36.9926 1.60559 41.3176 0.0125008 46.0176 0.0125008C57.1426 0.0125008 66.1676 8.96588 66.1676 20.0187V19.994Z" fill="#F79E1B"/>
</g>
<defs>
<clipPath id="clip0_9_6689">
<rect width="65.225" height="40" fill="white" transform="translate(0.955078)"/>
</clipPath>
</defs>
</svg>
