<svg width="67" height="41" viewBox="0 0 67 41" fill="none" xmlns="http://www.w3.org/2000/svg">
<g clip-path="url(#clip0_96_806)">
<path d="M64.8095 32.8946V32.2502H65.0758V32.1168H64.4016V32.2502H64.6622V32.8946H64.8095Z" fill="white"/>
<path d="M66.1181 32.8946V32.1168H65.9141L65.6762 32.6502L65.4382 32.1168H65.2286V32.8946H65.3759V32.3057L65.5969 32.8113H65.7498L65.9708 32.3057V32.8946H66.1181Z" fill="white"/>
<path d="M31.9511 36.7557C32.1097 36.889 32.2797 37.0224 32.444 37.1557C29.2091 39.2668 25.3284 40.5002 21.1531 40.5002C9.89066 40.5002 0.758301 31.5446 0.758301 20.5002C0.758301 9.45572 9.89066 0.500168 21.1531 0.500168C25.3284 0.500168 29.2091 1.7335 32.444 3.84461C32.2797 3.97794 32.1097 4.10572 31.9511 4.24461C27.147 8.34461 24.388 14.2724 24.388 20.5002C24.388 26.7279 27.1413 32.6557 31.9511 36.7557Z" fill="white"/>
<path d="M46.3634 0.500168C42.1882 0.500168 38.3075 1.7335 35.0726 3.84461C35.2369 3.97794 35.4069 4.10572 35.5655 4.24461C40.3696 8.34461 43.1286 14.2668 43.1286 20.5002C43.1286 26.7335 40.3753 32.6557 35.5712 36.7557C35.4125 36.889 35.2426 37.0224 35.0783 37.1557C38.3131 39.2668 42.1938 40.5002 46.3691 40.5002C57.6316 40.5002 66.764 31.5446 66.764 20.5002C66.764 9.45572 57.6259 0.500168 46.3634 0.500168Z" fill="white"/>
<path d="M33.7583 4.7835C33.4977 4.9835 33.2371 5.19461 32.9879 5.41128C28.6879 9.07794 25.9686 14.4779 25.9686 20.5002C25.9686 26.5224 28.6879 31.9224 32.9879 35.589C33.2371 35.8057 33.4977 36.0113 33.7583 36.2168C34.0189 36.0113 34.2795 35.8057 34.5288 35.589C38.8287 31.9224 41.548 26.5224 41.548 20.5002C41.548 14.4779 38.8287 9.07794 34.5288 5.41128C34.2795 5.19461 34.0189 4.98906 33.7583 4.7835Z" fill="white"/>
</g>
<defs>
<clipPath id="clip0_96_806">
<rect width="66" height="40" fill="white" transform="translate(0.758301 0.500168)"/>
</clipPath>
</defs>
</svg>
