<svg width="264" height="33" viewBox="0 0 264 33" fill="none" xmlns="http://www.w3.org/2000/svg">
<path d="M263.758 32.481H255.492C254.983 28.3837 254.472 24.2819 253.959 20.1759L253.802 20.1433L252.667 23.001C252.327 23.8426 251.962 24.6778 251.655 25.5325C251.619 25.7085 251.516 25.8634 251.367 25.9645C251.219 26.0655 251.036 26.1048 250.859 26.074C249.685 26.074 248.511 26.074 247.251 26.074L246.436 32.481H238.169C239.474 21.8527 240.779 11.2504 242.084 0.602462H250.364C249.574 7.00949 248.785 13.3839 247.989 19.8366H253.861C253.123 13.3969 252.34 7.03559 251.544 0.569839H259.824C261.135 11.1852 262.447 21.7939 263.758 32.481Z" fill="white"/>
<path d="M138.436 32.4818H130.163L128.604 19.9417C128.408 20.3006 128.303 20.4572 128.232 20.6333C127.579 22.2188 126.927 23.8042 126.346 25.4092C126.299 25.6221 126.172 25.8086 125.991 25.9301C125.81 26.0516 125.589 26.0987 125.374 26.0617C124.539 26.016 123.697 26.1073 122.869 26.0617C122.04 26.016 121.844 26.277 121.772 27.0338C121.609 28.8346 121.342 30.6353 121.12 32.4818H112.834C114.139 21.8273 115.444 11.225 116.749 0.590143H125.035C124.239 7.01022 123.449 13.3846 122.653 19.8373H128.604L126.209 0.583618H134.476C135.78 11.1794 137.085 21.7881 138.436 32.4818Z" fill="white"/>
<path d="M14.3796 32.2902C12.9116 21.714 11.4501 11.177 9.97559 0.574703H18.1638C19.2599 8.652 20.3604 16.7489 21.4652 24.8653H21.6674C22.7636 16.7793 23.8662 8.67592 24.9753 0.55513H33.157C31.6825 11.1509 30.221 21.7009 28.7791 32.2902H14.3796Z" fill="white"/>
<path d="M194.081 32.48C191.51 32.48 189.064 32.48 186.617 32.48C186.402 32.48 186.115 32.0951 186.004 31.8276C183.642 26.0904 181.289 20.3467 178.944 14.5964C178.839 14.3165 178.685 14.0578 178.488 13.8331V32.4343H170.202V0.575348H178.416V13.3568C179.975 13.3568 181.45 13.3568 182.924 13.3568C183.1 13.3568 183.342 12.9457 183.407 12.7043C183.907 10.9205 183.998 9.04717 183.675 7.22312C183.352 5.39907 182.623 3.67111 181.541 2.16732C181.208 1.67146 180.849 1.2017 180.438 0.634068C180.686 0.634068 180.849 0.575348 181.013 0.575348C183.414 0.575348 185.815 0.575348 188.189 0.575348C188.355 0.583866 188.518 0.627879 188.665 0.704416C188.812 0.780952 188.942 0.888232 189.044 1.01901C190.992 4.58826 191.638 8.72409 190.871 12.7174C190.773 13.2459 190.564 13.3698 190.055 13.3698C188.705 13.3372 187.348 13.3698 185.808 13.3698L194.081 32.48Z" fill="white"/>
<path d="M150.598 13.3557H159.849C159.614 13.9494 159.425 14.4518 159.229 14.9411C158.714 16.246 158.153 17.5509 157.69 18.8558C157.638 19.0907 157.496 19.2959 157.295 19.4276C157.094 19.5593 156.849 19.607 156.613 19.5605C154.656 19.5278 152.698 19.5605 150.65 19.5605V32.4789H142.403V0.587296H150.598V13.3557Z" fill="white"/>
<path d="M45.9828 0.549622H54.1253V13.2658H63.3574L62.4832 15.4711C62.046 16.5802 61.5828 17.6829 61.1783 18.8051C61.1314 19.0041 61.0115 19.1782 60.8424 19.293C60.6732 19.4078 60.4671 19.4549 60.2649 19.4249C58.3075 19.4249 56.3045 19.4249 54.2297 19.4249V32.2716H45.9828V0.549622Z" fill="white"/>
<path d="M82.5948 0.51052C82.2947 1.34565 82.0533 2.0503 81.7923 2.75494C81.3307 3.88056 81.1846 5.1107 81.3697 6.31313C81.5548 7.51556 82.0641 8.64482 82.8428 9.57953C85.296 12.7765 87.7666 15.9648 90.2546 19.1444C92.3947 21.689 93.472 24.9604 93.2624 28.2787C93.1107 29.5121 92.862 30.7316 92.5186 31.9258C92.476 32.033 92.408 32.1281 92.3205 32.2031C92.233 32.2782 92.1285 32.3308 92.0162 32.3565C89.2824 32.3565 86.5421 32.3565 83.7236 32.3565C83.978 31.554 84.1999 30.8102 84.4608 30.0794C84.919 28.8979 85.0464 27.6138 84.8291 26.3652C84.6118 25.1167 84.0581 23.9511 83.2277 22.9938C80.7354 19.823 78.2648 16.6347 75.8159 13.429C74.4416 11.7505 73.516 9.75051 73.1257 7.61655C72.7354 5.4826 72.8933 3.28449 73.5845 1.22821C73.602 1.11636 73.6414 1.00906 73.7004 0.912432C73.7594 0.815809 73.8368 0.731764 73.9283 0.665106C74.0198 0.598448 74.1236 0.550484 74.2336 0.523959C74.3437 0.497433 74.4579 0.492867 74.5697 0.51052C77.1991 0.543142 79.835 0.51052 82.5948 0.51052Z" fill="white"/>
<path d="M222.137 32.4791C219.384 32.4791 216.618 32.4791 213.858 32.4791C213.61 32.4791 213.264 32.1202 213.153 31.8266C211.818 28.6657 210.939 25.3309 210.543 21.9225C209.673 15.4062 210.33 8.7768 212.462 2.55785C213.179 0.509171 213.179 0.509171 215.332 0.509171H221.439C221.609 0.509171 221.779 0.509171 221.916 0.509171C217.048 11.2485 217.055 21.8442 222.137 32.4791Z" fill="white"/>
<path d="M8.84008 0.569839V32.2853H0.723633V0.569839H8.84008Z" fill="white"/>
<path d="M34.2842 32.2273V0.583618H42.4789V32.2273H34.2842Z" fill="white"/>
<path d="M206.068 32.48H198.076V0.575348H206.068V32.48Z" fill="white"/>
<path d="M234.703 7.25135C231.897 7.25135 229.242 7.25135 226.58 7.25135C226.486 7.2471 226.395 7.22276 226.311 7.17998C226.228 7.1372 226.155 7.07698 226.097 7.00342C225.229 4.89602 224.388 2.78209 223.487 0.537674H226.86C228.244 0.537674 229.627 0.537674 231.01 0.537674C231.251 0.537674 231.63 0.655114 231.708 0.831275C232.713 2.91258 233.646 5.00694 234.703 7.25135Z" fill="white"/>
<path d="M234.706 25.7997C233.832 27.9985 232.996 30.1189 232.135 32.2329C232.079 32.31 232.007 32.374 231.923 32.4202C231.84 32.4664 231.748 32.4938 231.652 32.5004C228.99 32.5004 226.328 32.5004 223.542 32.5004C223.679 32.1741 223.777 31.9197 223.895 31.6783C224.717 29.8841 225.532 28.0833 226.381 26.3021C226.485 26.0868 226.753 25.8128 226.948 25.8128C229.499 25.7932 232.057 25.7997 234.706 25.7997Z" fill="white"/>
<path d="M95.9098 7.21738C93.1174 7.21738 90.488 7.21738 87.8586 7.21738C87.7537 7.20996 87.6518 7.17916 87.5604 7.12722C87.4689 7.07529 87.3903 7.00355 87.3302 6.91725C86.4755 4.84247 85.6468 2.74812 84.7595 0.529799H86.9387C88.7133 0.529799 90.4815 0.529799 92.2496 0.529799C92.3808 0.525911 92.5113 0.55076 92.6319 0.602604C92.7525 0.654448 92.8603 0.732033 92.9477 0.829924C93.9395 2.90471 94.892 4.99906 95.9098 7.21738Z" fill="white"/>
<path d="M70.332 25.6426C72.9875 25.6426 75.4864 25.6426 77.9852 25.6426C78.0817 25.6407 78.1773 25.6601 78.2653 25.6996C78.3533 25.7391 78.4315 25.7976 78.4941 25.8709C79.4859 27.9783 80.4515 30.0923 81.4823 32.3432H79.525C77.5677 32.3432 75.5647 32.3432 73.5877 32.3432C73.3594 32.3432 72.9875 32.2062 72.9353 32.0366C72.0414 29.9618 71.2194 27.8674 70.332 25.6426Z" fill="white"/>
<path d="M69.7316 0.587296V7.11177H61.5499V0.587296H69.7316Z" fill="white"/>
<path d="M166.157 7.03457H158.015V0.575348H166.157V7.03457Z" fill="white"/>
</svg>
