<svg width="49" height="32" viewBox="0 0 49 32" fill="none" xmlns="http://www.w3.org/2000/svg">
<g clip-path="url(#clip0_506_968)">
<path fill-rule="evenodd" clip-rule="evenodd" d="M24.8223 26.1538C11.5846 26.1538 2.6924 20.9037 2.6924 16C2.6924 11.0963 11.5846 5.84615 24.8223 5.84615C38.06 5.84615 46.9521 11.0963 46.9521 16C46.9521 20.9037 38.06 26.1538 24.8223 26.1538ZM24.8223 4C11.5677 4 0.822266 9.37262 0.822266 16C0.822266 22.6274 11.5677 28 24.8223 28C38.0768 28 48.8223 22.6274 48.8223 16C48.8223 9.37262 38.0768 4 24.8223 4Z" fill="white"/>
<path fill-rule="evenodd" clip-rule="evenodd" d="M21.3316 13.8462H24.3281V20H26.3258V13.8462H29.3223V12L21.3223 12.0126L21.3316 13.8462Z" fill="white"/>
<path fill-rule="evenodd" clip-rule="evenodd" d="M36.3252 12.0126V16.7846L32.331 12L30.3223 12.0126V20.0025L32.331 20V15.0769L36.3252 20L38.3223 20.0025V12.0126H36.3252Z" fill="white"/>
<path fill-rule="evenodd" clip-rule="evenodd" d="M15.8223 15.3846L13.2508 12H11.3223L11.329 20.0025L13.2508 20V15.0769L15.1794 17.5385H16.4651L18.3937 15.0769V20L20.3155 20.0025L20.3223 12H18.3937L15.8223 15.3846Z" fill="white"/>
</g>
<defs>
<clipPath id="clip0_506_968">
<rect width="48" height="32" fill="white" transform="translate(0.822266)"/>
</clipPath>
</defs>
</svg>
