<svg width="54" height="32" viewBox="0 0 54 32" fill="none" xmlns="http://www.w3.org/2000/svg">
<g clip-path="url(#clip0_641_535)">
<path d="M13.8849 21.5493H12.5806V25.1666L11.2342 26.1761V21.5488H9.97119V26.7644H11.1075L12.5806 25.6707V26.7644H13.8849V21.5493Z" fill="white"/>
<path d="M17.1673 21.5508H15.9043V26.7663H18.5558V26.3876H17.1669L17.1673 21.5508Z" fill="white"/>
<path d="M7.95146 26.7654H6.68929V21.1715L5.29995 22.1806V26.7654H4.08076V21.1715L2.69185 22.1806V26.7654H1.42969V20.4141H2.69185V21.5919L4.24873 20.4141H5.30126V21.5919L6.8998 20.4141H7.95234L7.95146 26.7654Z" fill="white"/>
<path d="M23.7734 26.7243V21.5508H25.036V26.7243H23.7734Z" fill="white"/>
<path d="M18.5137 21.5508H22.6374V21.9295H21.2068V26.7663H19.9442V21.9295H18.5137V21.5508Z" fill="white"/>
<path d="M27.0557 21.2557C27.0557 20.7507 27.6446 20.4141 28.2336 20.4141H30.1694V21.5498H29.6642V20.877H28.3178V26.3025H28.9068C29.3278 26.3025 29.6642 25.9663 29.6642 25.6296V25.2513H30.1694V25.6296C30.1694 26.2188 29.5804 26.7233 28.9068 26.7233H27.0557V21.2553V21.2557Z" fill="white"/>
<path d="M31.6001 21.5508H32.8627V23.864L34.2091 22.8545V21.5508H35.5133V26.7663H34.2091V23.3594L32.8627 24.369V26.7663H31.6001V21.5508Z" fill="white"/>
<path d="M43.4243 26.7243V21.5508H44.6869V26.7243H43.4243Z" fill="white"/>
<path d="M47.9695 21.9285V26.4286H48.348C48.7269 26.4286 49.0212 26.2182 49.0212 25.9241V25.5032H49.4843V25.9241C49.4843 26.4286 48.937 26.7653 48.3484 26.7653H46.749V22.2226C46.749 21.8443 47.2538 21.5918 47.5485 21.5918H49.4843V22.5592H49.0212V21.928L47.9695 21.9285Z" fill="white"/>
<path d="M50.999 21.5508H53.6501V21.9295H52.2612V23.6119H53.3975V23.9482H52.2616V26.3876H53.6501V26.7663H50.999V21.5508Z" fill="white"/>
<path d="M40.5206 21.5508H38.4169C37.9538 21.5508 37.5332 21.8454 37.5332 22.2237V26.0935C37.5332 26.4297 37.8696 26.7663 38.4169 26.7663H40.5628C40.9417 26.7663 41.4048 26.4297 41.4048 26.0935V22.2237C41.4048 21.8874 40.9838 21.5508 40.5206 21.5508ZM38.7533 21.9295H40.1422V26.4297H38.7533V21.9295Z" fill="white"/>
<path d="M27.35 0.0996094L23.5205 4.17983L27.35 18.8586V0.0996094Z" fill="white"/>
<path d="M27.35 0.0996094L23.5205 4.17983L27.35 18.8586V0.0996094Z" fill="white"/>
<path d="M8.45654 4.13672L9.08763 8.93146L26.6347 18.8997L8.45654 4.13672Z" fill="white"/>
<path d="M8.45654 4.13672L9.08763 8.93146L26.6347 18.8997L8.45654 4.13672Z" fill="white"/>
<path d="M1.26074 9.4375L2.94392 13.0544L26.0032 18.9853L1.26074 9.4375Z" fill="white"/>
<path d="M1.26074 9.4375L2.94392 13.0544L26.0032 18.9853L1.26074 9.4375Z" fill="white"/>
<path d="M17.5456 1.10938L15.9888 5.73579L27.0132 18.8584L17.5456 1.10938Z" fill="white"/>
<path d="M17.5456 1.10938L15.9888 5.73579L27.0132 18.8584L17.5456 1.10938Z" fill="white"/>
<path d="M28.1074 18.8997L39.6792 6.07118L46.1597 4.13672L28.1074 18.8997Z" fill="white"/>
<path d="M28.1074 18.8997L39.6792 6.07118L46.1597 4.13672L28.1074 18.8997Z" fill="white"/>
<path d="M28.6968 18.9853L46.7065 9.26953L53.6077 9.39578L28.6968 18.9853Z" fill="white"/>
<path d="M28.6968 18.9853L46.7065 9.26953L53.6077 9.39578L28.6968 18.9853Z" fill="white"/>
<path d="M27.687 18.8589L32.3997 4.34795L36.9866 1.10938L27.687 18.8589Z" fill="white"/>
<path d="M27.687 18.8589L32.3997 4.34795L36.9866 1.10938L27.687 18.8589Z" fill="white"/>
<path d="M10.5186 29.2461V31.7697H11.4018V31.4751H10.8549V30.6339H11.3597V30.3398H10.8549V29.5402H11.4018V29.2461H10.5186Z" fill="white"/>
<path d="M13.1271 29.8348V29.7927L13.7161 31.7697H14.0529V29.2461H13.7156V30.1294L13.7998 31.1389V31.181L13.1687 29.2461H12.874V31.7697H13.2108V30.8443L13.1687 30.0027L13.1271 29.8348Z" fill="white"/>
<path d="M15.652 31.7699H15.9888V30.5083L16.4515 31.7699H16.7883L16.3251 30.5083C16.6199 30.4662 16.662 30.0875 16.662 29.835C16.662 29.2042 16.283 29.1621 16.0304 29.1621H15.6099V31.7699H15.652ZM15.9888 30.34V29.4983H16.0309C16.283 29.4983 16.3251 29.7087 16.3251 29.9192C16.3251 30.2137 16.2409 30.3821 15.9888 30.34V30.34Z" fill="white"/>
<path d="M18.2188 31.8118V29.2461H18.5556V31.8118H18.2188Z" fill="white"/>
<path d="M21.1645 29.2892C21.0802 29.2472 20.996 29.2051 20.8702 29.2051C20.1966 29.2051 20.1128 30.0467 20.1128 30.5508C20.1128 31.0979 20.1966 31.8133 20.9123 31.8133C20.996 31.8133 21.0802 31.8133 21.1645 31.7287V31.4346C21.0802 31.4766 21.0381 31.4766 20.9539 31.4766C20.4913 31.4766 20.4496 30.8454 20.4496 30.5092C20.4496 30.1725 20.4496 29.4997 20.9123 29.4997C20.996 29.4997 21.0802 29.5417 21.1228 29.5838V29.2892H21.1645Z" fill="white"/>
<path d="M22.5952 29.2461V31.7697H22.9316V30.5077H23.4368V31.7697H23.7732V29.2461H23.4368V30.2135H22.9316V29.2461H22.5952Z" fill="white"/>
<path d="M25.3726 31.8118V29.2461H25.7089V31.8118H25.3726Z" fill="white"/>
<path d="M27.6028 29.8348V29.7927L28.1918 31.7697H28.4865V29.2461H28.1497V30.1294L28.2339 31.1389V31.181L27.6449 29.2461H27.3081V31.7697H27.6449V30.8443L27.6028 30.0027V29.8348Z" fill="white"/>
<path d="M30.7165 30.425V30.7192H31.0108V30.8454C31.0108 31.4346 30.8428 31.4766 30.7165 31.4766C30.5481 31.4766 30.4218 31.3925 30.4218 30.5092C30.4218 29.878 30.4218 29.4997 30.7165 29.4997C30.927 29.4997 30.9691 29.668 31.0108 29.8359L31.3476 29.7101C31.2634 29.3734 31.095 29.2051 30.7161 29.2051C30.1276 29.2051 30.0854 29.7942 30.0854 30.5092C30.0854 31.2237 30.1692 31.8129 30.7586 31.8129C31.4318 31.8129 31.3476 30.9717 31.3476 30.4671V30.425H30.7165Z" fill="white"/>
<path d="M34.7139 29.2461V31.7697H35.6397V31.4751H35.0507V29.2461H34.7139Z" fill="white"/>
<path d="M37.0288 31.8118V29.2461H37.3652V31.8118H37.0288Z" fill="white"/>
<path d="M38.7539 29.2461L39.2587 31.7697H39.5534L40.0161 29.2461H39.7214L39.5534 30.1294L39.4271 30.9706V31.1389H39.385L39.0903 29.2461H38.7539Z" fill="white"/>
<path d="M41.4468 29.2461V31.7697H42.3726V31.4751H41.7836V30.6339H42.2884V30.3398H41.7836V29.5402H42.3726V29.2461H41.4468Z" fill="white"/>
<path d="M44.6027 29.2892C44.4764 29.2051 44.3922 29.2051 44.2237 29.2051C43.8453 29.2051 43.6348 29.4997 43.6348 29.878C43.6348 30.5513 44.3501 30.6354 44.3501 31.14C44.3501 31.3504 44.2658 31.4766 44.0553 31.4766C43.9295 31.4766 43.8032 31.4346 43.719 31.3504V31.6866C43.8032 31.7708 43.9711 31.8129 44.0974 31.8129C44.4764 31.8129 44.6869 31.5183 44.6869 31.14C44.6869 30.8033 44.5606 30.6354 44.308 30.3829L44.0553 30.0884C43.9711 30.0042 43.9711 29.92 43.9711 29.7942C43.9711 29.6259 44.0974 29.4576 44.2659 29.4576C44.3922 29.4576 44.4764 29.4997 44.5606 29.5838L44.6027 29.2892Z" fill="white"/>
</g>
<defs>
<clipPath id="clip0_641_535">
<rect width="53.0653" height="32" fill="white" transform="translate(0.822266)"/>
</clipPath>
</defs>
</svg>
