<svg width="62" height="32" viewBox="0 0 62 32" fill="none" xmlns="http://www.w3.org/2000/svg">
<path d="M2.63833 27.7192L2.39203 28.9645H1.55897L1.8101 27.683L0.887695 25.377H1.71774L2.35823 26.9761L3.64464 25.377H4.50064L2.63833 27.7192Z" fill="white"/>
<path d="M3.82373 27.7706C3.82373 26.853 4.52096 26.166 5.48925 26.166C6.33438 26.166 6.87768 26.6532 6.87768 27.4017C6.87768 28.3187 6.18588 29.0057 5.21216 29.0057C4.37246 29.0057 3.82373 28.5137 3.82373 27.7706ZM6.06876 27.4373C6.06876 27.0631 5.84299 26.8276 5.44337 26.8276C4.9719 26.8276 4.63385 27.1965 4.63385 27.7331C4.63385 28.1074 4.86445 28.3428 5.26408 28.3428C5.73071 28.344 6.06876 27.9752 6.06876 27.4373Z" fill="white"/>
<path d="M10.4511 26.207L9.90237 28.9646H9.14417L9.20031 28.667C8.95622 28.891 8.63513 29.0123 8.30386 29.0056C7.71408 29.0056 7.31445 28.6772 7.31445 28.0675C7.31457 27.9555 7.32651 27.8438 7.35007 27.7343L7.6519 26.207H8.45176L8.15959 27.683C8.14553 27.7487 8.13865 27.8157 8.13906 27.8828C8.13906 28.1599 8.28756 28.3138 8.60026 28.3138C8.99446 28.3138 9.27154 28.0881 9.36933 27.6063L9.65124 26.207H10.4511Z" fill="white"/>
<path d="M12.9154 26.166L12.7717 26.9043C12.7005 26.8989 12.651 26.894 12.5876 26.894C12.1156 26.894 11.8137 27.1126 11.7111 27.6317L11.4449 28.9646H10.645L11.1938 26.2071H11.952L11.8856 26.5355C12.1312 26.2674 12.4699 26.166 12.9154 26.166Z" fill="white"/>
<path d="M17.9278 26.4943C17.9278 27.4065 17.2566 27.9751 16.1857 27.9751H15.3858L15.1908 28.9645H14.356L15.0737 25.377H16.5225C17.4208 25.377 17.9278 25.7923 17.9278 26.4943ZM17.0875 26.5692C17.0875 26.2203 16.8412 26.0567 16.4235 26.0567H15.7703L15.5192 27.302H16.2207C16.77 27.299 17.0875 27.0425 17.0875 26.5692Z" fill="white"/>
<path d="M21.3471 26.2071L20.799 28.9646H20.0402L20.0915 28.693C19.8596 28.9005 19.5575 29.0123 19.2463 29.0057C18.6059 29.0057 18.0571 28.5547 18.0571 27.7706C18.0571 26.8427 18.729 26.166 19.5796 26.166C19.9792 26.166 20.2973 26.2946 20.4766 26.5813L20.5485 26.2071H21.3471ZM20.3016 27.4373C20.3016 27.0631 20.071 26.8276 19.6713 26.8276C19.1999 26.8276 18.8612 27.1965 18.8612 27.7331C18.8612 28.1074 19.0918 28.3428 19.492 28.3428C19.9641 28.344 20.3016 27.9752 20.3016 27.4373V27.4373Z" fill="white"/>
<path d="M24.8211 26.207L22.9859 29.1487C22.5815 29.8001 22.2531 29.9999 21.7255 29.9999C21.4436 29.9999 21.1363 29.9075 20.9775 29.7584L21.3464 29.1843C21.467 29.2938 21.6242 29.3541 21.7871 29.3533C21.9971 29.3533 22.1305 29.2561 22.2839 29.0153L22.3098 28.9688L21.6742 26.207H22.4734L22.8839 28.0832L24.0309 26.207H24.8211Z" fill="white"/>
<path d="M29.5923 27.0996C29.5923 27.2133 29.5801 27.3266 29.5561 27.4377L29.2542 28.9649H28.4544L28.7466 27.4938C28.7607 27.4247 28.7676 27.3543 28.7671 27.2837C28.7671 27.0073 28.6186 26.8612 28.3318 26.8612C27.9624 26.8612 27.7064 27.0761 27.6074 27.553L27.3279 28.9649H26.5275L26.8197 27.4938C26.8332 27.4264 26.8401 27.3579 26.8402 27.2892C26.8402 27.0073 26.6917 26.8588 26.4043 26.8588C26.0307 26.8588 25.7795 27.0737 25.6769 27.5608L25.3998 28.9649H24.6006L25.1487 26.2074H25.9075L25.8472 26.4947C26.0838 26.2793 26.3935 26.1619 26.7134 26.1663C27.0925 26.1663 27.4052 26.3203 27.5585 26.6179C27.6912 26.4718 27.8537 26.3559 28.035 26.278C28.2163 26.2001 28.4122 26.162 28.6095 26.1663C29.1993 26.1663 29.5923 26.4893 29.5923 27.0996Z" fill="white"/>
<path d="M32.9541 27.8013H30.8412C30.8672 28.175 31.0978 28.3646 31.5536 28.3646C31.8222 28.3696 32.084 28.2789 32.2918 28.1086L32.6251 28.6368C32.3069 28.8928 31.8922 29.0057 31.4721 29.0057C30.6106 29.0057 30.0625 28.5185 30.0625 27.7706C30.0625 26.8476 30.7265 26.166 31.687 26.166C32.4917 26.166 32.9987 26.6429 32.9987 27.3806C32.9975 27.522 32.9826 27.6629 32.9541 27.8013V27.8013ZM30.9016 27.3347H32.2695C32.2695 26.9725 32.0238 26.7661 31.655 26.7661C31.268 26.7661 31.0066 26.9918 30.8992 27.3347H30.9016Z" fill="white"/>
<path d="M36.3828 27.1043C36.383 27.2164 36.371 27.3281 36.3471 27.4376L36.0399 28.9648H35.24L35.5376 27.4889C35.5514 27.4266 35.5583 27.3631 35.5582 27.2993C35.5582 27.0174 35.4042 26.8587 35.0867 26.8587C34.6816 26.8587 34.3997 27.0838 34.3019 27.5655L34.0285 28.9648H33.2256L33.7737 26.2073H34.5325L34.4722 26.5049C34.72 26.281 35.0437 26.1599 35.3777 26.1663C35.9825 26.1663 36.3828 26.4946 36.3828 27.1043Z" fill="white"/>
<path d="M37.854 27.9912C37.8458 28.0282 37.8423 28.0662 37.8438 28.1041C37.8438 28.2731 37.9361 28.3703 38.136 28.3703C38.2504 28.3674 38.3619 28.3338 38.4589 28.2731L38.5797 28.8418C38.3701 28.9584 38.1324 29.0152 37.8927 29.006C37.3796 29.006 37.0312 28.7186 37.0312 28.2369C37.0324 28.1558 37.0411 28.0749 37.0572 27.9954L37.2775 26.8835H36.855L36.9757 26.2683H37.3983L37.5305 25.5977H38.3303L38.1975 26.2677H38.8845L38.7638 26.8829H38.0738L37.854 27.9912Z" fill="white"/>
<path d="M44.0699 26.4943C44.0699 27.4065 43.3987 27.9751 42.3278 27.9751H41.5279L41.3329 28.9645H40.498L41.2152 25.377H42.664C43.5629 25.377 44.0699 25.7923 44.0699 26.4943ZM43.2296 26.5692C43.2296 26.2203 42.9833 26.0567 42.5656 26.0567H41.9124L41.6613 27.302H42.3634C42.9115 27.299 43.2296 27.0425 43.2296 26.5692Z" fill="white"/>
<path d="M47.491 26.2071L46.9423 28.9646H46.1823L46.2336 28.693C46.0017 28.9005 45.6996 29.0123 45.3884 29.0057C44.748 29.0057 44.1992 28.5547 44.1992 27.7706C44.1992 26.8427 44.8711 26.166 45.7217 26.166C46.1213 26.166 46.4394 26.2946 46.6187 26.5813L46.6905 26.2071H47.491ZM46.4455 27.4373C46.4455 27.0631 46.2149 26.8276 45.8152 26.8276C45.3438 26.8276 45.0051 27.1965 45.0051 27.7331C45.0051 28.1074 45.2357 28.3428 45.6359 28.3428C46.1056 28.344 46.4437 27.9752 46.4437 27.4373H46.4455Z" fill="white"/>
<path d="M49.9491 26.166L49.8054 26.9043C49.7336 26.8989 49.6847 26.894 49.6213 26.894C49.1498 26.894 48.8474 27.1144 48.7448 27.6317L48.478 28.9646H47.6787L48.2268 26.2071H48.9856L48.9192 26.5355C49.1649 26.2674 49.503 26.166 49.9491 26.166Z" fill="white"/>
<path d="M51.0527 27.9918C51.0444 28.0288 51.0409 28.0668 51.0424 28.1047C51.0424 28.2737 51.1348 28.3709 51.3346 28.3709C51.449 28.3681 51.5606 28.3345 51.6575 28.2737L51.7783 28.8424C51.5688 28.9589 51.3314 29.0157 51.0919 29.0066C50.5794 29.0066 50.2311 28.7192 50.2311 28.2375C50.2323 28.1564 50.2408 28.0756 50.2564 27.996L50.4768 26.8841H50.0542L50.1749 26.2689H50.5975L50.7309 25.5977H51.5302L51.3943 26.2683H52.0789L51.9582 26.8835H51.2712L51.0527 27.9918Z" fill="white"/>
<path d="M55.3504 27.1043C55.3503 27.2163 55.3384 27.328 55.3148 27.4376L55.0069 28.9648H54.2077L54.5047 27.4889C54.5187 27.4267 54.5256 27.3631 54.5252 27.2993C54.5252 27.0174 54.3719 26.8586 54.0537 26.8586C53.6493 26.8586 53.3674 27.0838 53.269 27.5655L52.9925 28.9648H52.1938L52.7426 26.2073H53.5008L53.4404 26.5049C53.6884 26.2812 54.0121 26.1601 54.3459 26.1662C54.9508 26.1662 55.3504 26.4946 55.3504 27.1043Z" fill="white"/>
<path d="M58.7124 27.8013H56.5995C56.6255 28.175 56.8561 28.3646 57.3125 28.3646C57.5809 28.3695 57.8424 28.2788 58.0501 28.1086L58.3834 28.6368C58.0652 28.8928 57.6505 29.0057 57.2304 29.0057C56.3689 29.0057 55.8208 28.5185 55.8208 27.7706C55.8208 26.8476 56.4848 26.166 57.4453 26.166C58.25 26.166 58.7576 26.6429 58.7576 27.3806C58.7565 27.522 58.7414 27.6629 58.7124 27.8013ZM56.6599 27.3347H58.0284C58.0284 26.9725 57.7821 26.7661 57.4133 26.7661C57.0287 26.7661 56.7649 26.9918 56.6575 27.3347H56.6599Z" fill="white"/>
<path d="M61.2548 26.166L61.1117 26.9043C61.0393 26.8989 60.991 26.894 60.927 26.894C60.4555 26.894 60.1531 27.1144 60.0504 27.6317L59.7842 28.9646H58.9844L59.5325 26.2071H60.2889L60.2225 26.5355C60.47 26.2674 60.8093 26.166 61.2548 26.166Z" fill="white"/>
<path d="M14.0096 12.2212C13.424 15.5414 10.7498 17.6651 7.78217 17.6651C6.46557 17.6651 5.45684 17.2528 4.8242 16.3877L3.95372 21.3209H0.887695L3.42309 6.9349H6.35268L6.13959 8.1531C7.06924 7.22949 8.28864 6.77734 9.70122 6.77734C12.6694 6.77734 14.5951 8.89983 14.0096 12.2212ZM10.9037 12.2212C11.2261 10.3933 10.2608 9.29282 8.73053 9.29282C7.20023 9.29282 5.84078 10.3915 5.51902 12.2212C5.19727 14.0509 6.16193 15.1496 7.69524 15.1496C9.22855 15.1496 10.5814 14.0491 10.9037 12.2212V12.2212Z" fill="white"/>
<path d="M25.3642 11.4731L24.3 17.5068H21.4307L21.6631 16.1896C20.923 17.1554 19.7314 17.6637 18.1794 17.6637C15.7044 17.6637 14.4723 16.2886 14.7946 14.4607C15.1236 12.5935 16.669 11.2956 19.8926 11.2956H22.329C22.5614 9.97905 21.9106 9.21239 20.2596 9.21239C19.1392 9.21239 17.9138 9.58606 17.0403 10.1952L16.3159 8.05275C17.621 7.22754 19.4103 6.77539 21.1011 6.77539C24.3253 6.77599 25.9286 8.27007 25.3642 11.4731ZM21.8231 14.1655L22.0139 13.0849H19.9107C18.4764 13.0849 17.9307 13.6155 17.8057 14.323C17.6705 15.0897 18.2283 15.6004 19.3101 15.6004C20.3321 15.6004 21.2997 15.1289 21.8231 14.1655V14.1655Z" fill="white"/>
<path d="M39.2339 6.77734L32.4795 17.9977C31.0072 20.553 29.4171 21.3178 27.5108 21.3178C26.4296 21.3178 25.3128 20.9641 24.7339 20.355L26.2376 18.1788C26.6659 18.6046 27.2455 18.8434 27.8494 18.8428C28.6945 18.8428 29.2318 18.4691 29.8113 17.5256L29.8675 17.4278L27.1667 6.77734H30.3305L32.0364 13.9531L36.2856 6.77734H39.2339Z" fill="white"/>
<path d="M51.7371 2C44.201 2 38.9243 7.18609 38.9243 14.2146C38.9243 16.1234 39.4072 17.8245 40.3194 19.2147C40.3216 19.2183 40.324 19.2217 40.3266 19.225C40.8247 19.9858 41.4514 20.6542 42.1787 21.2002C42.9284 21.7591 43.7616 22.1961 44.6477 22.4951C45.8067 22.8947 47.1227 23.109 48.5769 23.109C50.2437 23.109 52.1319 22.757 53.527 22.1824C52.6414 22.262 51.7507 22.267 50.8642 22.1975C47.6123 21.9318 45.3962 20.6424 44.1032 19.5969C43.5832 19.2322 43.1276 18.7833 42.7552 18.2688C42.7512 18.2629 42.747 18.2573 42.7425 18.2519C42.728 18.2338 42.7184 18.2193 42.7111 18.2102C42.7039 18.2012 42.7009 18.1951 42.7009 18.1951C41.9161 17.0778 41.5026 15.6598 41.5026 14.0299C41.5026 8.47613 45.4445 4.1901 51.4136 4.1901C56.4137 4.1901 58.9256 6.63253 58.9256 10.5962C58.9256 12.8793 58.0491 15.9894 56.4137 15.9894C55.7684 15.9894 55.4684 15.667 55.4684 15.0688C55.4692 14.9971 55.4741 14.9256 55.4829 14.8545L55.5511 14.4657L56.0944 11.4003C56.465 9.29349 55.9839 7.86039 54.7772 7.04785C53.9683 6.50455 52.8334 6.23894 51.4111 6.23894C49.5531 6.23894 47.5869 6.73516 46.1514 7.64307L46.3222 8.14773L46.9476 9.99676C47.9081 9.3273 49.2549 8.9162 50.4863 8.9162C52.2798 8.9162 52.9994 9.7396 52.7682 11.1576C52.7682 11.1739 52.7634 11.1896 52.7603 11.2059H50.0801C49.0086 11.2059 48.1073 11.3357 47.3593 11.5747C45.6335 12.1247 44.7304 13.2517 44.478 14.683C44.3241 15.5583 44.4943 16.3389 44.961 16.9419C45.0785 17.0954 45.2134 17.2348 45.363 17.3573C45.3745 17.3669 45.3854 17.376 45.3962 17.3862C46.2275 18.1197 47.3279 18.5241 48.557 18.5241C49.905 18.5241 51.0073 18.1493 51.8663 17.4919C52.0933 17.317 52.3044 17.1225 52.4971 16.9105C52.6731 17.3805 53.0051 17.7758 53.4377 18.0303C53.9665 18.3539 54.674 18.5241 55.539 18.5241C58.9739 18.5241 61.2545 14.6752 61.2545 10.458C61.2545 5.41071 57.7533 2 51.7371 2ZM47.7873 14.5321C47.9244 13.754 48.5244 13.1714 50.1006 13.1714H52.4114L52.2026 14.3582C52.0674 14.6079 51.8974 14.8372 51.6979 15.0392C51.1015 15.6392 50.2883 15.935 49.4402 15.935C48.8166 15.935 48.3536 15.7805 48.0711 15.5125C47.8175 15.2662 47.7173 14.9305 47.7873 14.5321Z" fill="white"/>
<path d="M7.19132 19.6312L7.08386 20.1685H8.028L7.94952 20.5464H7.01142L6.86353 21.2871H6.38965L6.79652 19.2539H8.33285L8.25437 19.6312H7.19132Z" fill="white"/>
<path d="M8.20557 21.0943L8.39753 20.7321C8.59349 20.871 8.82801 20.9451 9.06821 20.944C9.32657 20.944 9.49077 20.8541 9.49077 20.7056C9.49077 20.3802 8.48265 20.5547 8.48265 19.9069C8.48265 19.4886 8.84847 19.2188 9.4123 19.2188C9.68515 19.2188 9.93809 19.2791 10.115 19.3932L9.93809 19.7554C9.77347 19.6498 9.5813 19.5952 9.38573 19.5985C9.11288 19.5985 8.95291 19.7035 8.95291 19.8484C8.95291 20.1822 9.96103 20.0083 9.96103 20.6331C9.96103 21.0557 9.58917 21.3243 9.02293 21.3243C8.69031 21.3207 8.37701 21.2223 8.20557 21.0943Z" fill="white"/>
<path d="M12.2624 19.8865C12.2624 20.4039 11.8821 20.7262 11.2748 20.7262H10.822L10.7116 21.2871H10.2383L10.6445 19.2539H11.4667C11.975 19.2539 12.2624 19.4887 12.2624 19.8865ZM11.7861 19.9276C11.7861 19.7302 11.6466 19.6372 11.4088 19.6372H11.0399L10.8975 20.3429H11.2953C11.6062 20.3429 11.7861 20.1974 11.7861 19.93V19.9276Z" fill="white"/>
<path d="M13.9473 20.9019H14.8008L14.7254 21.2858H13.186L13.2464 20.9804L14.173 20.256C14.4024 20.0749 14.4718 19.9656 14.4718 19.8334C14.4718 19.7012 14.3704 19.6101 14.173 19.6101C14.0897 19.6113 14.0077 19.6309 13.9329 19.6675C13.858 19.7041 13.7922 19.7569 13.7402 19.822L13.4239 19.5926C13.5863 19.3686 13.8911 19.2207 14.2425 19.2207C14.6723 19.2207 14.9542 19.4501 14.9542 19.764C14.9542 20.0055 14.8437 20.2089 14.4869 20.4848L13.9473 20.9019Z" fill="white"/>
<path d="M16.846 20.049C16.846 20.6237 16.4911 21.3167 15.626 21.3167C15.4021 21.3167 15.1871 21.2678 15.0562 21.1802L15.2717 20.8349C15.3855 20.9056 15.5182 20.9399 15.652 20.9333C16.0528 20.9333 16.2647 20.672 16.3317 20.3611C16.2065 20.4725 16.0428 20.5309 15.8753 20.5241C15.5186 20.5241 15.2113 20.3146 15.2113 19.9373C15.2113 19.493 15.5596 19.2129 16.0275 19.2129C16.5056 19.2171 16.846 19.5014 16.846 20.049ZM16.3661 19.854C16.3661 19.7 16.2454 19.5666 16.0323 19.5666C15.8288 19.5666 15.6779 19.6916 15.6779 19.8981C15.6779 20.0719 15.8059 20.1739 15.9973 20.1739C16.2206 20.1757 16.3661 20.0417 16.3661 19.8558V19.854Z" fill="white"/>
<path d="M18.8617 20.8597H18.5279L18.444 21.2871H17.9846L18.0721 20.8597H16.9771L17.0374 20.5433L18.2339 19.2539H18.7482L17.6326 20.4763H18.1669L18.2429 20.096H18.6812L18.6057 20.4763H18.9378L18.8617 20.8597Z" fill="white"/>
<path d="M19.7225 20.9019H20.5767L20.5013 21.2858H18.9619L19.0223 20.9804L19.9489 20.256C20.1783 20.0749 20.2477 19.9656 20.2477 19.8334C20.2477 19.7012 20.1463 19.6101 19.9489 19.6101C19.8656 19.6111 19.7835 19.6307 19.7087 19.6673C19.6338 19.704 19.568 19.7568 19.5161 19.822L19.1992 19.5926C19.3621 19.3686 19.667 19.2207 20.0183 19.2207C20.4481 19.2207 20.7301 19.4501 20.7301 19.764C20.7301 20.0055 20.6196 20.2089 20.2622 20.4848L19.7225 20.9019Z" fill="white"/>
<path d="M22.5241 19.5588L21.9549 20.09C22.2368 20.154 22.3992 20.3399 22.3992 20.6043C22.3992 21.0196 22.0074 21.3215 21.4556 21.3215C21.1538 21.3215 20.8864 21.2376 20.7119 21.0866L20.9383 20.7407C21.0939 20.8652 21.2884 20.9311 21.4876 20.9267C21.7665 20.9267 21.9235 20.8192 21.9235 20.6333C21.9235 20.4854 21.813 20.4154 21.589 20.4154H21.3741L21.4345 20.1045L21.9398 19.6312H21.0808L21.1592 19.2539H22.5827L22.5241 19.5588Z" fill="white"/>
</svg>
