<svg width="107" height="32" viewBox="0 0 107 32" fill="none" xmlns="http://www.w3.org/2000/svg">
<path d="M88.8941 10.539C87.5885 10.539 86.3839 10.7249 85.6156 10.9312C85.1973 11.0455 85.0294 11.2675 85.0294 11.5994V12.7006C85.0294 13.1687 85.3073 13.3632 85.7641 13.2987C86.5826 13.1834 87.5657 13.053 88.6204 13.053C90.0878 13.053 90.3149 13.4613 90.3149 14.2519V14.6944C89.2498 14.6536 87.9589 14.6536 86.9516 14.8609C85.1542 15.2232 84.042 16.2684 84.042 18.4248C84.042 20.9004 85.4672 21.9542 88.72 21.9542C90.4719 21.9466 91.8999 21.8299 92.8725 21.6179C93.1927 21.5492 93.435 21.2186 93.435 20.7885V14.4269C93.435 12.3288 93.0641 10.539 88.8941 10.539ZM90.3149 19.4715C90.0712 19.5165 89.1298 19.5663 88.7841 19.5663C87.5543 19.5663 87.0673 19.1765 87.0673 18.1829C87.0673 17.3141 87.6634 16.9916 88.3928 16.8835C88.8988 16.8081 89.6776 16.82 90.3149 16.86V19.4715ZM74.5775 11.3443H70.6317V15.3446H74.5775C75.5909 15.3446 76.0809 14.9291 76.0809 13.3461C76.0809 11.7626 75.5909 11.3443 74.5775 11.3443ZM80.5767 6H65.415C64.4921 6 63.7381 6.75451 63.7381 7.6755V22.8387C63.7381 23.7582 64.4921 24.5094 65.415 24.5094H80.5767C81.4944 24.5094 82.2489 23.7582 82.2489 22.8387V7.6755C82.2489 6.75451 81.4944 6 80.5767 6ZM77.2612 17.732C76.6452 17.9757 75.8916 18.0032 74.9664 18.0032H70.6317V21.1703C70.6317 21.5311 70.3368 21.8257 69.9744 21.8257H68.0665C67.7108 21.8257 67.4154 21.5311 67.4154 21.1703V9.34011C67.4154 8.98018 67.7108 8.68235 68.0665 8.68235H74.9664C75.8916 8.68235 76.6452 8.71536 77.2612 8.95362C78.5872 9.48667 79.3238 10.9108 79.3238 13.3461C79.3238 15.7804 78.5872 17.2008 77.2612 17.732ZM105.374 20.9402C105.374 24.4108 103.95 26 100.302 26C98.9543 26 97.7066 25.8221 96.8216 25.5371C96.4104 25.4181 96.2411 25.1857 96.2411 24.8153V23.7265C96.2411 23.348 96.4792 23.0985 96.8814 23.1782C97.8384 23.366 98.997 23.4822 100.107 23.4822C101.877 23.4822 102.157 23.0544 102.157 21.6431C101.506 21.7593 100.807 21.8451 100.114 21.8451C96.8482 21.8451 95.5364 20.7866 95.5364 17.8614V11.3424C95.5364 10.9787 95.8262 10.6865 96.189 10.6865H98.0869C98.4502 10.6865 98.7428 10.9787 98.7428 11.3424V17.9098C98.7428 18.9584 99.3062 19.3657 100.604 19.3657C101.146 19.3657 101.727 19.242 102.16 19.1357L102.156 11.3424C102.156 10.9787 102.451 10.6865 102.811 10.6865H104.719C105.076 10.6865 105.372 10.9787 105.372 11.3424V20.9402H105.374ZM59.4238 14.5251V21.1731C59.4238 21.534 59.1284 21.8257 58.7665 21.8257H56.869C56.5081 21.8257 56.2189 21.534 56.2189 21.1731L56.2151 14.6247C56.2151 13.79 56.1022 13.2849 54.4869 13.2849C53.6475 13.2849 53.2083 13.3812 52.6241 13.4784V21.1731C52.6241 21.5349 52.3267 21.8257 51.9672 21.8257H50.0617C49.7013 21.8257 49.4072 21.5349 49.4072 21.1731V11.8536C49.4072 11.6497 49.4257 11.313 49.8673 11.1722C50.6398 10.9312 52.4543 10.5551 54.2839 10.5551C58.1125 10.5551 59.4238 12.0035 59.4238 14.5251Z" fill="white"/>
<path d="M45.4036 21.8257H42.9835C42.5775 21.8257 42.3048 21.5202 42.1768 21.3419L39.429 17.602V21.1555C39.429 21.5202 39.1188 21.8257 38.7456 21.8257H36.8975C36.5276 21.8257 36.216 21.5202 36.216 21.1555V7.66271C36.216 7.30134 36.5185 7.00586 36.8975 7.00586H38.7456C39.1231 7.00586 39.429 7.30134 39.429 7.66271V14.784L42.4651 11.0265C42.6657 10.7833 42.864 10.7007 43.1438 10.7007H45.3064C45.7967 10.7007 46.0443 11.0194 45.7 11.5022L41.8614 16.0099L45.7801 21.1361C46.0993 21.5762 45.8171 21.8257 45.4036 21.8257ZM31.3862 13.2271C32.2968 13.1902 33.314 13.3039 33.859 13.3551C34.3612 13.3964 34.5281 13.219 34.5281 12.7964V11.5791C34.5281 11.1418 34.3522 10.9312 33.9225 10.8212C33.6365 10.7467 32.7905 10.5613 31.3862 10.568C27.0331 10.5869 26.7685 14.5792 26.7063 15.3275C26.648 16.0099 26.6603 16.5733 26.7063 17.2188C26.7585 17.9667 27.0331 21.9599 31.3862 21.9779C32.7905 21.9821 33.6868 21.7887 33.9225 21.728C34.3536 21.6236 34.5281 21.4069 34.5281 20.9654V19.7504C34.5281 19.2856 34.3071 19.139 33.8077 19.1926C33.1485 19.2652 32.081 19.342 31.3862 19.3178C30.3822 19.2833 29.8734 18.707 29.7719 17.1429C29.7335 16.5733 29.7335 15.9701 29.7719 15.4038C29.8734 13.8369 30.3822 13.2693 31.3862 13.2271ZM24.9089 11.3391C24.9089 10.9768 24.6121 10.6865 24.2535 10.6865H22.3485C21.9881 10.6865 21.6935 10.9768 21.6935 11.3391V21.1731C21.6935 21.5349 21.9881 21.8257 22.3485 21.8257H24.2535C24.6121 21.8257 24.9089 21.5349 24.9089 21.1731V11.3391ZM19.7624 7.6755V22.8382C19.7624 23.7582 19.0107 24.5094 18.0921 24.5094H2.92565C2.0075 24.5094 1.25439 23.7582 1.25439 22.8382V7.6755C1.25439 6.75405 2.0075 6 2.92565 6H18.0921C19.0107 6 19.7624 6.75405 19.7624 7.6755ZM16.8387 13.3456C16.8387 10.9108 16.1017 9.48667 14.7747 8.95362C14.1615 8.71555 13.407 8.68185 12.4808 8.68185H5.58191C5.22338 8.68185 4.93077 8.98018 4.93077 9.34011V21.1703C4.93077 21.5311 5.22338 21.8257 5.58191 21.8257H7.49218C7.84882 21.8257 8.14712 21.5311 8.14712 21.1703V18.0032H12.4808C13.407 18.0032 14.1615 17.9759 14.7747 17.7315C16.1017 17.2008 16.8387 15.7804 16.8387 13.3456ZM13.5991 13.3456C13.5991 14.9291 13.1044 15.3446 12.0967 15.3446H8.14712V11.3443H12.0967C13.1044 11.3443 13.5991 11.7626 13.5991 13.3456Z" fill="white"/>
</svg>
