<svg width="123" height="32" viewBox="0 0 123 32" fill="none" xmlns="http://www.w3.org/2000/svg">
<path d="M16.4201 32C15.1612 32 13.875 31.987 12.3703 31.961L12.304 31.9597L12.2351 31.9571C8.77835 31.8179 5.81062 30.6475 3.65699 28.5719C2.54117 27.4964 1.66073 26.2674 1.0404 24.9214C0.349833 23.4219 0 21.8197 0 20.1603C0 17.5268 0.915549 14.9089 2.57888 12.7904C3.97562 11.01 5.85093 9.64058 7.93172 8.86548C8.03576 8.46883 8.16191 8.07608 8.30627 7.69113C8.83167 6.2996 9.60156 5.04072 10.5964 3.947C11.6602 2.77656 12.9373 1.8454 14.3913 1.17955C15.8778 0.49809 17.5099 0.117045 19.2395 0.0442169C19.272 0.0429164 19.3696 0.0403154 19.3696 0.0403154C20.6805 0.013005 21.9277 0 23.1839 0C24.4376 0 25.7238 0.013005 27.2337 0.0390149L27.3 0.0403154L27.365 0.0429164C30.8257 0.182069 33.7934 1.35252 35.947 3.42811C37.0628 4.50492 37.9433 5.73259 38.5636 7.0786C39.2542 8.57807 39.604 10.1803 39.604 11.8397C39.604 14.4732 38.6885 17.0911 37.0251 19.2096C35.6284 20.99 33.7531 22.3594 31.6723 23.1345C31.5682 23.5312 31.4421 23.9239 31.2977 24.3089C30.7723 25.7004 30.0024 26.9606 29.0076 28.053C27.9438 29.2234 26.6667 30.1546 25.2127 30.8205C23.7249 31.5019 22.0928 31.883 20.3632 31.9558C20.3202 31.9571 20.2344 31.9597 20.2344 31.9597C18.9261 31.987 17.6776 32 16.4201 32Z" fill="white"/>
<path d="M49.0884 14.4277C49.0884 13.5772 49.9064 12.9556 51.281 12.9556C52.7857 12.9556 54.0953 13.4458 55.1422 14.6904L57.3999 12.3339C56.2216 10.6979 53.9965 9.74854 51.1822 9.74854C47.1897 9.74854 45.1609 12.04 45.1609 14.429C45.1609 20.0576 53.5712 18.6829 53.5712 21.4972C53.5712 22.4791 52.7857 23.1332 51.2472 23.1332C49.3823 23.1332 47.8763 22.4791 46.6656 21.137L44.4404 23.6898C45.7825 25.2608 48.0402 26.3403 51.0183 26.3403C55.2723 26.3403 57.5299 24.0826 57.5299 21.4322C57.5312 15.5735 49.0884 17.177 49.0884 14.4277Z" fill="white"/>
<path d="M65.7413 10.2062V6.14868H61.7488V10.2062H58.967V13.741H61.7163V20.5153C61.7163 24.3439 63.7451 26.3402 66.9196 26.3402C68.8508 26.3402 70.323 25.621 71.206 24.7692L69.4061 21.791C69.0134 22.2488 68.2929 22.5765 67.5737 22.5765C66.3955 22.5765 65.7738 21.8574 65.7738 20.3839V13.741H73.0501V25.8824H77.0426V10.2062H73.0501H65.7413Z" fill="white"/>
<path d="M75.0137 3.39941C73.7379 3.39941 72.6897 4.47883 72.6897 5.75591C72.6897 7.06551 73.7366 8.0799 75.0137 8.0799C76.3233 8.0799 77.3702 7.06551 77.3702 5.75591C77.3702 4.48013 76.322 3.39941 75.0137 3.39941Z" fill="white"/>
<path d="M87.7561 22.5765C86.5778 22.5765 85.9562 21.8574 85.9562 20.3839V13.741H90.1776V10.2062H85.9237V6.14868H81.9312V10.2062H79.1494V13.741H81.8987V20.5153C81.8987 24.3439 83.9274 26.3402 87.1019 26.3402C89.0332 26.3402 90.5053 25.621 91.3884 24.7692L89.5885 21.791C89.1957 22.2488 88.4753 22.5765 87.7561 22.5765Z" fill="white"/>
<path d="M100.452 13.5109C101.99 13.5109 103.168 14.0025 104.15 14.9505L106.44 12.1037C105.066 10.6641 102.938 9.74854 100.255 9.74854C95.6735 9.74854 92.0737 13.4797 92.0737 18.0613C92.0737 22.6104 95.6735 26.3403 100.32 26.3403C102.807 26.3403 105.066 25.3584 106.309 23.9838L104.28 21.0381C103.298 22.02 102.023 22.5766 100.419 22.5766C97.8661 22.5766 96.0663 20.5478 96.0663 18.0275C96.0663 15.5071 97.8336 13.5109 100.452 13.5109Z" fill="white"/>
<path d="M116.986 9.74848C115.055 9.74848 113.55 10.469 112.568 11.7447V3.36694H108.576V25.8811H112.568V16.9805C112.568 14.8529 113.779 13.5121 115.775 13.5121C117.706 13.5121 118.95 14.8542 118.95 16.9805V25.8811H122.942V16.3901C122.941 12.3013 120.618 9.74848 116.986 9.74848Z" fill="white"/>
<path d="M36.4372 8.05788C35.9391 6.97717 35.2278 5.98619 34.3226 5.11356C32.5891 3.44242 30.1493 2.49826 27.27 2.38122L27.231 2.37991L27.192 2.37861C25.7003 2.3526 24.4271 2.3396 23.1839 2.3396C21.9432 2.3396 20.7103 2.3526 19.4163 2.37861H19.4072C19.3838 2.37861 19.3591 2.37991 19.3357 2.38122C17.9104 2.44104 16.5748 2.75186 15.3653 3.30587C14.2 3.83907 13.1779 4.58426 12.3273 5.51931C11.5327 6.39325 10.9163 7.40243 10.4949 8.51566C10.2283 9.22053 10.0489 9.9475 9.95653 10.6849L9.49355 10.8136C7.5194 11.3637 5.71691 12.5784 4.41901 14.2326C3.0795 15.9428 2.34082 18.047 2.34082 20.159C2.34082 21.479 2.61913 22.7509 3.16664 23.9408C3.66473 25.0216 4.3761 26.0125 5.28124 26.8852C7.0148 28.5563 9.45453 29.5005 12.3338 29.6175L12.3728 29.6188L12.4119 29.6201C13.9035 29.6461 15.1767 29.6591 16.42 29.6591C17.6607 29.6591 18.8935 29.6461 20.1875 29.6201H20.1966C20.22 29.6201 20.2434 29.6188 20.2669 29.6175C21.6922 29.5577 23.0291 29.2469 24.2399 28.6929C25.4051 28.1597 26.4273 27.4145 27.2778 26.4794C28.0724 25.6055 28.6889 24.5963 29.1102 23.4831C29.3768 22.7782 29.5563 22.0512 29.6486 21.3138L30.1116 21.1851C32.0858 20.635 33.8883 19.4203 35.1862 17.7661C36.527 16.0572 37.2656 13.953 37.2656 11.841C37.2643 10.521 36.986 9.24784 36.4372 8.05788ZM29.1909 17.8883C29.0764 17.0963 28.1856 14.8725 26.7381 13.8516C26.7251 13.8425 26.7316 13.8217 26.7485 13.8217C26.8929 13.823 27.0333 13.823 27.1764 13.8204C28.629 13.8204 29.4145 12.8554 29.4145 11.9412C29.4145 11.5211 29.2702 11.0503 28.9295 10.681C28.6004 10.3259 28.0243 10.0737 27.3689 10.0619C24.9577 10.0216 22.1708 10.0177 19.761 10.0619C19.1055 10.0737 18.5294 10.3259 18.2004 10.681C17.8596 11.049 17.7153 11.5211 17.7153 11.9412C17.7153 12.3989 17.9494 12.8541 18.2433 13.1662C18.77 13.7267 19.8169 13.9322 20.4281 14.0519C22.6286 14.4849 23.7574 15.1196 24.712 16.1314C25.6106 17.0495 26.2973 18.4566 26.2973 20.159V20.1603C26.2973 22.9915 24.2178 26.0307 20.1238 26.1998C20.1238 26.1998 20.1225 26.1998 20.1199 26.1998C17.4344 26.2544 15.152 26.2466 12.4743 26.1998C10.4897 26.1192 8.81859 25.5405 7.65855 24.4233C6.49851 23.3062 5.76503 21.8626 5.76503 20.1603C5.76503 17.3304 7.81461 14.8387 10.4156 14.113C10.53 14.905 11.4209 17.1288 12.8683 18.1497C12.8813 18.1588 12.8748 18.1796 12.8579 18.1796C12.7136 18.1783 12.5731 18.1783 12.4301 18.1809C10.9774 18.1809 10.1919 19.1459 10.1919 20.0602C10.1919 20.4802 10.3363 20.951 10.677 21.3203C11.006 21.6754 11.5821 21.9277 12.2376 21.9394C14.6487 21.9797 17.4357 21.9836 19.8455 21.9394C20.5009 21.9277 21.0771 21.6754 21.4061 21.3203C21.7468 20.9523 21.8912 20.4802 21.8912 20.0602C21.8912 19.6024 21.6571 19.1472 21.3632 18.8351C20.8365 18.2746 19.7896 18.0691 19.1783 17.9495C16.9779 17.5164 15.8491 16.8817 14.8945 15.87C13.9959 14.9518 13.3092 13.5447 13.3092 11.8423V11.841C13.3092 9.00985 15.3887 5.97058 19.4827 5.80152C19.4827 5.80152 19.484 5.80152 19.4866 5.80152C22.1721 5.7469 24.4545 5.7547 27.1322 5.80152C29.1167 5.88215 30.7879 6.46087 31.9479 7.578C33.108 8.69642 33.8414 10.1387 33.8414 11.841C33.8414 14.6709 31.7932 17.1627 29.1909 17.8883Z" fill="black"/>
</svg>
