<svg width="184" height="32" viewBox="0 0 184 32" fill="none" xmlns="http://www.w3.org/2000/svg">
<path d="M17.3391 23C14.374 23 12.54 21.1659 12.54 18.2314V9.33625H13.9766V18.1397C13.9766 20.4017 15.1994 21.6856 17.3391 21.6856C19.5094 21.6856 20.7015 20.4323 20.7015 18.1397V9.33625H22.1382V18.2314C22.1382 21.1659 20.3042 23 17.3391 23ZM25.3784 22.8472V9.33625H29.3828C32.1339 9.33625 33.9068 10.9563 33.9068 13.4323C33.9068 15.9694 32.1644 17.5284 29.3828 17.5284H26.8151V22.8472H25.3784ZM29.3216 16.214C31.3391 16.214 32.4395 15.2358 32.4395 13.4323C32.4395 11.6288 31.3391 10.6201 29.3216 10.6201H26.8151V16.214H29.3216ZM37.147 22.8472V9.33625H45.3697V10.6507H38.5836V15.3886H44.636V16.6725H38.5836V21.5328H45.6448V22.8472H37.147ZM56.4963 22.8472L53.1033 17.3755H50.2299V22.8472H48.7932V9.33625H52.8587C55.6098 9.33625 57.4133 10.9258 57.4133 13.4017C57.4133 15.2664 56.3435 16.6419 54.5705 17.1616L58.1164 22.8472H56.4963ZM52.7976 16.0917C54.8456 16.0917 55.9155 15.1441 55.9155 13.3712C55.9155 11.5983 54.8151 10.5895 52.7976 10.5895H50.2299V16.0611H52.7976V16.0917ZM61.3871 22.8472V9.33625H65.9723C68.3871 9.33625 69.8544 10.6812 69.8544 12.821C69.8544 14.2576 69.2125 15.2969 68.0509 15.7555C69.671 16.2445 70.5269 17.3755 70.5269 19.0873C70.5269 21.4105 68.8762 22.8472 66.2474 22.8472H61.3871ZM66.1251 21.5633C68.0203 21.5633 69.0596 20.6463 69.0596 19.0262C69.0596 17.4061 67.9592 16.4585 66.064 16.4585H62.7932V21.5939C62.8238 21.5633 66.1251 21.5633 66.1251 21.5633ZM66.0946 15.2052C67.6229 15.2052 68.4483 14.3799 68.4483 12.8821C68.4483 11.4148 67.5007 10.5895 65.85 10.5895H62.8238V15.2052H66.0946ZM5.08145 23C3.00285 23 1.35219 22.0218 0.404591 20.2795L0.374023 20.2183L1.59673 19.5764L1.6273 19.6376C2.33036 20.952 3.55306 21.6856 5.05088 21.6856C6.79324 21.6856 7.89368 20.8297 7.89368 19.4541C7.89368 18.048 7.06835 17.4061 5.41769 16.6725L4.34782 16.1528C2.36092 15.2052 1.19935 14.3188 1.19935 12.4236C1.19935 10.4978 2.6666 9.15284 4.77577 9.15284C6.51813 9.15284 7.6797 9.76419 8.5356 11.1397L8.56616 11.2009L7.43516 11.9039L7.40459 11.8428C6.82381 10.8646 5.99848 10.4061 4.77577 10.4061C3.49193 10.4061 2.60546 11.2009 2.60546 12.3624C2.60546 13.6157 3.30852 14.0742 4.92861 14.8384L5.99848 15.3581C8.10765 16.3362 9.33036 17.345 9.33036 19.4236C9.33036 21.6245 7.71027 23 5.08145 23ZM84.6797 22.7249C84.0684 22.7249 83.6404 22.2052 83.4264 21.7162L82.4177 18.9956H76.7932L75.7845 21.7162C75.6011 22.2052 75.1426 22.7249 74.5312 22.7249C74.1339 22.7249 73.7365 22.4498 73.7365 22.0218C73.7365 21.6856 73.9505 21.4105 74.2867 21.3188C74.3784 21.2882 74.4395 21.2271 74.4701 21.1354L78.7802 9.55021C78.9024 9.21397 79.1775 9.03057 79.5749 9.03057C79.9417 9.03057 80.2474 9.21397 80.3697 9.55021L84.6797 21.1354C84.7103 21.2271 84.7714 21.2882 84.8631 21.3188C85.1994 21.4105 85.4133 21.6856 85.4133 22.0218C85.4745 22.4498 85.0771 22.7249 84.6797 22.7249ZM81.9592 17.5895L80.0334 12.5764L79.6361 11.262L79.2387 12.5764L77.3129 17.5895H81.9592ZM89.4177 22.7249C89.0203 22.7249 88.6841 22.4192 88.6841 22.0218C88.6841 21.7467 88.8369 21.5022 89.112 21.3799C89.112 21.3799 89.2037 21.3493 89.2037 21.1965V10.5895C89.2037 10.4672 89.112 10.4061 89.112 10.4061C88.8675 10.3144 88.6841 10.0393 88.6841 9.76419C88.6841 9.36681 89.0203 9.06113 89.4177 9.06113C90.1208 9.06113 90.5793 9.64192 90.5793 10.4978V21.0131C90.5793 21.1048 90.5793 21.1965 90.5487 21.2882H96.9679C97.3347 21.2882 97.671 21.5939 97.671 21.9607C97.671 22.3581 97.3653 22.6638 96.9679 22.6638C96.9679 22.7249 89.4177 22.7249 89.4177 22.7249ZM101.553 22.7249C101.186 22.7249 100.85 22.3887 100.85 22.0218V9.79476C100.85 9.42795 101.186 9.0917 101.553 9.0917C101.95 9.0917 102.256 9.39738 102.256 9.79476V22.0218C102.256 22.4192 101.95 22.7249 101.553 22.7249ZM109.623 22.8166C108.339 22.8166 106.902 22.3886 105.833 21.6856C105.619 21.5328 105.496 21.3188 105.496 21.0742C105.496 20.738 105.741 20.4017 106.169 20.4017C106.413 20.4017 106.597 20.4935 106.719 20.5852C107.453 21.1048 108.553 21.4105 109.623 21.4105C111.243 21.4105 112.985 20.738 112.985 19.3013C112.985 17.8646 111.457 17.2227 109.44 16.5502C107.728 15.9694 105.435 14.9301 105.435 12.607C105.435 10.2533 107.728 9 109.867 9C111.182 9 112.435 9.42795 113.383 10.2227C113.597 10.3755 113.688 10.5895 113.688 10.8035C113.688 11.1703 113.352 11.476 112.985 11.476C112.833 11.476 112.68 11.4148 112.527 11.3231C111.854 10.7729 110.815 10.4061 109.898 10.4061C108.4 10.4061 106.78 11.1092 106.78 12.6681C106.78 14.0742 108.523 14.7773 110.143 15.3275C111.793 15.9083 114.33 16.7642 114.33 19.3013C114.392 21.7162 111.916 22.8166 109.623 22.8166ZM123.44 22.7249C123.042 22.7249 122.736 22.4192 122.736 22.0218V10.4978H118.274C117.876 10.4978 117.571 10.1921 117.571 9.79476C117.571 9.39738 117.876 9.0917 118.274 9.0917H128.544C128.942 9.0917 129.247 9.39738 129.247 9.79476C129.247 10.1921 128.942 10.4978 128.544 10.4978H124.112V21.9913C124.143 22.3886 123.806 22.7249 123.44 22.7249ZM133.557 22.7249C132.946 22.7249 132.488 22.2664 132.488 21.655C132.488 21.0742 132.946 20.5852 133.557 20.5852C134.138 20.5852 134.627 21.0742 134.627 21.655C134.627 22.2664 134.138 22.7249 133.557 22.7249ZM145.143 22.8472C141.322 22.8472 138.234 19.7598 138.234 15.9389C138.234 12.179 141.383 9 145.081 9C146.274 9 147.405 9.2751 148.444 9.82532C148.658 9.94759 148.811 10.1921 148.811 10.4672C148.811 10.8646 148.505 11.1703 148.108 11.1703C147.985 11.1703 147.894 11.1397 147.802 11.0786C146.946 10.6201 146.06 10.3755 145.143 10.3755C142.116 10.3755 139.64 12.8515 139.64 15.9083C139.64 18.9039 142.178 21.4105 145.173 21.4105C146.243 21.4105 147.282 21.1048 148.138 20.5546C148.291 20.4629 148.444 20.4323 148.536 20.4323C148.902 20.4323 149.239 20.738 149.239 21.1354C149.239 21.3799 149.116 21.6245 148.902 21.7467C147.741 22.4498 146.457 22.8472 145.143 22.8472ZM159.326 22.8166C155.536 22.8166 152.418 19.7293 152.418 15.9083C152.418 12.1179 155.505 9 159.326 9C163.116 9 166.234 12.0873 166.234 15.9083C166.204 19.7293 163.116 22.8166 159.326 22.8166ZM159.326 10.4367C156.3 10.4367 153.824 12.9127 153.824 15.9389C153.824 18.9651 156.3 21.441 159.326 21.441C162.352 21.441 164.828 18.9651 164.828 15.9389C164.828 12.8821 162.352 10.4367 159.326 10.4367ZM182.955 22.7249C182.252 22.7249 181.793 22.1441 181.793 21.2882V14.0742L181.854 12.7904L181.121 14.1354L177.178 20.952C177.055 21.1965 176.841 21.3188 176.566 21.3188C176.291 21.3188 176.077 21.1965 175.955 20.952L171.981 14.1354L171.278 12.821L171.339 14.1048V21.3188C171.339 22.1747 170.881 22.7555 170.178 22.7555C169.78 22.7555 169.444 22.4498 169.444 22.0524C169.444 21.7773 169.627 21.5328 169.872 21.4105C169.872 21.4105 169.964 21.3799 169.964 21.2271V10.6201C169.964 10.4978 169.872 10.4367 169.872 10.4367C169.627 10.345 169.444 10.0699 169.444 9.79476C169.444 9.39738 169.78 9.0917 170.178 9.0917C170.605 9.0917 170.942 9.30567 171.156 9.70305C171.186 9.73362 171.186 9.79475 176.566 19.1485C181.946 9.76419 181.977 9.73362 181.977 9.70305C182.191 9.33624 182.527 9.0917 182.955 9.0917C183.352 9.0917 183.688 9.39738 183.688 9.79476C183.688 10.0699 183.536 10.3144 183.261 10.4367C183.261 10.4367 183.169 10.4672 183.169 10.6201V21.2271C183.169 21.3493 183.261 21.4105 183.261 21.4105C183.505 21.5022 183.658 21.7773 183.658 22.0524C183.688 22.4192 183.352 22.7249 182.955 22.7249Z" fill="white"/>
</svg>
