<svg width="105" height="32" viewBox="0 0 105 32" fill="none" xmlns="http://www.w3.org/2000/svg">
<path d="M96.239 15.8739C95.7006 15.8739 95.1655 15.8201 94.6405 15.7124C93.6242 15.5037 92.6618 15.0999 91.8036 14.5177C90.5282 13.6562 89.5287 12.4414 88.9297 11.0246C88.7278 10.5433 88.573 10.0453 88.4687 9.53377C88.2533 8.48045 88.2533 7.3901 88.4687 6.33678C88.6773 5.32047 89.0811 4.35801 89.6633 3.49987C90.5248 2.22443 91.7363 1.22495 93.1531 0.622572C93.6343 0.420657 94.1324 0.265855 94.6439 0.161532C95.7006 -0.0538441 96.7876 -0.0538441 97.8443 0.161532C98.8606 0.370178 99.823 0.774009 100.681 1.3562C101.957 2.2177 102.956 3.4292 103.555 4.84597C103.757 5.3272 103.912 5.82526 104.016 6.33678C104.232 7.3901 104.232 8.48045 104.016 9.53377C103.807 10.5501 103.404 11.5125 102.821 12.3707C101.96 13.6461 100.748 14.6456 99.3283 15.248C98.8471 15.4499 98.3491 15.6047 97.8375 15.7124C97.3126 15.8201 96.7775 15.8739 96.239 15.8739ZM96.239 3.19699C95.9193 3.19699 95.5996 3.23065 95.2833 3.29459C94.6776 3.4191 94.0987 3.6614 93.5872 4.00802C92.8267 4.5229 92.2276 5.24643 91.8709 6.09448C91.7498 6.38053 91.6556 6.68003 91.595 6.98627C91.4671 7.61557 91.4671 8.26843 91.595 8.89774C91.7195 9.50348 91.9618 10.0789 92.3084 10.5938C92.8233 11.3577 93.5468 11.9534 94.3949 12.3135C94.6809 12.4346 94.9804 12.5288 95.2833 12.5894C95.9126 12.7173 96.5621 12.7173 97.1948 12.5894C97.8005 12.4649 98.376 12.2226 98.8909 11.876C99.6514 11.3611 100.25 10.6376 100.607 9.78953C100.728 9.50348 100.823 9.20398 100.883 8.89774C101.011 8.26843 101.011 7.61557 100.883 6.98627C100.759 6.38053 100.516 5.8017 100.17 5.28682C99.6548 4.52627 98.9312 3.92725 98.0832 3.57054C97.7972 3.44939 97.4976 3.35516 97.1948 3.29459C96.8784 3.22728 96.5587 3.19699 96.239 3.19699Z" fill="white"/>
<path d="M6.57178 12.4299H7.83375V15.0649H7.8775C8.49334 13.2779 10.2399 12.1304 12.1245 12.2784V13.6515C9.64089 13.5202 7.9448 15.3509 7.9448 17.683V23.6766H6.57178V12.4299Z" fill="white"/>
<path d="M22.1694 12.4336H23.6939L27.2241 22.3005H27.2678L30.7508 12.4336H32.1676L27.9644 23.6736H26.5039L22.1694 12.4336Z" fill="white"/>
<path d="M33.4531 17.2653C33.6718 15.2192 34.9103 13.2573 37.1549 13.2573C39.376 13.2573 40.6648 15.1956 40.7254 17.2653H33.4531ZM42.1018 18.4196C42.2129 15.2596 40.7725 12.0996 37.1582 12.0996C33.5843 12.0996 32.0801 15.0846 32.0801 18.0494C32.0801 21.2531 33.5843 23.9958 37.1582 23.9958C39.9918 23.9958 41.4691 22.5151 42.0581 19.9642H40.685C40.2476 21.6637 39.1572 22.8415 37.1549 22.8415C34.5165 22.8415 33.4733 20.4219 33.4531 18.4196H42.1018Z" fill="white"/>
<path d="M43.9766 8.11523H45.3462V23.6728H43.9766V8.11523Z" fill="white"/>
<path d="M54.7148 15.7212C54.6475 14.0217 53.3418 13.2612 51.7736 13.2612C50.5553 13.2612 49.1184 13.739 49.1184 15.1996C49.1184 16.4211 50.5116 16.8553 51.4505 17.0942L53.2812 17.5081C54.8494 17.7471 56.4849 18.6624 56.4849 20.6243C56.4849 23.0642 54.0653 23.9997 51.9721 23.9997C49.3573 23.9997 47.5737 22.7781 47.355 20.0354H48.728C48.8391 21.8863 50.2087 22.8454 52.0394 22.8454C53.3249 22.8454 55.1085 22.2801 55.1085 20.7118C55.1085 19.4028 53.8903 18.9686 52.6485 18.6624L50.8818 18.272C49.0948 17.7908 47.7454 17.1817 47.7454 15.2635C47.7454 12.9751 49.9866 12.1035 51.9721 12.1035C54.2167 12.1035 56.0037 13.2814 56.0912 15.7212H54.7148Z" fill="white"/>
<path d="M71.2285 19.3119C71.2486 21.5128 69.3978 22.842 67.3079 22.842C66.0224 22.842 64.8008 21.994 64.8008 20.621C64.8008 18.4201 67.6983 18.4437 70.0271 18.0264C70.3972 17.9624 71.0097 17.8547 71.1847 17.5283H71.2285V19.3119ZM71.2285 21.9637V23.6733H72.5947V15.7212C72.5947 12.716 70.4443 12.1035 68.4656 12.1035C65.8945 12.1035 64.0403 13.2376 63.909 15.8726H65.2787C65.3224 14.0453 66.5878 13.2578 68.2872 13.2578C69.8992 13.2578 71.2285 13.7155 71.2285 15.5664C71.2285 16.8081 70.5958 16.9596 69.4651 17.0908C66.5003 17.4408 63.4312 17.5485 63.4312 20.7085C63.4312 22.9699 65.1306 23.9963 67.2002 23.9963C69.2901 23.9963 70.2761 23.219 71.2083 21.8392C71.2083 21.8426 71.2285 21.8358 71.2285 21.9637Z" fill="white"/>
<path d="M20.2816 19.3119C20.3018 21.5128 18.4509 22.842 16.3577 22.842C15.0722 22.842 13.8539 21.994 13.8539 20.621C13.8539 18.4201 16.7514 18.4437 19.0835 18.0264C19.4537 17.9624 20.0628 17.8547 20.2378 17.5283H20.2816V19.3119ZM20.2816 21.9637V23.6733H21.6445V15.7212C21.6445 12.716 19.4941 12.1035 17.512 12.1035C14.9409 12.1035 13.09 13.2376 12.9588 15.8726H14.3318C14.3722 14.0453 15.6375 13.2578 17.337 13.2578C18.9489 13.2578 20.2782 13.7155 20.2782 15.5664C20.2782 16.8081 19.6455 16.9596 18.5148 17.0908C15.5534 17.4408 12.4775 17.5485 12.4775 20.7085C12.4775 22.9699 14.177 23.9963 16.2466 23.9963C18.3398 23.9963 19.3225 23.219 20.2546 21.8392C20.258 21.8426 20.2816 21.8358 20.2816 21.9637Z" fill="white"/>
<path d="M74.9062 12.4299H76.175V15.0649H76.2187C76.8345 13.2746 78.5811 12.1304 80.469 12.2785V13.6515C77.9855 13.5203 76.286 15.351 76.286 17.6831V23.6766H74.9096L74.9062 12.4299Z" fill="white"/>
<path d="M82.751 9.05078H84.124V12.4295H86.409V13.5838H84.124V21.1657C84.124 22.0575 84.2519 22.5791 85.2345 22.6464C85.6283 22.6464 86.022 22.6229 86.4124 22.5791V23.7536C85.9984 23.7536 85.6047 23.7973 85.1942 23.7973C83.3635 23.7973 82.7308 23.1882 82.7543 21.27L82.751 9.05078Z" fill="white"/>
<path d="M58.373 9.05078H59.7494V12.4295H62.0344V13.5838H59.7494V21.1657C59.7494 22.0575 59.8773 22.5791 60.86 22.6464C61.2537 22.6464 61.6441 22.6229 62.0344 22.5791V23.7536C61.6205 23.7536 61.2301 23.7973 60.8128 23.7973C58.9821 23.7973 58.3528 23.1882 58.373 21.27V9.05078Z" fill="white"/>
<path d="M0.689108 9.05078H2.06213V12.4295H4.34714V13.5838H2.06213V21.1657C2.06213 22.0575 2.19001 22.5791 3.17267 22.6464C3.5664 22.6464 3.95677 22.6262 4.34714 22.5791V23.7536C3.93658 23.7536 3.54285 23.7973 3.12892 23.7973C1.29822 23.7973 0.665551 23.1882 0.689108 21.27V9.05078Z" fill="white"/>
</svg>
