<svg width="1343" height="698" viewBox="0 0 1343 698" fill="none" xmlns="http://www.w3.org/2000/svg">
<path d="M1342.23 232.715V0.5L1341.73 0H671.033L670.533 0.5V438.426L661.382 232.524L660.384 232.568L669.7 442.21L651.062 232.5L650.066 232.59L668.688 442.12L640.742 232.479L639.75 232.611L667.663 441.991L630.42 232.457L629.436 232.632L666.614 441.803L620.098 232.437L619.121 232.653L665.539 441.577L609.774 232.416L608.808 232.674L664.435 441.322L599.45 232.397L598.495 232.693L663.301 441.041L589.125 232.377L588.184 232.712L662.126 440.72L578.799 232.36L577.871 232.73L660.896 440.334L568.474 232.342L567.56 232.748L659.616 439.917L558.148 232.325L557.249 232.765L658.287 439.475L547.82 232.311L546.937 232.781L656.907 439.017L537.493 232.296L536.628 232.796L655.464 438.516L527.167 232.282L526.317 232.81L653.952 437.98L516.84 232.27L516.008 232.824L652.393 437.444L506.512 232.257L505.697 232.837L650.747 436.854L496.185 232.246L495.387 232.848L649.025 436.236L485.86 232.233L485.079 232.858L647.253 435.62L475.533 232.223L474.769 232.869L645.402 434.977L465.206 232.214L464.458 232.878L643.476 434.316L454.88 232.205L454.15 232.887L641.476 433.64L444.553 232.196L443.838 232.896L639.396 432.94L434.226 232.19L433.526 232.904L637.236 432.227L423.9 232.181L423.217 232.911L634.987 431.487L413.575 232.174L412.905 232.917L632.667 430.744L403.249 232.168L402.595 232.924L630.265 429.988L392.924 232.162L392.284 232.93L627.77 429.212L382.598 232.156L381.971 232.936L625.213 428.439L372.273 232.151L371.659 232.941L622.582 427.664L361.946 232.146L361.346 232.946L619.836 426.853L351.622 232.141L351.034 232.951L616.985 426.021L341.298 232.137L340.722 232.955L614.11 425.222L330.972 232.132L330.409 232.959L611.133 424.402L320.65 232.13L320.098 232.964L608.05 423.56L310.325 232.125L309.785 232.966L604.933 422.745L300.001 232.122L299.471 232.97L601.691 421.897L289.677 232.119L289.157 232.973L598.331 421.023L279.354 232.116L278.844 232.976L594.91 420.161L269.03 232.113L268.53 232.979L591.427 419.305L258.707 232.11L258.216 232.981L587.849 418.44L248.384 232.106L247.904 232.983L584.132 417.54L238.06 232.105L237.588 232.987L580.395 416.67L227.738 232.103L227.275 232.989L576.563 415.794L217.416 232.101L216.961 232.991L572.601 414.891L207.093 232.1L206.646 232.994L568.566 413.993L196.77 232.097L196.331 232.995L564.446 413.09L186.448 232.095L186.017 232.997L560.278 412.203L176.126 232.093L175.702 232.999L555.982 411.292L165.805 232.092L165.387 233L551.564 410.365L155.482 232.09L155.072 233.002L547.118 409.46L145.16 232.088L144.756 233.003L542.586 408.554L134.836 232.087L134.44 233.005L537.94 407.633L124.516 232.086L124.125 233.006L533.235 406.72L114.195 232.083L113.81 233.006L528.405 405.79L103.874 232.082L103.495 233.008L523.496 404.863L93.553 232.082L93.18 233.01L518.544 403.95L83.231 232.081L82.864 233.011L513.465 403.021L72.91 232.08L72.549 233.012L508.289 402.085L62.587 232.079L62.231 233.013L503.003 401.14L52.268 232.078L51.916 233.014L497.638 400.195L41.946 232.077L41.601 233.015L492.18 399.248L31.626 232.076L31.284 233.016L486.71 398.326L21.305 232.076L20.969 233.016L481.15 397.403L10.984 232.074L10.652 233.018L475.404 396.44L0.664 232.073L0.336 233.019L668.23 464.26H0.5L0 464.76V696.976L0.5 697.476H671.202L671.702 696.976V259.05L680.853 464.952L681.851 464.908L672.535 255.264L691.172 464.974L692.168 464.885L673.547 255.355L701.493 464.995L702.485 464.864L674.572 255.484L711.815 465.017L712.799 464.842L675.621 255.672L722.137 465.038L723.114 464.821L676.696 255.9L732.46 465.06L733.427 464.803L677.8 256.154L742.786 465.079L743.741 464.782L678.935 256.435L753.111 465.098L754.052 464.763L680.11 256.755L763.437 465.116L764.365 464.746L681.34 257.142L773.762 465.134L774.676 464.728L682.62 257.558L784.087 465.15L784.986 464.71L683.948 258L794.414 465.166L795.296 464.696L685.327 258.46L804.741 465.18L805.606 464.68L686.77 258.96L815.067 465.195L815.917 464.666L688.282 259.496L825.394 465.208L826.226 464.653L689.841 260.033L835.722 465.22L836.537 464.641L691.487 260.623L846.048 465.232L846.848 464.629L693.208 261.242L856.375 465.243L857.157 464.618L694.982 261.858L866.702 465.253L867.466 464.608L696.832 262.499L877.03 465.263L877.778 464.599L698.759 263.16L887.356 465.27L888.086 464.588L700.758 263.837L897.682 465.28L898.397 464.581L702.839 264.536L908.009 465.288L908.709 464.573L704.999 265.25L918.335 465.295L919.019 464.565L707.249 265.99L928.66 465.302L929.33 464.559L709.568 266.732L938.986 465.308L939.64 464.553L711.97 267.488L949.311 465.315L949.951 464.546L714.463 268.265L959.637 465.32L960.264 464.541L717.022 269.037L969.962 465.326L970.576 464.536L719.653 269.813L980.288 465.33L980.888 464.53L722.4 270.624L990.614 465.336L991.202 464.526L725.25 271.458L1000.94 465.341L1001.51 464.523L728.125 272.255L1011.26 465.345L1011.83 464.519L731.1 273.075L1021.58 465.348L1022.14 464.514L734.183 273.915L1031.91 465.351L1032.45 464.511L737.301 274.731L1042.23 465.355L1042.76 464.507L740.543 275.58L1052.56 465.358L1053.08 464.503L743.903 276.453L1062.88 465.36L1063.39 464.5L747.323 277.315L1073.2 465.363L1073.7 464.497L750.808 278.17L1083.53 465.365L1084.02 464.495L754.387 279.037L1093.85 465.368L1094.33 464.491L758.103 279.936L1104.17 465.371L1104.65 464.489L761.84 280.805L1114.5 465.373L1114.96 464.488L765.672 281.683L1124.82 465.376L1125.27 464.486L769.634 282.586L1135.14 465.378L1135.59 464.483L773.669 283.485L1145.46 465.38L1145.9 464.482L777.789 284.387L1155.79 465.382L1156.22 464.48L781.956 285.274L1166.11 465.384L1166.53 464.478L786.253 286.184L1176.43 465.384L1176.85 464.476L790.67 287.112L1186.75 465.387L1187.16 464.475L795.117 288.017L1197.07 465.388L1197.48 464.473L799.647 288.923L1207.4 465.39L1207.79 464.472L804.294 289.844L1217.72 465.391L1218.11 464.471L809 290.755L1228.04 465.392L1228.42 464.469L813.83 291.685L1238.36 465.394L1238.74 464.468L818.739 292.613L1248.68 465.395L1249.06 464.467L823.691 293.525L1259 465.395L1259.37 464.465L828.769 294.455L1269.32 465.397L1269.69 464.464L833.946 295.392L1279.65 465.398L1280 464.463L839.232 296.337L1289.97 465.4L1290.32 464.463L844.597 297.283L1300.29 465.4L1300.63 464.461L850.055 298.23L1310.61 465.402L1310.95 464.462L855.525 299.15L1320.93 465.4L1321.27 464.459L861.083 300.073L1331.25 465.401L1331.58 464.458L866.832 301.034L1341.57 465.402L1341.9 464.457L674.005 233.214H1341.73L1342.23 232.715ZM1168.14 2.908L701.98 10.718L701.494 11.148L673.456 211.765L692.127 8.141L1168.14 2.908ZM691.665 7.146L691.172 7.6L672.505 211.182L681.831 4.57L1162.57 1.97L691.665 7.146ZM671.533 1H1156.89L681.35 3.573L680.853 4.05L671.533 210.547V1ZM1 465.261H486.36L10.815 467.834L10.318 468.311L1 674.807V465.261ZM11.297 468.831L492.017 466.231L21.131 471.406L20.639 471.86L1.973 675.443L11.297 468.832V468.831ZM21.594 472.401L497.628 467.169L31.446 474.979L30.96 475.409L2.923 676.027L21.593 472.402L21.594 472.401ZM31.891 475.971L503.101 468.078L41.76 478.55L41.281 478.957L3.858 676.555L31.891 475.971ZM42.19 479.542L508.524 468.955L52.077 482.125L51.606 482.507L4.786 677.03L42.19 479.542ZM52.488 483.112L513.815 469.802L62.393 485.697L61.931 486.055L5.713 677.453L52.488 483.113V483.112ZM62.788 486.683L519.041 470.619L72.709 489.269L72.258 489.605L6.646 677.827L62.788 486.683ZM73.09 490.254L524.138 471.407L83.023 492.842L82.585 493.153L7.592 678.15L73.09 490.254ZM83.392 493.825L529.175 472.164L93.339 496.415L92.913 496.704L8.557 678.432L83.392 493.825ZM93.693 497.397L534.106 472.891L103.653 499.988L103.243 500.254L9.55 678.668L93.693 497.396V497.397ZM103.996 500.968L538.929 473.588L113.968 503.561L113.572 503.806L10.576 678.864L103.996 500.968ZM114.301 504.54L543.681 474.256L124.282 507.133L123.903 507.358L11.642 679.025L114.301 504.54ZM124.606 508.111L548.309 474.897L134.597 510.707L134.234 510.912L12.754 679.152L124.606 508.112V508.111ZM134.911 511.683L552.879 475.505L144.912 514.279L144.567 514.466L13.915 679.252L134.911 511.682V511.683ZM145.219 515.254L557.325 476.087L155.225 517.852L154.899 518.022L15.136 679.322L145.219 515.254ZM155.525 518.826L561.7 476.638L165.54 521.425L165.232 521.579L16.415 679.373L155.525 518.826ZM165.834 522.398L565.972 477.161L175.854 525L175.564 525.138L17.76 679.405L165.834 522.398ZM176.143 525.97L570.139 477.658L186.167 528.571L185.897 528.696L19.174 679.422L176.143 525.97ZM186.453 529.542L574.223 478.125L196.481 532.145L196.23 532.256L20.656 679.427L186.451 529.542H186.453ZM196.763 533.114L578.205 478.565L206.793 535.718L206.562 535.818L22.218 679.423L196.763 533.113V533.114ZM207.074 536.686L582.112 478.976L217.106 539.292L216.895 539.38L23.855 679.417L207.074 536.686ZM217.387 540.259L585.899 479.364L227.419 542.864L227.227 542.943L25.577 679.403L217.387 540.259ZM227.699 543.831L589.616 479.721L237.732 546.439L237.558 546.507L27.374 679.395L227.699 543.831ZM238.012 547.403L593.227 480.054L248.044 550.012L247.889 550.072L29.257 679.387L238.012 547.403ZM248.325 550.976L596.743 480.362L258.356 553.586L258.22 553.637L31.228 679.382L248.325 550.976ZM258.64 554.548L600.174 480.643L268.668 557.16L268.55 557.204L33.28 679.389L258.64 554.548ZM268.954 558.121L603.501 480.901L278.979 560.734L278.879 560.77L35.427 679.401L268.954 558.121ZM279.27 561.692L606.825 481.112L289.209 564.338L37.654 679.428L279.27 561.692ZM289.544 565.276L609.934 481.331L299.539 567.905L39.933 679.485L289.544 565.276ZM299.871 568.846L612.963 481.523L309.867 571.474L42.357 679.53L299.87 568.846H299.871ZM310.197 572.417L615.902 481.694L320.195 575.043L44.872 679.593L310.197 572.417ZM320.524 575.987L618.767 481.838L330.523 578.612L47.473 679.674L320.525 575.986L320.524 575.987ZM330.851 579.557L621.542 481.961L340.851 582.181L50.161 679.776L330.851 579.557ZM341.178 583.126L624.228 482.065L351.178 585.751L52.94 679.898L341.178 583.126ZM351.506 586.695L626.833 482.145L361.503 589.321L55.795 680.045L351.505 586.695H351.506ZM361.834 590.264L629.346 482.208L371.83 592.89L58.744 680.213L361.834 590.264ZM372.164 593.832L631.77 482.253L382.156 596.461L61.766 680.407L372.162 593.832H372.164ZM382.492 597.4L634.044 482.312L392.432 600.045L64.882 680.624L382.492 597.4ZM392.722 601.003L392.822 600.967L636.276 482.337L402.746 603.617L68.194 680.838L392.722 601.003ZM403.033 604.578L403.151 604.534L638.42 482.35L413.062 607.19L71.526 681.096L403.033 604.578ZM413.345 608.152L413.481 608.101L640.476 482.354L423.376 610.762L74.962 681.375L413.345 608.152ZM423.657 611.726L423.813 611.666L642.445 482.35L433.69 614.335L78.474 681.685L423.658 611.725L423.657 611.726ZM433.969 615.299L434.144 615.231L644.329 482.343L444.003 617.907L82.091 682.016L433.969 615.299ZM444.282 618.873L444.476 618.794L646.128 482.333L454.315 621.479L85.795 682.375L444.282 618.873ZM454.595 622.446L454.808 622.358L647.844 482.324L464.627 625.05L89.601 682.76L454.595 622.446ZM464.908 626.019L465.14 625.919L649.484 482.313L474.938 628.623L93.488 683.173L464.908 626.019ZM475.221 629.593L475.471 629.482L651.044 482.312L485.249 632.195L97.479 683.613L475.221 629.593ZM485.534 633.166L485.804 633.042L652.529 482.316L495.559 635.768L101.553 684.082L485.534 633.166ZM495.848 636.739L496.137 636.601L653.943 482.332L505.867 639.34L105.73 684.577L495.848 636.739ZM506.162 640.312L506.47 640.159L655.288 482.364L516.177 642.911L110.01 685.1L506.161 640.313L506.162 640.312ZM516.477 643.885L516.803 643.715L656.567 482.415L526.483 646.483L114.365 685.653L516.477 643.885ZM526.79 647.458L527.135 647.271L657.785 482.488L536.79 650.055L118.838 686.232L526.79 647.458ZM537.105 651.031L537.467 650.826L658.949 482.584L547.096 653.626L123.379 686.842L537.105 651.031ZM547.419 654.605L547.798 654.38L660.06 482.713L557.4 657.198L128.034 687.48L547.419 654.605ZM557.733 658.177L558.129 657.932L661.126 482.873L567.706 660.77L132.756 688.15L557.733 658.177ZM568.048 661.75L568.459 661.483L662.151 483.071L578.008 664.341L137.596 688.847L568.048 661.75ZM578.362 665.323L578.788 665.034L663.145 483.306L588.31 667.912L142.542 689.574L578.362 665.323ZM588.679 668.895L589.117 668.584L664.11 483.586L598.612 671.483L147.55 690.332L588.679 668.895ZM598.993 672.468L599.444 672.133L665.057 483.912L608.913 675.054L152.681 691.118L598.993 672.468ZM609.309 676.04L609.77 675.682L665.988 484.286L619.213 678.625L157.876 691.935L609.309 676.041V676.04ZM619.624 679.614L620.096 679.231L666.915 484.708L629.512 682.195L163.2 692.782L619.624 679.614ZM629.939 683.186L630.419 682.779L667.843 485.183L639.811 685.766L168.572 693.661L629.939 683.186ZM640.255 686.759L640.741 686.329L668.78 485.71L650.108 689.335L174.098 694.567L640.256 686.757L640.255 686.759ZM650.57 690.331L651.062 689.877L669.729 486.294L660.404 692.906L179.661 695.507L650.57 690.331ZM670.702 696.477H185.342L660.886 693.904L661.383 693.426L670.703 486.929L670.702 696.477ZM702.424 11.71L1173.66 3.816L712.295 14.29L711.815 14.697L674.392 212.294L702.424 11.71ZM712.724 15.281L1179.03 4.694L722.611 17.863L722.139 18.246L675.319 212.769L712.724 15.281ZM723.022 18.851L1184.36 5.541L732.926 21.436L732.464 21.794L676.247 213.19L723.022 18.851ZM733.322 22.422L1189.55 6.358L743.242 25.008L742.791 25.343L677.178 213.565L733.322 22.422ZM743.622 25.993L1194.69 7.145L753.556 28.581L753.118 28.892L678.124 213.89L743.622 25.993ZM753.924 29.564L1199.69 7.903L763.873 32.153L763.447 32.443L679.089 214.171L753.924 29.564ZM764.227 33.135L1204.64 8.63L774.187 35.727L773.776 35.993L680.084 214.406L764.227 33.136V33.135ZM774.53 36.707L1209.48 9.327L784.501 39.3L784.106 39.545L681.109 214.604L774.529 36.707H774.53ZM784.835 40.279L1214.2 9.996L794.816 42.872L794.437 43.097L682.175 214.763L784.835 40.279ZM795.139 43.85L1218.86 10.634L805.13 46.445L804.768 46.651L683.286 214.892L795.139 43.85ZM805.445 47.422L1223.4 11.245L815.445 50.018L815.1 50.205L684.45 214.989L805.445 47.422ZM815.751 50.993L1227.87 11.824L825.758 53.591L825.432 53.761L685.668 215.062L815.751 50.993ZM826.058 54.565L1232.22 12.377L836.073 57.164L835.765 57.317L686.947 215.112L826.058 54.565ZM836.368 58.137L1236.51 12.9L846.387 60.737L846.098 60.876L688.292 215.144L836.368 58.137ZM846.676 61.709L1240.68 13.395L856.701 64.31L856.431 64.434L689.706 215.16L846.676 61.709ZM856.986 65.281L1244.76 13.864L867.014 67.884L866.764 67.995L691.191 215.165L856.986 65.281ZM867.296 68.853L1248.75 14.303L877.326 71.457L877.096 71.557L692.75 215.163L867.296 68.853ZM877.608 72.425L1252.63 14.717L887.64 75.03L887.427 75.119L694.391 215.153L877.608 72.425ZM887.919 75.998L1256.44 15.1L897.953 78.604L897.759 78.682L696.107 215.143L887.919 75.998ZM898.232 79.57L1260.14 15.46L908.266 82.177L908.091 82.246L697.906 215.133L898.232 79.57ZM908.545 83.142L1263.76 15.792L918.578 85.751L918.422 85.811L699.79 215.125L908.545 83.142ZM918.859 86.714L1267.27 16.102L928.89 89.325L928.753 89.376L701.76 215.122L918.859 86.714ZM929.173 90.287L1270.71 16.38L939.201 92.899L939.082 92.942L703.815 215.126L929.172 90.286L929.173 90.287ZM939.489 93.859L1274.04 16.639L949.513 96.474L949.413 96.509L705.959 215.14L939.488 93.86L939.489 93.859ZM949.803 97.432L1277.35 16.853L959.743 100.077L708.19 215.165L949.803 97.432ZM960.078 101.015L1280.47 17.069L970.072 103.644L710.465 215.224L960.078 101.015ZM970.404 104.585L1283.49 17.264L980.401 107.213L712.889 215.269L970.404 104.585ZM980.731 108.155L1286.44 17.431L990.729 110.781L715.402 215.332L980.73 108.156L980.731 108.155ZM991.057 111.725L1289.3 17.578L1001.06 114.35L718.007 215.412L991.057 111.725ZM1001.38 115.295L1292.07 17.701L1011.38 117.92L720.693 215.515L1001.38 115.295ZM1011.71 118.865L1294.76 17.802L1021.71 121.49L723.468 215.638L1011.71 118.865ZM1022.04 122.434L1297.36 17.884L1032.04 125.059L726.332 215.783L1022.04 122.434ZM1032.37 126.002L1299.88 17.946L1042.36 128.63L729.272 215.953L1032.37 126.002ZM1042.7 129.572L1302.3 17.992L1052.69 132.2L732.3 216.145L1042.69 129.571L1042.7 129.572ZM1053.03 133.139L1304.58 18.049L1062.96 135.784L735.41 216.364L1053.03 133.139ZM1063.26 136.742L1063.35 136.707L1306.81 18.075L1073.28 139.356L738.734 216.576L1063.26 136.742ZM1073.57 140.316L1073.69 140.273L1308.95 18.087L1083.59 142.929L742.061 216.834L1073.57 140.316ZM1083.88 143.891L1084.02 143.839L1311.01 18.094L1093.91 146.501L745.492 217.115L1083.88 143.891ZM1094.19 147.464L1094.35 147.404L1312.98 18.09L1104.22 150.073L749.008 217.423L1094.19 147.464ZM1104.5 151.038L1104.68 150.97L1314.86 18.082L1114.54 153.646L752.619 217.756L1104.5 151.038ZM1114.81 154.612L1115.01 154.534L1316.66 18.074L1124.85 157.218L756.336 218.113L1114.81 154.612ZM1125.13 158.185L1125.34 158.097L1318.38 18.059L1135.16 160.79L760.123 218.5L1125.13 158.185ZM1135.44 161.759L1135.67 161.659L1320.02 18.052L1145.47 164.362L764.03 218.912L1135.44 161.759ZM1145.75 165.332L1146.01 165.22L1321.58 18.05L1155.78 167.935L768.011 219.352L1145.75 165.332ZM1156.07 168.905L1156.34 168.781L1323.06 18.055L1166.09 171.506L772.096 219.819L1156.07 168.905ZM1166.38 172.478L1166.67 172.339L1324.47 18.072L1176.4 175.079L776.263 220.315L1166.38 172.478ZM1176.7 176.051L1177 175.898L1325.82 18.104L1186.71 178.65L780.534 220.84L1176.69 176.052L1176.7 176.051ZM1187.01 179.625L1187.33 179.455L1327.1 18.155L1197.02 182.222L784.91 221.39L1187.01 179.625ZM1197.32 183.197L1197.67 183.01L1328.32 18.224L1207.32 185.794L789.356 221.972L1197.32 183.197ZM1207.64 186.77L1208 186.565L1329.48 18.325L1217.63 189.365L793.926 222.58L1207.64 186.77ZM1217.95 190.343L1218.33 190.119L1330.59 18.45L1227.93 192.936L798.553 223.219L1217.95 190.342L1217.95 190.343ZM1228.27 193.916L1228.66 193.671L1331.66 18.612L1238.24 196.508L803.306 223.888L1228.27 193.916ZM1238.58 197.489L1238.99 197.222L1332.69 18.808L1248.54 200.08L808.128 224.586L1238.58 197.489ZM1248.9 201.061L1249.32 200.773L1333.68 19.044L1258.84 203.651L813.06 225.313L1248.9 201.061ZM1259.21 204.635L1259.65 204.323L1334.64 19.327L1269.15 207.222L818.097 226.07L1259.21 204.635ZM1269.53 208.207L1269.98 207.872L1335.59 19.65L1279.45 210.793L823.195 226.857L1269.53 208.207ZM1279.84 211.78L1280.3 211.421L1336.52 20.023L1289.75 214.363L828.419 227.674L1279.84 211.78ZM1290.16 215.352L1290.63 214.97L1337.45 20.446L1300.05 217.935L833.711 228.522L1290.16 215.352ZM1300.47 218.925L1300.95 218.518L1338.38 20.922L1310.34 221.505L839.134 229.399L1300.47 218.925ZM1310.79 222.497L1311.28 222.067L1339.31 21.45L1320.64 225.075L844.607 230.308L1310.79 222.498V222.497ZM1321.1 226.07L1321.6 225.616L1340.26 22.033L1330.94 228.645L850.218 231.246L1321.1 226.07ZM1341.23 232.215H855.874L1331.42 229.643L1331.92 229.165L1341.23 22.67L1341.23 232.215Z" fill="#FF5B00"/>
</svg>
